%TF.GenerationSoftware,KiCad,Pcbnew,8.0.5*%
%TF.CreationDate,2024-12-04T20:04:43+01:00*%
%TF.ProjectId,DMH_Mixer_PANEL,444d485f-4d69-4786-9572-5f50414e454c,rev?*%
%TF.SameCoordinates,Original*%
%TF.FileFunction,Legend,Top*%
%TF.FilePolarity,Positive*%
%FSLAX46Y46*%
G04 Gerber Fmt 4.6, Leading zero omitted, Abs format (unit mm)*
G04 Created by KiCad (PCBNEW 8.0.5) date 2024-12-04 20:04:43*
%MOMM*%
%LPD*%
G01*
G04 APERTURE LIST*
%ADD10C,1.000000*%
%ADD11C,0.150000*%
%ADD12C,0.800000*%
%ADD13C,0.825000*%
%ADD14C,0.000000*%
%ADD15C,0.500000*%
%ADD16C,4.000000*%
%ADD17C,2.900000*%
%ADD18C,13.000000*%
%ADD19C,0.500000*%
%ADD20C,12.000000*%
%ADD21O,2.500000X1.500000*%
%ADD22C,2.600000*%
G04 APERTURE END LIST*
D10*
X75500000Y-165000000D02*
X65000000Y-165000000D01*
X75500000Y-94000000D02*
X65000000Y-94000000D01*
X75500000Y-58500000D02*
X65000000Y-58500000D01*
X75500000Y-129500000D02*
X65000000Y-129500000D01*
D11*
G36*
X54205112Y-50122500D02*
G01*
X54205112Y-49759433D01*
X53219959Y-49759433D01*
X53147058Y-49748865D01*
X53099762Y-49688644D01*
X53093929Y-49623511D01*
X53093929Y-48692213D01*
X52711811Y-48692213D01*
X52711811Y-49659781D01*
X52714906Y-49742728D01*
X52724589Y-49817441D01*
X52748785Y-49904280D01*
X52787182Y-49976549D01*
X52841200Y-50034287D01*
X52912260Y-50077534D01*
X53001784Y-50106326D01*
X53081898Y-50118459D01*
X53173797Y-50122500D01*
X54205112Y-50122500D01*
G37*
G36*
X54353490Y-48692213D02*
G01*
X54353490Y-50122500D01*
X54735608Y-50122500D01*
X54735608Y-48692213D01*
X54353490Y-48692213D01*
G37*
G36*
X56709945Y-48692213D02*
G01*
X56338085Y-48692213D01*
X56338085Y-49616917D01*
X56308776Y-49655019D01*
X56272872Y-49638166D01*
X55580077Y-48802489D01*
X55522190Y-48746911D01*
X55453152Y-48703065D01*
X55376102Y-48677865D01*
X55298062Y-48669193D01*
X55273430Y-48668766D01*
X55187977Y-48675650D01*
X55112213Y-48697218D01*
X55048102Y-48734846D01*
X54997605Y-48789910D01*
X54962685Y-48863783D01*
X54947283Y-48937349D01*
X54943702Y-49001425D01*
X54943702Y-50122500D01*
X55317394Y-50122500D01*
X55317394Y-49159328D01*
X55352931Y-49119028D01*
X55386637Y-49138079D01*
X56165894Y-50040800D01*
X56228157Y-50092213D01*
X56302331Y-50126255D01*
X56378896Y-50142365D01*
X56443231Y-50145947D01*
X56519270Y-50136181D01*
X56588479Y-50105993D01*
X56646193Y-50054051D01*
X56687745Y-49979022D01*
X56706661Y-49897900D01*
X56709945Y-49840765D01*
X56709945Y-48692213D01*
G37*
G36*
X57118441Y-48692213D02*
G01*
X57039833Y-48701282D01*
X56973595Y-48733978D01*
X56929208Y-48799478D01*
X56916574Y-48883456D01*
X56916574Y-49925396D01*
X56926224Y-50002539D01*
X56960746Y-50067211D01*
X57029248Y-50110301D01*
X57104033Y-50122309D01*
X57116243Y-50122500D01*
X58409875Y-50122500D01*
X58409875Y-49759433D01*
X57330566Y-49759433D01*
X57296860Y-49719132D01*
X57296860Y-49536317D01*
X58403647Y-49536317D01*
X58403647Y-49263375D01*
X57296860Y-49263375D01*
X57296860Y-49103640D01*
X57330566Y-49068469D01*
X58409875Y-49068469D01*
X58409875Y-48692213D01*
X57118441Y-48692213D01*
G37*
G36*
X59456578Y-49477698D02*
G01*
X59459606Y-49579272D01*
X59468829Y-49681247D01*
X59484450Y-49783058D01*
X59506674Y-49884139D01*
X59535706Y-49983926D01*
X59571751Y-50081854D01*
X59615013Y-50177357D01*
X59665697Y-50269870D01*
X59724008Y-50358828D01*
X59790149Y-50443666D01*
X59838695Y-50497657D01*
X60118231Y-50497657D01*
X60054339Y-50419136D01*
X59994110Y-50339274D01*
X59938117Y-50257312D01*
X59886932Y-50172488D01*
X59841128Y-50084042D01*
X59801277Y-49991212D01*
X59767952Y-49893238D01*
X59741723Y-49789360D01*
X59728464Y-49716452D01*
X59718783Y-49640356D01*
X59712850Y-49560846D01*
X59710834Y-49477698D01*
X59712850Y-49394893D01*
X59718783Y-49315597D01*
X59728464Y-49239604D01*
X59741723Y-49166707D01*
X59767952Y-49062709D01*
X59801277Y-48964506D01*
X59841128Y-48871398D01*
X59886932Y-48782683D01*
X59938117Y-48697661D01*
X59994110Y-48615630D01*
X60054339Y-48535891D01*
X60118231Y-48457740D01*
X59838695Y-48457740D01*
X59767219Y-48539103D01*
X59703711Y-48625143D01*
X59647965Y-48715262D01*
X59599778Y-48808862D01*
X59558945Y-48905345D01*
X59525260Y-49004114D01*
X59498520Y-49104572D01*
X59478519Y-49206119D01*
X59465054Y-49308160D01*
X59457919Y-49410095D01*
X59456578Y-49477698D01*
G37*
G36*
X61155037Y-48669776D02*
G01*
X61239135Y-48681160D01*
X61314091Y-48705262D01*
X61380199Y-48742156D01*
X61437752Y-48791918D01*
X61487044Y-48854625D01*
X61528367Y-48930350D01*
X62040911Y-50058019D01*
X62063992Y-50122500D01*
X61635346Y-50122500D01*
X61618859Y-50073040D01*
X61543022Y-49896453D01*
X60702949Y-49896453D01*
X60629676Y-50070842D01*
X60614655Y-50122500D01*
X60175751Y-50122500D01*
X60198832Y-50058019D01*
X60412943Y-49583211D01*
X60841801Y-49583211D01*
X61404536Y-49583211D01*
X61186183Y-49076896D01*
X61183640Y-49071270D01*
X61120970Y-49032932D01*
X61118607Y-49032964D01*
X61057956Y-49076896D01*
X60841801Y-49583211D01*
X60412943Y-49583211D01*
X60707345Y-48930350D01*
X60722890Y-48898493D01*
X60766939Y-48827984D01*
X60818912Y-48770464D01*
X60879444Y-48725858D01*
X60949173Y-48694090D01*
X61028737Y-48675084D01*
X61118772Y-48668766D01*
X61155037Y-48669776D01*
G37*
G36*
X63503437Y-49748808D02*
G01*
X62760084Y-49748808D01*
X62678050Y-49742880D01*
X62598642Y-49722492D01*
X62533154Y-49689065D01*
X62474320Y-49637800D01*
X62429738Y-49576036D01*
X62399820Y-49504506D01*
X62386780Y-49425891D01*
X62386393Y-49409555D01*
X62395535Y-49330595D01*
X62421625Y-49257552D01*
X62462658Y-49193215D01*
X62491173Y-49162259D01*
X62554826Y-49115018D01*
X62625893Y-49085420D01*
X62703430Y-49071069D01*
X62760084Y-49068469D01*
X63503437Y-49068469D01*
X63503437Y-48692213D01*
X62760084Y-48692213D01*
X62676953Y-48695509D01*
X62599176Y-48705185D01*
X62526576Y-48720923D01*
X62442840Y-48748636D01*
X62366575Y-48784705D01*
X62297438Y-48828508D01*
X62235084Y-48879426D01*
X62173113Y-48944561D01*
X62119637Y-49017440D01*
X62075480Y-49097165D01*
X62047415Y-49165271D01*
X62026260Y-49236725D01*
X62012436Y-49311067D01*
X62006364Y-49387838D01*
X62006106Y-49407356D01*
X62011083Y-49494935D01*
X62025632Y-49579003D01*
X62049184Y-49658950D01*
X62081168Y-49734161D01*
X62121015Y-49804026D01*
X62168153Y-49867933D01*
X62188922Y-49891690D01*
X62254087Y-49954515D01*
X62327814Y-50008536D01*
X62393123Y-50044906D01*
X62464191Y-50074771D01*
X62541143Y-50097746D01*
X62624104Y-50113443D01*
X62713198Y-50121477D01*
X62760084Y-50122500D01*
X63503437Y-50122500D01*
X63503437Y-49748808D01*
G37*
G36*
X64257415Y-49477698D02*
G01*
X64254386Y-49376165D01*
X64245164Y-49274128D01*
X64229543Y-49172186D01*
X64207318Y-49070935D01*
X64178286Y-48970974D01*
X64142241Y-48872901D01*
X64098979Y-48777312D01*
X64048295Y-48684806D01*
X63989985Y-48595980D01*
X63923843Y-48511433D01*
X63875297Y-48457740D01*
X63595761Y-48457740D01*
X63659176Y-48535891D01*
X63718999Y-48615630D01*
X63774653Y-48697661D01*
X63825559Y-48782683D01*
X63871141Y-48871398D01*
X63910819Y-48964506D01*
X63944017Y-49062709D01*
X63970157Y-49166707D01*
X63983376Y-49239604D01*
X63993031Y-49315597D01*
X63998949Y-49394893D01*
X64000960Y-49477698D01*
X63998969Y-49560846D01*
X63993106Y-49640356D01*
X63983533Y-49716452D01*
X63970414Y-49789360D01*
X63944443Y-49893238D01*
X63911411Y-49991212D01*
X63871868Y-50084042D01*
X63826364Y-50172488D01*
X63775451Y-50257312D01*
X63719679Y-50339274D01*
X63659599Y-50419136D01*
X63595761Y-50497657D01*
X63875297Y-50497657D01*
X63946773Y-50415879D01*
X64010282Y-50329605D01*
X64066027Y-50239399D01*
X64114214Y-50145827D01*
X64155048Y-50049453D01*
X64188732Y-49950843D01*
X64215473Y-49850562D01*
X64235473Y-49749174D01*
X64248939Y-49647246D01*
X64256074Y-49545342D01*
X64257415Y-49477698D01*
G37*
D12*
G36*
X61636497Y-39592169D02*
G01*
X61960786Y-39558770D01*
X62290560Y-39437514D01*
X62558148Y-39221437D01*
X62689134Y-39021520D01*
X64583238Y-35102741D01*
X64704138Y-35030201D01*
X64850830Y-35196237D01*
X64850830Y-39489001D01*
X66459609Y-39489001D01*
X66459609Y-34907689D01*
X66437539Y-34539717D01*
X66372816Y-34223091D01*
X66246374Y-33911783D01*
X66039047Y-33622687D01*
X65877676Y-33473006D01*
X65590989Y-33286197D01*
X65289302Y-33164522D01*
X64949147Y-33099796D01*
X64786350Y-33092573D01*
X64437516Y-33126214D01*
X64077098Y-33249857D01*
X63772807Y-33455012D01*
X63516864Y-33731797D01*
X63334899Y-34010039D01*
X63206587Y-34259663D01*
X61792861Y-37333753D01*
X61636497Y-37453041D01*
X61478520Y-37333753D01*
X60064794Y-34259663D01*
X59902127Y-33951235D01*
X59714888Y-33681111D01*
X59451427Y-33415578D01*
X59138321Y-33223322D01*
X58767793Y-33114225D01*
X58485031Y-33092573D01*
X58128676Y-33127982D01*
X57809547Y-33225887D01*
X57502021Y-33392790D01*
X57393705Y-33473006D01*
X57147044Y-33723471D01*
X56964308Y-34038013D01*
X56861012Y-34375305D01*
X56817336Y-34716966D01*
X56811772Y-34907689D01*
X56811772Y-39489001D01*
X58420551Y-39489001D01*
X58420551Y-35204297D01*
X58567243Y-35038261D01*
X58688143Y-35110801D01*
X60582247Y-39045700D01*
X60793948Y-39313375D01*
X61085409Y-39490174D01*
X61430807Y-39579325D01*
X61636497Y-39592169D01*
G37*
G36*
X67368779Y-33195742D02*
G01*
X67368779Y-39489001D01*
X69050097Y-39489001D01*
X69050097Y-33195742D01*
X67368779Y-33195742D01*
G37*
G36*
X76165478Y-33195742D02*
G01*
X75989769Y-33400466D01*
X74243970Y-35096293D01*
X72590056Y-33400466D01*
X72432079Y-33195742D01*
X70104347Y-33195742D01*
X70280056Y-33400466D01*
X73070432Y-36129587D01*
X69844815Y-39293948D01*
X69678779Y-39489001D01*
X71877550Y-39489001D01*
X72043587Y-39303620D01*
X74142414Y-37217689D01*
X76128402Y-39303620D01*
X76276706Y-39489001D01*
X78670530Y-39489001D01*
X78512554Y-39293948D01*
X75353028Y-36129587D01*
X78153077Y-33400466D01*
X78336846Y-33195742D01*
X76165478Y-33195742D01*
G37*
G36*
X79831172Y-33195742D02*
G01*
X79485296Y-33235645D01*
X79193849Y-33379505D01*
X78998547Y-33667706D01*
X78942959Y-34037207D01*
X78942959Y-38621743D01*
X78985420Y-38961175D01*
X79137315Y-39245730D01*
X79438725Y-39435326D01*
X79767780Y-39488164D01*
X79821500Y-39489001D01*
X85513482Y-39489001D01*
X85513482Y-37891506D01*
X80764522Y-37891506D01*
X80616217Y-37714185D01*
X80616217Y-36909796D01*
X85486078Y-36909796D01*
X85486078Y-35708854D01*
X80616217Y-35708854D01*
X80616217Y-35006021D01*
X80764522Y-34851268D01*
X85513482Y-34851268D01*
X85513482Y-33195742D01*
X79831172Y-33195742D01*
G37*
G36*
X91488263Y-33212343D02*
G01*
X91846129Y-33273773D01*
X92202175Y-33397434D01*
X92499646Y-33570818D01*
X92746538Y-33787347D01*
X92953832Y-34049776D01*
X93111254Y-34346510D01*
X93211249Y-34670749D01*
X93246259Y-35015693D01*
X93245820Y-35062155D01*
X93207803Y-35425491D01*
X93098699Y-35766139D01*
X92904758Y-36073067D01*
X92654654Y-36305295D01*
X92765584Y-36377988D01*
X93003665Y-36604548D01*
X93161120Y-36901419D01*
X93236082Y-37241430D01*
X93255931Y-37607793D01*
X93255931Y-38884499D01*
X93259502Y-39149016D01*
X93283335Y-39489001D01*
X91592344Y-39489001D01*
X91581236Y-39396751D01*
X91564940Y-39065044D01*
X91564940Y-37788338D01*
X91491736Y-37451716D01*
X91225537Y-37259455D01*
X90879839Y-37219301D01*
X87970174Y-37219301D01*
X87970174Y-39489001D01*
X86296915Y-39489001D01*
X86296915Y-34896405D01*
X87970174Y-34896405D01*
X87970174Y-35797514D01*
X90926587Y-35797514D01*
X91117450Y-35774432D01*
X91397292Y-35594402D01*
X91404163Y-35585736D01*
X91518192Y-35273613D01*
X91516004Y-35225326D01*
X91379560Y-34923809D01*
X91251963Y-34826644D01*
X90926587Y-34757772D01*
X88108806Y-34757772D01*
X87970174Y-34896405D01*
X86296915Y-34896405D01*
X86296915Y-33584234D01*
X86400889Y-33293268D01*
X86712812Y-33195742D01*
X91149044Y-33195742D01*
X91488263Y-33212343D01*
G37*
D11*
G36*
X54205112Y-85622500D02*
G01*
X54205112Y-85259433D01*
X53219959Y-85259433D01*
X53147058Y-85248865D01*
X53099762Y-85188644D01*
X53093929Y-85123511D01*
X53093929Y-84192213D01*
X52711811Y-84192213D01*
X52711811Y-85159781D01*
X52714906Y-85242728D01*
X52724589Y-85317441D01*
X52748785Y-85404280D01*
X52787182Y-85476549D01*
X52841200Y-85534287D01*
X52912260Y-85577534D01*
X53001784Y-85606326D01*
X53081898Y-85618459D01*
X53173797Y-85622500D01*
X54205112Y-85622500D01*
G37*
G36*
X54353490Y-84192213D02*
G01*
X54353490Y-85622500D01*
X54735608Y-85622500D01*
X54735608Y-84192213D01*
X54353490Y-84192213D01*
G37*
G36*
X56709945Y-84192213D02*
G01*
X56338085Y-84192213D01*
X56338085Y-85116917D01*
X56308776Y-85155019D01*
X56272872Y-85138166D01*
X55580077Y-84302489D01*
X55522190Y-84246911D01*
X55453152Y-84203065D01*
X55376102Y-84177865D01*
X55298062Y-84169193D01*
X55273430Y-84168766D01*
X55187977Y-84175650D01*
X55112213Y-84197218D01*
X55048102Y-84234846D01*
X54997605Y-84289910D01*
X54962685Y-84363783D01*
X54947283Y-84437349D01*
X54943702Y-84501425D01*
X54943702Y-85622500D01*
X55317394Y-85622500D01*
X55317394Y-84659328D01*
X55352931Y-84619028D01*
X55386637Y-84638079D01*
X56165894Y-85540800D01*
X56228157Y-85592213D01*
X56302331Y-85626255D01*
X56378896Y-85642365D01*
X56443231Y-85645947D01*
X56519270Y-85636181D01*
X56588479Y-85605993D01*
X56646193Y-85554051D01*
X56687745Y-85479022D01*
X56706661Y-85397900D01*
X56709945Y-85340765D01*
X56709945Y-84192213D01*
G37*
G36*
X57118441Y-84192213D02*
G01*
X57039833Y-84201282D01*
X56973595Y-84233978D01*
X56929208Y-84299478D01*
X56916574Y-84383456D01*
X56916574Y-85425396D01*
X56926224Y-85502539D01*
X56960746Y-85567211D01*
X57029248Y-85610301D01*
X57104033Y-85622309D01*
X57116243Y-85622500D01*
X58409875Y-85622500D01*
X58409875Y-85259433D01*
X57330566Y-85259433D01*
X57296860Y-85219132D01*
X57296860Y-85036317D01*
X58403647Y-85036317D01*
X58403647Y-84763375D01*
X57296860Y-84763375D01*
X57296860Y-84603640D01*
X57330566Y-84568469D01*
X58409875Y-84568469D01*
X58409875Y-84192213D01*
X57118441Y-84192213D01*
G37*
G36*
X59456578Y-84977698D02*
G01*
X59459606Y-85079272D01*
X59468829Y-85181247D01*
X59484450Y-85283058D01*
X59506674Y-85384139D01*
X59535706Y-85483926D01*
X59571751Y-85581854D01*
X59615013Y-85677357D01*
X59665697Y-85769870D01*
X59724008Y-85858828D01*
X59790149Y-85943666D01*
X59838695Y-85997657D01*
X60118231Y-85997657D01*
X60054339Y-85919136D01*
X59994110Y-85839274D01*
X59938117Y-85757312D01*
X59886932Y-85672488D01*
X59841128Y-85584042D01*
X59801277Y-85491212D01*
X59767952Y-85393238D01*
X59741723Y-85289360D01*
X59728464Y-85216452D01*
X59718783Y-85140356D01*
X59712850Y-85060846D01*
X59710834Y-84977698D01*
X59712850Y-84894893D01*
X59718783Y-84815597D01*
X59728464Y-84739604D01*
X59741723Y-84666707D01*
X59767952Y-84562709D01*
X59801277Y-84464506D01*
X59841128Y-84371398D01*
X59886932Y-84282683D01*
X59938117Y-84197661D01*
X59994110Y-84115630D01*
X60054339Y-84035891D01*
X60118231Y-83957740D01*
X59838695Y-83957740D01*
X59767219Y-84039103D01*
X59703711Y-84125143D01*
X59647965Y-84215262D01*
X59599778Y-84308862D01*
X59558945Y-84405345D01*
X59525260Y-84504114D01*
X59498520Y-84604572D01*
X59478519Y-84706119D01*
X59465054Y-84808160D01*
X59457919Y-84910095D01*
X59456578Y-84977698D01*
G37*
G36*
X61155037Y-84169776D02*
G01*
X61239135Y-84181160D01*
X61314091Y-84205262D01*
X61380199Y-84242156D01*
X61437752Y-84291918D01*
X61487044Y-84354625D01*
X61528367Y-84430350D01*
X62040911Y-85558019D01*
X62063992Y-85622500D01*
X61635346Y-85622500D01*
X61618859Y-85573040D01*
X61543022Y-85396453D01*
X60702949Y-85396453D01*
X60629676Y-85570842D01*
X60614655Y-85622500D01*
X60175751Y-85622500D01*
X60198832Y-85558019D01*
X60412943Y-85083211D01*
X60841801Y-85083211D01*
X61404536Y-85083211D01*
X61186183Y-84576896D01*
X61183640Y-84571270D01*
X61120970Y-84532932D01*
X61118607Y-84532964D01*
X61057956Y-84576896D01*
X60841801Y-85083211D01*
X60412943Y-85083211D01*
X60707345Y-84430350D01*
X60722890Y-84398493D01*
X60766939Y-84327984D01*
X60818912Y-84270464D01*
X60879444Y-84225858D01*
X60949173Y-84194090D01*
X61028737Y-84175084D01*
X61118772Y-84168766D01*
X61155037Y-84169776D01*
G37*
G36*
X63503437Y-85248808D02*
G01*
X62760084Y-85248808D01*
X62678050Y-85242880D01*
X62598642Y-85222492D01*
X62533154Y-85189065D01*
X62474320Y-85137800D01*
X62429738Y-85076036D01*
X62399820Y-85004506D01*
X62386780Y-84925891D01*
X62386393Y-84909555D01*
X62395535Y-84830595D01*
X62421625Y-84757552D01*
X62462658Y-84693215D01*
X62491173Y-84662259D01*
X62554826Y-84615018D01*
X62625893Y-84585420D01*
X62703430Y-84571069D01*
X62760084Y-84568469D01*
X63503437Y-84568469D01*
X63503437Y-84192213D01*
X62760084Y-84192213D01*
X62676953Y-84195509D01*
X62599176Y-84205185D01*
X62526576Y-84220923D01*
X62442840Y-84248636D01*
X62366575Y-84284705D01*
X62297438Y-84328508D01*
X62235084Y-84379426D01*
X62173113Y-84444561D01*
X62119637Y-84517440D01*
X62075480Y-84597165D01*
X62047415Y-84665271D01*
X62026260Y-84736725D01*
X62012436Y-84811067D01*
X62006364Y-84887838D01*
X62006106Y-84907356D01*
X62011083Y-84994935D01*
X62025632Y-85079003D01*
X62049184Y-85158950D01*
X62081168Y-85234161D01*
X62121015Y-85304026D01*
X62168153Y-85367933D01*
X62188922Y-85391690D01*
X62254087Y-85454515D01*
X62327814Y-85508536D01*
X62393123Y-85544906D01*
X62464191Y-85574771D01*
X62541143Y-85597746D01*
X62624104Y-85613443D01*
X62713198Y-85621477D01*
X62760084Y-85622500D01*
X63503437Y-85622500D01*
X63503437Y-85248808D01*
G37*
G36*
X64257415Y-84977698D02*
G01*
X64254386Y-84876165D01*
X64245164Y-84774128D01*
X64229543Y-84672186D01*
X64207318Y-84570935D01*
X64178286Y-84470974D01*
X64142241Y-84372901D01*
X64098979Y-84277312D01*
X64048295Y-84184806D01*
X63989985Y-84095980D01*
X63923843Y-84011433D01*
X63875297Y-83957740D01*
X63595761Y-83957740D01*
X63659176Y-84035891D01*
X63718999Y-84115630D01*
X63774653Y-84197661D01*
X63825559Y-84282683D01*
X63871141Y-84371398D01*
X63910819Y-84464506D01*
X63944017Y-84562709D01*
X63970157Y-84666707D01*
X63983376Y-84739604D01*
X63993031Y-84815597D01*
X63998949Y-84894893D01*
X64000960Y-84977698D01*
X63998969Y-85060846D01*
X63993106Y-85140356D01*
X63983533Y-85216452D01*
X63970414Y-85289360D01*
X63944443Y-85393238D01*
X63911411Y-85491212D01*
X63871868Y-85584042D01*
X63826364Y-85672488D01*
X63775451Y-85757312D01*
X63719679Y-85839274D01*
X63659599Y-85919136D01*
X63595761Y-85997657D01*
X63875297Y-85997657D01*
X63946773Y-85915879D01*
X64010282Y-85829605D01*
X64066027Y-85739399D01*
X64114214Y-85645827D01*
X64155048Y-85549453D01*
X64188732Y-85450843D01*
X64215473Y-85350562D01*
X64235473Y-85249174D01*
X64248939Y-85147246D01*
X64256074Y-85045342D01*
X64257415Y-84977698D01*
G37*
G36*
X52257519Y-137192213D02*
G01*
X52178911Y-137201282D01*
X52112673Y-137233978D01*
X52068286Y-137299478D01*
X52055652Y-137383456D01*
X52055652Y-138425396D01*
X52065303Y-138502539D01*
X52099824Y-138567211D01*
X52168327Y-138610301D01*
X52243112Y-138622309D01*
X52255321Y-138622500D01*
X53548953Y-138622500D01*
X53548953Y-138259433D01*
X52469644Y-138259433D01*
X52435939Y-138219132D01*
X52435939Y-138036317D01*
X53542725Y-138036317D01*
X53542725Y-137763375D01*
X52435939Y-137763375D01*
X52435939Y-137603640D01*
X52469644Y-137568469D01*
X53548953Y-137568469D01*
X53548953Y-137192213D01*
X52257519Y-137192213D01*
G37*
G36*
X54852844Y-138622500D02*
G01*
X54947567Y-138618869D01*
X55031265Y-138607826D01*
X55104311Y-138589147D01*
X55185779Y-138551975D01*
X55249857Y-138500296D01*
X55297429Y-138433578D01*
X55329381Y-138351287D01*
X55343624Y-138279030D01*
X55349952Y-138197490D01*
X55350366Y-138168208D01*
X55350366Y-137192213D01*
X54968248Y-137192213D01*
X54968248Y-138125710D01*
X54951795Y-138202765D01*
X54889423Y-138251367D01*
X54827565Y-138259433D01*
X54237352Y-138259433D01*
X54163773Y-138246349D01*
X54110924Y-138190298D01*
X54100698Y-138125710D01*
X54100698Y-137192213D01*
X53718580Y-137192213D01*
X53718580Y-138168208D01*
X53722352Y-138252893D01*
X53733918Y-138328219D01*
X53762110Y-138414486D01*
X53805714Y-138485047D01*
X53865617Y-138540436D01*
X53942709Y-138581185D01*
X54037877Y-138607826D01*
X54121652Y-138618869D01*
X54216469Y-138622500D01*
X54852844Y-138622500D01*
G37*
G36*
X56731352Y-137195987D02*
G01*
X56812685Y-137209948D01*
X56893605Y-137238052D01*
X56961212Y-137277458D01*
X57017324Y-137326669D01*
X57064436Y-137386312D01*
X57100214Y-137453752D01*
X57122940Y-137527442D01*
X57130897Y-137605839D01*
X57130797Y-137616398D01*
X57122157Y-137698975D01*
X57097360Y-137776395D01*
X57053283Y-137846151D01*
X56996441Y-137898930D01*
X57021652Y-137915451D01*
X57075762Y-137966942D01*
X57111547Y-138034413D01*
X57128584Y-138111688D01*
X57133095Y-138194952D01*
X57133095Y-138485113D01*
X57133906Y-138545230D01*
X57139323Y-138622500D01*
X56755007Y-138622500D01*
X56752482Y-138601534D01*
X56748779Y-138526146D01*
X56748779Y-138235985D01*
X56732141Y-138159480D01*
X56671642Y-138115785D01*
X56593074Y-138106659D01*
X55931786Y-138106659D01*
X55931786Y-138622500D01*
X55551500Y-138622500D01*
X55551500Y-137578728D01*
X55931786Y-137578728D01*
X55931786Y-137783525D01*
X56603699Y-137783525D01*
X56647076Y-137778279D01*
X56710677Y-137737363D01*
X56712238Y-137735394D01*
X56738154Y-137664457D01*
X56737657Y-137653482D01*
X56706647Y-137584956D01*
X56677648Y-137562873D01*
X56603699Y-137547220D01*
X55963294Y-137547220D01*
X55931786Y-137578728D01*
X55551500Y-137578728D01*
X55551500Y-137280507D01*
X55575131Y-137214378D01*
X55646022Y-137192213D01*
X56654257Y-137192213D01*
X56731352Y-137195987D01*
G37*
G36*
X58399216Y-137195509D02*
G01*
X58476993Y-137205185D01*
X58549593Y-137220923D01*
X58633329Y-137248636D01*
X58709594Y-137284705D01*
X58778732Y-137328508D01*
X58841085Y-137379426D01*
X58854120Y-137391790D01*
X58914458Y-137458547D01*
X58966135Y-137532866D01*
X59008330Y-137613853D01*
X59034707Y-137682839D01*
X59054069Y-137755058D01*
X59065994Y-137830050D01*
X59070063Y-137907356D01*
X59069257Y-137942770D01*
X59060383Y-138029018D01*
X59042165Y-138111511D01*
X59015172Y-138189637D01*
X58979974Y-138262783D01*
X58937142Y-138330338D01*
X58887247Y-138391690D01*
X58849162Y-138430399D01*
X58778889Y-138488032D01*
X58716413Y-138527510D01*
X58648240Y-138560676D01*
X58574245Y-138587144D01*
X58494304Y-138606528D01*
X58408292Y-138618442D01*
X58316085Y-138622500D01*
X58017865Y-138622500D01*
X57970979Y-138621477D01*
X57881885Y-138613443D01*
X57798924Y-138597746D01*
X57721972Y-138574771D01*
X57650903Y-138544906D01*
X57585594Y-138508536D01*
X57511868Y-138454515D01*
X57446703Y-138391690D01*
X57425933Y-138367933D01*
X57378795Y-138304026D01*
X57338949Y-138234161D01*
X57306965Y-138158950D01*
X57283413Y-138079003D01*
X57268863Y-137994935D01*
X57264012Y-137909555D01*
X57644173Y-137909555D01*
X57644561Y-137925891D01*
X57657600Y-138004506D01*
X57687518Y-138076036D01*
X57732101Y-138137800D01*
X57790934Y-138189065D01*
X57856423Y-138222492D01*
X57935831Y-138242880D01*
X58017865Y-138248808D01*
X58316085Y-138248808D01*
X58398119Y-138242880D01*
X58477527Y-138222492D01*
X58543016Y-138189065D01*
X58601849Y-138137800D01*
X58611833Y-138126357D01*
X58653659Y-138062426D01*
X58680378Y-137989264D01*
X58689777Y-137909555D01*
X58686932Y-137865123D01*
X58668222Y-137789107D01*
X58633624Y-137720556D01*
X58584997Y-137662259D01*
X58535354Y-137623338D01*
X58467546Y-137590831D01*
X58393599Y-137573519D01*
X58316085Y-137568469D01*
X58017865Y-137568469D01*
X57961211Y-137571069D01*
X57883674Y-137585420D01*
X57812607Y-137615018D01*
X57748953Y-137662259D01*
X57720438Y-137693215D01*
X57679406Y-137757552D01*
X57653315Y-137830595D01*
X57644173Y-137909555D01*
X57264012Y-137909555D01*
X57263887Y-137907356D01*
X57264145Y-137887838D01*
X57270217Y-137811067D01*
X57284041Y-137736725D01*
X57305196Y-137665271D01*
X57333260Y-137597165D01*
X57377418Y-137517440D01*
X57430893Y-137444561D01*
X57492865Y-137379426D01*
X57555218Y-137328508D01*
X57624356Y-137284705D01*
X57700620Y-137248636D01*
X57784357Y-137220923D01*
X57856956Y-137205185D01*
X57934734Y-137195509D01*
X58017865Y-137192213D01*
X58316085Y-137192213D01*
X58399216Y-137195509D01*
G37*
G36*
X60120429Y-137977698D02*
G01*
X60123458Y-138079272D01*
X60132680Y-138181247D01*
X60148302Y-138283058D01*
X60170526Y-138384139D01*
X60199558Y-138483926D01*
X60235603Y-138581854D01*
X60278865Y-138677357D01*
X60329549Y-138769870D01*
X60387859Y-138858828D01*
X60454001Y-138943666D01*
X60502547Y-138997657D01*
X60782083Y-138997657D01*
X60718191Y-138919136D01*
X60657962Y-138839274D01*
X60601969Y-138757312D01*
X60550784Y-138672488D01*
X60504980Y-138584042D01*
X60465129Y-138491212D01*
X60431803Y-138393238D01*
X60405575Y-138289360D01*
X60392315Y-138216452D01*
X60382634Y-138140356D01*
X60376701Y-138060846D01*
X60374686Y-137977698D01*
X60376701Y-137894893D01*
X60382634Y-137815597D01*
X60392315Y-137739604D01*
X60405575Y-137666707D01*
X60431803Y-137562709D01*
X60465129Y-137464506D01*
X60504980Y-137371398D01*
X60550784Y-137282683D01*
X60601969Y-137197661D01*
X60657962Y-137115630D01*
X60718191Y-137035891D01*
X60782083Y-136957740D01*
X60502547Y-136957740D01*
X60431071Y-137039103D01*
X60367562Y-137125143D01*
X60311817Y-137215262D01*
X60263630Y-137308862D01*
X60222796Y-137405345D01*
X60189112Y-137504114D01*
X60162371Y-137604572D01*
X60142371Y-137706119D01*
X60128905Y-137808160D01*
X60121770Y-137910095D01*
X60120429Y-137977698D01*
G37*
G36*
X61847070Y-137195509D02*
G01*
X61924848Y-137205185D01*
X61997447Y-137220923D01*
X62081183Y-137248636D01*
X62157448Y-137284705D01*
X62226586Y-137328508D01*
X62288939Y-137379426D01*
X62301974Y-137391790D01*
X62362312Y-137458547D01*
X62413989Y-137532866D01*
X62456185Y-137613853D01*
X62482561Y-137682839D01*
X62501923Y-137755058D01*
X62513848Y-137830050D01*
X62517917Y-137907356D01*
X62517108Y-137942770D01*
X62508197Y-138029018D01*
X62489922Y-138111511D01*
X62462880Y-138189637D01*
X62427666Y-138262783D01*
X62384874Y-138330338D01*
X62335101Y-138391690D01*
X62296923Y-138430399D01*
X62226537Y-138488032D01*
X62164010Y-138527510D01*
X62095820Y-138560676D01*
X62021842Y-138587144D01*
X61941952Y-138606528D01*
X61856026Y-138618442D01*
X61763939Y-138622500D01*
X60997139Y-138622500D01*
X60931162Y-138602953D01*
X60904815Y-138532374D01*
X60904815Y-137598145D01*
X61285101Y-137598145D01*
X61285101Y-138219132D01*
X61312212Y-138248808D01*
X61763939Y-138248808D01*
X61845969Y-138242880D01*
X61925343Y-138222492D01*
X61990734Y-138189065D01*
X62049337Y-138137800D01*
X62059325Y-138126357D01*
X62101263Y-138062426D01*
X62128148Y-137989264D01*
X62137631Y-137909555D01*
X62134762Y-137865123D01*
X62115927Y-137789107D01*
X62081183Y-137720556D01*
X62032484Y-137662259D01*
X61982848Y-137623338D01*
X61915089Y-137590831D01*
X61841261Y-137573519D01*
X61763939Y-137568469D01*
X61312212Y-137568469D01*
X61285101Y-137598145D01*
X60904815Y-137598145D01*
X60904815Y-137280507D01*
X60925358Y-137217229D01*
X60997139Y-137192213D01*
X61763939Y-137192213D01*
X61847070Y-137195509D01*
G37*
G36*
X64165823Y-138248808D02*
G01*
X63422470Y-138248808D01*
X63340437Y-138242880D01*
X63261029Y-138222492D01*
X63195540Y-138189065D01*
X63136706Y-138137800D01*
X63092124Y-138076036D01*
X63062206Y-138004506D01*
X63049167Y-137925891D01*
X63048779Y-137909555D01*
X63057921Y-137830595D01*
X63084011Y-137757552D01*
X63125044Y-137693215D01*
X63153559Y-137662259D01*
X63217213Y-137615018D01*
X63288280Y-137585420D01*
X63365817Y-137571069D01*
X63422470Y-137568469D01*
X64165823Y-137568469D01*
X64165823Y-137192213D01*
X63422470Y-137192213D01*
X63339339Y-137195509D01*
X63261562Y-137205185D01*
X63188963Y-137220923D01*
X63105226Y-137248636D01*
X63028961Y-137284705D01*
X62959824Y-137328508D01*
X62897470Y-137379426D01*
X62835499Y-137444561D01*
X62782024Y-137517440D01*
X62737866Y-137597165D01*
X62709801Y-137665271D01*
X62688646Y-137736725D01*
X62674823Y-137811067D01*
X62668750Y-137887838D01*
X62668493Y-137907356D01*
X62673469Y-137994935D01*
X62688018Y-138079003D01*
X62711570Y-138158950D01*
X62743554Y-138234161D01*
X62783401Y-138304026D01*
X62830539Y-138367933D01*
X62851308Y-138391690D01*
X62916473Y-138454515D01*
X62990200Y-138508536D01*
X63055509Y-138544906D01*
X63126577Y-138574771D01*
X63203530Y-138597746D01*
X63286491Y-138613443D01*
X63375585Y-138621477D01*
X63422470Y-138622500D01*
X64165823Y-138622500D01*
X64165823Y-138248808D01*
G37*
G36*
X64919801Y-137977698D02*
G01*
X64916772Y-137876165D01*
X64907550Y-137774128D01*
X64891929Y-137672186D01*
X64869704Y-137570935D01*
X64840672Y-137470974D01*
X64804627Y-137372901D01*
X64761365Y-137277312D01*
X64710682Y-137184806D01*
X64652371Y-137095980D01*
X64586229Y-137011433D01*
X64537683Y-136957740D01*
X64258147Y-136957740D01*
X64321562Y-137035891D01*
X64381385Y-137115630D01*
X64437039Y-137197661D01*
X64487946Y-137282683D01*
X64533527Y-137371398D01*
X64573206Y-137464506D01*
X64606403Y-137562709D01*
X64632543Y-137666707D01*
X64645763Y-137739604D01*
X64655417Y-137815597D01*
X64661335Y-137894893D01*
X64663346Y-137977698D01*
X64661355Y-138060846D01*
X64655492Y-138140356D01*
X64645920Y-138216452D01*
X64632801Y-138289360D01*
X64606830Y-138393238D01*
X64573797Y-138491212D01*
X64534254Y-138584042D01*
X64488751Y-138672488D01*
X64437838Y-138757312D01*
X64382066Y-138839274D01*
X64321985Y-138919136D01*
X64258147Y-138997657D01*
X64537683Y-138997657D01*
X64609159Y-138915879D01*
X64672668Y-138829605D01*
X64728413Y-138739399D01*
X64776601Y-138645827D01*
X64817434Y-138549453D01*
X64851119Y-138450843D01*
X64877859Y-138350562D01*
X64897859Y-138249174D01*
X64911325Y-138147246D01*
X64918460Y-138045342D01*
X64919801Y-137977698D01*
G37*
G36*
X52257519Y-172692213D02*
G01*
X52178911Y-172701282D01*
X52112673Y-172733978D01*
X52068286Y-172799478D01*
X52055652Y-172883456D01*
X52055652Y-173925396D01*
X52065303Y-174002539D01*
X52099824Y-174067211D01*
X52168327Y-174110301D01*
X52243112Y-174122309D01*
X52255321Y-174122500D01*
X53548953Y-174122500D01*
X53548953Y-173759433D01*
X52469644Y-173759433D01*
X52435939Y-173719132D01*
X52435939Y-173536317D01*
X53542725Y-173536317D01*
X53542725Y-173263375D01*
X52435939Y-173263375D01*
X52435939Y-173103640D01*
X52469644Y-173068469D01*
X53548953Y-173068469D01*
X53548953Y-172692213D01*
X52257519Y-172692213D01*
G37*
G36*
X54852844Y-174122500D02*
G01*
X54947567Y-174118869D01*
X55031265Y-174107826D01*
X55104311Y-174089147D01*
X55185779Y-174051975D01*
X55249857Y-174000296D01*
X55297429Y-173933578D01*
X55329381Y-173851287D01*
X55343624Y-173779030D01*
X55349952Y-173697490D01*
X55350366Y-173668208D01*
X55350366Y-172692213D01*
X54968248Y-172692213D01*
X54968248Y-173625710D01*
X54951795Y-173702765D01*
X54889423Y-173751367D01*
X54827565Y-173759433D01*
X54237352Y-173759433D01*
X54163773Y-173746349D01*
X54110924Y-173690298D01*
X54100698Y-173625710D01*
X54100698Y-172692213D01*
X53718580Y-172692213D01*
X53718580Y-173668208D01*
X53722352Y-173752893D01*
X53733918Y-173828219D01*
X53762110Y-173914486D01*
X53805714Y-173985047D01*
X53865617Y-174040436D01*
X53942709Y-174081185D01*
X54037877Y-174107826D01*
X54121652Y-174118869D01*
X54216469Y-174122500D01*
X54852844Y-174122500D01*
G37*
G36*
X56731352Y-172695987D02*
G01*
X56812685Y-172709948D01*
X56893605Y-172738052D01*
X56961212Y-172777458D01*
X57017324Y-172826669D01*
X57064436Y-172886312D01*
X57100214Y-172953752D01*
X57122940Y-173027442D01*
X57130897Y-173105839D01*
X57130797Y-173116398D01*
X57122157Y-173198975D01*
X57097360Y-173276395D01*
X57053283Y-173346151D01*
X56996441Y-173398930D01*
X57021652Y-173415451D01*
X57075762Y-173466942D01*
X57111547Y-173534413D01*
X57128584Y-173611688D01*
X57133095Y-173694952D01*
X57133095Y-173985113D01*
X57133906Y-174045230D01*
X57139323Y-174122500D01*
X56755007Y-174122500D01*
X56752482Y-174101534D01*
X56748779Y-174026146D01*
X56748779Y-173735985D01*
X56732141Y-173659480D01*
X56671642Y-173615785D01*
X56593074Y-173606659D01*
X55931786Y-173606659D01*
X55931786Y-174122500D01*
X55551500Y-174122500D01*
X55551500Y-173078728D01*
X55931786Y-173078728D01*
X55931786Y-173283525D01*
X56603699Y-173283525D01*
X56647076Y-173278279D01*
X56710677Y-173237363D01*
X56712238Y-173235394D01*
X56738154Y-173164457D01*
X56737657Y-173153482D01*
X56706647Y-173084956D01*
X56677648Y-173062873D01*
X56603699Y-173047220D01*
X55963294Y-173047220D01*
X55931786Y-173078728D01*
X55551500Y-173078728D01*
X55551500Y-172780507D01*
X55575131Y-172714378D01*
X55646022Y-172692213D01*
X56654257Y-172692213D01*
X56731352Y-172695987D01*
G37*
G36*
X58399216Y-172695509D02*
G01*
X58476993Y-172705185D01*
X58549593Y-172720923D01*
X58633329Y-172748636D01*
X58709594Y-172784705D01*
X58778732Y-172828508D01*
X58841085Y-172879426D01*
X58854120Y-172891790D01*
X58914458Y-172958547D01*
X58966135Y-173032866D01*
X59008330Y-173113853D01*
X59034707Y-173182839D01*
X59054069Y-173255058D01*
X59065994Y-173330050D01*
X59070063Y-173407356D01*
X59069257Y-173442770D01*
X59060383Y-173529018D01*
X59042165Y-173611511D01*
X59015172Y-173689637D01*
X58979974Y-173762783D01*
X58937142Y-173830338D01*
X58887247Y-173891690D01*
X58849162Y-173930399D01*
X58778889Y-173988032D01*
X58716413Y-174027510D01*
X58648240Y-174060676D01*
X58574245Y-174087144D01*
X58494304Y-174106528D01*
X58408292Y-174118442D01*
X58316085Y-174122500D01*
X58017865Y-174122500D01*
X57970979Y-174121477D01*
X57881885Y-174113443D01*
X57798924Y-174097746D01*
X57721972Y-174074771D01*
X57650903Y-174044906D01*
X57585594Y-174008536D01*
X57511868Y-173954515D01*
X57446703Y-173891690D01*
X57425933Y-173867933D01*
X57378795Y-173804026D01*
X57338949Y-173734161D01*
X57306965Y-173658950D01*
X57283413Y-173579003D01*
X57268863Y-173494935D01*
X57264012Y-173409555D01*
X57644173Y-173409555D01*
X57644561Y-173425891D01*
X57657600Y-173504506D01*
X57687518Y-173576036D01*
X57732101Y-173637800D01*
X57790934Y-173689065D01*
X57856423Y-173722492D01*
X57935831Y-173742880D01*
X58017865Y-173748808D01*
X58316085Y-173748808D01*
X58398119Y-173742880D01*
X58477527Y-173722492D01*
X58543016Y-173689065D01*
X58601849Y-173637800D01*
X58611833Y-173626357D01*
X58653659Y-173562426D01*
X58680378Y-173489264D01*
X58689777Y-173409555D01*
X58686932Y-173365123D01*
X58668222Y-173289107D01*
X58633624Y-173220556D01*
X58584997Y-173162259D01*
X58535354Y-173123338D01*
X58467546Y-173090831D01*
X58393599Y-173073519D01*
X58316085Y-173068469D01*
X58017865Y-173068469D01*
X57961211Y-173071069D01*
X57883674Y-173085420D01*
X57812607Y-173115018D01*
X57748953Y-173162259D01*
X57720438Y-173193215D01*
X57679406Y-173257552D01*
X57653315Y-173330595D01*
X57644173Y-173409555D01*
X57264012Y-173409555D01*
X57263887Y-173407356D01*
X57264145Y-173387838D01*
X57270217Y-173311067D01*
X57284041Y-173236725D01*
X57305196Y-173165271D01*
X57333260Y-173097165D01*
X57377418Y-173017440D01*
X57430893Y-172944561D01*
X57492865Y-172879426D01*
X57555218Y-172828508D01*
X57624356Y-172784705D01*
X57700620Y-172748636D01*
X57784357Y-172720923D01*
X57856956Y-172705185D01*
X57934734Y-172695509D01*
X58017865Y-172692213D01*
X58316085Y-172692213D01*
X58399216Y-172695509D01*
G37*
G36*
X60120429Y-173477698D02*
G01*
X60123458Y-173579272D01*
X60132680Y-173681247D01*
X60148302Y-173783058D01*
X60170526Y-173884139D01*
X60199558Y-173983926D01*
X60235603Y-174081854D01*
X60278865Y-174177357D01*
X60329549Y-174269870D01*
X60387859Y-174358828D01*
X60454001Y-174443666D01*
X60502547Y-174497657D01*
X60782083Y-174497657D01*
X60718191Y-174419136D01*
X60657962Y-174339274D01*
X60601969Y-174257312D01*
X60550784Y-174172488D01*
X60504980Y-174084042D01*
X60465129Y-173991212D01*
X60431803Y-173893238D01*
X60405575Y-173789360D01*
X60392315Y-173716452D01*
X60382634Y-173640356D01*
X60376701Y-173560846D01*
X60374686Y-173477698D01*
X60376701Y-173394893D01*
X60382634Y-173315597D01*
X60392315Y-173239604D01*
X60405575Y-173166707D01*
X60431803Y-173062709D01*
X60465129Y-172964506D01*
X60504980Y-172871398D01*
X60550784Y-172782683D01*
X60601969Y-172697661D01*
X60657962Y-172615630D01*
X60718191Y-172535891D01*
X60782083Y-172457740D01*
X60502547Y-172457740D01*
X60431071Y-172539103D01*
X60367562Y-172625143D01*
X60311817Y-172715262D01*
X60263630Y-172808862D01*
X60222796Y-172905345D01*
X60189112Y-173004114D01*
X60162371Y-173104572D01*
X60142371Y-173206119D01*
X60128905Y-173308160D01*
X60121770Y-173410095D01*
X60120429Y-173477698D01*
G37*
G36*
X61847070Y-172695509D02*
G01*
X61924848Y-172705185D01*
X61997447Y-172720923D01*
X62081183Y-172748636D01*
X62157448Y-172784705D01*
X62226586Y-172828508D01*
X62288939Y-172879426D01*
X62301974Y-172891790D01*
X62362312Y-172958547D01*
X62413989Y-173032866D01*
X62456185Y-173113853D01*
X62482561Y-173182839D01*
X62501923Y-173255058D01*
X62513848Y-173330050D01*
X62517917Y-173407356D01*
X62517108Y-173442770D01*
X62508197Y-173529018D01*
X62489922Y-173611511D01*
X62462880Y-173689637D01*
X62427666Y-173762783D01*
X62384874Y-173830338D01*
X62335101Y-173891690D01*
X62296923Y-173930399D01*
X62226537Y-173988032D01*
X62164010Y-174027510D01*
X62095820Y-174060676D01*
X62021842Y-174087144D01*
X61941952Y-174106528D01*
X61856026Y-174118442D01*
X61763939Y-174122500D01*
X60997139Y-174122500D01*
X60931162Y-174102953D01*
X60904815Y-174032374D01*
X60904815Y-173098145D01*
X61285101Y-173098145D01*
X61285101Y-173719132D01*
X61312212Y-173748808D01*
X61763939Y-173748808D01*
X61845969Y-173742880D01*
X61925343Y-173722492D01*
X61990734Y-173689065D01*
X62049337Y-173637800D01*
X62059325Y-173626357D01*
X62101263Y-173562426D01*
X62128148Y-173489264D01*
X62137631Y-173409555D01*
X62134762Y-173365123D01*
X62115927Y-173289107D01*
X62081183Y-173220556D01*
X62032484Y-173162259D01*
X61982848Y-173123338D01*
X61915089Y-173090831D01*
X61841261Y-173073519D01*
X61763939Y-173068469D01*
X61312212Y-173068469D01*
X61285101Y-173098145D01*
X60904815Y-173098145D01*
X60904815Y-172780507D01*
X60925358Y-172717229D01*
X60997139Y-172692213D01*
X61763939Y-172692213D01*
X61847070Y-172695509D01*
G37*
G36*
X64165823Y-173748808D02*
G01*
X63422470Y-173748808D01*
X63340437Y-173742880D01*
X63261029Y-173722492D01*
X63195540Y-173689065D01*
X63136706Y-173637800D01*
X63092124Y-173576036D01*
X63062206Y-173504506D01*
X63049167Y-173425891D01*
X63048779Y-173409555D01*
X63057921Y-173330595D01*
X63084011Y-173257552D01*
X63125044Y-173193215D01*
X63153559Y-173162259D01*
X63217213Y-173115018D01*
X63288280Y-173085420D01*
X63365817Y-173071069D01*
X63422470Y-173068469D01*
X64165823Y-173068469D01*
X64165823Y-172692213D01*
X63422470Y-172692213D01*
X63339339Y-172695509D01*
X63261562Y-172705185D01*
X63188963Y-172720923D01*
X63105226Y-172748636D01*
X63028961Y-172784705D01*
X62959824Y-172828508D01*
X62897470Y-172879426D01*
X62835499Y-172944561D01*
X62782024Y-173017440D01*
X62737866Y-173097165D01*
X62709801Y-173165271D01*
X62688646Y-173236725D01*
X62674823Y-173311067D01*
X62668750Y-173387838D01*
X62668493Y-173407356D01*
X62673469Y-173494935D01*
X62688018Y-173579003D01*
X62711570Y-173658950D01*
X62743554Y-173734161D01*
X62783401Y-173804026D01*
X62830539Y-173867933D01*
X62851308Y-173891690D01*
X62916473Y-173954515D01*
X62990200Y-174008536D01*
X63055509Y-174044906D01*
X63126577Y-174074771D01*
X63203530Y-174097746D01*
X63286491Y-174113443D01*
X63375585Y-174121477D01*
X63422470Y-174122500D01*
X64165823Y-174122500D01*
X64165823Y-173748808D01*
G37*
G36*
X64919801Y-173477698D02*
G01*
X64916772Y-173376165D01*
X64907550Y-173274128D01*
X64891929Y-173172186D01*
X64869704Y-173070935D01*
X64840672Y-172970974D01*
X64804627Y-172872901D01*
X64761365Y-172777312D01*
X64710682Y-172684806D01*
X64652371Y-172595980D01*
X64586229Y-172511433D01*
X64537683Y-172457740D01*
X64258147Y-172457740D01*
X64321562Y-172535891D01*
X64381385Y-172615630D01*
X64437039Y-172697661D01*
X64487946Y-172782683D01*
X64533527Y-172871398D01*
X64573206Y-172964506D01*
X64606403Y-173062709D01*
X64632543Y-173166707D01*
X64645763Y-173239604D01*
X64655417Y-173315597D01*
X64661335Y-173394893D01*
X64663346Y-173477698D01*
X64661355Y-173560846D01*
X64655492Y-173640356D01*
X64645920Y-173716452D01*
X64632801Y-173789360D01*
X64606830Y-173893238D01*
X64573797Y-173991212D01*
X64534254Y-174084042D01*
X64488751Y-174172488D01*
X64437838Y-174257312D01*
X64382066Y-174339274D01*
X64321985Y-174419136D01*
X64258147Y-174497657D01*
X64537683Y-174497657D01*
X64609159Y-174415879D01*
X64672668Y-174329605D01*
X64728413Y-174239399D01*
X64776601Y-174145827D01*
X64817434Y-174049453D01*
X64851119Y-173950843D01*
X64877859Y-173850562D01*
X64897859Y-173749174D01*
X64911325Y-173647246D01*
X64918460Y-173545342D01*
X64919801Y-173477698D01*
G37*
G36*
X52257519Y-101692213D02*
G01*
X52178911Y-101701282D01*
X52112673Y-101733978D01*
X52068286Y-101799478D01*
X52055652Y-101883456D01*
X52055652Y-102925396D01*
X52065303Y-103002539D01*
X52099824Y-103067211D01*
X52168327Y-103110301D01*
X52243112Y-103122309D01*
X52255321Y-103122500D01*
X53548953Y-103122500D01*
X53548953Y-102759433D01*
X52469644Y-102759433D01*
X52435939Y-102719132D01*
X52435939Y-102536317D01*
X53542725Y-102536317D01*
X53542725Y-102263375D01*
X52435939Y-102263375D01*
X52435939Y-102103640D01*
X52469644Y-102068469D01*
X53548953Y-102068469D01*
X53548953Y-101692213D01*
X52257519Y-101692213D01*
G37*
G36*
X54852844Y-103122500D02*
G01*
X54947567Y-103118869D01*
X55031265Y-103107826D01*
X55104311Y-103089147D01*
X55185779Y-103051975D01*
X55249857Y-103000296D01*
X55297429Y-102933578D01*
X55329381Y-102851287D01*
X55343624Y-102779030D01*
X55349952Y-102697490D01*
X55350366Y-102668208D01*
X55350366Y-101692213D01*
X54968248Y-101692213D01*
X54968248Y-102625710D01*
X54951795Y-102702765D01*
X54889423Y-102751367D01*
X54827565Y-102759433D01*
X54237352Y-102759433D01*
X54163773Y-102746349D01*
X54110924Y-102690298D01*
X54100698Y-102625710D01*
X54100698Y-101692213D01*
X53718580Y-101692213D01*
X53718580Y-102668208D01*
X53722352Y-102752893D01*
X53733918Y-102828219D01*
X53762110Y-102914486D01*
X53805714Y-102985047D01*
X53865617Y-103040436D01*
X53942709Y-103081185D01*
X54037877Y-103107826D01*
X54121652Y-103118869D01*
X54216469Y-103122500D01*
X54852844Y-103122500D01*
G37*
G36*
X56731352Y-101695987D02*
G01*
X56812685Y-101709948D01*
X56893605Y-101738052D01*
X56961212Y-101777458D01*
X57017324Y-101826669D01*
X57064436Y-101886312D01*
X57100214Y-101953752D01*
X57122940Y-102027442D01*
X57130897Y-102105839D01*
X57130797Y-102116398D01*
X57122157Y-102198975D01*
X57097360Y-102276395D01*
X57053283Y-102346151D01*
X56996441Y-102398930D01*
X57021652Y-102415451D01*
X57075762Y-102466942D01*
X57111547Y-102534413D01*
X57128584Y-102611688D01*
X57133095Y-102694952D01*
X57133095Y-102985113D01*
X57133906Y-103045230D01*
X57139323Y-103122500D01*
X56755007Y-103122500D01*
X56752482Y-103101534D01*
X56748779Y-103026146D01*
X56748779Y-102735985D01*
X56732141Y-102659480D01*
X56671642Y-102615785D01*
X56593074Y-102606659D01*
X55931786Y-102606659D01*
X55931786Y-103122500D01*
X55551500Y-103122500D01*
X55551500Y-102078728D01*
X55931786Y-102078728D01*
X55931786Y-102283525D01*
X56603699Y-102283525D01*
X56647076Y-102278279D01*
X56710677Y-102237363D01*
X56712238Y-102235394D01*
X56738154Y-102164457D01*
X56737657Y-102153482D01*
X56706647Y-102084956D01*
X56677648Y-102062873D01*
X56603699Y-102047220D01*
X55963294Y-102047220D01*
X55931786Y-102078728D01*
X55551500Y-102078728D01*
X55551500Y-101780507D01*
X55575131Y-101714378D01*
X55646022Y-101692213D01*
X56654257Y-101692213D01*
X56731352Y-101695987D01*
G37*
G36*
X58399216Y-101695509D02*
G01*
X58476993Y-101705185D01*
X58549593Y-101720923D01*
X58633329Y-101748636D01*
X58709594Y-101784705D01*
X58778732Y-101828508D01*
X58841085Y-101879426D01*
X58854120Y-101891790D01*
X58914458Y-101958547D01*
X58966135Y-102032866D01*
X59008330Y-102113853D01*
X59034707Y-102182839D01*
X59054069Y-102255058D01*
X59065994Y-102330050D01*
X59070063Y-102407356D01*
X59069257Y-102442770D01*
X59060383Y-102529018D01*
X59042165Y-102611511D01*
X59015172Y-102689637D01*
X58979974Y-102762783D01*
X58937142Y-102830338D01*
X58887247Y-102891690D01*
X58849162Y-102930399D01*
X58778889Y-102988032D01*
X58716413Y-103027510D01*
X58648240Y-103060676D01*
X58574245Y-103087144D01*
X58494304Y-103106528D01*
X58408292Y-103118442D01*
X58316085Y-103122500D01*
X58017865Y-103122500D01*
X57970979Y-103121477D01*
X57881885Y-103113443D01*
X57798924Y-103097746D01*
X57721972Y-103074771D01*
X57650903Y-103044906D01*
X57585594Y-103008536D01*
X57511868Y-102954515D01*
X57446703Y-102891690D01*
X57425933Y-102867933D01*
X57378795Y-102804026D01*
X57338949Y-102734161D01*
X57306965Y-102658950D01*
X57283413Y-102579003D01*
X57268863Y-102494935D01*
X57264012Y-102409555D01*
X57644173Y-102409555D01*
X57644561Y-102425891D01*
X57657600Y-102504506D01*
X57687518Y-102576036D01*
X57732101Y-102637800D01*
X57790934Y-102689065D01*
X57856423Y-102722492D01*
X57935831Y-102742880D01*
X58017865Y-102748808D01*
X58316085Y-102748808D01*
X58398119Y-102742880D01*
X58477527Y-102722492D01*
X58543016Y-102689065D01*
X58601849Y-102637800D01*
X58611833Y-102626357D01*
X58653659Y-102562426D01*
X58680378Y-102489264D01*
X58689777Y-102409555D01*
X58686932Y-102365123D01*
X58668222Y-102289107D01*
X58633624Y-102220556D01*
X58584997Y-102162259D01*
X58535354Y-102123338D01*
X58467546Y-102090831D01*
X58393599Y-102073519D01*
X58316085Y-102068469D01*
X58017865Y-102068469D01*
X57961211Y-102071069D01*
X57883674Y-102085420D01*
X57812607Y-102115018D01*
X57748953Y-102162259D01*
X57720438Y-102193215D01*
X57679406Y-102257552D01*
X57653315Y-102330595D01*
X57644173Y-102409555D01*
X57264012Y-102409555D01*
X57263887Y-102407356D01*
X57264145Y-102387838D01*
X57270217Y-102311067D01*
X57284041Y-102236725D01*
X57305196Y-102165271D01*
X57333260Y-102097165D01*
X57377418Y-102017440D01*
X57430893Y-101944561D01*
X57492865Y-101879426D01*
X57555218Y-101828508D01*
X57624356Y-101784705D01*
X57700620Y-101748636D01*
X57784357Y-101720923D01*
X57856956Y-101705185D01*
X57934734Y-101695509D01*
X58017865Y-101692213D01*
X58316085Y-101692213D01*
X58399216Y-101695509D01*
G37*
G36*
X60120429Y-102477698D02*
G01*
X60123458Y-102579272D01*
X60132680Y-102681247D01*
X60148302Y-102783058D01*
X60170526Y-102884139D01*
X60199558Y-102983926D01*
X60235603Y-103081854D01*
X60278865Y-103177357D01*
X60329549Y-103269870D01*
X60387859Y-103358828D01*
X60454001Y-103443666D01*
X60502547Y-103497657D01*
X60782083Y-103497657D01*
X60718191Y-103419136D01*
X60657962Y-103339274D01*
X60601969Y-103257312D01*
X60550784Y-103172488D01*
X60504980Y-103084042D01*
X60465129Y-102991212D01*
X60431803Y-102893238D01*
X60405575Y-102789360D01*
X60392315Y-102716452D01*
X60382634Y-102640356D01*
X60376701Y-102560846D01*
X60374686Y-102477698D01*
X60376701Y-102394893D01*
X60382634Y-102315597D01*
X60392315Y-102239604D01*
X60405575Y-102166707D01*
X60431803Y-102062709D01*
X60465129Y-101964506D01*
X60504980Y-101871398D01*
X60550784Y-101782683D01*
X60601969Y-101697661D01*
X60657962Y-101615630D01*
X60718191Y-101535891D01*
X60782083Y-101457740D01*
X60502547Y-101457740D01*
X60431071Y-101539103D01*
X60367562Y-101625143D01*
X60311817Y-101715262D01*
X60263630Y-101808862D01*
X60222796Y-101905345D01*
X60189112Y-102004114D01*
X60162371Y-102104572D01*
X60142371Y-102206119D01*
X60128905Y-102308160D01*
X60121770Y-102410095D01*
X60120429Y-102477698D01*
G37*
G36*
X61847070Y-101695509D02*
G01*
X61924848Y-101705185D01*
X61997447Y-101720923D01*
X62081183Y-101748636D01*
X62157448Y-101784705D01*
X62226586Y-101828508D01*
X62288939Y-101879426D01*
X62301974Y-101891790D01*
X62362312Y-101958547D01*
X62413989Y-102032866D01*
X62456185Y-102113853D01*
X62482561Y-102182839D01*
X62501923Y-102255058D01*
X62513848Y-102330050D01*
X62517917Y-102407356D01*
X62517108Y-102442770D01*
X62508197Y-102529018D01*
X62489922Y-102611511D01*
X62462880Y-102689637D01*
X62427666Y-102762783D01*
X62384874Y-102830338D01*
X62335101Y-102891690D01*
X62296923Y-102930399D01*
X62226537Y-102988032D01*
X62164010Y-103027510D01*
X62095820Y-103060676D01*
X62021842Y-103087144D01*
X61941952Y-103106528D01*
X61856026Y-103118442D01*
X61763939Y-103122500D01*
X60997139Y-103122500D01*
X60931162Y-103102953D01*
X60904815Y-103032374D01*
X60904815Y-102098145D01*
X61285101Y-102098145D01*
X61285101Y-102719132D01*
X61312212Y-102748808D01*
X61763939Y-102748808D01*
X61845969Y-102742880D01*
X61925343Y-102722492D01*
X61990734Y-102689065D01*
X62049337Y-102637800D01*
X62059325Y-102626357D01*
X62101263Y-102562426D01*
X62128148Y-102489264D01*
X62137631Y-102409555D01*
X62134762Y-102365123D01*
X62115927Y-102289107D01*
X62081183Y-102220556D01*
X62032484Y-102162259D01*
X61982848Y-102123338D01*
X61915089Y-102090831D01*
X61841261Y-102073519D01*
X61763939Y-102068469D01*
X61312212Y-102068469D01*
X61285101Y-102098145D01*
X60904815Y-102098145D01*
X60904815Y-101780507D01*
X60925358Y-101717229D01*
X60997139Y-101692213D01*
X61763939Y-101692213D01*
X61847070Y-101695509D01*
G37*
G36*
X64165823Y-102748808D02*
G01*
X63422470Y-102748808D01*
X63340437Y-102742880D01*
X63261029Y-102722492D01*
X63195540Y-102689065D01*
X63136706Y-102637800D01*
X63092124Y-102576036D01*
X63062206Y-102504506D01*
X63049167Y-102425891D01*
X63048779Y-102409555D01*
X63057921Y-102330595D01*
X63084011Y-102257552D01*
X63125044Y-102193215D01*
X63153559Y-102162259D01*
X63217213Y-102115018D01*
X63288280Y-102085420D01*
X63365817Y-102071069D01*
X63422470Y-102068469D01*
X64165823Y-102068469D01*
X64165823Y-101692213D01*
X63422470Y-101692213D01*
X63339339Y-101695509D01*
X63261562Y-101705185D01*
X63188963Y-101720923D01*
X63105226Y-101748636D01*
X63028961Y-101784705D01*
X62959824Y-101828508D01*
X62897470Y-101879426D01*
X62835499Y-101944561D01*
X62782024Y-102017440D01*
X62737866Y-102097165D01*
X62709801Y-102165271D01*
X62688646Y-102236725D01*
X62674823Y-102311067D01*
X62668750Y-102387838D01*
X62668493Y-102407356D01*
X62673469Y-102494935D01*
X62688018Y-102579003D01*
X62711570Y-102658950D01*
X62743554Y-102734161D01*
X62783401Y-102804026D01*
X62830539Y-102867933D01*
X62851308Y-102891690D01*
X62916473Y-102954515D01*
X62990200Y-103008536D01*
X63055509Y-103044906D01*
X63126577Y-103074771D01*
X63203530Y-103097746D01*
X63286491Y-103113443D01*
X63375585Y-103121477D01*
X63422470Y-103122500D01*
X64165823Y-103122500D01*
X64165823Y-102748808D01*
G37*
G36*
X64919801Y-102477698D02*
G01*
X64916772Y-102376165D01*
X64907550Y-102274128D01*
X64891929Y-102172186D01*
X64869704Y-102070935D01*
X64840672Y-101970974D01*
X64804627Y-101872901D01*
X64761365Y-101777312D01*
X64710682Y-101684806D01*
X64652371Y-101595980D01*
X64586229Y-101511433D01*
X64537683Y-101457740D01*
X64258147Y-101457740D01*
X64321562Y-101535891D01*
X64381385Y-101615630D01*
X64437039Y-101697661D01*
X64487946Y-101782683D01*
X64533527Y-101871398D01*
X64573206Y-101964506D01*
X64606403Y-102062709D01*
X64632543Y-102166707D01*
X64645763Y-102239604D01*
X64655417Y-102315597D01*
X64661335Y-102394893D01*
X64663346Y-102477698D01*
X64661355Y-102560846D01*
X64655492Y-102640356D01*
X64645920Y-102716452D01*
X64632801Y-102789360D01*
X64606830Y-102893238D01*
X64573797Y-102991212D01*
X64534254Y-103084042D01*
X64488751Y-103172488D01*
X64437838Y-103257312D01*
X64382066Y-103339274D01*
X64321985Y-103419136D01*
X64258147Y-103497657D01*
X64537683Y-103497657D01*
X64609159Y-103415879D01*
X64672668Y-103329605D01*
X64728413Y-103239399D01*
X64776601Y-103145827D01*
X64817434Y-103049453D01*
X64851119Y-102950843D01*
X64877859Y-102850562D01*
X64897859Y-102749174D01*
X64911325Y-102647246D01*
X64918460Y-102545342D01*
X64919801Y-102477698D01*
G37*
G36*
X54205112Y-156622500D02*
G01*
X54205112Y-156259433D01*
X53219959Y-156259433D01*
X53147058Y-156248865D01*
X53099762Y-156188644D01*
X53093929Y-156123511D01*
X53093929Y-155192213D01*
X52711811Y-155192213D01*
X52711811Y-156159781D01*
X52714906Y-156242728D01*
X52724589Y-156317441D01*
X52748785Y-156404280D01*
X52787182Y-156476549D01*
X52841200Y-156534287D01*
X52912260Y-156577534D01*
X53001784Y-156606326D01*
X53081898Y-156618459D01*
X53173797Y-156622500D01*
X54205112Y-156622500D01*
G37*
G36*
X54353490Y-155192213D02*
G01*
X54353490Y-156622500D01*
X54735608Y-156622500D01*
X54735608Y-155192213D01*
X54353490Y-155192213D01*
G37*
G36*
X56709945Y-155192213D02*
G01*
X56338085Y-155192213D01*
X56338085Y-156116917D01*
X56308776Y-156155019D01*
X56272872Y-156138166D01*
X55580077Y-155302489D01*
X55522190Y-155246911D01*
X55453152Y-155203065D01*
X55376102Y-155177865D01*
X55298062Y-155169193D01*
X55273430Y-155168766D01*
X55187977Y-155175650D01*
X55112213Y-155197218D01*
X55048102Y-155234846D01*
X54997605Y-155289910D01*
X54962685Y-155363783D01*
X54947283Y-155437349D01*
X54943702Y-155501425D01*
X54943702Y-156622500D01*
X55317394Y-156622500D01*
X55317394Y-155659328D01*
X55352931Y-155619028D01*
X55386637Y-155638079D01*
X56165894Y-156540800D01*
X56228157Y-156592213D01*
X56302331Y-156626255D01*
X56378896Y-156642365D01*
X56443231Y-156645947D01*
X56519270Y-156636181D01*
X56588479Y-156605993D01*
X56646193Y-156554051D01*
X56687745Y-156479022D01*
X56706661Y-156397900D01*
X56709945Y-156340765D01*
X56709945Y-155192213D01*
G37*
G36*
X57118441Y-155192213D02*
G01*
X57039833Y-155201282D01*
X56973595Y-155233978D01*
X56929208Y-155299478D01*
X56916574Y-155383456D01*
X56916574Y-156425396D01*
X56926224Y-156502539D01*
X56960746Y-156567211D01*
X57029248Y-156610301D01*
X57104033Y-156622309D01*
X57116243Y-156622500D01*
X58409875Y-156622500D01*
X58409875Y-156259433D01*
X57330566Y-156259433D01*
X57296860Y-156219132D01*
X57296860Y-156036317D01*
X58403647Y-156036317D01*
X58403647Y-155763375D01*
X57296860Y-155763375D01*
X57296860Y-155603640D01*
X57330566Y-155568469D01*
X58409875Y-155568469D01*
X58409875Y-155192213D01*
X57118441Y-155192213D01*
G37*
G36*
X59456578Y-155977698D02*
G01*
X59459606Y-156079272D01*
X59468829Y-156181247D01*
X59484450Y-156283058D01*
X59506674Y-156384139D01*
X59535706Y-156483926D01*
X59571751Y-156581854D01*
X59615013Y-156677357D01*
X59665697Y-156769870D01*
X59724008Y-156858828D01*
X59790149Y-156943666D01*
X59838695Y-156997657D01*
X60118231Y-156997657D01*
X60054339Y-156919136D01*
X59994110Y-156839274D01*
X59938117Y-156757312D01*
X59886932Y-156672488D01*
X59841128Y-156584042D01*
X59801277Y-156491212D01*
X59767952Y-156393238D01*
X59741723Y-156289360D01*
X59728464Y-156216452D01*
X59718783Y-156140356D01*
X59712850Y-156060846D01*
X59710834Y-155977698D01*
X59712850Y-155894893D01*
X59718783Y-155815597D01*
X59728464Y-155739604D01*
X59741723Y-155666707D01*
X59767952Y-155562709D01*
X59801277Y-155464506D01*
X59841128Y-155371398D01*
X59886932Y-155282683D01*
X59938117Y-155197661D01*
X59994110Y-155115630D01*
X60054339Y-155035891D01*
X60118231Y-154957740D01*
X59838695Y-154957740D01*
X59767219Y-155039103D01*
X59703711Y-155125143D01*
X59647965Y-155215262D01*
X59599778Y-155308862D01*
X59558945Y-155405345D01*
X59525260Y-155504114D01*
X59498520Y-155604572D01*
X59478519Y-155706119D01*
X59465054Y-155808160D01*
X59457919Y-155910095D01*
X59456578Y-155977698D01*
G37*
G36*
X61155037Y-155169776D02*
G01*
X61239135Y-155181160D01*
X61314091Y-155205262D01*
X61380199Y-155242156D01*
X61437752Y-155291918D01*
X61487044Y-155354625D01*
X61528367Y-155430350D01*
X62040911Y-156558019D01*
X62063992Y-156622500D01*
X61635346Y-156622500D01*
X61618859Y-156573040D01*
X61543022Y-156396453D01*
X60702949Y-156396453D01*
X60629676Y-156570842D01*
X60614655Y-156622500D01*
X60175751Y-156622500D01*
X60198832Y-156558019D01*
X60412943Y-156083211D01*
X60841801Y-156083211D01*
X61404536Y-156083211D01*
X61186183Y-155576896D01*
X61183640Y-155571270D01*
X61120970Y-155532932D01*
X61118607Y-155532964D01*
X61057956Y-155576896D01*
X60841801Y-156083211D01*
X60412943Y-156083211D01*
X60707345Y-155430350D01*
X60722890Y-155398493D01*
X60766939Y-155327984D01*
X60818912Y-155270464D01*
X60879444Y-155225858D01*
X60949173Y-155194090D01*
X61028737Y-155175084D01*
X61118772Y-155168766D01*
X61155037Y-155169776D01*
G37*
G36*
X63503437Y-156248808D02*
G01*
X62760084Y-156248808D01*
X62678050Y-156242880D01*
X62598642Y-156222492D01*
X62533154Y-156189065D01*
X62474320Y-156137800D01*
X62429738Y-156076036D01*
X62399820Y-156004506D01*
X62386780Y-155925891D01*
X62386393Y-155909555D01*
X62395535Y-155830595D01*
X62421625Y-155757552D01*
X62462658Y-155693215D01*
X62491173Y-155662259D01*
X62554826Y-155615018D01*
X62625893Y-155585420D01*
X62703430Y-155571069D01*
X62760084Y-155568469D01*
X63503437Y-155568469D01*
X63503437Y-155192213D01*
X62760084Y-155192213D01*
X62676953Y-155195509D01*
X62599176Y-155205185D01*
X62526576Y-155220923D01*
X62442840Y-155248636D01*
X62366575Y-155284705D01*
X62297438Y-155328508D01*
X62235084Y-155379426D01*
X62173113Y-155444561D01*
X62119637Y-155517440D01*
X62075480Y-155597165D01*
X62047415Y-155665271D01*
X62026260Y-155736725D01*
X62012436Y-155811067D01*
X62006364Y-155887838D01*
X62006106Y-155907356D01*
X62011083Y-155994935D01*
X62025632Y-156079003D01*
X62049184Y-156158950D01*
X62081168Y-156234161D01*
X62121015Y-156304026D01*
X62168153Y-156367933D01*
X62188922Y-156391690D01*
X62254087Y-156454515D01*
X62327814Y-156508536D01*
X62393123Y-156544906D01*
X62464191Y-156574771D01*
X62541143Y-156597746D01*
X62624104Y-156613443D01*
X62713198Y-156621477D01*
X62760084Y-156622500D01*
X63503437Y-156622500D01*
X63503437Y-156248808D01*
G37*
G36*
X64257415Y-155977698D02*
G01*
X64254386Y-155876165D01*
X64245164Y-155774128D01*
X64229543Y-155672186D01*
X64207318Y-155570935D01*
X64178286Y-155470974D01*
X64142241Y-155372901D01*
X64098979Y-155277312D01*
X64048295Y-155184806D01*
X63989985Y-155095980D01*
X63923843Y-155011433D01*
X63875297Y-154957740D01*
X63595761Y-154957740D01*
X63659176Y-155035891D01*
X63718999Y-155115630D01*
X63774653Y-155197661D01*
X63825559Y-155282683D01*
X63871141Y-155371398D01*
X63910819Y-155464506D01*
X63944017Y-155562709D01*
X63970157Y-155666707D01*
X63983376Y-155739604D01*
X63993031Y-155815597D01*
X63998949Y-155894893D01*
X64000960Y-155977698D01*
X63998969Y-156060846D01*
X63993106Y-156140356D01*
X63983533Y-156216452D01*
X63970414Y-156289360D01*
X63944443Y-156393238D01*
X63911411Y-156491212D01*
X63871868Y-156584042D01*
X63826364Y-156672488D01*
X63775451Y-156757312D01*
X63719679Y-156839274D01*
X63659599Y-156919136D01*
X63595761Y-156997657D01*
X63875297Y-156997657D01*
X63946773Y-156915879D01*
X64010282Y-156829605D01*
X64066027Y-156739399D01*
X64114214Y-156645827D01*
X64155048Y-156549453D01*
X64188732Y-156450843D01*
X64215473Y-156350562D01*
X64235473Y-156249174D01*
X64248939Y-156147246D01*
X64256074Y-156045342D01*
X64257415Y-155977698D01*
G37*
G36*
X52257519Y-66192213D02*
G01*
X52178911Y-66201282D01*
X52112673Y-66233978D01*
X52068286Y-66299478D01*
X52055652Y-66383456D01*
X52055652Y-67425396D01*
X52065303Y-67502539D01*
X52099824Y-67567211D01*
X52168327Y-67610301D01*
X52243112Y-67622309D01*
X52255321Y-67622500D01*
X53548953Y-67622500D01*
X53548953Y-67259433D01*
X52469644Y-67259433D01*
X52435939Y-67219132D01*
X52435939Y-67036317D01*
X53542725Y-67036317D01*
X53542725Y-66763375D01*
X52435939Y-66763375D01*
X52435939Y-66603640D01*
X52469644Y-66568469D01*
X53548953Y-66568469D01*
X53548953Y-66192213D01*
X52257519Y-66192213D01*
G37*
G36*
X54852844Y-67622500D02*
G01*
X54947567Y-67618869D01*
X55031265Y-67607826D01*
X55104311Y-67589147D01*
X55185779Y-67551975D01*
X55249857Y-67500296D01*
X55297429Y-67433578D01*
X55329381Y-67351287D01*
X55343624Y-67279030D01*
X55349952Y-67197490D01*
X55350366Y-67168208D01*
X55350366Y-66192213D01*
X54968248Y-66192213D01*
X54968248Y-67125710D01*
X54951795Y-67202765D01*
X54889423Y-67251367D01*
X54827565Y-67259433D01*
X54237352Y-67259433D01*
X54163773Y-67246349D01*
X54110924Y-67190298D01*
X54100698Y-67125710D01*
X54100698Y-66192213D01*
X53718580Y-66192213D01*
X53718580Y-67168208D01*
X53722352Y-67252893D01*
X53733918Y-67328219D01*
X53762110Y-67414486D01*
X53805714Y-67485047D01*
X53865617Y-67540436D01*
X53942709Y-67581185D01*
X54037877Y-67607826D01*
X54121652Y-67618869D01*
X54216469Y-67622500D01*
X54852844Y-67622500D01*
G37*
G36*
X56731352Y-66195987D02*
G01*
X56812685Y-66209948D01*
X56893605Y-66238052D01*
X56961212Y-66277458D01*
X57017324Y-66326669D01*
X57064436Y-66386312D01*
X57100214Y-66453752D01*
X57122940Y-66527442D01*
X57130897Y-66605839D01*
X57130797Y-66616398D01*
X57122157Y-66698975D01*
X57097360Y-66776395D01*
X57053283Y-66846151D01*
X56996441Y-66898930D01*
X57021652Y-66915451D01*
X57075762Y-66966942D01*
X57111547Y-67034413D01*
X57128584Y-67111688D01*
X57133095Y-67194952D01*
X57133095Y-67485113D01*
X57133906Y-67545230D01*
X57139323Y-67622500D01*
X56755007Y-67622500D01*
X56752482Y-67601534D01*
X56748779Y-67526146D01*
X56748779Y-67235985D01*
X56732141Y-67159480D01*
X56671642Y-67115785D01*
X56593074Y-67106659D01*
X55931786Y-67106659D01*
X55931786Y-67622500D01*
X55551500Y-67622500D01*
X55551500Y-66578728D01*
X55931786Y-66578728D01*
X55931786Y-66783525D01*
X56603699Y-66783525D01*
X56647076Y-66778279D01*
X56710677Y-66737363D01*
X56712238Y-66735394D01*
X56738154Y-66664457D01*
X56737657Y-66653482D01*
X56706647Y-66584956D01*
X56677648Y-66562873D01*
X56603699Y-66547220D01*
X55963294Y-66547220D01*
X55931786Y-66578728D01*
X55551500Y-66578728D01*
X55551500Y-66280507D01*
X55575131Y-66214378D01*
X55646022Y-66192213D01*
X56654257Y-66192213D01*
X56731352Y-66195987D01*
G37*
G36*
X58399216Y-66195509D02*
G01*
X58476993Y-66205185D01*
X58549593Y-66220923D01*
X58633329Y-66248636D01*
X58709594Y-66284705D01*
X58778732Y-66328508D01*
X58841085Y-66379426D01*
X58854120Y-66391790D01*
X58914458Y-66458547D01*
X58966135Y-66532866D01*
X59008330Y-66613853D01*
X59034707Y-66682839D01*
X59054069Y-66755058D01*
X59065994Y-66830050D01*
X59070063Y-66907356D01*
X59069257Y-66942770D01*
X59060383Y-67029018D01*
X59042165Y-67111511D01*
X59015172Y-67189637D01*
X58979974Y-67262783D01*
X58937142Y-67330338D01*
X58887247Y-67391690D01*
X58849162Y-67430399D01*
X58778889Y-67488032D01*
X58716413Y-67527510D01*
X58648240Y-67560676D01*
X58574245Y-67587144D01*
X58494304Y-67606528D01*
X58408292Y-67618442D01*
X58316085Y-67622500D01*
X58017865Y-67622500D01*
X57970979Y-67621477D01*
X57881885Y-67613443D01*
X57798924Y-67597746D01*
X57721972Y-67574771D01*
X57650903Y-67544906D01*
X57585594Y-67508536D01*
X57511868Y-67454515D01*
X57446703Y-67391690D01*
X57425933Y-67367933D01*
X57378795Y-67304026D01*
X57338949Y-67234161D01*
X57306965Y-67158950D01*
X57283413Y-67079003D01*
X57268863Y-66994935D01*
X57264012Y-66909555D01*
X57644173Y-66909555D01*
X57644561Y-66925891D01*
X57657600Y-67004506D01*
X57687518Y-67076036D01*
X57732101Y-67137800D01*
X57790934Y-67189065D01*
X57856423Y-67222492D01*
X57935831Y-67242880D01*
X58017865Y-67248808D01*
X58316085Y-67248808D01*
X58398119Y-67242880D01*
X58477527Y-67222492D01*
X58543016Y-67189065D01*
X58601849Y-67137800D01*
X58611833Y-67126357D01*
X58653659Y-67062426D01*
X58680378Y-66989264D01*
X58689777Y-66909555D01*
X58686932Y-66865123D01*
X58668222Y-66789107D01*
X58633624Y-66720556D01*
X58584997Y-66662259D01*
X58535354Y-66623338D01*
X58467546Y-66590831D01*
X58393599Y-66573519D01*
X58316085Y-66568469D01*
X58017865Y-66568469D01*
X57961211Y-66571069D01*
X57883674Y-66585420D01*
X57812607Y-66615018D01*
X57748953Y-66662259D01*
X57720438Y-66693215D01*
X57679406Y-66757552D01*
X57653315Y-66830595D01*
X57644173Y-66909555D01*
X57264012Y-66909555D01*
X57263887Y-66907356D01*
X57264145Y-66887838D01*
X57270217Y-66811067D01*
X57284041Y-66736725D01*
X57305196Y-66665271D01*
X57333260Y-66597165D01*
X57377418Y-66517440D01*
X57430893Y-66444561D01*
X57492865Y-66379426D01*
X57555218Y-66328508D01*
X57624356Y-66284705D01*
X57700620Y-66248636D01*
X57784357Y-66220923D01*
X57856956Y-66205185D01*
X57934734Y-66195509D01*
X58017865Y-66192213D01*
X58316085Y-66192213D01*
X58399216Y-66195509D01*
G37*
G36*
X60120429Y-66977698D02*
G01*
X60123458Y-67079272D01*
X60132680Y-67181247D01*
X60148302Y-67283058D01*
X60170526Y-67384139D01*
X60199558Y-67483926D01*
X60235603Y-67581854D01*
X60278865Y-67677357D01*
X60329549Y-67769870D01*
X60387859Y-67858828D01*
X60454001Y-67943666D01*
X60502547Y-67997657D01*
X60782083Y-67997657D01*
X60718191Y-67919136D01*
X60657962Y-67839274D01*
X60601969Y-67757312D01*
X60550784Y-67672488D01*
X60504980Y-67584042D01*
X60465129Y-67491212D01*
X60431803Y-67393238D01*
X60405575Y-67289360D01*
X60392315Y-67216452D01*
X60382634Y-67140356D01*
X60376701Y-67060846D01*
X60374686Y-66977698D01*
X60376701Y-66894893D01*
X60382634Y-66815597D01*
X60392315Y-66739604D01*
X60405575Y-66666707D01*
X60431803Y-66562709D01*
X60465129Y-66464506D01*
X60504980Y-66371398D01*
X60550784Y-66282683D01*
X60601969Y-66197661D01*
X60657962Y-66115630D01*
X60718191Y-66035891D01*
X60782083Y-65957740D01*
X60502547Y-65957740D01*
X60431071Y-66039103D01*
X60367562Y-66125143D01*
X60311817Y-66215262D01*
X60263630Y-66308862D01*
X60222796Y-66405345D01*
X60189112Y-66504114D01*
X60162371Y-66604572D01*
X60142371Y-66706119D01*
X60128905Y-66808160D01*
X60121770Y-66910095D01*
X60120429Y-66977698D01*
G37*
G36*
X61847070Y-66195509D02*
G01*
X61924848Y-66205185D01*
X61997447Y-66220923D01*
X62081183Y-66248636D01*
X62157448Y-66284705D01*
X62226586Y-66328508D01*
X62288939Y-66379426D01*
X62301974Y-66391790D01*
X62362312Y-66458547D01*
X62413989Y-66532866D01*
X62456185Y-66613853D01*
X62482561Y-66682839D01*
X62501923Y-66755058D01*
X62513848Y-66830050D01*
X62517917Y-66907356D01*
X62517108Y-66942770D01*
X62508197Y-67029018D01*
X62489922Y-67111511D01*
X62462880Y-67189637D01*
X62427666Y-67262783D01*
X62384874Y-67330338D01*
X62335101Y-67391690D01*
X62296923Y-67430399D01*
X62226537Y-67488032D01*
X62164010Y-67527510D01*
X62095820Y-67560676D01*
X62021842Y-67587144D01*
X61941952Y-67606528D01*
X61856026Y-67618442D01*
X61763939Y-67622500D01*
X60997139Y-67622500D01*
X60931162Y-67602953D01*
X60904815Y-67532374D01*
X60904815Y-66598145D01*
X61285101Y-66598145D01*
X61285101Y-67219132D01*
X61312212Y-67248808D01*
X61763939Y-67248808D01*
X61845969Y-67242880D01*
X61925343Y-67222492D01*
X61990734Y-67189065D01*
X62049337Y-67137800D01*
X62059325Y-67126357D01*
X62101263Y-67062426D01*
X62128148Y-66989264D01*
X62137631Y-66909555D01*
X62134762Y-66865123D01*
X62115927Y-66789107D01*
X62081183Y-66720556D01*
X62032484Y-66662259D01*
X61982848Y-66623338D01*
X61915089Y-66590831D01*
X61841261Y-66573519D01*
X61763939Y-66568469D01*
X61312212Y-66568469D01*
X61285101Y-66598145D01*
X60904815Y-66598145D01*
X60904815Y-66280507D01*
X60925358Y-66217229D01*
X60997139Y-66192213D01*
X61763939Y-66192213D01*
X61847070Y-66195509D01*
G37*
G36*
X64165823Y-67248808D02*
G01*
X63422470Y-67248808D01*
X63340437Y-67242880D01*
X63261029Y-67222492D01*
X63195540Y-67189065D01*
X63136706Y-67137800D01*
X63092124Y-67076036D01*
X63062206Y-67004506D01*
X63049167Y-66925891D01*
X63048779Y-66909555D01*
X63057921Y-66830595D01*
X63084011Y-66757552D01*
X63125044Y-66693215D01*
X63153559Y-66662259D01*
X63217213Y-66615018D01*
X63288280Y-66585420D01*
X63365817Y-66571069D01*
X63422470Y-66568469D01*
X64165823Y-66568469D01*
X64165823Y-66192213D01*
X63422470Y-66192213D01*
X63339339Y-66195509D01*
X63261562Y-66205185D01*
X63188963Y-66220923D01*
X63105226Y-66248636D01*
X63028961Y-66284705D01*
X62959824Y-66328508D01*
X62897470Y-66379426D01*
X62835499Y-66444561D01*
X62782024Y-66517440D01*
X62737866Y-66597165D01*
X62709801Y-66665271D01*
X62688646Y-66736725D01*
X62674823Y-66811067D01*
X62668750Y-66887838D01*
X62668493Y-66907356D01*
X62673469Y-66994935D01*
X62688018Y-67079003D01*
X62711570Y-67158950D01*
X62743554Y-67234161D01*
X62783401Y-67304026D01*
X62830539Y-67367933D01*
X62851308Y-67391690D01*
X62916473Y-67454515D01*
X62990200Y-67508536D01*
X63055509Y-67544906D01*
X63126577Y-67574771D01*
X63203530Y-67597746D01*
X63286491Y-67613443D01*
X63375585Y-67621477D01*
X63422470Y-67622500D01*
X64165823Y-67622500D01*
X64165823Y-67248808D01*
G37*
G36*
X64919801Y-66977698D02*
G01*
X64916772Y-66876165D01*
X64907550Y-66774128D01*
X64891929Y-66672186D01*
X64869704Y-66570935D01*
X64840672Y-66470974D01*
X64804627Y-66372901D01*
X64761365Y-66277312D01*
X64710682Y-66184806D01*
X64652371Y-66095980D01*
X64586229Y-66011433D01*
X64537683Y-65957740D01*
X64258147Y-65957740D01*
X64321562Y-66035891D01*
X64381385Y-66115630D01*
X64437039Y-66197661D01*
X64487946Y-66282683D01*
X64533527Y-66371398D01*
X64573206Y-66464506D01*
X64606403Y-66562709D01*
X64632543Y-66666707D01*
X64645763Y-66739604D01*
X64655417Y-66815597D01*
X64661335Y-66894893D01*
X64663346Y-66977698D01*
X64661355Y-67060846D01*
X64655492Y-67140356D01*
X64645920Y-67216452D01*
X64632801Y-67289360D01*
X64606830Y-67393238D01*
X64573797Y-67491212D01*
X64534254Y-67584042D01*
X64488751Y-67672488D01*
X64437838Y-67757312D01*
X64382066Y-67839274D01*
X64321985Y-67919136D01*
X64258147Y-67997657D01*
X64537683Y-67997657D01*
X64609159Y-67915879D01*
X64672668Y-67829605D01*
X64728413Y-67739399D01*
X64776601Y-67645827D01*
X64817434Y-67549453D01*
X64851119Y-67450843D01*
X64877859Y-67350562D01*
X64897859Y-67249174D01*
X64911325Y-67147246D01*
X64918460Y-67045342D01*
X64919801Y-66977698D01*
G37*
G36*
X54205112Y-121122500D02*
G01*
X54205112Y-120759433D01*
X53219959Y-120759433D01*
X53147058Y-120748865D01*
X53099762Y-120688644D01*
X53093929Y-120623511D01*
X53093929Y-119692213D01*
X52711811Y-119692213D01*
X52711811Y-120659781D01*
X52714906Y-120742728D01*
X52724589Y-120817441D01*
X52748785Y-120904280D01*
X52787182Y-120976549D01*
X52841200Y-121034287D01*
X52912260Y-121077534D01*
X53001784Y-121106326D01*
X53081898Y-121118459D01*
X53173797Y-121122500D01*
X54205112Y-121122500D01*
G37*
G36*
X54353490Y-119692213D02*
G01*
X54353490Y-121122500D01*
X54735608Y-121122500D01*
X54735608Y-119692213D01*
X54353490Y-119692213D01*
G37*
G36*
X56709945Y-119692213D02*
G01*
X56338085Y-119692213D01*
X56338085Y-120616917D01*
X56308776Y-120655019D01*
X56272872Y-120638166D01*
X55580077Y-119802489D01*
X55522190Y-119746911D01*
X55453152Y-119703065D01*
X55376102Y-119677865D01*
X55298062Y-119669193D01*
X55273430Y-119668766D01*
X55187977Y-119675650D01*
X55112213Y-119697218D01*
X55048102Y-119734846D01*
X54997605Y-119789910D01*
X54962685Y-119863783D01*
X54947283Y-119937349D01*
X54943702Y-120001425D01*
X54943702Y-121122500D01*
X55317394Y-121122500D01*
X55317394Y-120159328D01*
X55352931Y-120119028D01*
X55386637Y-120138079D01*
X56165894Y-121040800D01*
X56228157Y-121092213D01*
X56302331Y-121126255D01*
X56378896Y-121142365D01*
X56443231Y-121145947D01*
X56519270Y-121136181D01*
X56588479Y-121105993D01*
X56646193Y-121054051D01*
X56687745Y-120979022D01*
X56706661Y-120897900D01*
X56709945Y-120840765D01*
X56709945Y-119692213D01*
G37*
G36*
X57118441Y-119692213D02*
G01*
X57039833Y-119701282D01*
X56973595Y-119733978D01*
X56929208Y-119799478D01*
X56916574Y-119883456D01*
X56916574Y-120925396D01*
X56926224Y-121002539D01*
X56960746Y-121067211D01*
X57029248Y-121110301D01*
X57104033Y-121122309D01*
X57116243Y-121122500D01*
X58409875Y-121122500D01*
X58409875Y-120759433D01*
X57330566Y-120759433D01*
X57296860Y-120719132D01*
X57296860Y-120536317D01*
X58403647Y-120536317D01*
X58403647Y-120263375D01*
X57296860Y-120263375D01*
X57296860Y-120103640D01*
X57330566Y-120068469D01*
X58409875Y-120068469D01*
X58409875Y-119692213D01*
X57118441Y-119692213D01*
G37*
G36*
X59456578Y-120477698D02*
G01*
X59459606Y-120579272D01*
X59468829Y-120681247D01*
X59484450Y-120783058D01*
X59506674Y-120884139D01*
X59535706Y-120983926D01*
X59571751Y-121081854D01*
X59615013Y-121177357D01*
X59665697Y-121269870D01*
X59724008Y-121358828D01*
X59790149Y-121443666D01*
X59838695Y-121497657D01*
X60118231Y-121497657D01*
X60054339Y-121419136D01*
X59994110Y-121339274D01*
X59938117Y-121257312D01*
X59886932Y-121172488D01*
X59841128Y-121084042D01*
X59801277Y-120991212D01*
X59767952Y-120893238D01*
X59741723Y-120789360D01*
X59728464Y-120716452D01*
X59718783Y-120640356D01*
X59712850Y-120560846D01*
X59710834Y-120477698D01*
X59712850Y-120394893D01*
X59718783Y-120315597D01*
X59728464Y-120239604D01*
X59741723Y-120166707D01*
X59767952Y-120062709D01*
X59801277Y-119964506D01*
X59841128Y-119871398D01*
X59886932Y-119782683D01*
X59938117Y-119697661D01*
X59994110Y-119615630D01*
X60054339Y-119535891D01*
X60118231Y-119457740D01*
X59838695Y-119457740D01*
X59767219Y-119539103D01*
X59703711Y-119625143D01*
X59647965Y-119715262D01*
X59599778Y-119808862D01*
X59558945Y-119905345D01*
X59525260Y-120004114D01*
X59498520Y-120104572D01*
X59478519Y-120206119D01*
X59465054Y-120308160D01*
X59457919Y-120410095D01*
X59456578Y-120477698D01*
G37*
G36*
X61155037Y-119669776D02*
G01*
X61239135Y-119681160D01*
X61314091Y-119705262D01*
X61380199Y-119742156D01*
X61437752Y-119791918D01*
X61487044Y-119854625D01*
X61528367Y-119930350D01*
X62040911Y-121058019D01*
X62063992Y-121122500D01*
X61635346Y-121122500D01*
X61618859Y-121073040D01*
X61543022Y-120896453D01*
X60702949Y-120896453D01*
X60629676Y-121070842D01*
X60614655Y-121122500D01*
X60175751Y-121122500D01*
X60198832Y-121058019D01*
X60412943Y-120583211D01*
X60841801Y-120583211D01*
X61404536Y-120583211D01*
X61186183Y-120076896D01*
X61183640Y-120071270D01*
X61120970Y-120032932D01*
X61118607Y-120032964D01*
X61057956Y-120076896D01*
X60841801Y-120583211D01*
X60412943Y-120583211D01*
X60707345Y-119930350D01*
X60722890Y-119898493D01*
X60766939Y-119827984D01*
X60818912Y-119770464D01*
X60879444Y-119725858D01*
X60949173Y-119694090D01*
X61028737Y-119675084D01*
X61118772Y-119668766D01*
X61155037Y-119669776D01*
G37*
G36*
X63503437Y-120748808D02*
G01*
X62760084Y-120748808D01*
X62678050Y-120742880D01*
X62598642Y-120722492D01*
X62533154Y-120689065D01*
X62474320Y-120637800D01*
X62429738Y-120576036D01*
X62399820Y-120504506D01*
X62386780Y-120425891D01*
X62386393Y-120409555D01*
X62395535Y-120330595D01*
X62421625Y-120257552D01*
X62462658Y-120193215D01*
X62491173Y-120162259D01*
X62554826Y-120115018D01*
X62625893Y-120085420D01*
X62703430Y-120071069D01*
X62760084Y-120068469D01*
X63503437Y-120068469D01*
X63503437Y-119692213D01*
X62760084Y-119692213D01*
X62676953Y-119695509D01*
X62599176Y-119705185D01*
X62526576Y-119720923D01*
X62442840Y-119748636D01*
X62366575Y-119784705D01*
X62297438Y-119828508D01*
X62235084Y-119879426D01*
X62173113Y-119944561D01*
X62119637Y-120017440D01*
X62075480Y-120097165D01*
X62047415Y-120165271D01*
X62026260Y-120236725D01*
X62012436Y-120311067D01*
X62006364Y-120387838D01*
X62006106Y-120407356D01*
X62011083Y-120494935D01*
X62025632Y-120579003D01*
X62049184Y-120658950D01*
X62081168Y-120734161D01*
X62121015Y-120804026D01*
X62168153Y-120867933D01*
X62188922Y-120891690D01*
X62254087Y-120954515D01*
X62327814Y-121008536D01*
X62393123Y-121044906D01*
X62464191Y-121074771D01*
X62541143Y-121097746D01*
X62624104Y-121113443D01*
X62713198Y-121121477D01*
X62760084Y-121122500D01*
X63503437Y-121122500D01*
X63503437Y-120748808D01*
G37*
G36*
X64257415Y-120477698D02*
G01*
X64254386Y-120376165D01*
X64245164Y-120274128D01*
X64229543Y-120172186D01*
X64207318Y-120070935D01*
X64178286Y-119970974D01*
X64142241Y-119872901D01*
X64098979Y-119777312D01*
X64048295Y-119684806D01*
X63989985Y-119595980D01*
X63923843Y-119511433D01*
X63875297Y-119457740D01*
X63595761Y-119457740D01*
X63659176Y-119535891D01*
X63718999Y-119615630D01*
X63774653Y-119697661D01*
X63825559Y-119782683D01*
X63871141Y-119871398D01*
X63910819Y-119964506D01*
X63944017Y-120062709D01*
X63970157Y-120166707D01*
X63983376Y-120239604D01*
X63993031Y-120315597D01*
X63998949Y-120394893D01*
X64000960Y-120477698D01*
X63998969Y-120560846D01*
X63993106Y-120640356D01*
X63983533Y-120716452D01*
X63970414Y-120789360D01*
X63944443Y-120893238D01*
X63911411Y-120991212D01*
X63871868Y-121084042D01*
X63826364Y-121172488D01*
X63775451Y-121257312D01*
X63719679Y-121339274D01*
X63659599Y-121419136D01*
X63595761Y-121497657D01*
X63875297Y-121497657D01*
X63946773Y-121415879D01*
X64010282Y-121329605D01*
X64066027Y-121239399D01*
X64114214Y-121145827D01*
X64155048Y-121049453D01*
X64188732Y-120950843D01*
X64215473Y-120850562D01*
X64235473Y-120749174D01*
X64248939Y-120647246D01*
X64256074Y-120545342D01*
X64257415Y-120477698D01*
G37*
D13*
G36*
X65699538Y-223923508D02*
G01*
X65884554Y-223948554D01*
X66049457Y-224001577D01*
X66194895Y-224082744D01*
X66321511Y-224192222D01*
X66429953Y-224330176D01*
X66520866Y-224496772D01*
X67648462Y-226977644D01*
X67699240Y-227119501D01*
X66756218Y-227119501D01*
X66719948Y-227010690D01*
X66553106Y-226622198D01*
X64704945Y-226622198D01*
X64543744Y-227005854D01*
X64510698Y-227119501D01*
X63545109Y-227119501D01*
X63595887Y-226977644D01*
X64066931Y-225933066D01*
X65010419Y-225933066D01*
X66248437Y-225933066D01*
X65768061Y-224819173D01*
X65762465Y-224806796D01*
X65624592Y-224722452D01*
X65619393Y-224722522D01*
X65485960Y-224819173D01*
X65010419Y-225933066D01*
X64066931Y-225933066D01*
X64714617Y-224496772D01*
X64748814Y-224426686D01*
X64845724Y-224271567D01*
X64960063Y-224145023D01*
X65093234Y-224046890D01*
X65246638Y-223977000D01*
X65421678Y-223935187D01*
X65619756Y-223921287D01*
X65699538Y-223923508D01*
G37*
G36*
X70866019Y-226297379D02*
G01*
X69230642Y-226297379D01*
X69050168Y-226284337D01*
X68875471Y-226239484D01*
X68731395Y-226165946D01*
X68601961Y-226053161D01*
X68503881Y-225917282D01*
X68438061Y-225759915D01*
X68409374Y-225586963D01*
X68408521Y-225551022D01*
X68428634Y-225377310D01*
X68486032Y-225216616D01*
X68576305Y-225075074D01*
X68639037Y-225006971D01*
X68779075Y-224903042D01*
X68935423Y-224837926D01*
X69106004Y-224806353D01*
X69230642Y-224800634D01*
X70866019Y-224800634D01*
X70866019Y-223972871D01*
X69230642Y-223972871D01*
X69047754Y-223980122D01*
X68876644Y-224001409D01*
X68716925Y-224036032D01*
X68532705Y-224097001D01*
X68364922Y-224176352D01*
X68212820Y-224272719D01*
X68075642Y-224384738D01*
X67939305Y-224528037D01*
X67821660Y-224688371D01*
X67724513Y-224863765D01*
X67662770Y-225013598D01*
X67616230Y-225170797D01*
X67585817Y-225334349D01*
X67572458Y-225503245D01*
X67571892Y-225546186D01*
X67582840Y-225738859D01*
X67614848Y-225923809D01*
X67666662Y-226099691D01*
X67737027Y-226265156D01*
X67824689Y-226418860D01*
X67928394Y-226559454D01*
X67974086Y-226611720D01*
X68117449Y-226749935D01*
X68279648Y-226868780D01*
X68423327Y-226948794D01*
X68579678Y-227014498D01*
X68748973Y-227065042D01*
X68931487Y-227099577D01*
X69127494Y-227117251D01*
X69230642Y-227119501D01*
X70866019Y-227119501D01*
X70866019Y-226297379D01*
G37*
G36*
X75453460Y-223973613D02*
G01*
X75626102Y-223991031D01*
X75805918Y-224043529D01*
X75946816Y-224127396D01*
X76066133Y-224265262D01*
X76133031Y-224438889D01*
X76150164Y-224607194D01*
X76142274Y-224721747D01*
X76092580Y-224898941D01*
X76001549Y-225046515D01*
X75874245Y-225164469D01*
X75715730Y-225252801D01*
X75239383Y-225454302D01*
X75687520Y-225847630D01*
X76020398Y-225542962D01*
X76094550Y-225454302D01*
X77064976Y-225454302D01*
X77039843Y-225490211D01*
X76921508Y-225608248D01*
X76191271Y-226296573D01*
X76967450Y-226985704D01*
X76982618Y-226998712D01*
X77097216Y-227119501D01*
X76011532Y-227119501D01*
X75937380Y-227041318D01*
X75650444Y-226791458D01*
X75598243Y-226835521D01*
X75446047Y-226946084D01*
X75294956Y-227026640D01*
X75137893Y-227080312D01*
X74967781Y-227110224D01*
X74777544Y-227119501D01*
X73872405Y-227119501D01*
X73766560Y-227115537D01*
X73575381Y-227084573D01*
X73411542Y-227024545D01*
X73245175Y-226911663D01*
X73121493Y-226760342D01*
X73053268Y-226614213D01*
X73012340Y-226447947D01*
X72998699Y-226263527D01*
X73002537Y-226156871D01*
X73003367Y-226151493D01*
X73959453Y-226151493D01*
X73962999Y-226198668D01*
X74055205Y-226336550D01*
X74218179Y-226371531D01*
X74772708Y-226371531D01*
X74787668Y-226371476D01*
X74958507Y-226357817D01*
X75119289Y-226301409D01*
X74532520Y-225772672D01*
X74139997Y-225936290D01*
X74032221Y-226001548D01*
X73959453Y-226151493D01*
X73003367Y-226151493D01*
X73028156Y-225990884D01*
X73096865Y-225811647D01*
X73191715Y-225679403D01*
X73326150Y-225563175D01*
X73465608Y-225482009D01*
X73636246Y-225411584D01*
X74015067Y-225281011D01*
X73862733Y-225145603D01*
X73838589Y-225123832D01*
X73716347Y-225001175D01*
X73617885Y-224870197D01*
X73549082Y-224708201D01*
X73545068Y-224672480D01*
X74463204Y-224672480D01*
X74463715Y-224691389D01*
X74546222Y-224831263D01*
X74750140Y-225009389D01*
X75100751Y-224892519D01*
X75207644Y-224850841D01*
X75299833Y-224709556D01*
X75272401Y-224602506D01*
X75115259Y-224545938D01*
X74689690Y-224545938D01*
X74581729Y-224552740D01*
X74463204Y-224672480D01*
X73545068Y-224672480D01*
X73529854Y-224537072D01*
X73538923Y-224435769D01*
X73600960Y-224263700D01*
X73704846Y-224134569D01*
X73859615Y-224035876D01*
X74030241Y-223986106D01*
X74195611Y-223972871D01*
X75406225Y-223972871D01*
X75453460Y-223973613D01*
G37*
G36*
X81278677Y-223980122D02*
G01*
X81449787Y-224001409D01*
X81609506Y-224036032D01*
X81793726Y-224097001D01*
X81961509Y-224176352D01*
X82113611Y-224272719D01*
X82250789Y-224384738D01*
X82279465Y-224411940D01*
X82412209Y-224558804D01*
X82525899Y-224722308D01*
X82618729Y-224900478D01*
X82676758Y-225052247D01*
X82719353Y-225211128D01*
X82745589Y-225376112D01*
X82754540Y-225546186D01*
X82752759Y-225624095D01*
X82733155Y-225813841D01*
X82692952Y-225995325D01*
X82633459Y-226167202D01*
X82555987Y-226328125D01*
X82461846Y-226476746D01*
X82352345Y-226611720D01*
X82268352Y-226696880D01*
X82113504Y-226823673D01*
X81975944Y-226910523D01*
X81825926Y-226983488D01*
X81663175Y-227041718D01*
X81487418Y-227084364D01*
X81298380Y-227110575D01*
X81095789Y-227119501D01*
X79408828Y-227119501D01*
X79263679Y-227076498D01*
X79205716Y-226921224D01*
X79205716Y-224865921D01*
X80042345Y-224865921D01*
X80042345Y-226232093D01*
X80101989Y-226297379D01*
X81095789Y-226297379D01*
X81276255Y-226284337D01*
X81450878Y-226239484D01*
X81594737Y-226165946D01*
X81723664Y-226053161D01*
X81745637Y-226027987D01*
X81837901Y-225887338D01*
X81897047Y-225726382D01*
X81917910Y-225551022D01*
X81911599Y-225453273D01*
X81870163Y-225286036D01*
X81793725Y-225135225D01*
X81686588Y-225006971D01*
X81577387Y-224921346D01*
X81428317Y-224849830D01*
X81265898Y-224811743D01*
X81095789Y-224800634D01*
X80101989Y-224800634D01*
X80042345Y-224865921D01*
X79205716Y-224865921D01*
X79205716Y-224167117D01*
X79250909Y-224027906D01*
X79408828Y-223972871D01*
X81095789Y-223972871D01*
X81278677Y-223980122D01*
G37*
G36*
X86379934Y-226297379D02*
G01*
X84744557Y-226297379D01*
X84564083Y-226284337D01*
X84389386Y-226239484D01*
X84245310Y-226165946D01*
X84115876Y-226053161D01*
X84017795Y-225917282D01*
X83951976Y-225759915D01*
X83923289Y-225586963D01*
X83922436Y-225551022D01*
X83942549Y-225377310D01*
X83999947Y-225216616D01*
X84090220Y-225075074D01*
X84152952Y-225006971D01*
X84292990Y-224903042D01*
X84449338Y-224837926D01*
X84619919Y-224806353D01*
X84744557Y-224800634D01*
X86379934Y-224800634D01*
X86379934Y-223972871D01*
X84744557Y-223972871D01*
X84561669Y-223980122D01*
X84390559Y-224001409D01*
X84230840Y-224036032D01*
X84046620Y-224097001D01*
X83878837Y-224176352D01*
X83726735Y-224272719D01*
X83589557Y-224384738D01*
X83453220Y-224528037D01*
X83335574Y-224688371D01*
X83238428Y-224863765D01*
X83176685Y-225013598D01*
X83130145Y-225170797D01*
X83099732Y-225334349D01*
X83086373Y-225503245D01*
X83085806Y-225546186D01*
X83096755Y-225738859D01*
X83128763Y-225923809D01*
X83180577Y-226099691D01*
X83250942Y-226265156D01*
X83338604Y-226418860D01*
X83442309Y-226559454D01*
X83488001Y-226611720D01*
X83631364Y-226749935D01*
X83793562Y-226868780D01*
X83937242Y-226948794D01*
X84093593Y-227014498D01*
X84262888Y-227065042D01*
X84445402Y-227099577D01*
X84641409Y-227117251D01*
X84744557Y-227119501D01*
X86379934Y-227119501D01*
X86379934Y-226297379D01*
G37*
D11*
G36*
X89448804Y-216977346D02*
G01*
X89552507Y-216990247D01*
X89649306Y-217011231D01*
X89760955Y-217048182D01*
X89862641Y-217096273D01*
X89954825Y-217154678D01*
X90037963Y-217222568D01*
X90055342Y-217239054D01*
X90135793Y-217328062D01*
X90204696Y-217427155D01*
X90260956Y-217535137D01*
X90296125Y-217627119D01*
X90321941Y-217723410D01*
X90337841Y-217823400D01*
X90343266Y-217926475D01*
X90342192Y-217973693D01*
X90330360Y-218088691D01*
X90306069Y-218198681D01*
X90270078Y-218302849D01*
X90223148Y-218400378D01*
X90166039Y-218490451D01*
X90099512Y-218572254D01*
X90048731Y-218623866D01*
X89955034Y-218700710D01*
X89871733Y-218753346D01*
X89780836Y-218797568D01*
X89682176Y-218832859D01*
X89575588Y-218858705D01*
X89460905Y-218874590D01*
X89337963Y-218880000D01*
X88940335Y-218880000D01*
X88877821Y-218878636D01*
X88759029Y-218867925D01*
X88648414Y-218846995D01*
X88545811Y-218816362D01*
X88451053Y-218776541D01*
X88363975Y-218728048D01*
X88265673Y-218656020D01*
X88178786Y-218572254D01*
X88151094Y-218540577D01*
X88088242Y-218455369D01*
X88035114Y-218362215D01*
X87992468Y-218261933D01*
X87961066Y-218155338D01*
X87941667Y-218043247D01*
X87935199Y-217929406D01*
X88442080Y-217929406D01*
X88442597Y-217951189D01*
X88459983Y-218056008D01*
X88499873Y-218151382D01*
X88559316Y-218233733D01*
X88637761Y-218302087D01*
X88725080Y-218346656D01*
X88830957Y-218373840D01*
X88940335Y-218381744D01*
X89337963Y-218381744D01*
X89447341Y-218373840D01*
X89553218Y-218346656D01*
X89640537Y-218302087D01*
X89718981Y-218233733D01*
X89732293Y-218218476D01*
X89788061Y-218133235D01*
X89823687Y-218035685D01*
X89836218Y-217929406D01*
X89832425Y-217870164D01*
X89807479Y-217768809D01*
X89761348Y-217677408D01*
X89696511Y-217599678D01*
X89630321Y-217547785D01*
X89539910Y-217504441D01*
X89441314Y-217481359D01*
X89337963Y-217474626D01*
X88940335Y-217474626D01*
X88864797Y-217478092D01*
X88761414Y-217497227D01*
X88666658Y-217536691D01*
X88581787Y-217599678D01*
X88543767Y-217640953D01*
X88489056Y-217726736D01*
X88454269Y-217824126D01*
X88442080Y-217929406D01*
X87935199Y-217929406D01*
X87935032Y-217926475D01*
X87935375Y-217900451D01*
X87943471Y-217798090D01*
X87961903Y-217698967D01*
X87990110Y-217603695D01*
X88027530Y-217512887D01*
X88086406Y-217406587D01*
X88157707Y-217309415D01*
X88240335Y-217222568D01*
X88323473Y-217154678D01*
X88415656Y-217096273D01*
X88517343Y-217048182D01*
X88628991Y-217011231D01*
X88725791Y-216990247D01*
X88829494Y-216977346D01*
X88940335Y-216972951D01*
X89337963Y-216972951D01*
X89448804Y-216977346D01*
G37*
G36*
X92086672Y-218880000D02*
G01*
X92212970Y-218875158D01*
X92324567Y-218860435D01*
X92421961Y-218835530D01*
X92530585Y-218785967D01*
X92616023Y-218717062D01*
X92679453Y-218628104D01*
X92722054Y-218518383D01*
X92741046Y-218422040D01*
X92749483Y-218313320D01*
X92750035Y-218274277D01*
X92750035Y-216972951D01*
X92240545Y-216972951D01*
X92240545Y-218217613D01*
X92218607Y-218320353D01*
X92135444Y-218385156D01*
X92052966Y-218395910D01*
X91266016Y-218395910D01*
X91167911Y-218378466D01*
X91097446Y-218303731D01*
X91083810Y-218217613D01*
X91083810Y-216972951D01*
X90574320Y-216972951D01*
X90574320Y-218274277D01*
X90579349Y-218387190D01*
X90594770Y-218487626D01*
X90632360Y-218602648D01*
X90690498Y-218696730D01*
X90770369Y-218770582D01*
X90873158Y-218824914D01*
X91000050Y-218860435D01*
X91111749Y-218875158D01*
X91238172Y-218880000D01*
X92086672Y-218880000D01*
G37*
G36*
X92934194Y-216972951D02*
G01*
X92934194Y-217474626D01*
X93766085Y-217474626D01*
X93766085Y-218880000D01*
X94275576Y-218880000D01*
X94275576Y-217474626D01*
X95104536Y-217474626D01*
X95104536Y-216972951D01*
X92934194Y-216972951D01*
G37*
G36*
X55803559Y-198472951D02*
G01*
X55803559Y-200380000D01*
X56313050Y-200380000D01*
X56313050Y-198472951D01*
X55803559Y-198472951D01*
G37*
G36*
X58945499Y-198472951D02*
G01*
X58449686Y-198472951D01*
X58449686Y-199705889D01*
X58410607Y-199756692D01*
X58362736Y-199734221D01*
X57439009Y-198619986D01*
X57361827Y-198545882D01*
X57269776Y-198487420D01*
X57167043Y-198453820D01*
X57062989Y-198442258D01*
X57030147Y-198441688D01*
X56916209Y-198450867D01*
X56815191Y-198479625D01*
X56729709Y-198529795D01*
X56662380Y-198603213D01*
X56615820Y-198701711D01*
X56595284Y-198799799D01*
X56590510Y-198885233D01*
X56590510Y-200380000D01*
X57088765Y-200380000D01*
X57088765Y-199095771D01*
X57136148Y-199042037D01*
X57181089Y-199067438D01*
X58220098Y-200271067D01*
X58303116Y-200339618D01*
X58402015Y-200385007D01*
X58504101Y-200406487D01*
X58589882Y-200411263D01*
X58691267Y-200398241D01*
X58783545Y-200357991D01*
X58860497Y-200288735D01*
X58915900Y-200188696D01*
X58941121Y-200080533D01*
X58945499Y-200004354D01*
X58945499Y-198472951D01*
G37*
G36*
X60289812Y-198472951D02*
G01*
X60289812Y-198974626D01*
X60600489Y-198974626D01*
X60673009Y-199043937D01*
X60673273Y-199053761D01*
X60673273Y-200380000D01*
X61177390Y-200380000D01*
X61177390Y-198977069D01*
X61171769Y-198854148D01*
X61153943Y-198749511D01*
X61112301Y-198643536D01*
X61046517Y-198564078D01*
X60953775Y-198509995D01*
X60858277Y-198484233D01*
X60742281Y-198473397D01*
X60709910Y-198472951D01*
X60289812Y-198472951D01*
G37*
G36*
X71797941Y-144322951D02*
G01*
X71797941Y-146230000D01*
X72307432Y-146230000D01*
X72307432Y-144322951D01*
X71797941Y-144322951D01*
G37*
G36*
X74939881Y-144322951D02*
G01*
X74444068Y-144322951D01*
X74444068Y-145555889D01*
X74404989Y-145606692D01*
X74357118Y-145584221D01*
X73433391Y-144469986D01*
X73356209Y-144395882D01*
X73264158Y-144337420D01*
X73161425Y-144303820D01*
X73057371Y-144292258D01*
X73024529Y-144291688D01*
X72910591Y-144300867D01*
X72809573Y-144329625D01*
X72724091Y-144379795D01*
X72656762Y-144453213D01*
X72610202Y-144551711D01*
X72589666Y-144649799D01*
X72584892Y-144735233D01*
X72584892Y-146230000D01*
X73083147Y-146230000D01*
X73083147Y-144945771D01*
X73130530Y-144892037D01*
X73175471Y-144917438D01*
X74214480Y-146121067D01*
X74297498Y-146189618D01*
X74396397Y-146235007D01*
X74498483Y-146256487D01*
X74584264Y-146261263D01*
X74685649Y-146248241D01*
X74777927Y-146207991D01*
X74854879Y-146138735D01*
X74910282Y-146038696D01*
X74935503Y-145930533D01*
X74939881Y-145854354D01*
X74939881Y-144322951D01*
G37*
G36*
X76692388Y-144326577D02*
G01*
X76801303Y-144340919D01*
X76898187Y-144365493D01*
X77000122Y-144407482D01*
X77088237Y-144461939D01*
X77164445Y-144527627D01*
X77188539Y-144552857D01*
X77252907Y-144635231D01*
X77304652Y-144726518D01*
X77342809Y-144825288D01*
X77366412Y-144930112D01*
X77374494Y-145039560D01*
X77371647Y-145104337D01*
X77353469Y-145214098D01*
X77319548Y-145317990D01*
X77271111Y-145414510D01*
X77209386Y-145502156D01*
X77184447Y-145530457D01*
X77100125Y-145607119D01*
X77018207Y-145660535D01*
X76924851Y-145703290D01*
X76819263Y-145734309D01*
X76700650Y-145752520D01*
X76595848Y-145757145D01*
X75725366Y-145757145D01*
X75725366Y-146230000D01*
X75218318Y-146230000D01*
X75218318Y-144865170D01*
X75725366Y-144865170D01*
X75725366Y-145292107D01*
X76607083Y-145292107D01*
X76647021Y-145290503D01*
X76749420Y-145264427D01*
X76825925Y-145199295D01*
X76850437Y-145157389D01*
X76870377Y-145060076D01*
X76864588Y-145003113D01*
X76822994Y-144911577D01*
X76796845Y-144884143D01*
X76704905Y-144836226D01*
X76607083Y-144824626D01*
X75761514Y-144824626D01*
X75725366Y-144865170D01*
X75218318Y-144865170D01*
X75218318Y-144440676D01*
X75245708Y-144356306D01*
X75341417Y-144322951D01*
X76595848Y-144322951D01*
X76692388Y-144326577D01*
G37*
G36*
X79079798Y-146230000D02*
G01*
X79206096Y-146225158D01*
X79317693Y-146210435D01*
X79415087Y-146185530D01*
X79523711Y-146135967D01*
X79609149Y-146067062D01*
X79672579Y-145978104D01*
X79715180Y-145868383D01*
X79734172Y-145772040D01*
X79742609Y-145663320D01*
X79743161Y-145624277D01*
X79743161Y-144322951D01*
X79233671Y-144322951D01*
X79233671Y-145567613D01*
X79211733Y-145670353D01*
X79128570Y-145735156D01*
X79046092Y-145745910D01*
X78259142Y-145745910D01*
X78161037Y-145728466D01*
X78090572Y-145653731D01*
X78076936Y-145567613D01*
X78076936Y-144322951D01*
X77567446Y-144322951D01*
X77567446Y-145624277D01*
X77572475Y-145737190D01*
X77587896Y-145837626D01*
X77625486Y-145952648D01*
X77683624Y-146046730D01*
X77763495Y-146120582D01*
X77866284Y-146174914D01*
X77993176Y-146210435D01*
X78104875Y-146225158D01*
X78231298Y-146230000D01*
X79079798Y-146230000D01*
G37*
G36*
X79927320Y-144322951D02*
G01*
X79927320Y-144824626D01*
X80759211Y-144824626D01*
X80759211Y-146230000D01*
X81268702Y-146230000D01*
X81268702Y-144824626D01*
X82097662Y-144824626D01*
X82097662Y-144322951D01*
X79927320Y-144322951D01*
G37*
G36*
X83398011Y-144322951D02*
G01*
X83398011Y-144824626D01*
X84520551Y-144824626D01*
X84551326Y-144850027D01*
X84523482Y-144887152D01*
X84195708Y-145097690D01*
X84117574Y-145161193D01*
X84081371Y-145253661D01*
X84080914Y-145268171D01*
X84104097Y-145366439D01*
X84183868Y-145425038D01*
X84266050Y-145435722D01*
X84646581Y-145435722D01*
X84749271Y-145457200D01*
X84810721Y-145535313D01*
X84817551Y-145589595D01*
X84788718Y-145689689D01*
X84699856Y-145741088D01*
X84646581Y-145745910D01*
X83392149Y-145745910D01*
X83392149Y-146230000D01*
X84798011Y-146230000D01*
X84902212Y-146223188D01*
X85026932Y-146194327D01*
X85134866Y-146145401D01*
X85225425Y-146079183D01*
X85298019Y-145998441D01*
X85352060Y-145905947D01*
X85386956Y-145804472D01*
X85402118Y-145696785D01*
X85402756Y-145669218D01*
X85393519Y-145546364D01*
X85366685Y-145439813D01*
X85323570Y-145349107D01*
X85248789Y-145257310D01*
X85153198Y-145188661D01*
X85063470Y-145149807D01*
X84963388Y-145124738D01*
X84909874Y-145117229D01*
X84890335Y-145094759D01*
X84901570Y-145071800D01*
X85209316Y-144844166D01*
X85283638Y-144777320D01*
X85337940Y-144688667D01*
X85352442Y-144600411D01*
X85337186Y-144503582D01*
X85282548Y-144412438D01*
X85202395Y-144355721D01*
X85092247Y-144326063D01*
X85035904Y-144322951D01*
X83398011Y-144322951D01*
G37*
G36*
X88573517Y-146230000D02*
G01*
X88667623Y-146196473D01*
X88693685Y-146109832D01*
X88693685Y-145185617D01*
X88189567Y-145185617D01*
X88189567Y-145700481D01*
X88153419Y-145740048D01*
X87668842Y-145740048D01*
X87559463Y-145731071D01*
X87453586Y-145701026D01*
X87366267Y-145653476D01*
X87287823Y-145583733D01*
X87228380Y-145501382D01*
X87188489Y-145406008D01*
X87171103Y-145301189D01*
X87170586Y-145279406D01*
X87182776Y-145174126D01*
X87217563Y-145076736D01*
X87272273Y-144990953D01*
X87310293Y-144949678D01*
X87395164Y-144886691D01*
X87489921Y-144847227D01*
X87593303Y-144828092D01*
X87668842Y-144824626D01*
X88690754Y-144824626D01*
X88690754Y-144322951D01*
X87668842Y-144322951D01*
X87558000Y-144327346D01*
X87454297Y-144340247D01*
X87357498Y-144361231D01*
X87245849Y-144398182D01*
X87144163Y-144446273D01*
X87051980Y-144504678D01*
X86968842Y-144572568D01*
X86886213Y-144659415D01*
X86814912Y-144756587D01*
X86756036Y-144862887D01*
X86718616Y-144953695D01*
X86690410Y-145048967D01*
X86671978Y-145148090D01*
X86663881Y-145250451D01*
X86663538Y-145276475D01*
X86670173Y-145393084D01*
X86689572Y-145505122D01*
X86720975Y-145611739D01*
X86763620Y-145712086D01*
X86816749Y-145805314D01*
X86879600Y-145890572D01*
X86907292Y-145922254D01*
X86994179Y-146006020D01*
X87092481Y-146078048D01*
X87179560Y-146126541D01*
X87274317Y-146166362D01*
X87376921Y-146196995D01*
X87487535Y-146217925D01*
X87606327Y-146228636D01*
X87668842Y-146230000D01*
X88573517Y-146230000D01*
G37*
G36*
X90151807Y-144293035D02*
G01*
X90263938Y-144308214D01*
X90363879Y-144340349D01*
X90452023Y-144389541D01*
X90528760Y-144455891D01*
X90594483Y-144539500D01*
X90649581Y-144640467D01*
X91332973Y-146144026D01*
X91363747Y-146230000D01*
X90792219Y-146230000D01*
X90770237Y-146164054D01*
X90669121Y-145928604D01*
X89549023Y-145928604D01*
X89451326Y-146161123D01*
X89431298Y-146230000D01*
X88846092Y-146230000D01*
X88876867Y-146144026D01*
X89162348Y-145510949D01*
X89734159Y-145510949D01*
X90484473Y-145510949D01*
X90193336Y-144835861D01*
X90189944Y-144828361D01*
X90106385Y-144777243D01*
X90103234Y-144777285D01*
X90022366Y-144835861D01*
X89734159Y-145510949D01*
X89162348Y-145510949D01*
X89554885Y-144640467D01*
X89575611Y-144597991D01*
X89634344Y-144503979D01*
X89703640Y-144427286D01*
X89784350Y-144367811D01*
X89877322Y-144325454D01*
X89983407Y-144300113D01*
X90103454Y-144291688D01*
X90151807Y-144293035D01*
G37*
G36*
X91564026Y-144322951D02*
G01*
X91564026Y-146230000D01*
X92073517Y-146230000D01*
X92073517Y-144322951D01*
X91564026Y-144322951D01*
G37*
G36*
X94705966Y-144322951D02*
G01*
X94210153Y-144322951D01*
X94210153Y-145555889D01*
X94171075Y-145606692D01*
X94123203Y-145584221D01*
X93199477Y-144469986D01*
X93122294Y-144395882D01*
X93030243Y-144337420D01*
X92927510Y-144303820D01*
X92823456Y-144292258D01*
X92790614Y-144291688D01*
X92676676Y-144300867D01*
X92575658Y-144329625D01*
X92490176Y-144379795D01*
X92422847Y-144453213D01*
X92376287Y-144551711D01*
X92355751Y-144649799D01*
X92350977Y-144735233D01*
X92350977Y-146230000D01*
X92849232Y-146230000D01*
X92849232Y-144945771D01*
X92896615Y-144892037D01*
X92941556Y-144917438D01*
X93980565Y-146121067D01*
X94063583Y-146189618D01*
X94162482Y-146235007D01*
X94264568Y-146256487D01*
X94350349Y-146261263D01*
X94451734Y-146248241D01*
X94544012Y-146207991D01*
X94620964Y-146138735D01*
X94676367Y-146038696D01*
X94701588Y-145930533D01*
X94705966Y-145854354D01*
X94705966Y-144322951D01*
G37*
G36*
X72311828Y-73322951D02*
G01*
X72311828Y-75230000D01*
X72821319Y-75230000D01*
X72821319Y-73322951D01*
X72311828Y-73322951D01*
G37*
G36*
X75453768Y-73322951D02*
G01*
X74957955Y-73322951D01*
X74957955Y-74555889D01*
X74918876Y-74606692D01*
X74871005Y-74584221D01*
X73947278Y-73469986D01*
X73870096Y-73395882D01*
X73778045Y-73337420D01*
X73675312Y-73303820D01*
X73571258Y-73292258D01*
X73538416Y-73291688D01*
X73424478Y-73300867D01*
X73323460Y-73329625D01*
X73237978Y-73379795D01*
X73170649Y-73453213D01*
X73124089Y-73551711D01*
X73103553Y-73649799D01*
X73098779Y-73735233D01*
X73098779Y-75230000D01*
X73597034Y-75230000D01*
X73597034Y-73945771D01*
X73644417Y-73892037D01*
X73689358Y-73917438D01*
X74728367Y-75121067D01*
X74811385Y-75189618D01*
X74910284Y-75235007D01*
X75012370Y-75256487D01*
X75098151Y-75261263D01*
X75199536Y-75248241D01*
X75291814Y-75207991D01*
X75368766Y-75138735D01*
X75424169Y-75038696D01*
X75449390Y-74930533D01*
X75453768Y-74854354D01*
X75453768Y-73322951D01*
G37*
G36*
X77206275Y-73326577D02*
G01*
X77315190Y-73340919D01*
X77412074Y-73365493D01*
X77514009Y-73407482D01*
X77602124Y-73461939D01*
X77678332Y-73527627D01*
X77702426Y-73552857D01*
X77766794Y-73635231D01*
X77818539Y-73726518D01*
X77856696Y-73825288D01*
X77880299Y-73930112D01*
X77888381Y-74039560D01*
X77885534Y-74104337D01*
X77867356Y-74214098D01*
X77833435Y-74317990D01*
X77784998Y-74414510D01*
X77723273Y-74502156D01*
X77698334Y-74530457D01*
X77614012Y-74607119D01*
X77532094Y-74660535D01*
X77438738Y-74703290D01*
X77333150Y-74734309D01*
X77214537Y-74752520D01*
X77109735Y-74757145D01*
X76239253Y-74757145D01*
X76239253Y-75230000D01*
X75732205Y-75230000D01*
X75732205Y-73865170D01*
X76239253Y-73865170D01*
X76239253Y-74292107D01*
X77120970Y-74292107D01*
X77160908Y-74290503D01*
X77263307Y-74264427D01*
X77339812Y-74199295D01*
X77364324Y-74157389D01*
X77384264Y-74060076D01*
X77378475Y-74003113D01*
X77336881Y-73911577D01*
X77310732Y-73884143D01*
X77218792Y-73836226D01*
X77120970Y-73824626D01*
X76275401Y-73824626D01*
X76239253Y-73865170D01*
X75732205Y-73865170D01*
X75732205Y-73440676D01*
X75759595Y-73356306D01*
X75855304Y-73322951D01*
X77109735Y-73322951D01*
X77206275Y-73326577D01*
G37*
G36*
X79593685Y-75230000D02*
G01*
X79719983Y-75225158D01*
X79831580Y-75210435D01*
X79928974Y-75185530D01*
X80037598Y-75135967D01*
X80123036Y-75067062D01*
X80186466Y-74978104D01*
X80229067Y-74868383D01*
X80248059Y-74772040D01*
X80256496Y-74663320D01*
X80257048Y-74624277D01*
X80257048Y-73322951D01*
X79747558Y-73322951D01*
X79747558Y-74567613D01*
X79725620Y-74670353D01*
X79642457Y-74735156D01*
X79559979Y-74745910D01*
X78773029Y-74745910D01*
X78674924Y-74728466D01*
X78604459Y-74653731D01*
X78590823Y-74567613D01*
X78590823Y-73322951D01*
X78081333Y-73322951D01*
X78081333Y-74624277D01*
X78086362Y-74737190D01*
X78101783Y-74837626D01*
X78139373Y-74952648D01*
X78197511Y-75046730D01*
X78277382Y-75120582D01*
X78380171Y-75174914D01*
X78507063Y-75210435D01*
X78618762Y-75225158D01*
X78745185Y-75230000D01*
X79593685Y-75230000D01*
G37*
G36*
X80441207Y-73322951D02*
G01*
X80441207Y-73824626D01*
X81273098Y-73824626D01*
X81273098Y-75230000D01*
X81782589Y-75230000D01*
X81782589Y-73824626D01*
X82611549Y-73824626D01*
X82611549Y-73322951D01*
X80441207Y-73322951D01*
G37*
G36*
X83875262Y-73322951D02*
G01*
X83875262Y-73824626D01*
X84185939Y-73824626D01*
X84258458Y-73893937D01*
X84258723Y-73903761D01*
X84258723Y-75230000D01*
X84762840Y-75230000D01*
X84762840Y-73827069D01*
X84757219Y-73704148D01*
X84739393Y-73599511D01*
X84697750Y-73493536D01*
X84631967Y-73414078D01*
X84539224Y-73359995D01*
X84443727Y-73334233D01*
X84327731Y-73323397D01*
X84295359Y-73322951D01*
X83875262Y-73322951D01*
G37*
G36*
X88059630Y-75230000D02*
G01*
X88153736Y-75196473D01*
X88179798Y-75109832D01*
X88179798Y-74185617D01*
X87675680Y-74185617D01*
X87675680Y-74700481D01*
X87639532Y-74740048D01*
X87154955Y-74740048D01*
X87045576Y-74731071D01*
X86939699Y-74701026D01*
X86852381Y-74653476D01*
X86773936Y-74583733D01*
X86714493Y-74501382D01*
X86674602Y-74406008D01*
X86657216Y-74301189D01*
X86656699Y-74279406D01*
X86668889Y-74174126D01*
X86703676Y-74076736D01*
X86758386Y-73990953D01*
X86796406Y-73949678D01*
X86881278Y-73886691D01*
X86976034Y-73847227D01*
X87079416Y-73828092D01*
X87154955Y-73824626D01*
X88176867Y-73824626D01*
X88176867Y-73322951D01*
X87154955Y-73322951D01*
X87044113Y-73327346D01*
X86940410Y-73340247D01*
X86843611Y-73361231D01*
X86731962Y-73398182D01*
X86630276Y-73446273D01*
X86538093Y-73504678D01*
X86454955Y-73572568D01*
X86372326Y-73659415D01*
X86301026Y-73756587D01*
X86242149Y-73862887D01*
X86204729Y-73953695D01*
X86176523Y-74048967D01*
X86158091Y-74148090D01*
X86149995Y-74250451D01*
X86149651Y-74276475D01*
X86156286Y-74393084D01*
X86175685Y-74505122D01*
X86207088Y-74611739D01*
X86249733Y-74712086D01*
X86302862Y-74805314D01*
X86365713Y-74890572D01*
X86393405Y-74922254D01*
X86480292Y-75006020D01*
X86578594Y-75078048D01*
X86665673Y-75126541D01*
X86760431Y-75166362D01*
X86863034Y-75196995D01*
X86973648Y-75217925D01*
X87092440Y-75228636D01*
X87154955Y-75230000D01*
X88059630Y-75230000D01*
G37*
G36*
X89637920Y-73293035D02*
G01*
X89750051Y-73308214D01*
X89849992Y-73340349D01*
X89938136Y-73389541D01*
X90014873Y-73455891D01*
X90080596Y-73539500D01*
X90135694Y-73640467D01*
X90819086Y-75144026D01*
X90849860Y-75230000D01*
X90278332Y-75230000D01*
X90256350Y-75164054D01*
X90155234Y-74928604D01*
X89035136Y-74928604D01*
X88937439Y-75161123D01*
X88917411Y-75230000D01*
X88332205Y-75230000D01*
X88362980Y-75144026D01*
X88648461Y-74510949D01*
X89220272Y-74510949D01*
X89970586Y-74510949D01*
X89679449Y-73835861D01*
X89676057Y-73828361D01*
X89592498Y-73777243D01*
X89589347Y-73777285D01*
X89508479Y-73835861D01*
X89220272Y-74510949D01*
X88648461Y-74510949D01*
X89040998Y-73640467D01*
X89061724Y-73597991D01*
X89120457Y-73503979D01*
X89189753Y-73427286D01*
X89270463Y-73367811D01*
X89363435Y-73325454D01*
X89469520Y-73300113D01*
X89589567Y-73291688D01*
X89637920Y-73293035D01*
G37*
G36*
X91050140Y-73322951D02*
G01*
X91050140Y-75230000D01*
X91559630Y-75230000D01*
X91559630Y-73322951D01*
X91050140Y-73322951D01*
G37*
G36*
X94192080Y-73322951D02*
G01*
X93696267Y-73322951D01*
X93696267Y-74555889D01*
X93657188Y-74606692D01*
X93609316Y-74584221D01*
X92685590Y-73469986D01*
X92608407Y-73395882D01*
X92516356Y-73337420D01*
X92413623Y-73303820D01*
X92309569Y-73292258D01*
X92276727Y-73291688D01*
X92162789Y-73300867D01*
X92061771Y-73329625D01*
X91976289Y-73379795D01*
X91908960Y-73453213D01*
X91862401Y-73551711D01*
X91841864Y-73649799D01*
X91837090Y-73735233D01*
X91837090Y-75230000D01*
X92335345Y-75230000D01*
X92335345Y-73945771D01*
X92382729Y-73892037D01*
X92427669Y-73917438D01*
X93466678Y-75121067D01*
X93549696Y-75189618D01*
X93648595Y-75235007D01*
X93750681Y-75256487D01*
X93836462Y-75261263D01*
X93937847Y-75248241D01*
X94030126Y-75207991D01*
X94107077Y-75138735D01*
X94162480Y-75038696D01*
X94187701Y-74930533D01*
X94192080Y-74854354D01*
X94192080Y-73322951D01*
G37*
G36*
X71778925Y-198472951D02*
G01*
X71778925Y-200380000D01*
X72288416Y-200380000D01*
X72288416Y-198472951D01*
X71778925Y-198472951D01*
G37*
G36*
X74920865Y-198472951D02*
G01*
X74425052Y-198472951D01*
X74425052Y-199705889D01*
X74385973Y-199756692D01*
X74338102Y-199734221D01*
X73414375Y-198619986D01*
X73337193Y-198545882D01*
X73245142Y-198487420D01*
X73142409Y-198453820D01*
X73038355Y-198442258D01*
X73005513Y-198441688D01*
X72891575Y-198450867D01*
X72790557Y-198479625D01*
X72705075Y-198529795D01*
X72637746Y-198603213D01*
X72591186Y-198701711D01*
X72570650Y-198799799D01*
X72565876Y-198885233D01*
X72565876Y-200380000D01*
X73064131Y-200380000D01*
X73064131Y-199095771D01*
X73111514Y-199042037D01*
X73156455Y-199067438D01*
X74195464Y-200271067D01*
X74278482Y-200339618D01*
X74377381Y-200385007D01*
X74479467Y-200406487D01*
X74565248Y-200411263D01*
X74666633Y-200398241D01*
X74758911Y-200357991D01*
X74835863Y-200288735D01*
X74891266Y-200188696D01*
X74916487Y-200080533D01*
X74920865Y-200004354D01*
X74920865Y-198472951D01*
G37*
G36*
X76276413Y-198974626D02*
G01*
X77587020Y-198974626D01*
X77682763Y-198999478D01*
X77715492Y-199079651D01*
X77671061Y-199166735D01*
X77620726Y-199193468D01*
X76514306Y-199642875D01*
X76422288Y-199689360D01*
X76340345Y-199753737D01*
X76278515Y-199836886D01*
X76243932Y-199936657D01*
X76237334Y-200010704D01*
X76250919Y-200112263D01*
X76292847Y-200207408D01*
X76364875Y-200288487D01*
X76449160Y-200339790D01*
X76556587Y-200371585D01*
X76659874Y-200380000D01*
X78278716Y-200380000D01*
X78278716Y-199895910D01*
X77079972Y-199895910D01*
X77049197Y-199867578D01*
X77071668Y-199838757D01*
X77925541Y-199523196D01*
X78031499Y-199472840D01*
X78120564Y-199408377D01*
X78192298Y-199331942D01*
X78246267Y-199245670D01*
X78282034Y-199151697D01*
X78299163Y-199052158D01*
X78300698Y-199011263D01*
X78290477Y-198899635D01*
X78260329Y-198797115D01*
X78211027Y-198705483D01*
X78143344Y-198626519D01*
X78058053Y-198562004D01*
X77955926Y-198513717D01*
X77837736Y-198483439D01*
X77739018Y-198473621D01*
X77704257Y-198472951D01*
X76276413Y-198472951D01*
X76276413Y-198974626D01*
G37*
G36*
X55289672Y-216972951D02*
G01*
X55289672Y-218880000D01*
X55799163Y-218880000D01*
X55799163Y-216972951D01*
X55289672Y-216972951D01*
G37*
G36*
X58431612Y-216972951D02*
G01*
X57935799Y-216972951D01*
X57935799Y-218205889D01*
X57896720Y-218256692D01*
X57848849Y-218234221D01*
X56925122Y-217119986D01*
X56847940Y-217045882D01*
X56755889Y-216987420D01*
X56653156Y-216953820D01*
X56549102Y-216942258D01*
X56516260Y-216941688D01*
X56402322Y-216950867D01*
X56301304Y-216979625D01*
X56215822Y-217029795D01*
X56148493Y-217103213D01*
X56101933Y-217201711D01*
X56081397Y-217299799D01*
X56076623Y-217385233D01*
X56076623Y-218880000D01*
X56574878Y-218880000D01*
X56574878Y-217595771D01*
X56622261Y-217542037D01*
X56667202Y-217567438D01*
X57706211Y-218771067D01*
X57789229Y-218839618D01*
X57888128Y-218885007D01*
X57990214Y-218906487D01*
X58075995Y-218911263D01*
X58177380Y-218898241D01*
X58269658Y-218857991D01*
X58346610Y-218788735D01*
X58402013Y-218688696D01*
X58427234Y-218580533D01*
X58431612Y-218504354D01*
X58431612Y-216972951D01*
G37*
G36*
X59812561Y-216972951D02*
G01*
X59812561Y-217474626D01*
X60935101Y-217474626D01*
X60965876Y-217500027D01*
X60938032Y-217537152D01*
X60610259Y-217747690D01*
X60532124Y-217811193D01*
X60495922Y-217903661D01*
X60495464Y-217918171D01*
X60518647Y-218016439D01*
X60598419Y-218075038D01*
X60680600Y-218085722D01*
X61061131Y-218085722D01*
X61163822Y-218107200D01*
X61225271Y-218185313D01*
X61232101Y-218239595D01*
X61203268Y-218339689D01*
X61114406Y-218391088D01*
X61061131Y-218395910D01*
X59806700Y-218395910D01*
X59806700Y-218880000D01*
X61212561Y-218880000D01*
X61316762Y-218873188D01*
X61441482Y-218844327D01*
X61549416Y-218795401D01*
X61639975Y-218729183D01*
X61712570Y-218648441D01*
X61766610Y-218555947D01*
X61801506Y-218454472D01*
X61816668Y-218346785D01*
X61817307Y-218319218D01*
X61808069Y-218196364D01*
X61781235Y-218089813D01*
X61738120Y-217999107D01*
X61663339Y-217907310D01*
X61567748Y-217838661D01*
X61478021Y-217799807D01*
X61377938Y-217774738D01*
X61324425Y-217767229D01*
X61304885Y-217744759D01*
X61316120Y-217721800D01*
X61623866Y-217494166D01*
X61698189Y-217427320D01*
X61752491Y-217338667D01*
X61766993Y-217250411D01*
X61751736Y-217153582D01*
X61697099Y-217062438D01*
X61616946Y-217005721D01*
X61506797Y-216976063D01*
X61450454Y-216972951D01*
X59812561Y-216972951D01*
G37*
G36*
X71787194Y-108822951D02*
G01*
X71787194Y-110730000D01*
X72296685Y-110730000D01*
X72296685Y-108822951D01*
X71787194Y-108822951D01*
G37*
G36*
X74929134Y-108822951D02*
G01*
X74433321Y-108822951D01*
X74433321Y-110055889D01*
X74394242Y-110106692D01*
X74346371Y-110084221D01*
X73422644Y-108969986D01*
X73345462Y-108895882D01*
X73253411Y-108837420D01*
X73150678Y-108803820D01*
X73046624Y-108792258D01*
X73013782Y-108791688D01*
X72899844Y-108800867D01*
X72798826Y-108829625D01*
X72713344Y-108879795D01*
X72646015Y-108953213D01*
X72599455Y-109051711D01*
X72578919Y-109149799D01*
X72574145Y-109235233D01*
X72574145Y-110730000D01*
X73072400Y-110730000D01*
X73072400Y-109445771D01*
X73119783Y-109392037D01*
X73164724Y-109417438D01*
X74203733Y-110621067D01*
X74286751Y-110689618D01*
X74385650Y-110735007D01*
X74487736Y-110756487D01*
X74573517Y-110761263D01*
X74674902Y-110748241D01*
X74767180Y-110707991D01*
X74844132Y-110638735D01*
X74899535Y-110538696D01*
X74924756Y-110430533D01*
X74929134Y-110354354D01*
X74929134Y-108822951D01*
G37*
G36*
X76681641Y-108826577D02*
G01*
X76790556Y-108840919D01*
X76887440Y-108865493D01*
X76989375Y-108907482D01*
X77077490Y-108961939D01*
X77153698Y-109027627D01*
X77177792Y-109052857D01*
X77242160Y-109135231D01*
X77293905Y-109226518D01*
X77332062Y-109325288D01*
X77355665Y-109430112D01*
X77363747Y-109539560D01*
X77360900Y-109604337D01*
X77342722Y-109714098D01*
X77308801Y-109817990D01*
X77260364Y-109914510D01*
X77198639Y-110002156D01*
X77173700Y-110030457D01*
X77089378Y-110107119D01*
X77007460Y-110160535D01*
X76914104Y-110203290D01*
X76808516Y-110234309D01*
X76689903Y-110252520D01*
X76585101Y-110257145D01*
X75714619Y-110257145D01*
X75714619Y-110730000D01*
X75207571Y-110730000D01*
X75207571Y-109365170D01*
X75714619Y-109365170D01*
X75714619Y-109792107D01*
X76596336Y-109792107D01*
X76636274Y-109790503D01*
X76738673Y-109764427D01*
X76815178Y-109699295D01*
X76839690Y-109657389D01*
X76859630Y-109560076D01*
X76853841Y-109503113D01*
X76812247Y-109411577D01*
X76786098Y-109384143D01*
X76694158Y-109336226D01*
X76596336Y-109324626D01*
X75750767Y-109324626D01*
X75714619Y-109365170D01*
X75207571Y-109365170D01*
X75207571Y-108940676D01*
X75234961Y-108856306D01*
X75330670Y-108822951D01*
X76585101Y-108822951D01*
X76681641Y-108826577D01*
G37*
G36*
X79069051Y-110730000D02*
G01*
X79195349Y-110725158D01*
X79306946Y-110710435D01*
X79404340Y-110685530D01*
X79512964Y-110635967D01*
X79598402Y-110567062D01*
X79661832Y-110478104D01*
X79704433Y-110368383D01*
X79723425Y-110272040D01*
X79731862Y-110163320D01*
X79732414Y-110124277D01*
X79732414Y-108822951D01*
X79222924Y-108822951D01*
X79222924Y-110067613D01*
X79200986Y-110170353D01*
X79117823Y-110235156D01*
X79035345Y-110245910D01*
X78248395Y-110245910D01*
X78150290Y-110228466D01*
X78079825Y-110153731D01*
X78066189Y-110067613D01*
X78066189Y-108822951D01*
X77556699Y-108822951D01*
X77556699Y-110124277D01*
X77561728Y-110237190D01*
X77577149Y-110337626D01*
X77614739Y-110452648D01*
X77672877Y-110546730D01*
X77752748Y-110620582D01*
X77855537Y-110674914D01*
X77982429Y-110710435D01*
X78094128Y-110725158D01*
X78220551Y-110730000D01*
X79069051Y-110730000D01*
G37*
G36*
X79916573Y-108822951D02*
G01*
X79916573Y-109324626D01*
X80748464Y-109324626D01*
X80748464Y-110730000D01*
X81257955Y-110730000D01*
X81257955Y-109324626D01*
X82086915Y-109324626D01*
X82086915Y-108822951D01*
X79916573Y-108822951D01*
G37*
G36*
X83361863Y-109324626D02*
G01*
X84672470Y-109324626D01*
X84768213Y-109349478D01*
X84800942Y-109429651D01*
X84756511Y-109516735D01*
X84706175Y-109543468D01*
X83599755Y-109992875D01*
X83507738Y-110039360D01*
X83425795Y-110103737D01*
X83363965Y-110186886D01*
X83329382Y-110286657D01*
X83322784Y-110360704D01*
X83336369Y-110462263D01*
X83378297Y-110557408D01*
X83450325Y-110638487D01*
X83534610Y-110689790D01*
X83642037Y-110721585D01*
X83745324Y-110730000D01*
X85364166Y-110730000D01*
X85364166Y-110245910D01*
X84165422Y-110245910D01*
X84134647Y-110217578D01*
X84157118Y-110188757D01*
X85010991Y-109873196D01*
X85116949Y-109822840D01*
X85206013Y-109758377D01*
X85277748Y-109681942D01*
X85331717Y-109595670D01*
X85367484Y-109501697D01*
X85384612Y-109402158D01*
X85386148Y-109361263D01*
X85375927Y-109249635D01*
X85345779Y-109147115D01*
X85296477Y-109055483D01*
X85228794Y-108976519D01*
X85143503Y-108912004D01*
X85041376Y-108863717D01*
X84923186Y-108833439D01*
X84824468Y-108823621D01*
X84789707Y-108822951D01*
X83361863Y-108822951D01*
X83361863Y-109324626D01*
G37*
G36*
X88584263Y-110730000D02*
G01*
X88678369Y-110696473D01*
X88704431Y-110609832D01*
X88704431Y-109685617D01*
X88200314Y-109685617D01*
X88200314Y-110200481D01*
X88164166Y-110240048D01*
X87679588Y-110240048D01*
X87570209Y-110231071D01*
X87464332Y-110201026D01*
X87377014Y-110153476D01*
X87298569Y-110083733D01*
X87239126Y-110001382D01*
X87199236Y-109906008D01*
X87181849Y-109801189D01*
X87181332Y-109779406D01*
X87193522Y-109674126D01*
X87228309Y-109576736D01*
X87283020Y-109490953D01*
X87321039Y-109449678D01*
X87405911Y-109386691D01*
X87500667Y-109347227D01*
X87604049Y-109328092D01*
X87679588Y-109324626D01*
X88701500Y-109324626D01*
X88701500Y-108822951D01*
X87679588Y-108822951D01*
X87568746Y-108827346D01*
X87465043Y-108840247D01*
X87368244Y-108861231D01*
X87256596Y-108898182D01*
X87154909Y-108946273D01*
X87062726Y-109004678D01*
X86979588Y-109072568D01*
X86896959Y-109159415D01*
X86825659Y-109256587D01*
X86766782Y-109362887D01*
X86729362Y-109453695D01*
X86701156Y-109548967D01*
X86682724Y-109648090D01*
X86674628Y-109750451D01*
X86674284Y-109776475D01*
X86680920Y-109893084D01*
X86700319Y-110005122D01*
X86731721Y-110111739D01*
X86774367Y-110212086D01*
X86827495Y-110305314D01*
X86890346Y-110390572D01*
X86918039Y-110422254D01*
X87004925Y-110506020D01*
X87103227Y-110578048D01*
X87190306Y-110626541D01*
X87285064Y-110666362D01*
X87387667Y-110696995D01*
X87498282Y-110717925D01*
X87617074Y-110728636D01*
X87679588Y-110730000D01*
X88584263Y-110730000D01*
G37*
G36*
X90162553Y-108793035D02*
G01*
X90274684Y-108808214D01*
X90374625Y-108840349D01*
X90462769Y-108889541D01*
X90539507Y-108955891D01*
X90605229Y-109039500D01*
X90660328Y-109140467D01*
X91343719Y-110644026D01*
X91374494Y-110730000D01*
X90802965Y-110730000D01*
X90780984Y-110664054D01*
X90679867Y-110428604D01*
X89559769Y-110428604D01*
X89462072Y-110661123D01*
X89442044Y-110730000D01*
X88856838Y-110730000D01*
X88887613Y-110644026D01*
X89173094Y-110010949D01*
X89744905Y-110010949D01*
X90495219Y-110010949D01*
X90204082Y-109335861D01*
X90200690Y-109328361D01*
X90117132Y-109277243D01*
X90113980Y-109277285D01*
X90033112Y-109335861D01*
X89744905Y-110010949D01*
X89173094Y-110010949D01*
X89565631Y-109140467D01*
X89586357Y-109097991D01*
X89645090Y-109003979D01*
X89714387Y-108927286D01*
X89795096Y-108867811D01*
X89888068Y-108825454D01*
X89994153Y-108800113D01*
X90114201Y-108791688D01*
X90162553Y-108793035D01*
G37*
G36*
X91574773Y-108822951D02*
G01*
X91574773Y-110730000D01*
X92084263Y-110730000D01*
X92084263Y-108822951D01*
X91574773Y-108822951D01*
G37*
G36*
X94716713Y-108822951D02*
G01*
X94220900Y-108822951D01*
X94220900Y-110055889D01*
X94181821Y-110106692D01*
X94133949Y-110084221D01*
X93210223Y-108969986D01*
X93133040Y-108895882D01*
X93040989Y-108837420D01*
X92938256Y-108803820D01*
X92834202Y-108792258D01*
X92801360Y-108791688D01*
X92687422Y-108800867D01*
X92586404Y-108829625D01*
X92500922Y-108879795D01*
X92433594Y-108953213D01*
X92387034Y-109051711D01*
X92366498Y-109149799D01*
X92361723Y-109235233D01*
X92361723Y-110730000D01*
X92859979Y-110730000D01*
X92859979Y-109445771D01*
X92907362Y-109392037D01*
X92952302Y-109417438D01*
X93991312Y-110621067D01*
X94074330Y-110689618D01*
X94173229Y-110735007D01*
X94275314Y-110756487D01*
X94361095Y-110761263D01*
X94462480Y-110748241D01*
X94554759Y-110707991D01*
X94631710Y-110638735D01*
X94687114Y-110538696D01*
X94712334Y-110430533D01*
X94716713Y-110354354D01*
X94716713Y-108822951D01*
G37*
G36*
X71676343Y-216972951D02*
G01*
X71676343Y-218880000D01*
X72185834Y-218880000D01*
X72185834Y-216972951D01*
X71676343Y-216972951D01*
G37*
G36*
X74818283Y-216972951D02*
G01*
X74322470Y-216972951D01*
X74322470Y-218205889D01*
X74283391Y-218256692D01*
X74235520Y-218234221D01*
X73311793Y-217119986D01*
X73234611Y-217045882D01*
X73142560Y-216987420D01*
X73039827Y-216953820D01*
X72935773Y-216942258D01*
X72902931Y-216941688D01*
X72788993Y-216950867D01*
X72687975Y-216979625D01*
X72602493Y-217029795D01*
X72535164Y-217103213D01*
X72488604Y-217201711D01*
X72468068Y-217299799D01*
X72463294Y-217385233D01*
X72463294Y-218880000D01*
X72961549Y-218880000D01*
X72961549Y-217595771D01*
X73008932Y-217542037D01*
X73053873Y-217567438D01*
X74092882Y-218771067D01*
X74175900Y-218839618D01*
X74274799Y-218885007D01*
X74376885Y-218906487D01*
X74462666Y-218911263D01*
X74564051Y-218898241D01*
X74656329Y-218857991D01*
X74733281Y-218788735D01*
X74788684Y-218688696D01*
X74813905Y-218580533D01*
X74818283Y-218504354D01*
X74818283Y-216972951D01*
G37*
G36*
X78038825Y-216950352D02*
G01*
X78136934Y-216982356D01*
X78223517Y-217041828D01*
X78252214Y-217073247D01*
X78302408Y-217165415D01*
X78326752Y-217269762D01*
X78332938Y-217372533D01*
X78332938Y-218880000D01*
X77822959Y-218880000D01*
X77822959Y-218603517D01*
X76504047Y-218603517D01*
X76405931Y-218596945D01*
X76303407Y-218568047D01*
X76221214Y-218508262D01*
X76208543Y-218492781D01*
X76164468Y-218401863D01*
X76151361Y-218301144D01*
X76164000Y-218215354D01*
X76208442Y-218130662D01*
X76927076Y-218130662D01*
X76957851Y-218160949D01*
X77822959Y-218160949D01*
X77822959Y-217580628D01*
X77780949Y-217525429D01*
X77736497Y-217542037D01*
X76946615Y-218099888D01*
X76927076Y-218130662D01*
X76208442Y-218130662D01*
X76209979Y-218127732D01*
X76256324Y-218077234D01*
X76336008Y-218013914D01*
X77683252Y-217036454D01*
X77751525Y-216992384D01*
X77847567Y-216953383D01*
X77946546Y-216941688D01*
X78038825Y-216950352D01*
G37*
G36*
X71684612Y-179822951D02*
G01*
X71684612Y-181730000D01*
X72194103Y-181730000D01*
X72194103Y-179822951D01*
X71684612Y-179822951D01*
G37*
G36*
X74826552Y-179822951D02*
G01*
X74330739Y-179822951D01*
X74330739Y-181055889D01*
X74291660Y-181106692D01*
X74243789Y-181084221D01*
X73320062Y-179969986D01*
X73242880Y-179895882D01*
X73150829Y-179837420D01*
X73048096Y-179803820D01*
X72944042Y-179792258D01*
X72911200Y-179791688D01*
X72797262Y-179800867D01*
X72696244Y-179829625D01*
X72610762Y-179879795D01*
X72543433Y-179953213D01*
X72496873Y-180051711D01*
X72476337Y-180149799D01*
X72471563Y-180235233D01*
X72471563Y-181730000D01*
X72969818Y-181730000D01*
X72969818Y-180445771D01*
X73017201Y-180392037D01*
X73062142Y-180417438D01*
X74101151Y-181621067D01*
X74184169Y-181689618D01*
X74283068Y-181735007D01*
X74385154Y-181756487D01*
X74470935Y-181761263D01*
X74572320Y-181748241D01*
X74664598Y-181707991D01*
X74741550Y-181638735D01*
X74796953Y-181538696D01*
X74822174Y-181430533D01*
X74826552Y-181354354D01*
X74826552Y-179822951D01*
G37*
G36*
X76579059Y-179826577D02*
G01*
X76687974Y-179840919D01*
X76784858Y-179865493D01*
X76886793Y-179907482D01*
X76974908Y-179961939D01*
X77051116Y-180027627D01*
X77075210Y-180052857D01*
X77139578Y-180135231D01*
X77191323Y-180226518D01*
X77229480Y-180325288D01*
X77253083Y-180430112D01*
X77261165Y-180539560D01*
X77258318Y-180604337D01*
X77240140Y-180714098D01*
X77206219Y-180817990D01*
X77157782Y-180914510D01*
X77096057Y-181002156D01*
X77071118Y-181030457D01*
X76986796Y-181107119D01*
X76904878Y-181160535D01*
X76811522Y-181203290D01*
X76705934Y-181234309D01*
X76587321Y-181252520D01*
X76482519Y-181257145D01*
X75612037Y-181257145D01*
X75612037Y-181730000D01*
X75104989Y-181730000D01*
X75104989Y-180365170D01*
X75612037Y-180365170D01*
X75612037Y-180792107D01*
X76493754Y-180792107D01*
X76533692Y-180790503D01*
X76636091Y-180764427D01*
X76712596Y-180699295D01*
X76737108Y-180657389D01*
X76757048Y-180560076D01*
X76751259Y-180503113D01*
X76709665Y-180411577D01*
X76683516Y-180384143D01*
X76591576Y-180336226D01*
X76493754Y-180324626D01*
X75648185Y-180324626D01*
X75612037Y-180365170D01*
X75104989Y-180365170D01*
X75104989Y-179940676D01*
X75132379Y-179856306D01*
X75228088Y-179822951D01*
X76482519Y-179822951D01*
X76579059Y-179826577D01*
G37*
G36*
X78966469Y-181730000D02*
G01*
X79092767Y-181725158D01*
X79204364Y-181710435D01*
X79301758Y-181685530D01*
X79410382Y-181635967D01*
X79495820Y-181567062D01*
X79559250Y-181478104D01*
X79601851Y-181368383D01*
X79620843Y-181272040D01*
X79629280Y-181163320D01*
X79629832Y-181124277D01*
X79629832Y-179822951D01*
X79120342Y-179822951D01*
X79120342Y-181067613D01*
X79098404Y-181170353D01*
X79015241Y-181235156D01*
X78932763Y-181245910D01*
X78145813Y-181245910D01*
X78047708Y-181228466D01*
X77977243Y-181153731D01*
X77963607Y-181067613D01*
X77963607Y-179822951D01*
X77454117Y-179822951D01*
X77454117Y-181124277D01*
X77459146Y-181237190D01*
X77474567Y-181337626D01*
X77512157Y-181452648D01*
X77570295Y-181546730D01*
X77650166Y-181620582D01*
X77752955Y-181674914D01*
X77879847Y-181710435D01*
X77991546Y-181725158D01*
X78117969Y-181730000D01*
X78966469Y-181730000D01*
G37*
G36*
X79813991Y-179822951D02*
G01*
X79813991Y-180324626D01*
X80645882Y-180324626D01*
X80645882Y-181730000D01*
X81155373Y-181730000D01*
X81155373Y-180324626D01*
X81984333Y-180324626D01*
X81984333Y-179822951D01*
X79813991Y-179822951D01*
G37*
G36*
X85124275Y-179800352D02*
G01*
X85222384Y-179832356D01*
X85308967Y-179891828D01*
X85337664Y-179923247D01*
X85387857Y-180015415D01*
X85412202Y-180119762D01*
X85418388Y-180222533D01*
X85418388Y-181730000D01*
X84908409Y-181730000D01*
X84908409Y-181453517D01*
X83589497Y-181453517D01*
X83491380Y-181446945D01*
X83388857Y-181418047D01*
X83306664Y-181358262D01*
X83293992Y-181342781D01*
X83249918Y-181251863D01*
X83236811Y-181151144D01*
X83249450Y-181065354D01*
X83293892Y-180980662D01*
X84012526Y-180980662D01*
X84043300Y-181010949D01*
X84908409Y-181010949D01*
X84908409Y-180430628D01*
X84866399Y-180375429D01*
X84821947Y-180392037D01*
X84032065Y-180949888D01*
X84012526Y-180980662D01*
X83293892Y-180980662D01*
X83295429Y-180977732D01*
X83341774Y-180927234D01*
X83421458Y-180863914D01*
X84768702Y-179886454D01*
X84836975Y-179842384D01*
X84933017Y-179803383D01*
X85031995Y-179791688D01*
X85124275Y-179800352D01*
G37*
G36*
X88686845Y-181730000D02*
G01*
X88780951Y-181696473D01*
X88807013Y-181609832D01*
X88807013Y-180685617D01*
X88302896Y-180685617D01*
X88302896Y-181200481D01*
X88266748Y-181240048D01*
X87782170Y-181240048D01*
X87672791Y-181231071D01*
X87566914Y-181201026D01*
X87479596Y-181153476D01*
X87401151Y-181083733D01*
X87341708Y-181001382D01*
X87301818Y-180906008D01*
X87284431Y-180801189D01*
X87283914Y-180779406D01*
X87296104Y-180674126D01*
X87330891Y-180576736D01*
X87385602Y-180490953D01*
X87423621Y-180449678D01*
X87508493Y-180386691D01*
X87603249Y-180347227D01*
X87706631Y-180328092D01*
X87782170Y-180324626D01*
X88804082Y-180324626D01*
X88804082Y-179822951D01*
X87782170Y-179822951D01*
X87671328Y-179827346D01*
X87567625Y-179840247D01*
X87470826Y-179861231D01*
X87359178Y-179898182D01*
X87257491Y-179946273D01*
X87165308Y-180004678D01*
X87082170Y-180072568D01*
X86999541Y-180159415D01*
X86928241Y-180256587D01*
X86869364Y-180362887D01*
X86831944Y-180453695D01*
X86803738Y-180548967D01*
X86785306Y-180648090D01*
X86777210Y-180750451D01*
X86776866Y-180776475D01*
X86783502Y-180893084D01*
X86802901Y-181005122D01*
X86834303Y-181111739D01*
X86876949Y-181212086D01*
X86930077Y-181305314D01*
X86992928Y-181390572D01*
X87020621Y-181422254D01*
X87107507Y-181506020D01*
X87205809Y-181578048D01*
X87292888Y-181626541D01*
X87387646Y-181666362D01*
X87490249Y-181696995D01*
X87600864Y-181717925D01*
X87719656Y-181728636D01*
X87782170Y-181730000D01*
X88686845Y-181730000D01*
G37*
G36*
X90265135Y-179793035D02*
G01*
X90377266Y-179808214D01*
X90477207Y-179840349D01*
X90565351Y-179889541D01*
X90642089Y-179955891D01*
X90707811Y-180039500D01*
X90762910Y-180140467D01*
X91446301Y-181644026D01*
X91477076Y-181730000D01*
X90905547Y-181730000D01*
X90883566Y-181664054D01*
X90782449Y-181428604D01*
X89662351Y-181428604D01*
X89564654Y-181661123D01*
X89544626Y-181730000D01*
X88959420Y-181730000D01*
X88990195Y-181644026D01*
X89275676Y-181010949D01*
X89847487Y-181010949D01*
X90597801Y-181010949D01*
X90306664Y-180335861D01*
X90303272Y-180328361D01*
X90219714Y-180277243D01*
X90216562Y-180277285D01*
X90135694Y-180335861D01*
X89847487Y-181010949D01*
X89275676Y-181010949D01*
X89668213Y-180140467D01*
X89688939Y-180097991D01*
X89747672Y-180003979D01*
X89816969Y-179927286D01*
X89897678Y-179867811D01*
X89990650Y-179825454D01*
X90096735Y-179800113D01*
X90216783Y-179791688D01*
X90265135Y-179793035D01*
G37*
G36*
X91677355Y-179822951D02*
G01*
X91677355Y-181730000D01*
X92186845Y-181730000D01*
X92186845Y-179822951D01*
X91677355Y-179822951D01*
G37*
G36*
X94819295Y-179822951D02*
G01*
X94323482Y-179822951D01*
X94323482Y-181055889D01*
X94284403Y-181106692D01*
X94236531Y-181084221D01*
X93312805Y-179969986D01*
X93235622Y-179895882D01*
X93143571Y-179837420D01*
X93040838Y-179803820D01*
X92936784Y-179792258D01*
X92903942Y-179791688D01*
X92790004Y-179800867D01*
X92688986Y-179829625D01*
X92603504Y-179879795D01*
X92536176Y-179953213D01*
X92489616Y-180051711D01*
X92469080Y-180149799D01*
X92464305Y-180235233D01*
X92464305Y-181730000D01*
X92962561Y-181730000D01*
X92962561Y-180445771D01*
X93009944Y-180392037D01*
X93054884Y-180417438D01*
X94093894Y-181621067D01*
X94176912Y-181689618D01*
X94275811Y-181735007D01*
X94377896Y-181756487D01*
X94463677Y-181761263D01*
X94565062Y-181748241D01*
X94657341Y-181707991D01*
X94734292Y-181638735D01*
X94789696Y-181538696D01*
X94814916Y-181430533D01*
X94819295Y-181354354D01*
X94819295Y-179822951D01*
G37*
G36*
X89832799Y-199781744D02*
G01*
X88841661Y-199781744D01*
X88732283Y-199773840D01*
X88626406Y-199746656D01*
X88539087Y-199702087D01*
X88460642Y-199633733D01*
X88401199Y-199551382D01*
X88361309Y-199456008D01*
X88343923Y-199351189D01*
X88343406Y-199329406D01*
X88355595Y-199224126D01*
X88390382Y-199126736D01*
X88445093Y-199040953D01*
X88483113Y-198999678D01*
X88567984Y-198936691D01*
X88662740Y-198897227D01*
X88766123Y-198878092D01*
X88841661Y-198874626D01*
X89832799Y-198874626D01*
X89832799Y-198372951D01*
X88841661Y-198372951D01*
X88730820Y-198377346D01*
X88627117Y-198390247D01*
X88530317Y-198411231D01*
X88418669Y-198448182D01*
X88316982Y-198496273D01*
X88224799Y-198554678D01*
X88141661Y-198622568D01*
X88059033Y-198709415D01*
X87987732Y-198806587D01*
X87928856Y-198912887D01*
X87891436Y-199003695D01*
X87863229Y-199098967D01*
X87844797Y-199198090D01*
X87836701Y-199300451D01*
X87836358Y-199326475D01*
X87842993Y-199443247D01*
X87862392Y-199555338D01*
X87893794Y-199661933D01*
X87936440Y-199762215D01*
X87989568Y-199855369D01*
X88052420Y-199940577D01*
X88080112Y-199972254D01*
X88166999Y-200056020D01*
X88265301Y-200128048D01*
X88352379Y-200176541D01*
X88447137Y-200216362D01*
X88549740Y-200246995D01*
X88660355Y-200267925D01*
X88779147Y-200278636D01*
X88841661Y-200280000D01*
X89832799Y-200280000D01*
X89832799Y-199781744D01*
G37*
G36*
X92050524Y-200280000D02*
G01*
X92050524Y-199795910D01*
X90736986Y-199795910D01*
X90639785Y-199781820D01*
X90576724Y-199701526D01*
X90568947Y-199614682D01*
X90568947Y-198372951D01*
X90059456Y-198372951D01*
X90059456Y-199663042D01*
X90063582Y-199773638D01*
X90076493Y-199873255D01*
X90108755Y-199989040D01*
X90159950Y-200085399D01*
X90231974Y-200162383D01*
X90326721Y-200220045D01*
X90446086Y-200258435D01*
X90552905Y-200274612D01*
X90675436Y-200280000D01*
X92050524Y-200280000D01*
G37*
G36*
X92248360Y-198372951D02*
G01*
X92248360Y-200280000D01*
X92757851Y-200280000D01*
X92757851Y-198372951D01*
X92248360Y-198372951D01*
G37*
G36*
X94514754Y-198376577D02*
G01*
X94623670Y-198390919D01*
X94720553Y-198415493D01*
X94822488Y-198457482D01*
X94910604Y-198511939D01*
X94986811Y-198577627D01*
X95010905Y-198602857D01*
X95075273Y-198685231D01*
X95127018Y-198776518D01*
X95165175Y-198875288D01*
X95188778Y-198980112D01*
X95196860Y-199089560D01*
X95194013Y-199154337D01*
X95175835Y-199264098D01*
X95141914Y-199367990D01*
X95093477Y-199464510D01*
X95031752Y-199552156D01*
X95006814Y-199580457D01*
X94922491Y-199657119D01*
X94840573Y-199710535D01*
X94747217Y-199753290D01*
X94641629Y-199784309D01*
X94523016Y-199802520D01*
X94418214Y-199807145D01*
X93547732Y-199807145D01*
X93547732Y-200280000D01*
X93040684Y-200280000D01*
X93040684Y-198915170D01*
X93547732Y-198915170D01*
X93547732Y-199342107D01*
X94429449Y-199342107D01*
X94469387Y-199340503D01*
X94571786Y-199314427D01*
X94648291Y-199249295D01*
X94672803Y-199207389D01*
X94692743Y-199110076D01*
X94686954Y-199053113D01*
X94645360Y-198961577D01*
X94619211Y-198934143D01*
X94527271Y-198886226D01*
X94429449Y-198874626D01*
X93583880Y-198874626D01*
X93547732Y-198915170D01*
X93040684Y-198915170D01*
X93040684Y-198490676D01*
X93068074Y-198406306D01*
X93163783Y-198372951D01*
X94418214Y-198372951D01*
X94514754Y-198376577D01*
G37*
D14*
%TO.C,H8*%
G36*
X85000000Y-208750000D02*
G01*
X85000000Y-208750000D01*
G75*
G03*
X91500000Y-215250000I6500000J0D01*
G01*
X86000000Y-215250000D01*
X85000000Y-214250000D01*
X85000000Y-208750000D01*
G37*
G36*
X91500000Y-202250000D02*
G01*
X91500000Y-202250000D01*
G75*
G03*
X85000000Y-208750000I0J-6500000D01*
G01*
X85000000Y-203250000D01*
X86000000Y-202250000D01*
X91500000Y-202250000D01*
G37*
G36*
X98000000Y-214250000D02*
G01*
X97000000Y-215250000D01*
X91500000Y-215250000D01*
G75*
G03*
X98000000Y-208750000I0J6500000D01*
G01*
X98000000Y-214250000D01*
G37*
G36*
X98000000Y-203250000D02*
G01*
X98000000Y-208750000D01*
G75*
G03*
X91500000Y-202250000I-6500000J0D01*
G01*
X97000000Y-202250000D01*
X98000000Y-203250000D01*
G37*
D15*
%TO.C,H13*%
X75750002Y-129500000D02*
X68250000Y-129500000D01*
X76756990Y-125746229D02*
X70257142Y-122004291D01*
X76756990Y-133253772D02*
X70257219Y-136995835D01*
X79496228Y-123006990D02*
X75754163Y-116507217D01*
X79496229Y-135993010D02*
X75754292Y-142492854D01*
X83250000Y-122000000D02*
X83250000Y-114500000D01*
X87003771Y-123006990D02*
X90745709Y-116507142D01*
X87003772Y-135993010D02*
X90745835Y-142492782D01*
X89743010Y-125746228D02*
X96242783Y-122004164D01*
X89743010Y-133253771D02*
X96242855Y-136995709D01*
X90750000Y-129500000D02*
X98249999Y-129500000D01*
%TO.C,H11*%
X75750002Y-58500000D02*
X68250000Y-58500000D01*
X76756990Y-54746229D02*
X70257142Y-51004291D01*
X76756990Y-62253772D02*
X70257219Y-65995835D01*
X79496228Y-52006990D02*
X75754163Y-45507217D01*
X79496229Y-64993010D02*
X75754292Y-71492854D01*
X83250000Y-51000000D02*
X83250000Y-43500000D01*
X87003771Y-52006990D02*
X90745709Y-45507142D01*
X87003772Y-64993010D02*
X90745835Y-71492782D01*
X89743010Y-54746228D02*
X96242783Y-51004164D01*
X89743010Y-62253771D02*
X96242855Y-65995709D01*
X90750000Y-58500000D02*
X98249999Y-58500000D01*
%TO.C,H12*%
X75750002Y-94000000D02*
X68250000Y-94000000D01*
X76756990Y-90246229D02*
X70257142Y-86504291D01*
X76756990Y-97753772D02*
X70257219Y-101495835D01*
X79496228Y-87506990D02*
X75754163Y-81007217D01*
X79496229Y-100493010D02*
X75754292Y-106992854D01*
X83250000Y-86500000D02*
X83250000Y-79000000D01*
X87003771Y-87506990D02*
X90745709Y-81007142D01*
X87003772Y-100493010D02*
X90745835Y-106992782D01*
X89743010Y-90246228D02*
X96242783Y-86504164D01*
X89743010Y-97753771D02*
X96242855Y-101495709D01*
X90750000Y-94000000D02*
X98249999Y-94000000D01*
%TO.C,H16*%
X75750002Y-165000000D02*
X68250000Y-165000000D01*
X76756990Y-161246229D02*
X70257142Y-157504291D01*
X76756990Y-168753772D02*
X70257219Y-172495835D01*
X79496228Y-158506990D02*
X75754163Y-152007217D01*
X79496229Y-171493010D02*
X75754292Y-177992854D01*
X83250000Y-157500000D02*
X83250000Y-150000000D01*
X87003771Y-158506990D02*
X90745709Y-152007142D01*
X87003772Y-171493010D02*
X90745835Y-177992782D01*
X89743010Y-161246228D02*
X96242783Y-157504164D01*
X89743010Y-168753771D02*
X96242855Y-172495709D01*
X90750000Y-165000000D02*
X98249999Y-165000000D01*
%TD*%
%LPC*%
D16*
%TO.C,H3*%
X53500000Y-226500000D03*
%TD*%
D17*
%TO.C,H18*%
X58500000Y-123100000D03*
D18*
X58500000Y-129500000D03*
%TD*%
D19*
%TO.C,H8*%
X85800000Y-208750000D03*
X87460000Y-204720000D03*
X87470000Y-212790000D03*
X91500000Y-203050000D03*
D20*
X91500000Y-208750000D03*
D19*
X91500000Y-214450000D03*
X95530000Y-212790000D03*
X95540000Y-204720000D03*
X97200000Y-208750000D03*
%TD*%
%TO.C,H5*%
X52800000Y-190250000D03*
X54460000Y-186220000D03*
X54470000Y-194290000D03*
X58500000Y-184550000D03*
D20*
X58500000Y-190250000D03*
D19*
X58500000Y-195950000D03*
X62530000Y-194290000D03*
X62540000Y-186220000D03*
X64200000Y-190250000D03*
%TD*%
D20*
%TO.C,H13*%
X83250000Y-129500000D03*
D21*
X83250000Y-135500000D03*
%TD*%
D17*
%TO.C,H14*%
X58500000Y-52100000D03*
D18*
X58500000Y-58500000D03*
%TD*%
D20*
%TO.C,H11*%
X83250000Y-58500000D03*
D21*
X83250000Y-64500000D03*
%TD*%
D17*
%TO.C,H19*%
X58500000Y-158600000D03*
D18*
X58500000Y-165000000D03*
%TD*%
D19*
%TO.C,H6*%
X69300000Y-190250000D03*
X70960000Y-186220000D03*
X70970000Y-194290000D03*
X75000000Y-184550000D03*
D20*
X75000000Y-190250000D03*
D19*
X75000000Y-195950000D03*
X79030000Y-194290000D03*
X79040000Y-186220000D03*
X80700000Y-190250000D03*
%TD*%
%TO.C,H7*%
X52800000Y-208750000D03*
X54460000Y-204720000D03*
X54470000Y-212790000D03*
X58500000Y-203050000D03*
D20*
X58500000Y-208750000D03*
D19*
X58500000Y-214450000D03*
X62530000Y-212790000D03*
X62540000Y-204720000D03*
X64200000Y-208750000D03*
%TD*%
D20*
%TO.C,H12*%
X83250000Y-94000000D03*
D21*
X83250000Y-100000000D03*
%TD*%
D19*
%TO.C,H15*%
X69300000Y-208750000D03*
X70960000Y-204720000D03*
X70970000Y-212790000D03*
X75000000Y-203050000D03*
D20*
X75000000Y-208750000D03*
D19*
X75000000Y-214450000D03*
X79030000Y-212790000D03*
X79040000Y-204720000D03*
X80700000Y-208750000D03*
%TD*%
D16*
%TO.C,H2*%
X96500000Y-33500000D03*
%TD*%
%TO.C,H4*%
X96500000Y-226500000D03*
%TD*%
D20*
%TO.C,H16*%
X83250000Y-165000000D03*
D21*
X83250000Y-171000000D03*
%TD*%
D16*
%TO.C,H1*%
X53500000Y-33500000D03*
%TD*%
D22*
%TO.C,H9*%
X91500000Y-185050000D03*
D18*
X91500000Y-190250000D03*
%TD*%
D17*
%TO.C,H17*%
X58500000Y-87600000D03*
D18*
X58500000Y-94000000D03*
%TD*%
%LPD*%
M02*
