%TF.GenerationSoftware,KiCad,Pcbnew,8.0.5*%
%TF.CreationDate,2024-12-04T20:04:44+01:00*%
%TF.ProjectId,DMH_Mixer_PANEL,444d485f-4d69-4786-9572-5f50414e454c,rev?*%
%TF.SameCoordinates,Original*%
%TF.FileFunction,Soldermask,Bot*%
%TF.FilePolarity,Negative*%
%FSLAX46Y46*%
G04 Gerber Fmt 4.6, Leading zero omitted, Abs format (unit mm)*
G04 Created by KiCad (PCBNEW 8.0.5) date 2024-12-04 20:04:44*
%MOMM*%
%LPD*%
G01*
G04 APERTURE LIST*
%ADD10C,4.000000*%
%ADD11C,2.900000*%
%ADD12C,13.000000*%
%ADD13C,0.500000*%
%ADD14C,12.000000*%
%ADD15O,2.500000X1.500000*%
%ADD16C,2.600000*%
%ADD17R,5.000000X10.000000*%
G04 APERTURE END LIST*
D10*
%TO.C,H3*%
X53500000Y-226500000D03*
%TD*%
D11*
%TO.C,H18*%
X58500000Y-123100000D03*
D12*
X58500000Y-129500000D03*
%TD*%
D13*
%TO.C,H8*%
X85800000Y-208750000D03*
X87460000Y-204720000D03*
X87470000Y-212790000D03*
X91500000Y-203050000D03*
D14*
X91500000Y-208750000D03*
D13*
X91500000Y-214450000D03*
X95530000Y-212790000D03*
X95540000Y-204720000D03*
X97200000Y-208750000D03*
%TD*%
%TO.C,H5*%
X52800000Y-190250000D03*
X54460000Y-186220000D03*
X54470000Y-194290000D03*
X58500000Y-184550000D03*
D14*
X58500000Y-190250000D03*
D13*
X58500000Y-195950000D03*
X62530000Y-194290000D03*
X62540000Y-186220000D03*
X64200000Y-190250000D03*
%TD*%
D14*
%TO.C,H13*%
X83250000Y-129500000D03*
D15*
X83250000Y-135500000D03*
%TD*%
D11*
%TO.C,H14*%
X58500000Y-52100000D03*
D12*
X58500000Y-58500000D03*
%TD*%
D14*
%TO.C,H11*%
X83250000Y-58500000D03*
D15*
X83250000Y-64500000D03*
%TD*%
D11*
%TO.C,H19*%
X58500000Y-158600000D03*
D12*
X58500000Y-165000000D03*
%TD*%
D13*
%TO.C,H6*%
X69300000Y-190250000D03*
X70960000Y-186220000D03*
X70970000Y-194290000D03*
X75000000Y-184550000D03*
D14*
X75000000Y-190250000D03*
D13*
X75000000Y-195950000D03*
X79030000Y-194290000D03*
X79040000Y-186220000D03*
X80700000Y-190250000D03*
%TD*%
%TO.C,H7*%
X52800000Y-208750000D03*
X54460000Y-204720000D03*
X54470000Y-212790000D03*
X58500000Y-203050000D03*
D14*
X58500000Y-208750000D03*
D13*
X58500000Y-214450000D03*
X62530000Y-212790000D03*
X62540000Y-204720000D03*
X64200000Y-208750000D03*
%TD*%
D14*
%TO.C,H12*%
X83250000Y-94000000D03*
D15*
X83250000Y-100000000D03*
%TD*%
D13*
%TO.C,H15*%
X69300000Y-208750000D03*
X70960000Y-204720000D03*
X70970000Y-212790000D03*
X75000000Y-203050000D03*
D14*
X75000000Y-208750000D03*
D13*
X75000000Y-214450000D03*
X79030000Y-212790000D03*
X79040000Y-204720000D03*
X80700000Y-208750000D03*
%TD*%
D10*
%TO.C,H2*%
X96500000Y-33500000D03*
%TD*%
%TO.C,H4*%
X96500000Y-226500000D03*
%TD*%
D14*
%TO.C,H16*%
X83250000Y-165000000D03*
D15*
X83250000Y-171000000D03*
%TD*%
D10*
%TO.C,H1*%
X53500000Y-33500000D03*
%TD*%
D16*
%TO.C,H9*%
X91500000Y-185050000D03*
D12*
X91500000Y-190250000D03*
%TD*%
D11*
%TO.C,H17*%
X58500000Y-87600000D03*
D12*
X58500000Y-94000000D03*
%TD*%
D17*
%TO.C,J0*%
X55000000Y-148250000D03*
%TD*%
M02*
