M48
; DRILL file {KiCad 8.0.5} date 2024-12-03T21:15:35+0100
; FORMAT={-:-/ absolute / metric / decimal}
; #@! TF.CreationDate,2024-12-03T21:15:35+01:00
; #@! TF.GenerationSoftware,Kicad,Pcbnew,8.0.5
; #@! TF.FileFunction,Plated,1,2,PTH
FMAT,2
METRIC
; #@! TA.AperFunction,Plated,PTH,ComponentDrill
T1C0.300
; #@! TA.AperFunction,Plated,PTH,ComponentDrill
T2C1.000
; #@! TA.AperFunction,Plated,PTH,ComponentDrill
T3C2.200
; #@! TA.AperFunction,Plated,PTH,ComponentDrill
T4C2.400
; #@! TA.AperFunction,Plated,PTH,ComponentDrill
T5C3.200
; #@! TA.AperFunction,Plated,PTH,ComponentDrill
T6C6.200
; #@! TA.AperFunction,Plated,PTH,ComponentDrill
T7C6.500
%
G90
G05
T1
X52.8Y-190.25
X52.8Y-208.75
X54.46Y-186.22
X54.46Y-204.72
X54.47Y-194.29
X54.47Y-212.79
X58.5Y-184.55
X58.5Y-195.95
X58.5Y-203.05
X58.5Y-214.45
X62.53Y-194.29
X62.53Y-212.79
X62.54Y-186.22
X62.54Y-204.72
X64.2Y-190.25
X64.2Y-208.75
X69.3Y-190.25
X69.3Y-208.75
X70.96Y-186.22
X70.96Y-204.72
X70.97Y-194.29
X70.97Y-212.79
X75.0Y-184.55
X75.0Y-195.95
X75.0Y-203.05
X75.0Y-214.45
X79.03Y-194.29
X79.03Y-212.79
X79.04Y-186.22
X79.04Y-204.72
X80.7Y-190.25
X80.7Y-208.75
X85.8Y-208.75
X87.46Y-204.72
X87.47Y-212.79
X91.5Y-203.05
X91.5Y-214.45
X95.53Y-212.79
X95.54Y-204.72
X97.2Y-208.75
T3
X91.5Y-185.05
T4
X58.5Y-52.1
X58.5Y-87.6
X58.5Y-123.1
X58.5Y-158.6
T5
X53.5Y-33.5
X53.5Y-226.5
X96.5Y-33.5
X96.5Y-226.5
T6
X58.5Y-58.5
X58.5Y-94.0
X58.5Y-129.5
X58.5Y-165.0
T7
X91.5Y-190.25
T2
X82.75Y-64.5G85X83.75Y-64.5
G05
X82.75Y-100.0G85X83.75Y-100.0
G05
X82.75Y-135.5G85X83.75Y-135.5
G05
X82.75Y-171.0G85X83.75Y-171.0
G05
M30
