%TF.GenerationSoftware,KiCad,Pcbnew,8.0.5*%
%TF.CreationDate,2024-12-03T21:43:17+01:00*%
%TF.ProjectId,DMH_Mixer_PCB_Conn,444d485f-4d69-4786-9572-5f5043425f43,1*%
%TF.SameCoordinates,Original*%
%TF.FileFunction,Legend,Top*%
%TF.FilePolarity,Positive*%
%FSLAX46Y46*%
G04 Gerber Fmt 4.6, Leading zero omitted, Abs format (unit mm)*
G04 Created by KiCad (PCBNEW 8.0.5) date 2024-12-03 21:43:17*
%MOMM*%
%LPD*%
G01*
G04 APERTURE LIST*
G04 Aperture macros list*
%AMHorizOval*
0 Thick line with rounded ends*
0 $1 width*
0 $2 $3 position (X,Y) of the first rounded end (center of the circle)*
0 $4 $5 position (X,Y) of the second rounded end (center of the circle)*
0 Add line between two ends*
20,1,$1,$2,$3,$4,$5,0*
0 Add two circle primitives to create the rounded ends*
1,1,$1,$2,$3*
1,1,$1,$4,$5*%
G04 Aperture macros list end*
%ADD10C,0.150000*%
%ADD11C,0.120000*%
%ADD12R,1.700000X1.700000*%
%ADD13O,1.700000X1.700000*%
%ADD14HorizOval,1.712000X-0.533159X-0.533159X0.533159X0.533159X0*%
%ADD15O,1.712000X3.220000*%
%ADD16O,3.220000X1.712000*%
%ADD17HorizOval,1.712000X-0.533159X0.533159X0.533159X-0.533159X0*%
G04 APERTURE END LIST*
D10*
X74999819Y-178309523D02*
X75714104Y-178309523D01*
X75714104Y-178309523D02*
X75856961Y-178357142D01*
X75856961Y-178357142D02*
X75952200Y-178452380D01*
X75952200Y-178452380D02*
X75999819Y-178595237D01*
X75999819Y-178595237D02*
X75999819Y-178690475D01*
X74999819Y-177357142D02*
X74999819Y-177833332D01*
X74999819Y-177833332D02*
X75476009Y-177880951D01*
X75476009Y-177880951D02*
X75428390Y-177833332D01*
X75428390Y-177833332D02*
X75380771Y-177738094D01*
X75380771Y-177738094D02*
X75380771Y-177499999D01*
X75380771Y-177499999D02*
X75428390Y-177404761D01*
X75428390Y-177404761D02*
X75476009Y-177357142D01*
X75476009Y-177357142D02*
X75571247Y-177309523D01*
X75571247Y-177309523D02*
X75809342Y-177309523D01*
X75809342Y-177309523D02*
X75904580Y-177357142D01*
X75904580Y-177357142D02*
X75952200Y-177404761D01*
X75952200Y-177404761D02*
X75999819Y-177499999D01*
X75999819Y-177499999D02*
X75999819Y-177738094D01*
X75999819Y-177738094D02*
X75952200Y-177833332D01*
X75952200Y-177833332D02*
X75904580Y-177880951D01*
X74999819Y-176690475D02*
X74999819Y-176595237D01*
X74999819Y-176595237D02*
X75047438Y-176499999D01*
X75047438Y-176499999D02*
X75095057Y-176452380D01*
X75095057Y-176452380D02*
X75190295Y-176404761D01*
X75190295Y-176404761D02*
X75380771Y-176357142D01*
X75380771Y-176357142D02*
X75618866Y-176357142D01*
X75618866Y-176357142D02*
X75809342Y-176404761D01*
X75809342Y-176404761D02*
X75904580Y-176452380D01*
X75904580Y-176452380D02*
X75952200Y-176499999D01*
X75952200Y-176499999D02*
X75999819Y-176595237D01*
X75999819Y-176595237D02*
X75999819Y-176690475D01*
X75999819Y-176690475D02*
X75952200Y-176785713D01*
X75952200Y-176785713D02*
X75904580Y-176833332D01*
X75904580Y-176833332D02*
X75809342Y-176880951D01*
X75809342Y-176880951D02*
X75618866Y-176928570D01*
X75618866Y-176928570D02*
X75380771Y-176928570D01*
X75380771Y-176928570D02*
X75190295Y-176880951D01*
X75190295Y-176880951D02*
X75095057Y-176833332D01*
X75095057Y-176833332D02*
X75047438Y-176785713D01*
X75047438Y-176785713D02*
X74999819Y-176690475D01*
X70591666Y-201204819D02*
X70591666Y-201919104D01*
X70591666Y-201919104D02*
X70544047Y-202061961D01*
X70544047Y-202061961D02*
X70448809Y-202157200D01*
X70448809Y-202157200D02*
X70305952Y-202204819D01*
X70305952Y-202204819D02*
X70210714Y-202204819D01*
X71496428Y-201538152D02*
X71496428Y-202204819D01*
X71258333Y-201157200D02*
X71020238Y-201871485D01*
X71020238Y-201871485D02*
X71639285Y-201871485D01*
X51504819Y-178309523D02*
X52219104Y-178309523D01*
X52219104Y-178309523D02*
X52361961Y-178357142D01*
X52361961Y-178357142D02*
X52457200Y-178452380D01*
X52457200Y-178452380D02*
X52504819Y-178595237D01*
X52504819Y-178595237D02*
X52504819Y-178690475D01*
X51504819Y-177404761D02*
X51504819Y-177595237D01*
X51504819Y-177595237D02*
X51552438Y-177690475D01*
X51552438Y-177690475D02*
X51600057Y-177738094D01*
X51600057Y-177738094D02*
X51742914Y-177833332D01*
X51742914Y-177833332D02*
X51933390Y-177880951D01*
X51933390Y-177880951D02*
X52314342Y-177880951D01*
X52314342Y-177880951D02*
X52409580Y-177833332D01*
X52409580Y-177833332D02*
X52457200Y-177785713D01*
X52457200Y-177785713D02*
X52504819Y-177690475D01*
X52504819Y-177690475D02*
X52504819Y-177499999D01*
X52504819Y-177499999D02*
X52457200Y-177404761D01*
X52457200Y-177404761D02*
X52409580Y-177357142D01*
X52409580Y-177357142D02*
X52314342Y-177309523D01*
X52314342Y-177309523D02*
X52076247Y-177309523D01*
X52076247Y-177309523D02*
X51981009Y-177357142D01*
X51981009Y-177357142D02*
X51933390Y-177404761D01*
X51933390Y-177404761D02*
X51885771Y-177499999D01*
X51885771Y-177499999D02*
X51885771Y-177690475D01*
X51885771Y-177690475D02*
X51933390Y-177785713D01*
X51933390Y-177785713D02*
X51981009Y-177833332D01*
X51981009Y-177833332D02*
X52076247Y-177880951D01*
X51504819Y-176690475D02*
X51504819Y-176595237D01*
X51504819Y-176595237D02*
X51552438Y-176499999D01*
X51552438Y-176499999D02*
X51600057Y-176452380D01*
X51600057Y-176452380D02*
X51695295Y-176404761D01*
X51695295Y-176404761D02*
X51885771Y-176357142D01*
X51885771Y-176357142D02*
X52123866Y-176357142D01*
X52123866Y-176357142D02*
X52314342Y-176404761D01*
X52314342Y-176404761D02*
X52409580Y-176452380D01*
X52409580Y-176452380D02*
X52457200Y-176499999D01*
X52457200Y-176499999D02*
X52504819Y-176595237D01*
X52504819Y-176595237D02*
X52504819Y-176690475D01*
X52504819Y-176690475D02*
X52457200Y-176785713D01*
X52457200Y-176785713D02*
X52409580Y-176833332D01*
X52409580Y-176833332D02*
X52314342Y-176880951D01*
X52314342Y-176880951D02*
X52123866Y-176928570D01*
X52123866Y-176928570D02*
X51885771Y-176928570D01*
X51885771Y-176928570D02*
X51695295Y-176880951D01*
X51695295Y-176880951D02*
X51600057Y-176833332D01*
X51600057Y-176833332D02*
X51552438Y-176785713D01*
X51552438Y-176785713D02*
X51504819Y-176690475D01*
X70591666Y-182704819D02*
X70591666Y-183419104D01*
X70591666Y-183419104D02*
X70544047Y-183561961D01*
X70544047Y-183561961D02*
X70448809Y-183657200D01*
X70448809Y-183657200D02*
X70305952Y-183704819D01*
X70305952Y-183704819D02*
X70210714Y-183704819D01*
X71020238Y-182800057D02*
X71067857Y-182752438D01*
X71067857Y-182752438D02*
X71163095Y-182704819D01*
X71163095Y-182704819D02*
X71401190Y-182704819D01*
X71401190Y-182704819D02*
X71496428Y-182752438D01*
X71496428Y-182752438D02*
X71544047Y-182800057D01*
X71544047Y-182800057D02*
X71591666Y-182895295D01*
X71591666Y-182895295D02*
X71591666Y-182990533D01*
X71591666Y-182990533D02*
X71544047Y-183133390D01*
X71544047Y-183133390D02*
X70972619Y-183704819D01*
X70972619Y-183704819D02*
X71591666Y-183704819D01*
X64954819Y-186508333D02*
X65669104Y-186508333D01*
X65669104Y-186508333D02*
X65811961Y-186555952D01*
X65811961Y-186555952D02*
X65907200Y-186651190D01*
X65907200Y-186651190D02*
X65954819Y-186794047D01*
X65954819Y-186794047D02*
X65954819Y-186889285D01*
X65954819Y-185508333D02*
X65954819Y-186079761D01*
X65954819Y-185794047D02*
X64954819Y-185794047D01*
X64954819Y-185794047D02*
X65097676Y-185889285D01*
X65097676Y-185889285D02*
X65192914Y-185984523D01*
X65192914Y-185984523D02*
X65240533Y-186079761D01*
X64954819Y-205008333D02*
X65669104Y-205008333D01*
X65669104Y-205008333D02*
X65811961Y-205055952D01*
X65811961Y-205055952D02*
X65907200Y-205151190D01*
X65907200Y-205151190D02*
X65954819Y-205294047D01*
X65954819Y-205294047D02*
X65954819Y-205389285D01*
X64954819Y-204627380D02*
X64954819Y-204008333D01*
X64954819Y-204008333D02*
X65335771Y-204341666D01*
X65335771Y-204341666D02*
X65335771Y-204198809D01*
X65335771Y-204198809D02*
X65383390Y-204103571D01*
X65383390Y-204103571D02*
X65431009Y-204055952D01*
X65431009Y-204055952D02*
X65526247Y-204008333D01*
X65526247Y-204008333D02*
X65764342Y-204008333D01*
X65764342Y-204008333D02*
X65859580Y-204055952D01*
X65859580Y-204055952D02*
X65907200Y-204103571D01*
X65907200Y-204103571D02*
X65954819Y-204198809D01*
X65954819Y-204198809D02*
X65954819Y-204484523D01*
X65954819Y-204484523D02*
X65907200Y-204579761D01*
X65907200Y-204579761D02*
X65859580Y-204627380D01*
X83954819Y-213158333D02*
X84669104Y-213158333D01*
X84669104Y-213158333D02*
X84811961Y-213205952D01*
X84811961Y-213205952D02*
X84907200Y-213301190D01*
X84907200Y-213301190D02*
X84954819Y-213444047D01*
X84954819Y-213444047D02*
X84954819Y-213539285D01*
X83954819Y-212205952D02*
X83954819Y-212682142D01*
X83954819Y-212682142D02*
X84431009Y-212729761D01*
X84431009Y-212729761D02*
X84383390Y-212682142D01*
X84383390Y-212682142D02*
X84335771Y-212586904D01*
X84335771Y-212586904D02*
X84335771Y-212348809D01*
X84335771Y-212348809D02*
X84383390Y-212253571D01*
X84383390Y-212253571D02*
X84431009Y-212205952D01*
X84431009Y-212205952D02*
X84526247Y-212158333D01*
X84526247Y-212158333D02*
X84764342Y-212158333D01*
X84764342Y-212158333D02*
X84859580Y-212205952D01*
X84859580Y-212205952D02*
X84907200Y-212253571D01*
X84907200Y-212253571D02*
X84954819Y-212348809D01*
X84954819Y-212348809D02*
X84954819Y-212586904D01*
X84954819Y-212586904D02*
X84907200Y-212682142D01*
X84907200Y-212682142D02*
X84859580Y-212729761D01*
D11*
%TO.C,J50*%
X76545000Y-178830000D02*
X76545000Y-177500000D01*
X77875000Y-178830000D02*
X76545000Y-178830000D01*
X79145000Y-176170000D02*
X96985000Y-176170000D01*
X79145000Y-178830000D02*
X79145000Y-176170000D01*
X79145000Y-178830000D02*
X96985000Y-178830000D01*
X96985000Y-178830000D02*
X96985000Y-176170000D01*
D10*
%TO.C,J4*%
X75000000Y-204550000D02*
X72650000Y-204550000D01*
X75000000Y-204550000D02*
X77350000Y-204550000D01*
X75000000Y-212950000D02*
X72650000Y-212950000D01*
X75000000Y-212950000D02*
X77350000Y-212950000D01*
X70200000Y-208750000D02*
G75*
G02*
X72656222Y-204561121I4800000J0D01*
G01*
X72656222Y-212938879D02*
G75*
G02*
X70200000Y-208750000I2343778J4188879D01*
G01*
X77343778Y-204561121D02*
G75*
G02*
X79800000Y-208750000I-2343781J-4188881D01*
G01*
X79800000Y-208750000D02*
G75*
G02*
X77343778Y-212938879I-4800003J2D01*
G01*
D11*
%TO.C,J60*%
X53050000Y-178830000D02*
X53050000Y-177500000D01*
X54380000Y-178830000D02*
X53050000Y-178830000D01*
X55650000Y-176170000D02*
X73490000Y-176170000D01*
X55650000Y-178830000D02*
X55650000Y-176170000D01*
X55650000Y-178830000D02*
X73490000Y-178830000D01*
X73490000Y-178830000D02*
X73490000Y-176170000D01*
D10*
%TO.C,J2*%
X75000000Y-186050000D02*
X72650000Y-186050000D01*
X75000000Y-186050000D02*
X77350000Y-186050000D01*
X75000000Y-194450000D02*
X72650000Y-194450000D01*
X75000000Y-194450000D02*
X77350000Y-194450000D01*
X70200000Y-190250000D02*
G75*
G02*
X72656222Y-186061121I4800000J0D01*
G01*
X72656222Y-194438879D02*
G75*
G02*
X70200000Y-190250000I2343778J4188879D01*
G01*
X77343778Y-186061121D02*
G75*
G02*
X79800000Y-190250000I-2343781J-4188881D01*
G01*
X79800000Y-190250000D02*
G75*
G02*
X77343778Y-194438879I-4800003J2D01*
G01*
%TO.C,J1*%
X54300000Y-190250000D02*
X54300000Y-187900000D01*
X54300000Y-190250000D02*
X54300000Y-192600000D01*
X62700000Y-190250000D02*
X62700000Y-187900000D01*
X62700000Y-190250000D02*
X62700000Y-192600000D01*
X54311121Y-187906222D02*
G75*
G02*
X58500000Y-185450000I4188879J-2343778D01*
G01*
X58500000Y-185450000D02*
G75*
G02*
X62688879Y-187906222I0J-4800000D01*
G01*
X58500000Y-195050000D02*
G75*
G02*
X54311121Y-192593778I2J4800003D01*
G01*
X62688879Y-192593778D02*
G75*
G02*
X58500000Y-195050000I-4188881J2343781D01*
G01*
%TO.C,J3*%
X54300000Y-208750000D02*
X54300000Y-206400000D01*
X54300000Y-208750000D02*
X54300000Y-211100000D01*
X62700000Y-208750000D02*
X62700000Y-206400000D01*
X62700000Y-208750000D02*
X62700000Y-211100000D01*
X54311121Y-206406222D02*
G75*
G02*
X58500000Y-203950000I4188879J-2343778D01*
G01*
X58500000Y-203950000D02*
G75*
G02*
X62688879Y-206406222I0J-4800000D01*
G01*
X58500000Y-213550000D02*
G75*
G02*
X54311121Y-211093778I2J4800003D01*
G01*
X62688879Y-211093778D02*
G75*
G02*
X58500000Y-213550000I-4188881J2343781D01*
G01*
%TO.C,J5*%
X87300000Y-208750000D02*
X87300000Y-206400000D01*
X87300000Y-208750000D02*
X87300000Y-211100000D01*
X95700000Y-208750000D02*
X95700000Y-206400000D01*
X95700000Y-208750000D02*
X95700000Y-211100000D01*
X87311121Y-206406222D02*
G75*
G02*
X91500000Y-203950000I4188881J-2343781D01*
G01*
X91500000Y-203950000D02*
G75*
G02*
X95688879Y-206406222I-2J-4800003D01*
G01*
X91500000Y-213550000D02*
G75*
G02*
X87311121Y-211093778I0J4800000D01*
G01*
X95688879Y-211093778D02*
G75*
G02*
X91500000Y-213550000I-4188879J2343778D01*
G01*
%TD*%
%LPC*%
D12*
%TO.C,J50*%
X77875000Y-177500000D03*
D13*
X80415000Y-177500000D03*
X82955000Y-177500000D03*
X85495000Y-177500000D03*
X88035000Y-177500000D03*
X90575000Y-177500000D03*
X93115000Y-177500000D03*
X95655000Y-177500000D03*
%TD*%
D14*
%TO.C,J4*%
X70403810Y-204153810D03*
D15*
X81500000Y-208250000D03*
D16*
X77500000Y-202250000D03*
%TD*%
D12*
%TO.C,J60*%
X54380000Y-177500000D03*
D13*
X56920000Y-177500000D03*
X59460000Y-177500000D03*
X62000000Y-177500000D03*
X64540000Y-177500000D03*
X67080000Y-177500000D03*
X69620000Y-177500000D03*
X72160000Y-177500000D03*
%TD*%
D14*
%TO.C,J2*%
X70403810Y-185653810D03*
D15*
X81500000Y-189750000D03*
D16*
X77500000Y-183750000D03*
%TD*%
D17*
%TO.C,J1*%
X63096190Y-185653810D03*
D16*
X59000000Y-196750000D03*
D15*
X65000000Y-192750000D03*
%TD*%
D17*
%TO.C,J3*%
X63096190Y-204153810D03*
D16*
X59000000Y-215250000D03*
D15*
X65000000Y-211250000D03*
%TD*%
D17*
%TO.C,J5*%
X86903810Y-213346190D03*
D16*
X91000000Y-202250000D03*
D15*
X85000000Y-206250000D03*
%TD*%
%LPD*%
M02*
