M48
; DRILL file {KiCad 8.0.5} date 2024-12-03T21:43:22+0100
; FORMAT={-:-/ absolute / metric / decimal}
; #@! TF.CreationDate,2024-12-03T21:43:22+01:00
; #@! TF.GenerationSoftware,Kicad,Pcbnew,8.0.5
; #@! TF.FileFunction,Plated,1,2,PTH
FMAT,2
METRIC
; #@! TA.AperFunction,Plated,PTH,ComponentDrill
T1C1.000
%
G90
G05
T1
X54.38Y-177.5
X56.92Y-177.5
X59.46Y-177.5
X62.0Y-177.5
X64.54Y-177.5
X67.08Y-177.5
X69.62Y-177.5
X72.16Y-177.5
X77.875Y-177.5
X80.415Y-177.5
X82.955Y-177.5
X85.495Y-177.5
X88.035Y-177.5
X90.575Y-177.5
X93.115Y-177.5
X95.655Y-177.5
T1
X59.75Y-196.75G85X58.25Y-196.75
G05
X59.75Y-215.25G85X58.25Y-215.25
G05
X63.627Y-186.184G85X62.566Y-185.123
G05
X63.627Y-204.684G85X62.566Y-203.623
G05
X65.0Y-192.0G85X65.0Y-193.5
G05
X65.0Y-210.5G85X65.0Y-212.0
G05
X70.934Y-185.123G85X69.873Y-186.184
G05
X70.934Y-203.623G85X69.873Y-204.684
G05
X76.75Y-183.75G85X78.25Y-183.75
G05
X76.75Y-202.25G85X78.25Y-202.25
G05
X81.5Y-189.0G85X81.5Y-190.5
G05
X81.5Y-207.5G85X81.5Y-209.0
G05
X85.0Y-207.0G85X85.0Y-205.5
G05
X86.373Y-212.816G85X87.434Y-213.877
G05
X90.25Y-202.25G85X91.75Y-202.25
G05
M30
