%TF.GenerationSoftware,KiCad,Pcbnew,8.0.5*%
%TF.CreationDate,2024-12-03T21:43:17+01:00*%
%TF.ProjectId,DMH_Mixer_PCB_Conn,444d485f-4d69-4786-9572-5f5043425f43,1*%
%TF.SameCoordinates,Original*%
%TF.FileFunction,Copper,L2,Bot*%
%TF.FilePolarity,Positive*%
%FSLAX46Y46*%
G04 Gerber Fmt 4.6, Leading zero omitted, Abs format (unit mm)*
G04 Created by KiCad (PCBNEW 8.0.5) date 2024-12-03 21:43:17*
%MOMM*%
%LPD*%
G01*
G04 APERTURE LIST*
G04 Aperture macros list*
%AMHorizOval*
0 Thick line with rounded ends*
0 $1 width*
0 $2 $3 position (X,Y) of the first rounded end (center of the circle)*
0 $4 $5 position (X,Y) of the second rounded end (center of the circle)*
0 Add line between two ends*
20,1,$1,$2,$3,$4,$5,0*
0 Add two circle primitives to create the rounded ends*
1,1,$1,$2,$3*
1,1,$1,$4,$5*%
G04 Aperture macros list end*
%TA.AperFunction,ComponentPad*%
%ADD10R,1.700000X1.700000*%
%TD*%
%TA.AperFunction,ComponentPad*%
%ADD11O,1.700000X1.700000*%
%TD*%
%TA.AperFunction,ComponentPad*%
%ADD12HorizOval,1.508000X-0.533159X-0.533159X0.533159X0.533159X0*%
%TD*%
%TA.AperFunction,ComponentPad*%
%ADD13O,1.508000X3.016000*%
%TD*%
%TA.AperFunction,ComponentPad*%
%ADD14O,3.016000X1.508000*%
%TD*%
%TA.AperFunction,ComponentPad*%
%ADD15HorizOval,1.508000X-0.533159X0.533159X0.533159X-0.533159X0*%
%TD*%
%TA.AperFunction,Conductor*%
%ADD16C,0.200000*%
%TD*%
G04 APERTURE END LIST*
D10*
%TO.P,J50,1,Pin_1*%
%TO.N,/Inputs and Outputs/Input 1 Jack*%
X77875000Y-177500000D03*
D11*
%TO.P,J50,2,Pin_2*%
%TO.N,/Inputs and Outputs/Input 2 Jack*%
X80415000Y-177500000D03*
%TO.P,J50,3,Pin_3*%
%TO.N,/Inputs and Outputs/Input 3 Jack*%
X82955000Y-177500000D03*
%TO.P,J50,4,Pin_4*%
%TO.N,/Inputs and Outputs/Input 4 Jack*%
X85495000Y-177500000D03*
%TO.P,J50,5,Pin_5*%
%TO.N,/Inputs and Outputs/Output Jack*%
X88035000Y-177500000D03*
%TO.P,J50,6,Pin_6*%
%TO.N,unconnected-(J50-Pin_6-Pad6)*%
X90575000Y-177500000D03*
%TO.P,J50,7,Pin_7*%
%TO.N,GND*%
X93115000Y-177500000D03*
%TO.P,J50,8,Pin_8*%
X95655000Y-177500000D03*
%TD*%
D12*
%TO.P,J4,S*%
%TO.N,GND*%
X70403810Y-204153810D03*
D13*
%TO.P,J4,T*%
%TO.N,/Inputs and Outputs/Input 4 Jack*%
X81500000Y-208250000D03*
D14*
%TO.P,J4,TN*%
%TO.N,Net-(J60-Pin_4)*%
X77500000Y-202250000D03*
%TD*%
D10*
%TO.P,J60,1,Pin_1*%
%TO.N,Net-(J60-Pin_1)*%
X54380000Y-177500000D03*
D11*
%TO.P,J60,2,Pin_2*%
%TO.N,Net-(J60-Pin_2)*%
X56920000Y-177500000D03*
%TO.P,J60,3,Pin_3*%
%TO.N,Net-(J60-Pin_3)*%
X59460000Y-177500000D03*
%TO.P,J60,4,Pin_4*%
%TO.N,Net-(J60-Pin_4)*%
X62000000Y-177500000D03*
%TO.P,J60,5,Pin_5*%
%TO.N,Net-(J60-Pin_5)*%
X64540000Y-177500000D03*
%TO.P,J60,6,Pin_6*%
%TO.N,unconnected-(J60-Pin_6-Pad6)*%
X67080000Y-177500000D03*
%TO.P,J60,7,Pin_7*%
%TO.N,GND*%
X69620000Y-177500000D03*
%TO.P,J60,8,Pin_8*%
X72160000Y-177500000D03*
%TD*%
D12*
%TO.P,J2,S*%
%TO.N,GND*%
X70403810Y-185653810D03*
D13*
%TO.P,J2,T*%
%TO.N,/Inputs and Outputs/Input 2 Jack*%
X81500000Y-189750000D03*
D14*
%TO.P,J2,TN*%
%TO.N,Net-(J60-Pin_2)*%
X77500000Y-183750000D03*
%TD*%
D15*
%TO.P,J1,S*%
%TO.N,GND*%
X63096190Y-185653810D03*
D14*
%TO.P,J1,T*%
%TO.N,/Inputs and Outputs/Input 1 Jack*%
X59000000Y-196750000D03*
D13*
%TO.P,J1,TN*%
%TO.N,Net-(J60-Pin_1)*%
X65000000Y-192750000D03*
%TD*%
D15*
%TO.P,J3,S*%
%TO.N,GND*%
X63096190Y-204153810D03*
D14*
%TO.P,J3,T*%
%TO.N,/Inputs and Outputs/Input 3 Jack*%
X59000000Y-215250000D03*
D13*
%TO.P,J3,TN*%
%TO.N,Net-(J60-Pin_3)*%
X65000000Y-211250000D03*
%TD*%
D15*
%TO.P,J5,S*%
%TO.N,GND*%
X86903810Y-213346190D03*
D14*
%TO.P,J5,T*%
%TO.N,/Inputs and Outputs/Output Jack*%
X91000000Y-202250000D03*
D13*
%TO.P,J5,TN*%
%TO.N,Net-(J60-Pin_5)*%
X85000000Y-206250000D03*
%TD*%
D16*
%TO.N,Net-(J60-Pin_1)*%
X54380000Y-177500000D02*
X54380000Y-182130000D01*
X54380000Y-182130000D02*
X65000000Y-192750000D01*
%TO.N,Net-(J60-Pin_2)*%
X77500000Y-180000000D02*
X77500000Y-183750000D01*
X73350000Y-175850000D02*
X77500000Y-180000000D01*
X58570000Y-175850000D02*
X73350000Y-175850000D01*
X56920000Y-177500000D02*
X58570000Y-175850000D01*
%TO.N,Net-(J60-Pin_3)*%
X59460000Y-177500000D02*
X59460000Y-184210000D01*
X67500000Y-192250000D02*
X67500000Y-208750000D01*
X59460000Y-184210000D02*
X67500000Y-192250000D01*
X67500000Y-208750000D02*
X65000000Y-211250000D01*
%TO.N,Net-(J60-Pin_4)*%
X62000000Y-177500000D02*
X62000000Y-180750000D01*
X77500000Y-196250000D02*
X77500000Y-202250000D01*
X62000000Y-180750000D02*
X77500000Y-196250000D01*
%TO.N,Net-(J60-Pin_5)*%
X64540000Y-182346900D02*
X85000000Y-202806900D01*
X64540000Y-177500000D02*
X64540000Y-182346900D01*
X85000000Y-202806900D02*
X85000000Y-206250000D01*
%TO.N,/Inputs and Outputs/Input 1 Jack*%
X77875000Y-177500000D02*
X75825000Y-175450000D01*
X52500000Y-190250000D02*
X59000000Y-196750000D01*
X75825000Y-175450000D02*
X53800000Y-175450000D01*
X53800000Y-175450000D02*
X52500000Y-176750000D01*
X52500000Y-176750000D02*
X52500000Y-190250000D01*
%TO.N,/Inputs and Outputs/Input 2 Jack*%
X81500000Y-178585000D02*
X81500000Y-189750000D01*
X80415000Y-177500000D02*
X81500000Y-178585000D01*
%TO.N,/Inputs and Outputs/Input 3 Jack*%
X84500000Y-208500000D02*
X81750000Y-205750000D01*
X82955000Y-177500000D02*
X86750000Y-181295000D01*
X81750000Y-205750000D02*
X75500000Y-205750000D01*
X86750000Y-207750000D02*
X86000000Y-208500000D01*
X66000000Y-215250000D02*
X59000000Y-215250000D01*
X75500000Y-205750000D02*
X66000000Y-215250000D01*
X86000000Y-208500000D02*
X84500000Y-208500000D01*
X86750000Y-181295000D02*
X86750000Y-207750000D01*
%TO.N,/Inputs and Outputs/Output Jack*%
X88035000Y-199285000D02*
X91000000Y-202250000D01*
X88035000Y-177500000D02*
X88035000Y-199285000D01*
%TO.N,/Inputs and Outputs/Input 4 Jack*%
X87350000Y-208834314D02*
X86184314Y-210000000D01*
X87350000Y-179355000D02*
X87350000Y-208834314D01*
X83250000Y-210000000D02*
X81500000Y-208250000D01*
X86184314Y-210000000D02*
X83250000Y-210000000D01*
X85495000Y-177500000D02*
X87350000Y-179355000D01*
%TD*%
%TA.AperFunction,Conductor*%
%TO.N,GND*%
G36*
X53167941Y-175020185D02*
G01*
X53213696Y-175072989D01*
X53223640Y-175142147D01*
X53194615Y-175205703D01*
X53188583Y-175212181D01*
X52019481Y-176381282D01*
X52019477Y-176381287D01*
X51973165Y-176461504D01*
X51973165Y-176461505D01*
X51940423Y-176518214D01*
X51940423Y-176518215D01*
X51899499Y-176670943D01*
X51899499Y-176670945D01*
X51899499Y-176839046D01*
X51899500Y-176839059D01*
X51899500Y-190163330D01*
X51899499Y-190163348D01*
X51899499Y-190329054D01*
X51899498Y-190329054D01*
X51940423Y-190481785D01*
X51969358Y-190531900D01*
X51969359Y-190531904D01*
X51969360Y-190531904D01*
X52019479Y-190618714D01*
X52019481Y-190618717D01*
X52138349Y-190737585D01*
X52138355Y-190737590D01*
X57232914Y-195832149D01*
X57266399Y-195893472D01*
X57261415Y-195963164D01*
X57245552Y-195992714D01*
X57173057Y-196092496D01*
X57083408Y-196268441D01*
X57022389Y-196456236D01*
X56991500Y-196651263D01*
X56991500Y-196848736D01*
X57022389Y-197043763D01*
X57083408Y-197231558D01*
X57083409Y-197231561D01*
X57173056Y-197407501D01*
X57173058Y-197407504D01*
X57289115Y-197567246D01*
X57428753Y-197706884D01*
X57578234Y-197815486D01*
X57588499Y-197822944D01*
X57764439Y-197912591D01*
X57889637Y-197953270D01*
X57952236Y-197973610D01*
X58147264Y-198004500D01*
X58147269Y-198004500D01*
X59852736Y-198004500D01*
X60047763Y-197973610D01*
X60235561Y-197912591D01*
X60411501Y-197822944D01*
X60501192Y-197757779D01*
X60571246Y-197706884D01*
X60571248Y-197706881D01*
X60571252Y-197706879D01*
X60710879Y-197567252D01*
X60710881Y-197567248D01*
X60710884Y-197567246D01*
X60761779Y-197497192D01*
X60826944Y-197407501D01*
X60916591Y-197231561D01*
X60977610Y-197043763D01*
X60990515Y-196962284D01*
X61008500Y-196848736D01*
X61008500Y-196651263D01*
X60977610Y-196456236D01*
X60957270Y-196393637D01*
X60916591Y-196268439D01*
X60826944Y-196092499D01*
X60754447Y-195992714D01*
X60710884Y-195932753D01*
X60571246Y-195793115D01*
X60411504Y-195677058D01*
X60411503Y-195677057D01*
X60411501Y-195677056D01*
X60235561Y-195587409D01*
X60235558Y-195587408D01*
X60047763Y-195526389D01*
X59852736Y-195495500D01*
X59852731Y-195495500D01*
X58646097Y-195495500D01*
X58579058Y-195475815D01*
X58558416Y-195459181D01*
X53136819Y-190037584D01*
X53103334Y-189976261D01*
X53100500Y-189949903D01*
X53100500Y-178900585D01*
X53120185Y-178833546D01*
X53172989Y-178787791D01*
X53242147Y-178777847D01*
X53283929Y-178791754D01*
X53287669Y-178793796D01*
X53422517Y-178844091D01*
X53482127Y-178850500D01*
X53655500Y-178850499D01*
X53722539Y-178870183D01*
X53768294Y-178922987D01*
X53779500Y-178974499D01*
X53779500Y-182043330D01*
X53779499Y-182043348D01*
X53779499Y-182209054D01*
X53779498Y-182209054D01*
X53820423Y-182361785D01*
X53849358Y-182411900D01*
X53849359Y-182411904D01*
X53849360Y-182411904D01*
X53899479Y-182498714D01*
X53899481Y-182498717D01*
X54018349Y-182617585D01*
X54018355Y-182617590D01*
X63709181Y-192308416D01*
X63742666Y-192369739D01*
X63745500Y-192396097D01*
X63745500Y-193602736D01*
X63776389Y-193797763D01*
X63837408Y-193985558D01*
X63837409Y-193985561D01*
X63927056Y-194161501D01*
X63927058Y-194161504D01*
X64043115Y-194321246D01*
X64182753Y-194460884D01*
X64332234Y-194569486D01*
X64342499Y-194576944D01*
X64518439Y-194666591D01*
X64643637Y-194707270D01*
X64706236Y-194727610D01*
X64901264Y-194758500D01*
X64901269Y-194758500D01*
X65098736Y-194758500D01*
X65293763Y-194727610D01*
X65481561Y-194666591D01*
X65657501Y-194576944D01*
X65747192Y-194511779D01*
X65817246Y-194460884D01*
X65817248Y-194460881D01*
X65817252Y-194460879D01*
X65956879Y-194321252D01*
X65956881Y-194321248D01*
X65956884Y-194321246D01*
X66007779Y-194251192D01*
X66072944Y-194161501D01*
X66162591Y-193985561D01*
X66223610Y-193797763D01*
X66254500Y-193602736D01*
X66254500Y-192153097D01*
X66274185Y-192086058D01*
X66326989Y-192040303D01*
X66396147Y-192030359D01*
X66459703Y-192059384D01*
X66466181Y-192065416D01*
X66863181Y-192462416D01*
X66896666Y-192523739D01*
X66899500Y-192550097D01*
X66899500Y-208449903D01*
X66879815Y-208516942D01*
X66863181Y-208537584D01*
X65917850Y-209482914D01*
X65856527Y-209516399D01*
X65786835Y-209511415D01*
X65757284Y-209495552D01*
X65657500Y-209423055D01*
X65539991Y-209363181D01*
X65481561Y-209333409D01*
X65481558Y-209333408D01*
X65293763Y-209272389D01*
X65098736Y-209241500D01*
X65098731Y-209241500D01*
X64901269Y-209241500D01*
X64901264Y-209241500D01*
X64706236Y-209272389D01*
X64518441Y-209333408D01*
X64342495Y-209423058D01*
X64182753Y-209539115D01*
X64043115Y-209678753D01*
X63927058Y-209838495D01*
X63837408Y-210014441D01*
X63776389Y-210202236D01*
X63745500Y-210397263D01*
X63745500Y-212102736D01*
X63776389Y-212297763D01*
X63837408Y-212485558D01*
X63837409Y-212485561D01*
X63914192Y-212636254D01*
X63927058Y-212661504D01*
X64043115Y-212821246D01*
X64182753Y-212960884D01*
X64322507Y-213062419D01*
X64342499Y-213076944D01*
X64518439Y-213166591D01*
X64643637Y-213207270D01*
X64706236Y-213227610D01*
X64901264Y-213258500D01*
X64901269Y-213258500D01*
X65098736Y-213258500D01*
X65293763Y-213227610D01*
X65310690Y-213222110D01*
X65481561Y-213166591D01*
X65657501Y-213076944D01*
X65773542Y-212992636D01*
X65817246Y-212960884D01*
X65817248Y-212960881D01*
X65817252Y-212960879D01*
X65956879Y-212821252D01*
X65956881Y-212821248D01*
X65956884Y-212821246D01*
X66007779Y-212751192D01*
X66072944Y-212661501D01*
X66162591Y-212485561D01*
X66223610Y-212297763D01*
X66225996Y-212282701D01*
X66254500Y-212102736D01*
X66254500Y-210896096D01*
X66274185Y-210829057D01*
X66290814Y-210808420D01*
X67868713Y-209230521D01*
X67868716Y-209230520D01*
X67980520Y-209118716D01*
X68030639Y-209031904D01*
X68059577Y-208981785D01*
X68100501Y-208829057D01*
X68100501Y-208670943D01*
X68100501Y-208663348D01*
X68100500Y-208663330D01*
X68100500Y-204588277D01*
X68616651Y-204588277D01*
X68616651Y-204785660D01*
X68647529Y-204980616D01*
X68708521Y-205168335D01*
X68708522Y-205168338D01*
X68798134Y-205344210D01*
X68824106Y-205379958D01*
X68824107Y-205379958D01*
X69390517Y-204813548D01*
X69407555Y-204877132D01*
X69473381Y-204991147D01*
X69566473Y-205084239D01*
X69680488Y-205150065D01*
X69744069Y-205167101D01*
X69177660Y-205733510D01*
X69177660Y-205733511D01*
X69213415Y-205759488D01*
X69389281Y-205849097D01*
X69389284Y-205849098D01*
X69577003Y-205910090D01*
X69771960Y-205940969D01*
X69969342Y-205940969D01*
X70164298Y-205910090D01*
X70352017Y-205849098D01*
X70352020Y-205849097D01*
X70527890Y-205759486D01*
X70687578Y-205643464D01*
X70687579Y-205643464D01*
X71113745Y-205217298D01*
X71113745Y-205217297D01*
X70580586Y-204684139D01*
X70934139Y-204330586D01*
X71467297Y-204863745D01*
X71893463Y-204437579D01*
X71893463Y-204437578D01*
X72009485Y-204277889D01*
X72009489Y-204277883D01*
X72099097Y-204102021D01*
X72099099Y-204102015D01*
X72160090Y-203914300D01*
X72190969Y-203719343D01*
X72190969Y-203521959D01*
X72160090Y-203327003D01*
X72099098Y-203139284D01*
X72099097Y-203139281D01*
X72009489Y-202963419D01*
X72009481Y-202963406D01*
X71983511Y-202927661D01*
X71983510Y-202927660D01*
X71417102Y-203494068D01*
X71400066Y-203430488D01*
X71334240Y-203316472D01*
X71241148Y-203223380D01*
X71127132Y-203157554D01*
X71063549Y-203140517D01*
X71629958Y-202574108D01*
X71594208Y-202548134D01*
X71418338Y-202458522D01*
X71418335Y-202458521D01*
X71230616Y-202397529D01*
X71035660Y-202366651D01*
X70838277Y-202366651D01*
X70643319Y-202397529D01*
X70455604Y-202458520D01*
X70455598Y-202458522D01*
X70279736Y-202548130D01*
X70279730Y-202548134D01*
X70120041Y-202664156D01*
X70120039Y-202664157D01*
X69693875Y-203090320D01*
X69693875Y-203090321D01*
X70227033Y-203623479D01*
X69873480Y-203977032D01*
X69340321Y-203443874D01*
X69340320Y-203443874D01*
X68914156Y-203870039D01*
X68914155Y-203870041D01*
X68798133Y-204029729D01*
X68708522Y-204205599D01*
X68708521Y-204205602D01*
X68647529Y-204393321D01*
X68616651Y-204588277D01*
X68100500Y-204588277D01*
X68100500Y-192339059D01*
X68100501Y-192339046D01*
X68100501Y-192170945D01*
X68100501Y-192170943D01*
X68059577Y-192018215D01*
X68030639Y-191968095D01*
X67980520Y-191881284D01*
X67868716Y-191769480D01*
X67868715Y-191769479D01*
X67864385Y-191765149D01*
X67864374Y-191765139D01*
X63737970Y-187638735D01*
X63704485Y-187577412D01*
X63709469Y-187507720D01*
X63751341Y-187451787D01*
X63806253Y-187428581D01*
X63922996Y-187410090D01*
X64110715Y-187349098D01*
X64110718Y-187349097D01*
X64286590Y-187259485D01*
X64322337Y-187233512D01*
X64322337Y-187233510D01*
X63755929Y-186667102D01*
X63819512Y-186650066D01*
X63933528Y-186584240D01*
X64026620Y-186491148D01*
X64092446Y-186377132D01*
X64109482Y-186313549D01*
X64675890Y-186879957D01*
X64675892Y-186879957D01*
X64701865Y-186844210D01*
X64791477Y-186668338D01*
X64791478Y-186668335D01*
X64852470Y-186480616D01*
X64883349Y-186285660D01*
X64883349Y-186088276D01*
X64852470Y-185893319D01*
X64791479Y-185705604D01*
X64791477Y-185705598D01*
X64701869Y-185529736D01*
X64701865Y-185529730D01*
X64585843Y-185370041D01*
X64585843Y-185370040D01*
X63379959Y-184164155D01*
X63220270Y-184048133D01*
X63044400Y-183958522D01*
X63044397Y-183958521D01*
X62856678Y-183897529D01*
X62661722Y-183866651D01*
X62464340Y-183866651D01*
X62269383Y-183897529D01*
X62081664Y-183958521D01*
X62081661Y-183958522D01*
X61905789Y-184048134D01*
X61870040Y-184074106D01*
X61870039Y-184074107D01*
X62436450Y-184640518D01*
X62372868Y-184657555D01*
X62258853Y-184723381D01*
X62165761Y-184816473D01*
X62099935Y-184930488D01*
X62082898Y-184994070D01*
X61516487Y-184427659D01*
X61516486Y-184427660D01*
X61490514Y-184463409D01*
X61400902Y-184639281D01*
X61400901Y-184639284D01*
X61339909Y-184827003D01*
X61321418Y-184943747D01*
X61291488Y-185006881D01*
X61232176Y-185043812D01*
X61162314Y-185042814D01*
X61111264Y-185012029D01*
X60096819Y-183997584D01*
X60063334Y-183936261D01*
X60060500Y-183909903D01*
X60060500Y-178789090D01*
X60080185Y-178722051D01*
X60132101Y-178676706D01*
X60137830Y-178674035D01*
X60331401Y-178538495D01*
X60498495Y-178371401D01*
X60628425Y-178185842D01*
X60683002Y-178142217D01*
X60752500Y-178135023D01*
X60814855Y-178166546D01*
X60831575Y-178185842D01*
X60961281Y-178371082D01*
X60961505Y-178371401D01*
X61128599Y-178538495D01*
X61225384Y-178606265D01*
X61322165Y-178674032D01*
X61322167Y-178674033D01*
X61322170Y-178674035D01*
X61327898Y-178676706D01*
X61380339Y-178722872D01*
X61399500Y-178789090D01*
X61399500Y-180663330D01*
X61399499Y-180663348D01*
X61399499Y-180829054D01*
X61399498Y-180829054D01*
X61440423Y-180981785D01*
X61469358Y-181031900D01*
X61469359Y-181031904D01*
X61469360Y-181031904D01*
X61519479Y-181118714D01*
X61519481Y-181118717D01*
X61638349Y-181237585D01*
X61638355Y-181237590D01*
X76863181Y-196462416D01*
X76896666Y-196523739D01*
X76899500Y-196550097D01*
X76899500Y-200871500D01*
X76879815Y-200938539D01*
X76827011Y-200984294D01*
X76775500Y-200995500D01*
X76647264Y-200995500D01*
X76452236Y-201026389D01*
X76264441Y-201087408D01*
X76088495Y-201177058D01*
X75928753Y-201293115D01*
X75789115Y-201432753D01*
X75673058Y-201592495D01*
X75583408Y-201768441D01*
X75522389Y-201956236D01*
X75491500Y-202151263D01*
X75491500Y-202348736D01*
X75522389Y-202543763D01*
X75561508Y-202664156D01*
X75583409Y-202731561D01*
X75673056Y-202907501D01*
X75673058Y-202907504D01*
X75789115Y-203067246D01*
X75928753Y-203206884D01*
X76078234Y-203315486D01*
X76088499Y-203322944D01*
X76264439Y-203412591D01*
X76360719Y-203443874D01*
X76452236Y-203473610D01*
X76647264Y-203504500D01*
X76647269Y-203504500D01*
X78352736Y-203504500D01*
X78547763Y-203473610D01*
X78735561Y-203412591D01*
X78911501Y-203322944D01*
X79048539Y-203223381D01*
X79071246Y-203206884D01*
X79071248Y-203206881D01*
X79071252Y-203206879D01*
X79210879Y-203067252D01*
X79210881Y-203067248D01*
X79210884Y-203067246D01*
X79261779Y-202997192D01*
X79326944Y-202907501D01*
X79416591Y-202731561D01*
X79477610Y-202543763D01*
X79491111Y-202458520D01*
X79508500Y-202348736D01*
X79508500Y-202151263D01*
X79477610Y-201956236D01*
X79457270Y-201893637D01*
X79416591Y-201768439D01*
X79326944Y-201592499D01*
X79254447Y-201492714D01*
X79210884Y-201432753D01*
X79071246Y-201293115D01*
X78911504Y-201177058D01*
X78911503Y-201177057D01*
X78911501Y-201177056D01*
X78735561Y-201087409D01*
X78735558Y-201087408D01*
X78547763Y-201026389D01*
X78352736Y-200995500D01*
X78352731Y-200995500D01*
X78224500Y-200995500D01*
X78157461Y-200975815D01*
X78111706Y-200923011D01*
X78100500Y-200871500D01*
X78100500Y-197055997D01*
X78120185Y-196988958D01*
X78172989Y-196943203D01*
X78242147Y-196933259D01*
X78305703Y-196962284D01*
X78312181Y-196968316D01*
X84363181Y-203019316D01*
X84396666Y-203080639D01*
X84399500Y-203106997D01*
X84399500Y-204318682D01*
X84379815Y-204385721D01*
X84345675Y-204419139D01*
X84346440Y-204420192D01*
X84182753Y-204539115D01*
X84043115Y-204678753D01*
X83927058Y-204838495D01*
X83837408Y-205014441D01*
X83776389Y-205202236D01*
X83745500Y-205397263D01*
X83745500Y-206596903D01*
X83725815Y-206663942D01*
X83673011Y-206709697D01*
X83603853Y-206719641D01*
X83540297Y-206690616D01*
X83533819Y-206684584D01*
X82237590Y-205388355D01*
X82237588Y-205388352D01*
X82118717Y-205269481D01*
X82118716Y-205269480D01*
X82031904Y-205219360D01*
X82031904Y-205219359D01*
X82031900Y-205219358D01*
X81981785Y-205190423D01*
X81829057Y-205149499D01*
X81670943Y-205149499D01*
X81663347Y-205149499D01*
X81663331Y-205149500D01*
X75586669Y-205149500D01*
X75586653Y-205149499D01*
X75579057Y-205149499D01*
X75420943Y-205149499D01*
X75313587Y-205178265D01*
X75268210Y-205190424D01*
X75268209Y-205190425D01*
X75218096Y-205219359D01*
X75218095Y-205219360D01*
X75174689Y-205244420D01*
X75131285Y-205269479D01*
X75131282Y-205269481D01*
X75056554Y-205344210D01*
X75019480Y-205381284D01*
X75019478Y-205381286D01*
X70386324Y-210014441D01*
X65787584Y-214613181D01*
X65726261Y-214646666D01*
X65699903Y-214649500D01*
X60931318Y-214649500D01*
X60864279Y-214629815D01*
X60830860Y-214595675D01*
X60829808Y-214596440D01*
X60710884Y-214432753D01*
X60571246Y-214293115D01*
X60411504Y-214177058D01*
X60411503Y-214177057D01*
X60411501Y-214177056D01*
X60235561Y-214087409D01*
X60235558Y-214087408D01*
X60047763Y-214026389D01*
X59852736Y-213995500D01*
X59852731Y-213995500D01*
X58147269Y-213995500D01*
X58147264Y-213995500D01*
X57952236Y-214026389D01*
X57764441Y-214087408D01*
X57588495Y-214177058D01*
X57428753Y-214293115D01*
X57289115Y-214432753D01*
X57173058Y-214592495D01*
X57083408Y-214768441D01*
X57022389Y-214956236D01*
X56991500Y-215151263D01*
X56991500Y-215348736D01*
X57022389Y-215543763D01*
X57083070Y-215730519D01*
X57083409Y-215731561D01*
X57173056Y-215907501D01*
X57173058Y-215907504D01*
X57289115Y-216067246D01*
X57428753Y-216206884D01*
X57578234Y-216315486D01*
X57588499Y-216322944D01*
X57764439Y-216412591D01*
X57889637Y-216453270D01*
X57952236Y-216473610D01*
X58147264Y-216504500D01*
X58147269Y-216504500D01*
X59852736Y-216504500D01*
X60047763Y-216473610D01*
X60235561Y-216412591D01*
X60411501Y-216322944D01*
X60501192Y-216257779D01*
X60571246Y-216206884D01*
X60571248Y-216206881D01*
X60571252Y-216206879D01*
X60710879Y-216067252D01*
X60710881Y-216067248D01*
X60710884Y-216067246D01*
X60829808Y-215903560D01*
X60831238Y-215904599D01*
X60877407Y-215862833D01*
X60931318Y-215850500D01*
X65913331Y-215850500D01*
X65913347Y-215850501D01*
X65920943Y-215850501D01*
X66079054Y-215850501D01*
X66079057Y-215850501D01*
X66231785Y-215809577D01*
X66281904Y-215780639D01*
X66368716Y-215730520D01*
X66480520Y-215618716D01*
X66480520Y-215618714D01*
X66490728Y-215608507D01*
X66490729Y-215608504D01*
X69384895Y-212714339D01*
X85116651Y-212714339D01*
X85116651Y-212911722D01*
X85147529Y-213106678D01*
X85208521Y-213294397D01*
X85208522Y-213294400D01*
X85298133Y-213470270D01*
X85414155Y-213629958D01*
X85414155Y-213629959D01*
X85840321Y-214056125D01*
X86373480Y-213522966D01*
X86727033Y-213876519D01*
X86193875Y-214409678D01*
X86620040Y-214835843D01*
X86779730Y-214951865D01*
X86779736Y-214951869D01*
X86955598Y-215041477D01*
X86955604Y-215041479D01*
X87143320Y-215102470D01*
X87143319Y-215102470D01*
X87338277Y-215133349D01*
X87535660Y-215133349D01*
X87730616Y-215102470D01*
X87918335Y-215041478D01*
X87918338Y-215041477D01*
X88094210Y-214951865D01*
X88129957Y-214925892D01*
X88129957Y-214925890D01*
X87563549Y-214359482D01*
X87627132Y-214342446D01*
X87741148Y-214276620D01*
X87834240Y-214183528D01*
X87900066Y-214069512D01*
X87917102Y-214005929D01*
X88483510Y-214572337D01*
X88483512Y-214572337D01*
X88509485Y-214536590D01*
X88599097Y-214360718D01*
X88599098Y-214360715D01*
X88660090Y-214172996D01*
X88690969Y-213978040D01*
X88690969Y-213780656D01*
X88660090Y-213585699D01*
X88599099Y-213397984D01*
X88599097Y-213397978D01*
X88509489Y-213222116D01*
X88509485Y-213222110D01*
X88393463Y-213062421D01*
X88393462Y-213062419D01*
X87967299Y-212636254D01*
X87967297Y-212636254D01*
X87434139Y-213169412D01*
X87080585Y-212815859D01*
X87613745Y-212282701D01*
X87187579Y-211856535D01*
X87027890Y-211740513D01*
X86852020Y-211650902D01*
X86852017Y-211650901D01*
X86664298Y-211589909D01*
X86469342Y-211559031D01*
X86271960Y-211559031D01*
X86077003Y-211589909D01*
X85889284Y-211650901D01*
X85889281Y-211650902D01*
X85713409Y-211740514D01*
X85677660Y-211766486D01*
X85677659Y-211766487D01*
X86244070Y-212332898D01*
X86180488Y-212349935D01*
X86066473Y-212415761D01*
X85973381Y-212508853D01*
X85907555Y-212622868D01*
X85890518Y-212686450D01*
X85324107Y-212120039D01*
X85324106Y-212120040D01*
X85298134Y-212155789D01*
X85208522Y-212331661D01*
X85208521Y-212331664D01*
X85147529Y-212519383D01*
X85116651Y-212714339D01*
X69384895Y-212714339D01*
X75712416Y-206386819D01*
X75773739Y-206353334D01*
X75800097Y-206350500D01*
X80572007Y-206350500D01*
X80639046Y-206370185D01*
X80684801Y-206422989D01*
X80694745Y-206492147D01*
X80665720Y-206555703D01*
X80659688Y-206562181D01*
X80543119Y-206678749D01*
X80543115Y-206678753D01*
X80427058Y-206838495D01*
X80337408Y-207014441D01*
X80276389Y-207202236D01*
X80245500Y-207397263D01*
X80245500Y-209102736D01*
X80276389Y-209297763D01*
X80336549Y-209482914D01*
X80337409Y-209485561D01*
X80427056Y-209661501D01*
X80427058Y-209661504D01*
X80543115Y-209821246D01*
X80682753Y-209960884D01*
X80832234Y-210069486D01*
X80842499Y-210076944D01*
X81018439Y-210166591D01*
X81128144Y-210202236D01*
X81206236Y-210227610D01*
X81401264Y-210258500D01*
X81401269Y-210258500D01*
X81598736Y-210258500D01*
X81793763Y-210227610D01*
X81981561Y-210166591D01*
X82157501Y-210076944D01*
X82257285Y-210004446D01*
X82323088Y-209980968D01*
X82391142Y-209996793D01*
X82417849Y-210017085D01*
X82881284Y-210480520D01*
X82881286Y-210480521D01*
X82881290Y-210480524D01*
X83018209Y-210559573D01*
X83018216Y-210559577D01*
X83170943Y-210600501D01*
X83170945Y-210600501D01*
X83336654Y-210600501D01*
X83336670Y-210600500D01*
X86097645Y-210600500D01*
X86097661Y-210600501D01*
X86105257Y-210600501D01*
X86263368Y-210600501D01*
X86263371Y-210600501D01*
X86416099Y-210559577D01*
X86466218Y-210530639D01*
X86553030Y-210480520D01*
X86664834Y-210368716D01*
X86664834Y-210368714D01*
X86675042Y-210358507D01*
X86675044Y-210358504D01*
X87708506Y-209325042D01*
X87708511Y-209325038D01*
X87718714Y-209314834D01*
X87718716Y-209314834D01*
X87830520Y-209203030D01*
X87890846Y-209098541D01*
X87909577Y-209066099D01*
X87950501Y-208913371D01*
X87950501Y-208755257D01*
X87950501Y-208747662D01*
X87950500Y-208747644D01*
X87950500Y-200349097D01*
X87970185Y-200282058D01*
X88022989Y-200236303D01*
X88092147Y-200226359D01*
X88155703Y-200255384D01*
X88162181Y-200261416D01*
X89232914Y-201332149D01*
X89266399Y-201393472D01*
X89261415Y-201463164D01*
X89245552Y-201492714D01*
X89173057Y-201592496D01*
X89083408Y-201768441D01*
X89022389Y-201956236D01*
X88991500Y-202151263D01*
X88991500Y-202348736D01*
X89022389Y-202543763D01*
X89061508Y-202664156D01*
X89083409Y-202731561D01*
X89173056Y-202907501D01*
X89173058Y-202907504D01*
X89289115Y-203067246D01*
X89428753Y-203206884D01*
X89578234Y-203315486D01*
X89588499Y-203322944D01*
X89764439Y-203412591D01*
X89860719Y-203443874D01*
X89952236Y-203473610D01*
X90147264Y-203504500D01*
X90147269Y-203504500D01*
X91852736Y-203504500D01*
X92047763Y-203473610D01*
X92235561Y-203412591D01*
X92411501Y-203322944D01*
X92548539Y-203223381D01*
X92571246Y-203206884D01*
X92571248Y-203206881D01*
X92571252Y-203206879D01*
X92710879Y-203067252D01*
X92710881Y-203067248D01*
X92710884Y-203067246D01*
X92761779Y-202997192D01*
X92826944Y-202907501D01*
X92916591Y-202731561D01*
X92977610Y-202543763D01*
X92991111Y-202458520D01*
X93008500Y-202348736D01*
X93008500Y-202151263D01*
X92977610Y-201956236D01*
X92957270Y-201893637D01*
X92916591Y-201768439D01*
X92826944Y-201592499D01*
X92754447Y-201492714D01*
X92710884Y-201432753D01*
X92571246Y-201293115D01*
X92411504Y-201177058D01*
X92411503Y-201177057D01*
X92411501Y-201177056D01*
X92235561Y-201087409D01*
X92235558Y-201087408D01*
X92047763Y-201026389D01*
X91852736Y-200995500D01*
X91852731Y-200995500D01*
X90646097Y-200995500D01*
X90579058Y-200975815D01*
X90558416Y-200959181D01*
X88671819Y-199072584D01*
X88638334Y-199011261D01*
X88635500Y-198984903D01*
X88635500Y-178789090D01*
X88655185Y-178722051D01*
X88707101Y-178676706D01*
X88712830Y-178674035D01*
X88906401Y-178538495D01*
X89073495Y-178371401D01*
X89203425Y-178185842D01*
X89258002Y-178142217D01*
X89327500Y-178135023D01*
X89389855Y-178166546D01*
X89406575Y-178185842D01*
X89536281Y-178371082D01*
X89536505Y-178371401D01*
X89703599Y-178538495D01*
X89800384Y-178606265D01*
X89897165Y-178674032D01*
X89897167Y-178674033D01*
X89897170Y-178674035D01*
X90111337Y-178773903D01*
X90339592Y-178835063D01*
X90516034Y-178850500D01*
X90574999Y-178855659D01*
X90575000Y-178855659D01*
X90575001Y-178855659D01*
X90633966Y-178850500D01*
X90810408Y-178835063D01*
X91038663Y-178773903D01*
X91252830Y-178674035D01*
X91446401Y-178538495D01*
X91613495Y-178371401D01*
X91743730Y-178185405D01*
X91798307Y-178141781D01*
X91867805Y-178134587D01*
X91930160Y-178166110D01*
X91946879Y-178185405D01*
X92076890Y-178371078D01*
X92243917Y-178538105D01*
X92437421Y-178673600D01*
X92651507Y-178773429D01*
X92651516Y-178773433D01*
X92865000Y-178830634D01*
X92865000Y-177933012D01*
X92922007Y-177965925D01*
X93049174Y-178000000D01*
X93180826Y-178000000D01*
X93307993Y-177965925D01*
X93365000Y-177933012D01*
X93365000Y-178830633D01*
X93578483Y-178773433D01*
X93578492Y-178773429D01*
X93792578Y-178673600D01*
X93986082Y-178538105D01*
X94153105Y-178371082D01*
X94283425Y-178184968D01*
X94338002Y-178141344D01*
X94407501Y-178134151D01*
X94469855Y-178165673D01*
X94486575Y-178184968D01*
X94616894Y-178371082D01*
X94783917Y-178538105D01*
X94977421Y-178673600D01*
X95191507Y-178773429D01*
X95191516Y-178773433D01*
X95405000Y-178830634D01*
X95405000Y-177933012D01*
X95462007Y-177965925D01*
X95589174Y-178000000D01*
X95720826Y-178000000D01*
X95847993Y-177965925D01*
X95905000Y-177933012D01*
X95905000Y-178830633D01*
X96118483Y-178773433D01*
X96118492Y-178773429D01*
X96332578Y-178673600D01*
X96526082Y-178538105D01*
X96693105Y-178371082D01*
X96828600Y-178177578D01*
X96928429Y-177963492D01*
X96928432Y-177963486D01*
X96985636Y-177750000D01*
X96088012Y-177750000D01*
X96120925Y-177692993D01*
X96155000Y-177565826D01*
X96155000Y-177434174D01*
X96120925Y-177307007D01*
X96088012Y-177250000D01*
X96985636Y-177250000D01*
X96985635Y-177249999D01*
X96928432Y-177036513D01*
X96928429Y-177036507D01*
X96828600Y-176822422D01*
X96828599Y-176822420D01*
X96693113Y-176628926D01*
X96693108Y-176628920D01*
X96526082Y-176461894D01*
X96332578Y-176326399D01*
X96118492Y-176226570D01*
X96118486Y-176226567D01*
X95905000Y-176169364D01*
X95905000Y-177066988D01*
X95847993Y-177034075D01*
X95720826Y-177000000D01*
X95589174Y-177000000D01*
X95462007Y-177034075D01*
X95405000Y-177066988D01*
X95405000Y-176169364D01*
X95404999Y-176169364D01*
X95191513Y-176226567D01*
X95191507Y-176226570D01*
X94977422Y-176326399D01*
X94977420Y-176326400D01*
X94783926Y-176461886D01*
X94783920Y-176461891D01*
X94616891Y-176628920D01*
X94616890Y-176628922D01*
X94486575Y-176815031D01*
X94431998Y-176858655D01*
X94362499Y-176865848D01*
X94300145Y-176834326D01*
X94283425Y-176815031D01*
X94153109Y-176628922D01*
X94153108Y-176628920D01*
X93986082Y-176461894D01*
X93792578Y-176326399D01*
X93578492Y-176226570D01*
X93578486Y-176226567D01*
X93365000Y-176169364D01*
X93365000Y-177066988D01*
X93307993Y-177034075D01*
X93180826Y-177000000D01*
X93049174Y-177000000D01*
X92922007Y-177034075D01*
X92865000Y-177066988D01*
X92865000Y-176169364D01*
X92864999Y-176169364D01*
X92651513Y-176226567D01*
X92651507Y-176226570D01*
X92437422Y-176326399D01*
X92437420Y-176326400D01*
X92243926Y-176461886D01*
X92243920Y-176461891D01*
X92076891Y-176628920D01*
X92076890Y-176628922D01*
X91946880Y-176814595D01*
X91892303Y-176858219D01*
X91822804Y-176865412D01*
X91760450Y-176833890D01*
X91743730Y-176814594D01*
X91613494Y-176628597D01*
X91446401Y-176461505D01*
X91369518Y-176407671D01*
X91252834Y-176325967D01*
X91252830Y-176325965D01*
X91252828Y-176325964D01*
X91038663Y-176226097D01*
X91038659Y-176226096D01*
X91038655Y-176226094D01*
X90810413Y-176164938D01*
X90810403Y-176164936D01*
X90575001Y-176144341D01*
X90574999Y-176144341D01*
X90339596Y-176164936D01*
X90339586Y-176164938D01*
X90111344Y-176226094D01*
X90111335Y-176226098D01*
X89897171Y-176325964D01*
X89897169Y-176325965D01*
X89703597Y-176461505D01*
X89536505Y-176628597D01*
X89406575Y-176814158D01*
X89351998Y-176857783D01*
X89282500Y-176864977D01*
X89220145Y-176833454D01*
X89203425Y-176814158D01*
X89073494Y-176628597D01*
X88906401Y-176461505D01*
X88829518Y-176407671D01*
X88712834Y-176325967D01*
X88712830Y-176325965D01*
X88712828Y-176325964D01*
X88498663Y-176226097D01*
X88498659Y-176226096D01*
X88498655Y-176226094D01*
X88270413Y-176164938D01*
X88270403Y-176164936D01*
X88035001Y-176144341D01*
X88034999Y-176144341D01*
X87799596Y-176164936D01*
X87799586Y-176164938D01*
X87571344Y-176226094D01*
X87571335Y-176226098D01*
X87357171Y-176325964D01*
X87357169Y-176325965D01*
X87163597Y-176461505D01*
X86996505Y-176628597D01*
X86866575Y-176814158D01*
X86811998Y-176857783D01*
X86742500Y-176864977D01*
X86680145Y-176833454D01*
X86663425Y-176814158D01*
X86533494Y-176628597D01*
X86366401Y-176461505D01*
X86289518Y-176407671D01*
X86172834Y-176325967D01*
X86172830Y-176325965D01*
X86172828Y-176325964D01*
X85958663Y-176226097D01*
X85958659Y-176226096D01*
X85958655Y-176226094D01*
X85730413Y-176164938D01*
X85730403Y-176164936D01*
X85495001Y-176144341D01*
X85494999Y-176144341D01*
X85259596Y-176164936D01*
X85259586Y-176164938D01*
X85031344Y-176226094D01*
X85031335Y-176226098D01*
X84817171Y-176325964D01*
X84817169Y-176325965D01*
X84623597Y-176461505D01*
X84456505Y-176628597D01*
X84326575Y-176814158D01*
X84271998Y-176857783D01*
X84202500Y-176864977D01*
X84140145Y-176833454D01*
X84123425Y-176814158D01*
X83993494Y-176628597D01*
X83826401Y-176461505D01*
X83749518Y-176407671D01*
X83632834Y-176325967D01*
X83632830Y-176325965D01*
X83632828Y-176325964D01*
X83418663Y-176226097D01*
X83418659Y-176226096D01*
X83418655Y-176226094D01*
X83190413Y-176164938D01*
X83190403Y-176164936D01*
X82955001Y-176144341D01*
X82954999Y-176144341D01*
X82719596Y-176164936D01*
X82719586Y-176164938D01*
X82491344Y-176226094D01*
X82491335Y-176226098D01*
X82277171Y-176325964D01*
X82277169Y-176325965D01*
X82083597Y-176461505D01*
X81916505Y-176628597D01*
X81786575Y-176814158D01*
X81731998Y-176857783D01*
X81662500Y-176864977D01*
X81600145Y-176833454D01*
X81583425Y-176814158D01*
X81453494Y-176628597D01*
X81286401Y-176461505D01*
X81209518Y-176407671D01*
X81092834Y-176325967D01*
X81092830Y-176325965D01*
X81092828Y-176325964D01*
X80878663Y-176226097D01*
X80878659Y-176226096D01*
X80878655Y-176226094D01*
X80650413Y-176164938D01*
X80650403Y-176164936D01*
X80415001Y-176144341D01*
X80414999Y-176144341D01*
X80179596Y-176164936D01*
X80179586Y-176164938D01*
X79951344Y-176226094D01*
X79951335Y-176226098D01*
X79737171Y-176325964D01*
X79737169Y-176325965D01*
X79543600Y-176461503D01*
X79421673Y-176583430D01*
X79360350Y-176616914D01*
X79290658Y-176611930D01*
X79234725Y-176570058D01*
X79217810Y-176539081D01*
X79168797Y-176407671D01*
X79168793Y-176407664D01*
X79082547Y-176292455D01*
X79082544Y-176292452D01*
X78967335Y-176206206D01*
X78967328Y-176206202D01*
X78832482Y-176155908D01*
X78832483Y-176155908D01*
X78772883Y-176149501D01*
X78772881Y-176149500D01*
X78772873Y-176149500D01*
X78772865Y-176149500D01*
X77425098Y-176149500D01*
X77358059Y-176129815D01*
X77337417Y-176113181D01*
X76436416Y-175212181D01*
X76402931Y-175150858D01*
X76407915Y-175081167D01*
X76449787Y-175025233D01*
X76515251Y-175000816D01*
X76524097Y-175000500D01*
X98375500Y-175000500D01*
X98442539Y-175020185D01*
X98488294Y-175072989D01*
X98499500Y-175124500D01*
X98499500Y-216875500D01*
X98479815Y-216942539D01*
X98427011Y-216988294D01*
X98375500Y-216999500D01*
X51624500Y-216999500D01*
X51557461Y-216979815D01*
X51511706Y-216927011D01*
X51500500Y-216875500D01*
X51500500Y-203521959D01*
X61309031Y-203521959D01*
X61309031Y-203719342D01*
X61339909Y-203914298D01*
X61400901Y-204102017D01*
X61400902Y-204102020D01*
X61490513Y-204277890D01*
X61606535Y-204437578D01*
X61606535Y-204437579D01*
X62032701Y-204863745D01*
X62565860Y-204330586D01*
X62919413Y-204684139D01*
X62386255Y-205217298D01*
X62812420Y-205643463D01*
X62972110Y-205759485D01*
X62972116Y-205759489D01*
X63147978Y-205849097D01*
X63147984Y-205849099D01*
X63335700Y-205910090D01*
X63335699Y-205910090D01*
X63530657Y-205940969D01*
X63728040Y-205940969D01*
X63922996Y-205910090D01*
X64110715Y-205849098D01*
X64110718Y-205849097D01*
X64286590Y-205759485D01*
X64322337Y-205733512D01*
X64322337Y-205733510D01*
X63755929Y-205167102D01*
X63819512Y-205150066D01*
X63933528Y-205084240D01*
X64026620Y-204991148D01*
X64092446Y-204877132D01*
X64109482Y-204813549D01*
X64675890Y-205379957D01*
X64675892Y-205379957D01*
X64701865Y-205344210D01*
X64791477Y-205168338D01*
X64791478Y-205168335D01*
X64852470Y-204980616D01*
X64883349Y-204785660D01*
X64883349Y-204588276D01*
X64852470Y-204393319D01*
X64791479Y-204205604D01*
X64791477Y-204205598D01*
X64701869Y-204029736D01*
X64701865Y-204029730D01*
X64585843Y-203870041D01*
X64585842Y-203870039D01*
X64159679Y-203443874D01*
X64159677Y-203443874D01*
X63626519Y-203977032D01*
X63272965Y-203623479D01*
X63806125Y-203090321D01*
X63379959Y-202664155D01*
X63220270Y-202548133D01*
X63044400Y-202458522D01*
X63044397Y-202458521D01*
X62856678Y-202397529D01*
X62661722Y-202366651D01*
X62464340Y-202366651D01*
X62269383Y-202397529D01*
X62081664Y-202458521D01*
X62081661Y-202458522D01*
X61905789Y-202548134D01*
X61870040Y-202574106D01*
X61870039Y-202574107D01*
X62436450Y-203140518D01*
X62372868Y-203157555D01*
X62258853Y-203223381D01*
X62165761Y-203316473D01*
X62099935Y-203430488D01*
X62082898Y-203494070D01*
X61516487Y-202927659D01*
X61516486Y-202927660D01*
X61490514Y-202963409D01*
X61400902Y-203139281D01*
X61400901Y-203139284D01*
X61339909Y-203327003D01*
X61309031Y-203521959D01*
X51500500Y-203521959D01*
X51500500Y-175124500D01*
X51520185Y-175057461D01*
X51572989Y-175011706D01*
X51624500Y-175000500D01*
X53100902Y-175000500D01*
X53167941Y-175020185D01*
G37*
%TD.AperFunction*%
%TA.AperFunction,Conductor*%
G36*
X73634249Y-176993128D02*
G01*
X73667749Y-177016984D01*
X76863181Y-180212416D01*
X76896666Y-180273739D01*
X76899500Y-180300097D01*
X76899500Y-182371500D01*
X76879815Y-182438539D01*
X76827011Y-182484294D01*
X76775500Y-182495500D01*
X76647264Y-182495500D01*
X76452236Y-182526389D01*
X76264441Y-182587408D01*
X76088495Y-182677058D01*
X75928753Y-182793115D01*
X75789115Y-182932753D01*
X75673058Y-183092495D01*
X75583408Y-183268441D01*
X75522389Y-183456236D01*
X75491500Y-183651263D01*
X75491500Y-183848736D01*
X75522389Y-184043763D01*
X75561508Y-184164156D01*
X75583409Y-184231561D01*
X75673056Y-184407501D01*
X75673058Y-184407504D01*
X75789115Y-184567246D01*
X75928753Y-184706884D01*
X76078234Y-184815486D01*
X76088499Y-184822944D01*
X76264439Y-184912591D01*
X76360328Y-184943747D01*
X76452236Y-184973610D01*
X76647264Y-185004500D01*
X76647269Y-185004500D01*
X78352736Y-185004500D01*
X78547763Y-184973610D01*
X78735561Y-184912591D01*
X78911501Y-184822944D01*
X79048539Y-184723381D01*
X79071246Y-184706884D01*
X79071248Y-184706881D01*
X79071252Y-184706879D01*
X79210879Y-184567252D01*
X79210881Y-184567248D01*
X79210884Y-184567246D01*
X79265625Y-184491900D01*
X79326944Y-184407501D01*
X79416591Y-184231561D01*
X79477610Y-184043763D01*
X79484924Y-183997584D01*
X79508500Y-183848736D01*
X79508500Y-183651263D01*
X79477610Y-183456236D01*
X79457270Y-183393637D01*
X79416591Y-183268439D01*
X79326944Y-183092499D01*
X79319486Y-183082234D01*
X79210884Y-182932753D01*
X79071246Y-182793115D01*
X78911504Y-182677058D01*
X78911503Y-182677057D01*
X78911501Y-182677056D01*
X78735561Y-182587409D01*
X78735558Y-182587408D01*
X78547763Y-182526389D01*
X78352736Y-182495500D01*
X78352731Y-182495500D01*
X78224500Y-182495500D01*
X78157461Y-182475815D01*
X78111706Y-182423011D01*
X78100500Y-182371500D01*
X78100500Y-179920944D01*
X78098792Y-179914566D01*
X78098792Y-179914565D01*
X78089875Y-179881289D01*
X78059577Y-179768215D01*
X78030639Y-179718095D01*
X77980520Y-179631284D01*
X77868716Y-179519480D01*
X77868715Y-179519479D01*
X77864385Y-179515149D01*
X77864374Y-179515139D01*
X77411415Y-179062180D01*
X77377930Y-179000857D01*
X77382914Y-178931165D01*
X77424786Y-178875232D01*
X77490250Y-178850815D01*
X77499096Y-178850499D01*
X78772871Y-178850499D01*
X78772872Y-178850499D01*
X78832483Y-178844091D01*
X78967331Y-178793796D01*
X79082546Y-178707546D01*
X79168796Y-178592331D01*
X79217810Y-178460916D01*
X79259681Y-178404984D01*
X79325145Y-178380566D01*
X79393418Y-178395417D01*
X79421673Y-178416569D01*
X79543599Y-178538495D01*
X79640384Y-178606265D01*
X79737165Y-178674032D01*
X79737167Y-178674033D01*
X79737170Y-178674035D01*
X79951337Y-178773903D01*
X80179592Y-178835063D01*
X80356034Y-178850500D01*
X80414999Y-178855659D01*
X80415000Y-178855659D01*
X80415001Y-178855659D01*
X80473966Y-178850500D01*
X80650408Y-178835063D01*
X80743409Y-178810143D01*
X80813255Y-178811806D01*
X80871118Y-178850968D01*
X80898623Y-178915196D01*
X80899500Y-178929918D01*
X80899500Y-187818682D01*
X80879815Y-187885721D01*
X80845675Y-187919139D01*
X80846440Y-187920192D01*
X80682753Y-188039115D01*
X80543115Y-188178753D01*
X80427058Y-188338495D01*
X80337408Y-188514441D01*
X80276389Y-188702236D01*
X80245500Y-188897263D01*
X80245500Y-190602736D01*
X80276389Y-190797763D01*
X80317100Y-190923056D01*
X80337409Y-190985561D01*
X80427056Y-191161501D01*
X80427058Y-191161504D01*
X80543115Y-191321246D01*
X80682753Y-191460884D01*
X80832234Y-191569486D01*
X80842499Y-191576944D01*
X81018439Y-191666591D01*
X81143637Y-191707270D01*
X81206236Y-191727610D01*
X81401264Y-191758500D01*
X81401269Y-191758500D01*
X81598736Y-191758500D01*
X81793763Y-191727610D01*
X81981561Y-191666591D01*
X82157501Y-191576944D01*
X82247192Y-191511779D01*
X82317246Y-191460884D01*
X82317248Y-191460881D01*
X82317252Y-191460879D01*
X82456879Y-191321252D01*
X82456881Y-191321248D01*
X82456884Y-191321246D01*
X82507779Y-191251192D01*
X82572944Y-191161501D01*
X82662591Y-190985561D01*
X82723610Y-190797763D01*
X82732521Y-190741500D01*
X82754500Y-190602736D01*
X82754500Y-188897263D01*
X82723610Y-188702236D01*
X82703270Y-188639637D01*
X82662591Y-188514439D01*
X82572944Y-188338499D01*
X82565486Y-188328234D01*
X82456884Y-188178753D01*
X82317246Y-188039115D01*
X82153560Y-187920192D01*
X82154599Y-187918761D01*
X82112833Y-187872593D01*
X82100500Y-187818682D01*
X82100500Y-178786293D01*
X82120185Y-178719254D01*
X82172989Y-178673499D01*
X82242147Y-178663555D01*
X82276905Y-178673911D01*
X82277168Y-178674033D01*
X82277170Y-178674035D01*
X82491337Y-178773903D01*
X82719592Y-178835063D01*
X82896034Y-178850500D01*
X82954999Y-178855659D01*
X82955000Y-178855659D01*
X82955001Y-178855659D01*
X83013966Y-178850500D01*
X83190408Y-178835063D01*
X83318757Y-178800672D01*
X83388606Y-178802335D01*
X83438531Y-178832766D01*
X86113181Y-181507416D01*
X86146666Y-181568739D01*
X86149500Y-181595097D01*
X86149500Y-204572007D01*
X86129815Y-204639046D01*
X86077011Y-204684801D01*
X86007853Y-204694745D01*
X85944297Y-204665720D01*
X85937819Y-204659688D01*
X85817246Y-204539115D01*
X85653560Y-204420192D01*
X85654599Y-204418761D01*
X85612833Y-204372593D01*
X85600500Y-204318682D01*
X85600500Y-202727845D01*
X85600500Y-202727843D01*
X85559577Y-202575116D01*
X85558995Y-202574108D01*
X85480524Y-202438190D01*
X85480521Y-202438186D01*
X85480520Y-202438184D01*
X85368716Y-202326380D01*
X85368715Y-202326379D01*
X85364385Y-202322049D01*
X85364374Y-202322039D01*
X70498811Y-187456476D01*
X70465326Y-187395153D01*
X70470310Y-187325461D01*
X70512182Y-187269528D01*
X70523877Y-187262248D01*
X70523742Y-187262028D01*
X70527894Y-187259484D01*
X70687578Y-187143464D01*
X70687579Y-187143464D01*
X71113745Y-186717298D01*
X71113745Y-186717297D01*
X70580586Y-186184139D01*
X70934139Y-185830586D01*
X71467297Y-186363745D01*
X71893463Y-185937579D01*
X71893463Y-185937578D01*
X72009485Y-185777889D01*
X72009489Y-185777883D01*
X72099097Y-185602021D01*
X72099099Y-185602015D01*
X72160090Y-185414300D01*
X72190969Y-185219343D01*
X72190969Y-185021959D01*
X72160090Y-184827003D01*
X72099098Y-184639284D01*
X72099097Y-184639281D01*
X72009489Y-184463419D01*
X72009481Y-184463406D01*
X71983511Y-184427661D01*
X71983510Y-184427660D01*
X71417102Y-184994068D01*
X71400066Y-184930488D01*
X71334240Y-184816472D01*
X71241148Y-184723380D01*
X71127132Y-184657554D01*
X71063549Y-184640517D01*
X71629958Y-184074108D01*
X71594208Y-184048134D01*
X71418338Y-183958522D01*
X71418335Y-183958521D01*
X71230616Y-183897529D01*
X71035660Y-183866651D01*
X70838277Y-183866651D01*
X70643319Y-183897529D01*
X70455604Y-183958520D01*
X70455598Y-183958522D01*
X70279736Y-184048130D01*
X70279730Y-184048134D01*
X70120041Y-184164156D01*
X70120039Y-184164157D01*
X69693875Y-184590320D01*
X69693875Y-184590321D01*
X70227033Y-185123479D01*
X69873480Y-185477033D01*
X69340321Y-184943874D01*
X69340320Y-184943874D01*
X68914156Y-185370039D01*
X68914155Y-185370041D01*
X68798128Y-185529736D01*
X68795588Y-185533882D01*
X68794081Y-185532958D01*
X68751329Y-185578221D01*
X68683507Y-185595013D01*
X68617373Y-185572472D01*
X68601143Y-185558808D01*
X65176819Y-182134484D01*
X65143334Y-182073161D01*
X65140500Y-182046803D01*
X65140500Y-178789090D01*
X65160185Y-178722051D01*
X65212101Y-178676706D01*
X65217830Y-178674035D01*
X65411401Y-178538495D01*
X65578495Y-178371401D01*
X65708425Y-178185842D01*
X65763002Y-178142217D01*
X65832500Y-178135023D01*
X65894855Y-178166546D01*
X65911575Y-178185842D01*
X66041281Y-178371082D01*
X66041505Y-178371401D01*
X66208599Y-178538495D01*
X66305384Y-178606265D01*
X66402165Y-178674032D01*
X66402167Y-178674033D01*
X66402170Y-178674035D01*
X66616337Y-178773903D01*
X66844592Y-178835063D01*
X67021034Y-178850500D01*
X67079999Y-178855659D01*
X67080000Y-178855659D01*
X67080001Y-178855659D01*
X67138966Y-178850500D01*
X67315408Y-178835063D01*
X67543663Y-178773903D01*
X67757830Y-178674035D01*
X67951401Y-178538495D01*
X68118495Y-178371401D01*
X68248730Y-178185405D01*
X68303307Y-178141781D01*
X68372805Y-178134587D01*
X68435160Y-178166110D01*
X68451879Y-178185405D01*
X68581890Y-178371078D01*
X68748917Y-178538105D01*
X68942421Y-178673600D01*
X69156507Y-178773429D01*
X69156516Y-178773433D01*
X69370000Y-178830634D01*
X69370000Y-177933012D01*
X69427007Y-177965925D01*
X69554174Y-178000000D01*
X69685826Y-178000000D01*
X69812993Y-177965925D01*
X69870000Y-177933012D01*
X69870000Y-178830633D01*
X70083483Y-178773433D01*
X70083492Y-178773429D01*
X70297578Y-178673600D01*
X70491082Y-178538105D01*
X70658105Y-178371082D01*
X70788425Y-178184968D01*
X70843002Y-178141344D01*
X70912501Y-178134151D01*
X70974855Y-178165673D01*
X70991575Y-178184968D01*
X71121894Y-178371082D01*
X71288917Y-178538105D01*
X71482421Y-178673600D01*
X71696507Y-178773429D01*
X71696516Y-178773433D01*
X71910000Y-178830634D01*
X71910000Y-177933012D01*
X71967007Y-177965925D01*
X72094174Y-178000000D01*
X72225826Y-178000000D01*
X72352993Y-177965925D01*
X72410000Y-177933012D01*
X72410000Y-178830633D01*
X72623483Y-178773433D01*
X72623492Y-178773429D01*
X72837578Y-178673600D01*
X73031082Y-178538105D01*
X73198105Y-178371082D01*
X73333600Y-178177578D01*
X73433429Y-177963492D01*
X73433432Y-177963486D01*
X73490636Y-177750000D01*
X72593012Y-177750000D01*
X72625925Y-177692993D01*
X72660000Y-177565826D01*
X72660000Y-177434174D01*
X72625925Y-177307007D01*
X72593012Y-177250000D01*
X73490636Y-177250000D01*
X73490635Y-177249999D01*
X73460293Y-177136759D01*
X73461956Y-177066909D01*
X73501118Y-177009046D01*
X73565347Y-176981542D01*
X73634249Y-176993128D01*
G37*
%TD.AperFunction*%
%TA.AperFunction,Conductor*%
G36*
X62919413Y-186184139D02*
G01*
X62689075Y-186414478D01*
X62627752Y-186447963D01*
X62558060Y-186442979D01*
X62513713Y-186414478D01*
X62335522Y-186236287D01*
X62302037Y-186174964D01*
X62307021Y-186105272D01*
X62335522Y-186060925D01*
X62565860Y-185830586D01*
X62919413Y-186184139D01*
G37*
%TD.AperFunction*%
%TA.AperFunction,Conductor*%
G36*
X71694075Y-177307007D02*
G01*
X71660000Y-177434174D01*
X71660000Y-177565826D01*
X71694075Y-177692993D01*
X71726988Y-177750000D01*
X70053012Y-177750000D01*
X70085925Y-177692993D01*
X70120000Y-177565826D01*
X70120000Y-177434174D01*
X70085925Y-177307007D01*
X70053012Y-177250000D01*
X71726988Y-177250000D01*
X71694075Y-177307007D01*
G37*
%TD.AperFunction*%
%TA.AperFunction,Conductor*%
G36*
X95189075Y-177307007D02*
G01*
X95155000Y-177434174D01*
X95155000Y-177565826D01*
X95189075Y-177692993D01*
X95221988Y-177750000D01*
X93548012Y-177750000D01*
X93580925Y-177692993D01*
X93615000Y-177565826D01*
X93615000Y-177434174D01*
X93580925Y-177307007D01*
X93548012Y-177250000D01*
X95221988Y-177250000D01*
X95189075Y-177307007D01*
G37*
%TD.AperFunction*%
%TD*%
M02*
