%TF.GenerationSoftware,KiCad,Pcbnew,8.0.5*%
%TF.CreationDate,2024-12-03T21:36:43+01:00*%
%TF.ProjectId,DMH_Mixer_PCB,444d485f-4d69-4786-9572-5f5043422e6b,1*%
%TF.SameCoordinates,Original*%
%TF.FileFunction,Drillmap*%
%TF.FilePolarity,Positive*%
%FSLAX45Y45*%
G04 Gerber Fmt 4.5, Leading zero omitted, Abs format (unit mm)*
G04 Created by KiCad (PCBNEW 8.0.5) date 2024-12-03 21:36:43*
%MOMM*%
%LPD*%
G01*
G04 APERTURE LIST*
%ADD10C,0.050000*%
%ADD11C,0.200000*%
%ADD12C,0.100000*%
%ADD13C,0.110000*%
%ADD14C,0.150000*%
%ADD15C,0.160000*%
G04 APERTURE END LIST*
D10*
X8400000Y-19850000D02*
X8400000Y-18050000D01*
X9900000Y-4250000D02*
X9900000Y-19850000D01*
X5100000Y-18050000D02*
X5100000Y-4250000D01*
X5100000Y-4250000D02*
X9900000Y-4250000D01*
X9900000Y-19850000D02*
X8400000Y-19850000D01*
X8400000Y-18050000D02*
X5100000Y-18050000D01*
D11*
D12*
X5235000Y-5429000D02*
X5315000Y-5509000D01*
X5315000Y-5429000D02*
X5235000Y-5509000D01*
X5235000Y-6191000D02*
X5315000Y-6271000D01*
X5315000Y-6191000D02*
X5235000Y-6271000D01*
X5235000Y-8979000D02*
X5315000Y-9059000D01*
X5315000Y-8979000D02*
X5235000Y-9059000D01*
X5235000Y-9741000D02*
X5315000Y-9821000D01*
X5315000Y-9741000D02*
X5235000Y-9821000D01*
X5235000Y-12529000D02*
X5315000Y-12609000D01*
X5315000Y-12529000D02*
X5235000Y-12609000D01*
X5235000Y-13291000D02*
X5315000Y-13371000D01*
X5315000Y-13291000D02*
X5235000Y-13371000D01*
X5235000Y-16079000D02*
X5315000Y-16159000D01*
X5315000Y-16079000D02*
X5235000Y-16159000D01*
X5235000Y-16841000D02*
X5315000Y-16921000D01*
X5315000Y-16841000D02*
X5235000Y-16921000D01*
X5560000Y-4985000D02*
X5640000Y-5065000D01*
X5640000Y-4985000D02*
X5560000Y-5065000D01*
X5560000Y-8535000D02*
X5640000Y-8615000D01*
X5640000Y-8535000D02*
X5560000Y-8615000D01*
X5560000Y-12085000D02*
X5640000Y-12165000D01*
X5640000Y-12085000D02*
X5560000Y-12165000D01*
X5560000Y-15635000D02*
X5640000Y-15715000D01*
X5640000Y-15635000D02*
X5560000Y-15715000D01*
X5810000Y-10854000D02*
X5890000Y-10934000D01*
X5890000Y-10854000D02*
X5810000Y-10934000D01*
X5810000Y-11616000D02*
X5890000Y-11696000D01*
X5890000Y-11616000D02*
X5810000Y-11696000D01*
X6060000Y-4985000D02*
X6140000Y-5065000D01*
X6140000Y-4985000D02*
X6060000Y-5065000D01*
X6060000Y-8535000D02*
X6140000Y-8615000D01*
X6140000Y-8535000D02*
X6060000Y-8615000D01*
X6060000Y-12085000D02*
X6140000Y-12165000D01*
X6140000Y-12085000D02*
X6060000Y-12165000D01*
X6060000Y-15635000D02*
X6140000Y-15715000D01*
X6140000Y-15635000D02*
X6060000Y-15715000D01*
X6235000Y-10985000D02*
X6315000Y-11065000D01*
X6315000Y-10985000D02*
X6235000Y-11065000D01*
X6235000Y-11485000D02*
X6315000Y-11565000D01*
X6315000Y-11485000D02*
X6235000Y-11565000D01*
X6385000Y-5429000D02*
X6465000Y-5509000D01*
X6465000Y-5429000D02*
X6385000Y-5509000D01*
X6385000Y-6191000D02*
X6465000Y-6271000D01*
X6465000Y-6191000D02*
X6385000Y-6271000D01*
X6385000Y-8979000D02*
X6465000Y-9059000D01*
X6465000Y-8979000D02*
X6385000Y-9059000D01*
X6385000Y-9741000D02*
X6465000Y-9821000D01*
X6465000Y-9741000D02*
X6385000Y-9821000D01*
X6385000Y-12529000D02*
X6465000Y-12609000D01*
X6465000Y-12529000D02*
X6385000Y-12609000D01*
X6385000Y-13291000D02*
X6465000Y-13371000D01*
X6465000Y-13291000D02*
X6385000Y-13371000D01*
X6385000Y-16079000D02*
X6465000Y-16159000D01*
X6465000Y-16079000D02*
X6385000Y-16159000D01*
X6385000Y-16841000D02*
X6465000Y-16921000D01*
X6465000Y-16841000D02*
X6385000Y-16921000D01*
X6555000Y-10855000D02*
X6635000Y-10935000D01*
X6635000Y-10855000D02*
X6555000Y-10935000D01*
X6555000Y-11617000D02*
X6635000Y-11697000D01*
X6635000Y-11617000D02*
X6555000Y-11697000D01*
X6560000Y-10460000D02*
X6640000Y-10540000D01*
X6640000Y-10460000D02*
X6560000Y-10540000D01*
X6698000Y-10110000D02*
X6778000Y-10190000D01*
X6778000Y-10110000D02*
X6698000Y-10190000D01*
X6698000Y-12360000D02*
X6778000Y-12440000D01*
X6778000Y-12360000D02*
X6698000Y-12440000D01*
X6809000Y-10855000D02*
X6889000Y-10935000D01*
X6889000Y-10855000D02*
X6809000Y-10935000D01*
X6809000Y-11617000D02*
X6889000Y-11697000D01*
X6889000Y-11617000D02*
X6809000Y-11697000D01*
X6810000Y-10460000D02*
X6890000Y-10540000D01*
X6890000Y-10460000D02*
X6810000Y-10540000D01*
X6810000Y-12010000D02*
X6890000Y-12090000D01*
X6890000Y-12010000D02*
X6810000Y-12090000D01*
X6935000Y-13004000D02*
X7015000Y-13084000D01*
X7015000Y-13004000D02*
X6935000Y-13084000D01*
X6935000Y-13766000D02*
X7015000Y-13846000D01*
X7015000Y-13766000D02*
X6935000Y-13846000D01*
X7060000Y-4685000D02*
X7140000Y-4765000D01*
X7140000Y-4685000D02*
X7060000Y-4765000D01*
X7060000Y-12010000D02*
X7140000Y-12090000D01*
X7140000Y-12010000D02*
X7060000Y-12090000D01*
X7063000Y-10855000D02*
X7143000Y-10935000D01*
X7143000Y-10855000D02*
X7063000Y-10935000D01*
X7063000Y-11617000D02*
X7143000Y-11697000D01*
X7143000Y-11617000D02*
X7063000Y-11697000D01*
X7260000Y-4685000D02*
X7340000Y-4765000D01*
X7340000Y-4685000D02*
X7260000Y-4765000D01*
X7317000Y-10855000D02*
X7397000Y-10935000D01*
X7397000Y-10855000D02*
X7317000Y-10935000D01*
X7317000Y-11617000D02*
X7397000Y-11697000D01*
X7397000Y-11617000D02*
X7317000Y-11697000D01*
X7435000Y-13004000D02*
X7515000Y-13084000D01*
X7515000Y-13004000D02*
X7435000Y-13084000D01*
X7435000Y-13766000D02*
X7515000Y-13846000D01*
X7515000Y-13766000D02*
X7435000Y-13846000D01*
X7460000Y-10110000D02*
X7540000Y-10190000D01*
X7540000Y-10110000D02*
X7460000Y-10190000D01*
X7460000Y-12360000D02*
X7540000Y-12440000D01*
X7540000Y-12360000D02*
X7460000Y-12440000D01*
X7635000Y-10985000D02*
X7715000Y-11065000D01*
X7715000Y-10985000D02*
X7635000Y-11065000D01*
X7635000Y-11485000D02*
X7715000Y-11565000D01*
X7715000Y-11485000D02*
X7635000Y-11565000D01*
X7660000Y-5035000D02*
X7740000Y-5115000D01*
X7740000Y-5035000D02*
X7660000Y-5115000D01*
X8060000Y-10854000D02*
X8140000Y-10934000D01*
X8140000Y-10854000D02*
X8060000Y-10934000D01*
X8060000Y-11616000D02*
X8140000Y-11696000D01*
X8140000Y-11616000D02*
X8060000Y-11696000D01*
X8160000Y-5035000D02*
X8240000Y-5115000D01*
X8240000Y-5035000D02*
X8160000Y-5115000D01*
X8410000Y-10854000D02*
X8490000Y-10934000D01*
X8490000Y-10854000D02*
X8410000Y-10934000D01*
X8410000Y-11616000D02*
X8490000Y-11696000D01*
X8490000Y-11616000D02*
X8410000Y-11696000D01*
X9035000Y-7060000D02*
X9115000Y-7140000D01*
X9115000Y-7060000D02*
X9035000Y-7140000D01*
X9035000Y-7560000D02*
X9115000Y-7640000D01*
X9115000Y-7560000D02*
X9035000Y-7640000D01*
X9360000Y-8185000D02*
X9440000Y-8265000D01*
X9440000Y-8185000D02*
X9360000Y-8265000D01*
X9560000Y-8185000D02*
X9640000Y-8265000D01*
X9640000Y-8185000D02*
X9560000Y-8265000D01*
X5488000Y-17750000D02*
G75*
G02*
X5388000Y-17750000I-50000J0D01*
G01*
X5388000Y-17750000D02*
G75*
G02*
X5488000Y-17750000I50000J0D01*
G01*
X5675000Y-14100000D02*
G75*
G02*
X5575000Y-14100000I-50000J0D01*
G01*
X5575000Y-14100000D02*
G75*
G02*
X5675000Y-14100000I50000J0D01*
G01*
X5742000Y-17750000D02*
G75*
G02*
X5642000Y-17750000I-50000J0D01*
G01*
X5642000Y-17750000D02*
G75*
G02*
X5742000Y-17750000I50000J0D01*
G01*
X5996000Y-17750000D02*
G75*
G02*
X5896000Y-17750000I-50000J0D01*
G01*
X5896000Y-17750000D02*
G75*
G02*
X5996000Y-17750000I50000J0D01*
G01*
X6250000Y-17750000D02*
G75*
G02*
X6150000Y-17750000I-50000J0D01*
G01*
X6150000Y-17750000D02*
G75*
G02*
X6250000Y-17750000I50000J0D01*
G01*
X6504000Y-17750000D02*
G75*
G02*
X6404000Y-17750000I-50000J0D01*
G01*
X6404000Y-17750000D02*
G75*
G02*
X6504000Y-17750000I50000J0D01*
G01*
X6758000Y-17750000D02*
G75*
G02*
X6658000Y-17750000I-50000J0D01*
G01*
X6658000Y-17750000D02*
G75*
G02*
X6758000Y-17750000I50000J0D01*
G01*
X7012000Y-17750000D02*
G75*
G02*
X6912000Y-17750000I-50000J0D01*
G01*
X6912000Y-17750000D02*
G75*
G02*
X7012000Y-17750000I50000J0D01*
G01*
X7071250Y-15834000D02*
G75*
G02*
X6971250Y-15834000I-50000J0D01*
G01*
X6971250Y-15834000D02*
G75*
G02*
X7071250Y-15834000I50000J0D01*
G01*
X7071250Y-16088000D02*
G75*
G02*
X6971250Y-16088000I-50000J0D01*
G01*
X6971250Y-16088000D02*
G75*
G02*
X7071250Y-16088000I50000J0D01*
G01*
X7071250Y-16342000D02*
G75*
G02*
X6971250Y-16342000I-50000J0D01*
G01*
X6971250Y-16342000D02*
G75*
G02*
X7071250Y-16342000I50000J0D01*
G01*
X7071250Y-16596000D02*
G75*
G02*
X6971250Y-16596000I-50000J0D01*
G01*
X6971250Y-16596000D02*
G75*
G02*
X7071250Y-16596000I50000J0D01*
G01*
X7071250Y-16850000D02*
G75*
G02*
X6971250Y-16850000I-50000J0D01*
G01*
X6971250Y-16850000D02*
G75*
G02*
X7071250Y-16850000I50000J0D01*
G01*
X7266000Y-17750000D02*
G75*
G02*
X7166000Y-17750000I-50000J0D01*
G01*
X7166000Y-17750000D02*
G75*
G02*
X7266000Y-17750000I50000J0D01*
G01*
X7325250Y-15834000D02*
G75*
G02*
X7225250Y-15834000I-50000J0D01*
G01*
X7225250Y-15834000D02*
G75*
G02*
X7325250Y-15834000I50000J0D01*
G01*
X7325250Y-16088000D02*
G75*
G02*
X7225250Y-16088000I-50000J0D01*
G01*
X7225250Y-16088000D02*
G75*
G02*
X7325250Y-16088000I50000J0D01*
G01*
X7325250Y-16342000D02*
G75*
G02*
X7225250Y-16342000I-50000J0D01*
G01*
X7225250Y-16342000D02*
G75*
G02*
X7325250Y-16342000I50000J0D01*
G01*
X7325250Y-16596000D02*
G75*
G02*
X7225250Y-16596000I-50000J0D01*
G01*
X7225250Y-16596000D02*
G75*
G02*
X7325250Y-16596000I50000J0D01*
G01*
X7325250Y-16850000D02*
G75*
G02*
X7225250Y-16850000I-50000J0D01*
G01*
X7225250Y-16850000D02*
G75*
G02*
X7325250Y-16850000I50000J0D01*
G01*
X7837500Y-17750000D02*
G75*
G02*
X7737500Y-17750000I-50000J0D01*
G01*
X7737500Y-17750000D02*
G75*
G02*
X7837500Y-17750000I50000J0D01*
G01*
X8091500Y-17750000D02*
G75*
G02*
X7991500Y-17750000I-50000J0D01*
G01*
X7991500Y-17750000D02*
G75*
G02*
X8091500Y-17750000I50000J0D01*
G01*
X8125000Y-6600000D02*
G75*
G02*
X8025000Y-6600000I-50000J0D01*
G01*
X8025000Y-6600000D02*
G75*
G02*
X8125000Y-6600000I50000J0D01*
G01*
X8125000Y-10150000D02*
G75*
G02*
X8025000Y-10150000I-50000J0D01*
G01*
X8025000Y-10150000D02*
G75*
G02*
X8125000Y-10150000I50000J0D01*
G01*
X8125000Y-13700000D02*
G75*
G02*
X8025000Y-13700000I-50000J0D01*
G01*
X8025000Y-13700000D02*
G75*
G02*
X8125000Y-13700000I50000J0D01*
G01*
X8125000Y-17250000D02*
G75*
G02*
X8025000Y-17250000I-50000J0D01*
G01*
X8025000Y-17250000D02*
G75*
G02*
X8125000Y-17250000I50000J0D01*
G01*
X8345500Y-17750000D02*
G75*
G02*
X8245500Y-17750000I-50000J0D01*
G01*
X8245500Y-17750000D02*
G75*
G02*
X8345500Y-17750000I50000J0D01*
G01*
X8375000Y-6600000D02*
G75*
G02*
X8275000Y-6600000I-50000J0D01*
G01*
X8275000Y-6600000D02*
G75*
G02*
X8375000Y-6600000I50000J0D01*
G01*
X8375000Y-10150000D02*
G75*
G02*
X8275000Y-10150000I-50000J0D01*
G01*
X8275000Y-10150000D02*
G75*
G02*
X8375000Y-10150000I50000J0D01*
G01*
X8375000Y-13700000D02*
G75*
G02*
X8275000Y-13700000I-50000J0D01*
G01*
X8275000Y-13700000D02*
G75*
G02*
X8375000Y-13700000I50000J0D01*
G01*
X8375000Y-17250000D02*
G75*
G02*
X8275000Y-17250000I-50000J0D01*
G01*
X8275000Y-17250000D02*
G75*
G02*
X8375000Y-17250000I50000J0D01*
G01*
X8599500Y-17750000D02*
G75*
G02*
X8499500Y-17750000I-50000J0D01*
G01*
X8499500Y-17750000D02*
G75*
G02*
X8599500Y-17750000I50000J0D01*
G01*
X8625000Y-6600000D02*
G75*
G02*
X8525000Y-6600000I-50000J0D01*
G01*
X8525000Y-6600000D02*
G75*
G02*
X8625000Y-6600000I50000J0D01*
G01*
X8625000Y-10150000D02*
G75*
G02*
X8525000Y-10150000I-50000J0D01*
G01*
X8525000Y-10150000D02*
G75*
G02*
X8625000Y-10150000I50000J0D01*
G01*
X8625000Y-13700000D02*
G75*
G02*
X8525000Y-13700000I-50000J0D01*
G01*
X8525000Y-13700000D02*
G75*
G02*
X8625000Y-13700000I50000J0D01*
G01*
X8625000Y-17250000D02*
G75*
G02*
X8525000Y-17250000I-50000J0D01*
G01*
X8525000Y-17250000D02*
G75*
G02*
X8625000Y-17250000I50000J0D01*
G01*
X8853500Y-17750000D02*
G75*
G02*
X8753500Y-17750000I-50000J0D01*
G01*
X8753500Y-17750000D02*
G75*
G02*
X8853500Y-17750000I50000J0D01*
G01*
X9107500Y-17750000D02*
G75*
G02*
X9007500Y-17750000I-50000J0D01*
G01*
X9007500Y-17750000D02*
G75*
G02*
X9107500Y-17750000I50000J0D01*
G01*
X9346000Y-4842000D02*
G75*
G02*
X9246000Y-4842000I-50000J0D01*
G01*
X9246000Y-4842000D02*
G75*
G02*
X9346000Y-4842000I50000J0D01*
G01*
X9346000Y-5096000D02*
G75*
G02*
X9246000Y-5096000I-50000J0D01*
G01*
X9246000Y-5096000D02*
G75*
G02*
X9346000Y-5096000I50000J0D01*
G01*
X9346000Y-5350000D02*
G75*
G02*
X9246000Y-5350000I-50000J0D01*
G01*
X9246000Y-5350000D02*
G75*
G02*
X9346000Y-5350000I50000J0D01*
G01*
X9346000Y-5604000D02*
G75*
G02*
X9246000Y-5604000I-50000J0D01*
G01*
X9246000Y-5604000D02*
G75*
G02*
X9346000Y-5604000I50000J0D01*
G01*
X9346000Y-5858000D02*
G75*
G02*
X9246000Y-5858000I-50000J0D01*
G01*
X9246000Y-5858000D02*
G75*
G02*
X9346000Y-5858000I50000J0D01*
G01*
X9361500Y-17750000D02*
G75*
G02*
X9261500Y-17750000I-50000J0D01*
G01*
X9261500Y-17750000D02*
G75*
G02*
X9361500Y-17750000I50000J0D01*
G01*
X9600000Y-4842000D02*
G75*
G02*
X9500000Y-4842000I-50000J0D01*
G01*
X9500000Y-4842000D02*
G75*
G02*
X9600000Y-4842000I50000J0D01*
G01*
X9600000Y-5096000D02*
G75*
G02*
X9500000Y-5096000I-50000J0D01*
G01*
X9500000Y-5096000D02*
G75*
G02*
X9600000Y-5096000I50000J0D01*
G01*
X9600000Y-5350000D02*
G75*
G02*
X9500000Y-5350000I-50000J0D01*
G01*
X9500000Y-5350000D02*
G75*
G02*
X9600000Y-5350000I50000J0D01*
G01*
X9600000Y-5604000D02*
G75*
G02*
X9500000Y-5604000I-50000J0D01*
G01*
X9500000Y-5604000D02*
G75*
G02*
X9600000Y-5604000I50000J0D01*
G01*
X9600000Y-5858000D02*
G75*
G02*
X9500000Y-5858000I-50000J0D01*
G01*
X9500000Y-5858000D02*
G75*
G02*
X9600000Y-5858000I50000J0D01*
G01*
X9615500Y-17750000D02*
G75*
G02*
X9515500Y-17750000I-50000J0D01*
G01*
X9515500Y-17750000D02*
G75*
G02*
X9615500Y-17750000I50000J0D01*
G01*
D13*
X7734000Y-4545000D02*
X7734000Y-4655000D01*
X7679000Y-4600000D02*
X7789000Y-4600000D01*
X7845000Y-5795000D02*
X7845000Y-5905000D01*
X7790000Y-5850000D02*
X7900000Y-5850000D01*
D12*
X7900000Y-5885000D02*
X7900000Y-5815000D01*
X7790000Y-5815000D02*
G75*
G02*
X7900000Y-5815000I55000J0D01*
G01*
X7790000Y-5815000D02*
X7790000Y-5885000D01*
X7790000Y-5885000D02*
G75*
G03*
X7900000Y-5885000I55000J0D01*
G01*
D13*
X7845000Y-9345000D02*
X7845000Y-9455000D01*
X7790000Y-9400000D02*
X7900000Y-9400000D01*
D12*
X7900000Y-9435000D02*
X7900000Y-9365000D01*
X7790000Y-9365000D02*
G75*
G02*
X7900000Y-9365000I55000J0D01*
G01*
X7790000Y-9365000D02*
X7790000Y-9435000D01*
X7790000Y-9435000D02*
G75*
G03*
X7900000Y-9435000I55000J0D01*
G01*
D13*
X7845000Y-12895000D02*
X7845000Y-13005000D01*
X7790000Y-12950000D02*
X7900000Y-12950000D01*
D12*
X7900000Y-12985000D02*
X7900000Y-12915000D01*
X7790000Y-12915000D02*
G75*
G02*
X7900000Y-12915000I55000J0D01*
G01*
X7790000Y-12915000D02*
X7790000Y-12985000D01*
X7790000Y-12985000D02*
G75*
G03*
X7900000Y-12985000I55000J0D01*
G01*
D13*
X7845000Y-16445000D02*
X7845000Y-16555000D01*
X7790000Y-16500000D02*
X7900000Y-16500000D01*
D12*
X7900000Y-16535000D02*
X7900000Y-16465000D01*
X7790000Y-16465000D02*
G75*
G02*
X7900000Y-16465000I55000J0D01*
G01*
X7790000Y-16465000D02*
X7790000Y-16535000D01*
X7790000Y-16535000D02*
G75*
G03*
X7900000Y-16535000I55000J0D01*
G01*
D13*
X8750000Y-4545000D02*
X8750000Y-4655000D01*
X8695000Y-4600000D02*
X8805000Y-4600000D01*
X8805000Y-5795000D02*
X8805000Y-5905000D01*
X8750000Y-5850000D02*
X8860000Y-5850000D01*
D12*
X8860000Y-5885000D02*
X8860000Y-5815000D01*
X8750000Y-5815000D02*
G75*
G02*
X8860000Y-5815000I55000J0D01*
G01*
X8750000Y-5815000D02*
X8750000Y-5885000D01*
X8750000Y-5885000D02*
G75*
G03*
X8860000Y-5885000I55000J0D01*
G01*
D13*
X8805000Y-9345000D02*
X8805000Y-9455000D01*
X8750000Y-9400000D02*
X8860000Y-9400000D01*
D12*
X8860000Y-9435000D02*
X8860000Y-9365000D01*
X8750000Y-9365000D02*
G75*
G02*
X8860000Y-9365000I55000J0D01*
G01*
X8750000Y-9365000D02*
X8750000Y-9435000D01*
X8750000Y-9435000D02*
G75*
G03*
X8860000Y-9435000I55000J0D01*
G01*
D13*
X8805000Y-12895000D02*
X8805000Y-13005000D01*
X8750000Y-12950000D02*
X8860000Y-12950000D01*
D12*
X8860000Y-12985000D02*
X8860000Y-12915000D01*
X8750000Y-12915000D02*
G75*
G02*
X8860000Y-12915000I55000J0D01*
G01*
X8750000Y-12915000D02*
X8750000Y-12985000D01*
X8750000Y-12985000D02*
G75*
G03*
X8860000Y-12985000I55000J0D01*
G01*
D13*
X8805000Y-16445000D02*
X8805000Y-16555000D01*
X8750000Y-16500000D02*
X8860000Y-16500000D01*
D12*
X8860000Y-16535000D02*
X8860000Y-16465000D01*
X8750000Y-16465000D02*
G75*
G02*
X8860000Y-16465000I55000J0D01*
G01*
X8750000Y-16465000D02*
X8750000Y-16535000D01*
X8750000Y-16535000D02*
G75*
G03*
X8860000Y-16535000I55000J0D01*
G01*
D13*
X9550000Y-6512000D02*
X9550000Y-6622000D01*
X9495000Y-6567000D02*
X9605000Y-6567000D01*
X9550000Y-7528000D02*
X9550000Y-7638000D01*
X9495000Y-7583000D02*
X9605000Y-7583000D01*
D14*
X5903033Y-5433034D02*
X5903033Y-5326967D01*
X5796966Y-5326967D01*
X5796966Y-5433034D01*
X5903033Y-5433034D01*
X5903033Y-5903033D02*
X5903033Y-5796966D01*
X5796966Y-5796966D01*
X5796966Y-5903033D01*
X5903033Y-5903033D01*
X5903033Y-6373033D02*
X5903033Y-6266966D01*
X5796966Y-6266966D01*
X5796966Y-6373033D01*
X5903033Y-6373033D01*
X5903033Y-8983034D02*
X5903033Y-8876967D01*
X5796966Y-8876967D01*
X5796966Y-8983034D01*
X5903033Y-8983034D01*
X5903033Y-9453034D02*
X5903033Y-9346967D01*
X5796966Y-9346967D01*
X5796966Y-9453034D01*
X5903033Y-9453034D01*
X5903033Y-9923034D02*
X5903033Y-9816967D01*
X5796966Y-9816967D01*
X5796966Y-9923034D01*
X5903033Y-9923034D01*
X5903033Y-12533033D02*
X5903033Y-12426966D01*
X5796966Y-12426966D01*
X5796966Y-12533033D01*
X5903033Y-12533033D01*
X5903033Y-13003033D02*
X5903033Y-12896966D01*
X5796966Y-12896966D01*
X5796966Y-13003033D01*
X5903033Y-13003033D01*
X5903033Y-13473033D02*
X5903033Y-13366966D01*
X5796966Y-13366966D01*
X5796966Y-13473033D01*
X5903033Y-13473033D01*
X5903033Y-16083033D02*
X5903033Y-15976966D01*
X5796966Y-15976966D01*
X5796966Y-16083033D01*
X5903033Y-16083033D01*
X5903033Y-16553033D02*
X5903033Y-16446966D01*
X5796966Y-16446966D01*
X5796966Y-16553033D01*
X5903033Y-16553033D01*
X5903033Y-17023034D02*
X5903033Y-16916967D01*
X5796966Y-16916967D01*
X5796966Y-17023034D01*
X5903033Y-17023034D01*
D15*
X8912500Y-18635000D02*
X8992500Y-18555000D01*
X8912500Y-18475000D01*
X8832500Y-18555000D01*
X8912500Y-18635000D01*
X8912500Y-19105000D02*
X8992500Y-19025000D01*
X8912500Y-18945000D01*
X8832500Y-19025000D01*
X8912500Y-19105000D01*
X8912500Y-19575000D02*
X8992500Y-19495000D01*
X8912500Y-19415000D01*
X8832500Y-19495000D01*
X8912500Y-19575000D01*
X9387500Y-18635000D02*
X9467500Y-18555000D01*
X9387500Y-18475000D01*
X9307500Y-18555000D01*
X9387500Y-18635000D01*
X9387500Y-19105000D02*
X9467500Y-19025000D01*
X9387500Y-18945000D01*
X9307500Y-19025000D01*
X9387500Y-19105000D01*
X9387500Y-19575000D02*
X9467500Y-19495000D01*
X9387500Y-19415000D01*
X9307500Y-19495000D01*
X9387500Y-19575000D01*
D11*
X5358277Y-20163984D02*
X5358277Y-19963984D01*
X5358277Y-19963984D02*
X5405896Y-19963984D01*
X5405896Y-19963984D02*
X5434467Y-19973508D01*
X5434467Y-19973508D02*
X5453515Y-19992555D01*
X5453515Y-19992555D02*
X5463039Y-20011603D01*
X5463039Y-20011603D02*
X5472563Y-20049698D01*
X5472563Y-20049698D02*
X5472563Y-20078270D01*
X5472563Y-20078270D02*
X5463039Y-20116365D01*
X5463039Y-20116365D02*
X5453515Y-20135412D01*
X5453515Y-20135412D02*
X5434467Y-20154460D01*
X5434467Y-20154460D02*
X5405896Y-20163984D01*
X5405896Y-20163984D02*
X5358277Y-20163984D01*
X5558277Y-20163984D02*
X5558277Y-20030650D01*
X5558277Y-20068746D02*
X5567801Y-20049698D01*
X5567801Y-20049698D02*
X5577324Y-20040174D01*
X5577324Y-20040174D02*
X5596372Y-20030650D01*
X5596372Y-20030650D02*
X5615420Y-20030650D01*
X5682086Y-20163984D02*
X5682086Y-20030650D01*
X5682086Y-19963984D02*
X5672562Y-19973508D01*
X5672562Y-19973508D02*
X5682086Y-19983031D01*
X5682086Y-19983031D02*
X5691610Y-19973508D01*
X5691610Y-19973508D02*
X5682086Y-19963984D01*
X5682086Y-19963984D02*
X5682086Y-19983031D01*
X5805896Y-20163984D02*
X5786848Y-20154460D01*
X5786848Y-20154460D02*
X5777324Y-20135412D01*
X5777324Y-20135412D02*
X5777324Y-19963984D01*
X5910658Y-20163984D02*
X5891610Y-20154460D01*
X5891610Y-20154460D02*
X5882086Y-20135412D01*
X5882086Y-20135412D02*
X5882086Y-19963984D01*
X6139229Y-20163984D02*
X6139229Y-19963984D01*
X6139229Y-19963984D02*
X6205896Y-20106841D01*
X6205896Y-20106841D02*
X6272562Y-19963984D01*
X6272562Y-19963984D02*
X6272562Y-20163984D01*
X6453515Y-20163984D02*
X6453515Y-20059222D01*
X6453515Y-20059222D02*
X6443991Y-20040174D01*
X6443991Y-20040174D02*
X6424943Y-20030650D01*
X6424943Y-20030650D02*
X6386848Y-20030650D01*
X6386848Y-20030650D02*
X6367801Y-20040174D01*
X6453515Y-20154460D02*
X6434467Y-20163984D01*
X6434467Y-20163984D02*
X6386848Y-20163984D01*
X6386848Y-20163984D02*
X6367801Y-20154460D01*
X6367801Y-20154460D02*
X6358277Y-20135412D01*
X6358277Y-20135412D02*
X6358277Y-20116365D01*
X6358277Y-20116365D02*
X6367801Y-20097317D01*
X6367801Y-20097317D02*
X6386848Y-20087793D01*
X6386848Y-20087793D02*
X6434467Y-20087793D01*
X6434467Y-20087793D02*
X6453515Y-20078270D01*
X6548753Y-20030650D02*
X6548753Y-20230650D01*
X6548753Y-20040174D02*
X6567801Y-20030650D01*
X6567801Y-20030650D02*
X6605896Y-20030650D01*
X6605896Y-20030650D02*
X6624943Y-20040174D01*
X6624943Y-20040174D02*
X6634467Y-20049698D01*
X6634467Y-20049698D02*
X6643991Y-20068746D01*
X6643991Y-20068746D02*
X6643991Y-20125889D01*
X6643991Y-20125889D02*
X6634467Y-20144936D01*
X6634467Y-20144936D02*
X6624943Y-20154460D01*
X6624943Y-20154460D02*
X6605896Y-20163984D01*
X6605896Y-20163984D02*
X6567801Y-20163984D01*
X6567801Y-20163984D02*
X6548753Y-20154460D01*
X6729705Y-20144936D02*
X6739229Y-20154460D01*
X6739229Y-20154460D02*
X6729705Y-20163984D01*
X6729705Y-20163984D02*
X6720182Y-20154460D01*
X6720182Y-20154460D02*
X6729705Y-20144936D01*
X6729705Y-20144936D02*
X6729705Y-20163984D01*
X6729705Y-20040174D02*
X6739229Y-20049698D01*
X6739229Y-20049698D02*
X6729705Y-20059222D01*
X6729705Y-20059222D02*
X6720182Y-20049698D01*
X6720182Y-20049698D02*
X6729705Y-20040174D01*
X6729705Y-20040174D02*
X6729705Y-20059222D01*
D12*
X5017500Y-20452500D02*
X5097500Y-20532500D01*
X5097500Y-20452500D02*
X5017500Y-20532500D01*
D11*
X5396372Y-20383984D02*
X5415420Y-20383984D01*
X5415420Y-20383984D02*
X5434467Y-20393508D01*
X5434467Y-20393508D02*
X5443991Y-20403031D01*
X5443991Y-20403031D02*
X5453515Y-20422079D01*
X5453515Y-20422079D02*
X5463039Y-20460174D01*
X5463039Y-20460174D02*
X5463039Y-20507793D01*
X5463039Y-20507793D02*
X5453515Y-20545889D01*
X5453515Y-20545889D02*
X5443991Y-20564936D01*
X5443991Y-20564936D02*
X5434467Y-20574460D01*
X5434467Y-20574460D02*
X5415420Y-20583984D01*
X5415420Y-20583984D02*
X5396372Y-20583984D01*
X5396372Y-20583984D02*
X5377324Y-20574460D01*
X5377324Y-20574460D02*
X5367801Y-20564936D01*
X5367801Y-20564936D02*
X5358277Y-20545889D01*
X5358277Y-20545889D02*
X5348753Y-20507793D01*
X5348753Y-20507793D02*
X5348753Y-20460174D01*
X5348753Y-20460174D02*
X5358277Y-20422079D01*
X5358277Y-20422079D02*
X5367801Y-20403031D01*
X5367801Y-20403031D02*
X5377324Y-20393508D01*
X5377324Y-20393508D02*
X5396372Y-20383984D01*
X5548753Y-20564936D02*
X5558277Y-20574460D01*
X5558277Y-20574460D02*
X5548753Y-20583984D01*
X5548753Y-20583984D02*
X5539229Y-20574460D01*
X5539229Y-20574460D02*
X5548753Y-20564936D01*
X5548753Y-20564936D02*
X5548753Y-20583984D01*
X5672562Y-20469698D02*
X5653515Y-20460174D01*
X5653515Y-20460174D02*
X5643991Y-20450650D01*
X5643991Y-20450650D02*
X5634467Y-20431603D01*
X5634467Y-20431603D02*
X5634467Y-20422079D01*
X5634467Y-20422079D02*
X5643991Y-20403031D01*
X5643991Y-20403031D02*
X5653515Y-20393508D01*
X5653515Y-20393508D02*
X5672562Y-20383984D01*
X5672562Y-20383984D02*
X5710658Y-20383984D01*
X5710658Y-20383984D02*
X5729705Y-20393508D01*
X5729705Y-20393508D02*
X5739229Y-20403031D01*
X5739229Y-20403031D02*
X5748753Y-20422079D01*
X5748753Y-20422079D02*
X5748753Y-20431603D01*
X5748753Y-20431603D02*
X5739229Y-20450650D01*
X5739229Y-20450650D02*
X5729705Y-20460174D01*
X5729705Y-20460174D02*
X5710658Y-20469698D01*
X5710658Y-20469698D02*
X5672562Y-20469698D01*
X5672562Y-20469698D02*
X5653515Y-20479222D01*
X5653515Y-20479222D02*
X5643991Y-20488746D01*
X5643991Y-20488746D02*
X5634467Y-20507793D01*
X5634467Y-20507793D02*
X5634467Y-20545889D01*
X5634467Y-20545889D02*
X5643991Y-20564936D01*
X5643991Y-20564936D02*
X5653515Y-20574460D01*
X5653515Y-20574460D02*
X5672562Y-20583984D01*
X5672562Y-20583984D02*
X5710658Y-20583984D01*
X5710658Y-20583984D02*
X5729705Y-20574460D01*
X5729705Y-20574460D02*
X5739229Y-20564936D01*
X5739229Y-20564936D02*
X5748753Y-20545889D01*
X5748753Y-20545889D02*
X5748753Y-20507793D01*
X5748753Y-20507793D02*
X5739229Y-20488746D01*
X5739229Y-20488746D02*
X5729705Y-20479222D01*
X5729705Y-20479222D02*
X5710658Y-20469698D01*
X5872562Y-20383984D02*
X5891610Y-20383984D01*
X5891610Y-20383984D02*
X5910658Y-20393508D01*
X5910658Y-20393508D02*
X5920182Y-20403031D01*
X5920182Y-20403031D02*
X5929705Y-20422079D01*
X5929705Y-20422079D02*
X5939229Y-20460174D01*
X5939229Y-20460174D02*
X5939229Y-20507793D01*
X5939229Y-20507793D02*
X5929705Y-20545889D01*
X5929705Y-20545889D02*
X5920182Y-20564936D01*
X5920182Y-20564936D02*
X5910658Y-20574460D01*
X5910658Y-20574460D02*
X5891610Y-20583984D01*
X5891610Y-20583984D02*
X5872562Y-20583984D01*
X5872562Y-20583984D02*
X5853515Y-20574460D01*
X5853515Y-20574460D02*
X5843991Y-20564936D01*
X5843991Y-20564936D02*
X5834467Y-20545889D01*
X5834467Y-20545889D02*
X5824943Y-20507793D01*
X5824943Y-20507793D02*
X5824943Y-20460174D01*
X5824943Y-20460174D02*
X5834467Y-20422079D01*
X5834467Y-20422079D02*
X5843991Y-20403031D01*
X5843991Y-20403031D02*
X5853515Y-20393508D01*
X5853515Y-20393508D02*
X5872562Y-20383984D01*
X6063039Y-20383984D02*
X6082086Y-20383984D01*
X6082086Y-20383984D02*
X6101134Y-20393508D01*
X6101134Y-20393508D02*
X6110658Y-20403031D01*
X6110658Y-20403031D02*
X6120182Y-20422079D01*
X6120182Y-20422079D02*
X6129705Y-20460174D01*
X6129705Y-20460174D02*
X6129705Y-20507793D01*
X6129705Y-20507793D02*
X6120182Y-20545889D01*
X6120182Y-20545889D02*
X6110658Y-20564936D01*
X6110658Y-20564936D02*
X6101134Y-20574460D01*
X6101134Y-20574460D02*
X6082086Y-20583984D01*
X6082086Y-20583984D02*
X6063039Y-20583984D01*
X6063039Y-20583984D02*
X6043991Y-20574460D01*
X6043991Y-20574460D02*
X6034467Y-20564936D01*
X6034467Y-20564936D02*
X6024943Y-20545889D01*
X6024943Y-20545889D02*
X6015420Y-20507793D01*
X6015420Y-20507793D02*
X6015420Y-20460174D01*
X6015420Y-20460174D02*
X6024943Y-20422079D01*
X6024943Y-20422079D02*
X6034467Y-20403031D01*
X6034467Y-20403031D02*
X6043991Y-20393508D01*
X6043991Y-20393508D02*
X6063039Y-20383984D01*
X6215420Y-20583984D02*
X6215420Y-20450650D01*
X6215420Y-20469698D02*
X6224943Y-20460174D01*
X6224943Y-20460174D02*
X6243991Y-20450650D01*
X6243991Y-20450650D02*
X6272563Y-20450650D01*
X6272563Y-20450650D02*
X6291610Y-20460174D01*
X6291610Y-20460174D02*
X6301134Y-20479222D01*
X6301134Y-20479222D02*
X6301134Y-20583984D01*
X6301134Y-20479222D02*
X6310658Y-20460174D01*
X6310658Y-20460174D02*
X6329705Y-20450650D01*
X6329705Y-20450650D02*
X6358277Y-20450650D01*
X6358277Y-20450650D02*
X6377324Y-20460174D01*
X6377324Y-20460174D02*
X6386848Y-20479222D01*
X6386848Y-20479222D02*
X6386848Y-20583984D01*
X6482086Y-20583984D02*
X6482086Y-20450650D01*
X6482086Y-20469698D02*
X6491610Y-20460174D01*
X6491610Y-20460174D02*
X6510658Y-20450650D01*
X6510658Y-20450650D02*
X6539229Y-20450650D01*
X6539229Y-20450650D02*
X6558277Y-20460174D01*
X6558277Y-20460174D02*
X6567801Y-20479222D01*
X6567801Y-20479222D02*
X6567801Y-20583984D01*
X6567801Y-20479222D02*
X6577324Y-20460174D01*
X6577324Y-20460174D02*
X6596372Y-20450650D01*
X6596372Y-20450650D02*
X6624943Y-20450650D01*
X6624943Y-20450650D02*
X6643991Y-20460174D01*
X6643991Y-20460174D02*
X6653515Y-20479222D01*
X6653515Y-20479222D02*
X6653515Y-20583984D01*
X7043991Y-20374460D02*
X6872563Y-20631603D01*
X7301134Y-20383984D02*
X7320182Y-20383984D01*
X7320182Y-20383984D02*
X7339229Y-20393508D01*
X7339229Y-20393508D02*
X7348753Y-20403031D01*
X7348753Y-20403031D02*
X7358277Y-20422079D01*
X7358277Y-20422079D02*
X7367801Y-20460174D01*
X7367801Y-20460174D02*
X7367801Y-20507793D01*
X7367801Y-20507793D02*
X7358277Y-20545889D01*
X7358277Y-20545889D02*
X7348753Y-20564936D01*
X7348753Y-20564936D02*
X7339229Y-20574460D01*
X7339229Y-20574460D02*
X7320182Y-20583984D01*
X7320182Y-20583984D02*
X7301134Y-20583984D01*
X7301134Y-20583984D02*
X7282086Y-20574460D01*
X7282086Y-20574460D02*
X7272563Y-20564936D01*
X7272563Y-20564936D02*
X7263039Y-20545889D01*
X7263039Y-20545889D02*
X7253515Y-20507793D01*
X7253515Y-20507793D02*
X7253515Y-20460174D01*
X7253515Y-20460174D02*
X7263039Y-20422079D01*
X7263039Y-20422079D02*
X7272563Y-20403031D01*
X7272563Y-20403031D02*
X7282086Y-20393508D01*
X7282086Y-20393508D02*
X7301134Y-20383984D01*
X7453515Y-20564936D02*
X7463039Y-20574460D01*
X7463039Y-20574460D02*
X7453515Y-20583984D01*
X7453515Y-20583984D02*
X7443991Y-20574460D01*
X7443991Y-20574460D02*
X7453515Y-20564936D01*
X7453515Y-20564936D02*
X7453515Y-20583984D01*
X7586848Y-20383984D02*
X7605896Y-20383984D01*
X7605896Y-20383984D02*
X7624944Y-20393508D01*
X7624944Y-20393508D02*
X7634467Y-20403031D01*
X7634467Y-20403031D02*
X7643991Y-20422079D01*
X7643991Y-20422079D02*
X7653515Y-20460174D01*
X7653515Y-20460174D02*
X7653515Y-20507793D01*
X7653515Y-20507793D02*
X7643991Y-20545889D01*
X7643991Y-20545889D02*
X7634467Y-20564936D01*
X7634467Y-20564936D02*
X7624944Y-20574460D01*
X7624944Y-20574460D02*
X7605896Y-20583984D01*
X7605896Y-20583984D02*
X7586848Y-20583984D01*
X7586848Y-20583984D02*
X7567801Y-20574460D01*
X7567801Y-20574460D02*
X7558277Y-20564936D01*
X7558277Y-20564936D02*
X7548753Y-20545889D01*
X7548753Y-20545889D02*
X7539229Y-20507793D01*
X7539229Y-20507793D02*
X7539229Y-20460174D01*
X7539229Y-20460174D02*
X7548753Y-20422079D01*
X7548753Y-20422079D02*
X7558277Y-20403031D01*
X7558277Y-20403031D02*
X7567801Y-20393508D01*
X7567801Y-20393508D02*
X7586848Y-20383984D01*
X7720182Y-20383984D02*
X7843991Y-20383984D01*
X7843991Y-20383984D02*
X7777325Y-20460174D01*
X7777325Y-20460174D02*
X7805896Y-20460174D01*
X7805896Y-20460174D02*
X7824944Y-20469698D01*
X7824944Y-20469698D02*
X7834467Y-20479222D01*
X7834467Y-20479222D02*
X7843991Y-20498270D01*
X7843991Y-20498270D02*
X7843991Y-20545889D01*
X7843991Y-20545889D02*
X7834467Y-20564936D01*
X7834467Y-20564936D02*
X7824944Y-20574460D01*
X7824944Y-20574460D02*
X7805896Y-20583984D01*
X7805896Y-20583984D02*
X7748753Y-20583984D01*
X7748753Y-20583984D02*
X7729706Y-20574460D01*
X7729706Y-20574460D02*
X7720182Y-20564936D01*
X8034467Y-20583984D02*
X7920182Y-20583984D01*
X7977325Y-20583984D02*
X7977325Y-20383984D01*
X7977325Y-20383984D02*
X7958277Y-20412555D01*
X7958277Y-20412555D02*
X7939229Y-20431603D01*
X7939229Y-20431603D02*
X7920182Y-20441127D01*
X8215420Y-20383984D02*
X8120182Y-20383984D01*
X8120182Y-20383984D02*
X8110658Y-20479222D01*
X8110658Y-20479222D02*
X8120182Y-20469698D01*
X8120182Y-20469698D02*
X8139229Y-20460174D01*
X8139229Y-20460174D02*
X8186848Y-20460174D01*
X8186848Y-20460174D02*
X8205896Y-20469698D01*
X8205896Y-20469698D02*
X8215420Y-20479222D01*
X8215420Y-20479222D02*
X8224944Y-20498270D01*
X8224944Y-20498270D02*
X8224944Y-20545889D01*
X8224944Y-20545889D02*
X8215420Y-20564936D01*
X8215420Y-20564936D02*
X8205896Y-20574460D01*
X8205896Y-20574460D02*
X8186848Y-20583984D01*
X8186848Y-20583984D02*
X8139229Y-20583984D01*
X8139229Y-20583984D02*
X8120182Y-20574460D01*
X8120182Y-20574460D02*
X8110658Y-20564936D01*
X8301134Y-20383984D02*
X8301134Y-20422079D01*
X8377325Y-20383984D02*
X8377325Y-20422079D01*
X8672563Y-20660174D02*
X8663039Y-20650650D01*
X8663039Y-20650650D02*
X8643991Y-20622079D01*
X8643991Y-20622079D02*
X8634468Y-20603031D01*
X8634468Y-20603031D02*
X8624944Y-20574460D01*
X8624944Y-20574460D02*
X8615420Y-20526841D01*
X8615420Y-20526841D02*
X8615420Y-20488746D01*
X8615420Y-20488746D02*
X8624944Y-20441127D01*
X8624944Y-20441127D02*
X8634468Y-20412555D01*
X8634468Y-20412555D02*
X8643991Y-20393508D01*
X8643991Y-20393508D02*
X8663039Y-20364936D01*
X8663039Y-20364936D02*
X8672563Y-20355412D01*
X8834468Y-20383984D02*
X8796372Y-20383984D01*
X8796372Y-20383984D02*
X8777325Y-20393508D01*
X8777325Y-20393508D02*
X8767801Y-20403031D01*
X8767801Y-20403031D02*
X8748753Y-20431603D01*
X8748753Y-20431603D02*
X8739230Y-20469698D01*
X8739230Y-20469698D02*
X8739230Y-20545889D01*
X8739230Y-20545889D02*
X8748753Y-20564936D01*
X8748753Y-20564936D02*
X8758277Y-20574460D01*
X8758277Y-20574460D02*
X8777325Y-20583984D01*
X8777325Y-20583984D02*
X8815420Y-20583984D01*
X8815420Y-20583984D02*
X8834468Y-20574460D01*
X8834468Y-20574460D02*
X8843991Y-20564936D01*
X8843991Y-20564936D02*
X8853515Y-20545889D01*
X8853515Y-20545889D02*
X8853515Y-20498270D01*
X8853515Y-20498270D02*
X8843991Y-20479222D01*
X8843991Y-20479222D02*
X8834468Y-20469698D01*
X8834468Y-20469698D02*
X8815420Y-20460174D01*
X8815420Y-20460174D02*
X8777325Y-20460174D01*
X8777325Y-20460174D02*
X8758277Y-20469698D01*
X8758277Y-20469698D02*
X8748753Y-20479222D01*
X8748753Y-20479222D02*
X8739230Y-20498270D01*
X8929706Y-20403031D02*
X8939230Y-20393508D01*
X8939230Y-20393508D02*
X8958277Y-20383984D01*
X8958277Y-20383984D02*
X9005896Y-20383984D01*
X9005896Y-20383984D02*
X9024944Y-20393508D01*
X9024944Y-20393508D02*
X9034468Y-20403031D01*
X9034468Y-20403031D02*
X9043991Y-20422079D01*
X9043991Y-20422079D02*
X9043991Y-20441127D01*
X9043991Y-20441127D02*
X9034468Y-20469698D01*
X9034468Y-20469698D02*
X8920182Y-20583984D01*
X8920182Y-20583984D02*
X9043991Y-20583984D01*
X9282087Y-20583984D02*
X9282087Y-20383984D01*
X9367801Y-20583984D02*
X9367801Y-20479222D01*
X9367801Y-20479222D02*
X9358277Y-20460174D01*
X9358277Y-20460174D02*
X9339230Y-20450650D01*
X9339230Y-20450650D02*
X9310658Y-20450650D01*
X9310658Y-20450650D02*
X9291611Y-20460174D01*
X9291611Y-20460174D02*
X9282087Y-20469698D01*
X9491611Y-20583984D02*
X9472563Y-20574460D01*
X9472563Y-20574460D02*
X9463039Y-20564936D01*
X9463039Y-20564936D02*
X9453515Y-20545889D01*
X9453515Y-20545889D02*
X9453515Y-20488746D01*
X9453515Y-20488746D02*
X9463039Y-20469698D01*
X9463039Y-20469698D02*
X9472563Y-20460174D01*
X9472563Y-20460174D02*
X9491611Y-20450650D01*
X9491611Y-20450650D02*
X9520182Y-20450650D01*
X9520182Y-20450650D02*
X9539230Y-20460174D01*
X9539230Y-20460174D02*
X9548753Y-20469698D01*
X9548753Y-20469698D02*
X9558277Y-20488746D01*
X9558277Y-20488746D02*
X9558277Y-20545889D01*
X9558277Y-20545889D02*
X9548753Y-20564936D01*
X9548753Y-20564936D02*
X9539230Y-20574460D01*
X9539230Y-20574460D02*
X9520182Y-20583984D01*
X9520182Y-20583984D02*
X9491611Y-20583984D01*
X9672563Y-20583984D02*
X9653515Y-20574460D01*
X9653515Y-20574460D02*
X9643992Y-20555412D01*
X9643992Y-20555412D02*
X9643992Y-20383984D01*
X9824944Y-20574460D02*
X9805896Y-20583984D01*
X9805896Y-20583984D02*
X9767801Y-20583984D01*
X9767801Y-20583984D02*
X9748753Y-20574460D01*
X9748753Y-20574460D02*
X9739230Y-20555412D01*
X9739230Y-20555412D02*
X9739230Y-20479222D01*
X9739230Y-20479222D02*
X9748753Y-20460174D01*
X9748753Y-20460174D02*
X9767801Y-20450650D01*
X9767801Y-20450650D02*
X9805896Y-20450650D01*
X9805896Y-20450650D02*
X9824944Y-20460174D01*
X9824944Y-20460174D02*
X9834468Y-20479222D01*
X9834468Y-20479222D02*
X9834468Y-20498270D01*
X9834468Y-20498270D02*
X9739230Y-20517317D01*
X9910658Y-20574460D02*
X9929706Y-20583984D01*
X9929706Y-20583984D02*
X9967801Y-20583984D01*
X9967801Y-20583984D02*
X9986849Y-20574460D01*
X9986849Y-20574460D02*
X9996373Y-20555412D01*
X9996373Y-20555412D02*
X9996373Y-20545889D01*
X9996373Y-20545889D02*
X9986849Y-20526841D01*
X9986849Y-20526841D02*
X9967801Y-20517317D01*
X9967801Y-20517317D02*
X9939230Y-20517317D01*
X9939230Y-20517317D02*
X9920182Y-20507793D01*
X9920182Y-20507793D02*
X9910658Y-20488746D01*
X9910658Y-20488746D02*
X9910658Y-20479222D01*
X9910658Y-20479222D02*
X9920182Y-20460174D01*
X9920182Y-20460174D02*
X9939230Y-20450650D01*
X9939230Y-20450650D02*
X9967801Y-20450650D01*
X9967801Y-20450650D02*
X9986849Y-20460174D01*
X10063039Y-20660174D02*
X10072563Y-20650650D01*
X10072563Y-20650650D02*
X10091611Y-20622079D01*
X10091611Y-20622079D02*
X10101134Y-20603031D01*
X10101134Y-20603031D02*
X10110658Y-20574460D01*
X10110658Y-20574460D02*
X10120182Y-20526841D01*
X10120182Y-20526841D02*
X10120182Y-20488746D01*
X10120182Y-20488746D02*
X10110658Y-20441127D01*
X10110658Y-20441127D02*
X10101134Y-20412555D01*
X10101134Y-20412555D02*
X10091611Y-20393508D01*
X10091611Y-20393508D02*
X10072563Y-20364936D01*
X10072563Y-20364936D02*
X10063039Y-20355412D01*
D12*
X5097500Y-20756500D02*
G75*
G02*
X4997500Y-20756500I-50000J0D01*
G01*
X4997500Y-20756500D02*
G75*
G02*
X5097500Y-20756500I50000J0D01*
G01*
D11*
X5463039Y-20847984D02*
X5348753Y-20847984D01*
X5405896Y-20847984D02*
X5405896Y-20647984D01*
X5405896Y-20647984D02*
X5386848Y-20676555D01*
X5386848Y-20676555D02*
X5367801Y-20695603D01*
X5367801Y-20695603D02*
X5348753Y-20705127D01*
X5548753Y-20828936D02*
X5558277Y-20838460D01*
X5558277Y-20838460D02*
X5548753Y-20847984D01*
X5548753Y-20847984D02*
X5539229Y-20838460D01*
X5539229Y-20838460D02*
X5548753Y-20828936D01*
X5548753Y-20828936D02*
X5548753Y-20847984D01*
X5682086Y-20647984D02*
X5701134Y-20647984D01*
X5701134Y-20647984D02*
X5720182Y-20657508D01*
X5720182Y-20657508D02*
X5729705Y-20667031D01*
X5729705Y-20667031D02*
X5739229Y-20686079D01*
X5739229Y-20686079D02*
X5748753Y-20724174D01*
X5748753Y-20724174D02*
X5748753Y-20771793D01*
X5748753Y-20771793D02*
X5739229Y-20809889D01*
X5739229Y-20809889D02*
X5729705Y-20828936D01*
X5729705Y-20828936D02*
X5720182Y-20838460D01*
X5720182Y-20838460D02*
X5701134Y-20847984D01*
X5701134Y-20847984D02*
X5682086Y-20847984D01*
X5682086Y-20847984D02*
X5663039Y-20838460D01*
X5663039Y-20838460D02*
X5653515Y-20828936D01*
X5653515Y-20828936D02*
X5643991Y-20809889D01*
X5643991Y-20809889D02*
X5634467Y-20771793D01*
X5634467Y-20771793D02*
X5634467Y-20724174D01*
X5634467Y-20724174D02*
X5643991Y-20686079D01*
X5643991Y-20686079D02*
X5653515Y-20667031D01*
X5653515Y-20667031D02*
X5663039Y-20657508D01*
X5663039Y-20657508D02*
X5682086Y-20647984D01*
X5872562Y-20647984D02*
X5891610Y-20647984D01*
X5891610Y-20647984D02*
X5910658Y-20657508D01*
X5910658Y-20657508D02*
X5920182Y-20667031D01*
X5920182Y-20667031D02*
X5929705Y-20686079D01*
X5929705Y-20686079D02*
X5939229Y-20724174D01*
X5939229Y-20724174D02*
X5939229Y-20771793D01*
X5939229Y-20771793D02*
X5929705Y-20809889D01*
X5929705Y-20809889D02*
X5920182Y-20828936D01*
X5920182Y-20828936D02*
X5910658Y-20838460D01*
X5910658Y-20838460D02*
X5891610Y-20847984D01*
X5891610Y-20847984D02*
X5872562Y-20847984D01*
X5872562Y-20847984D02*
X5853515Y-20838460D01*
X5853515Y-20838460D02*
X5843991Y-20828936D01*
X5843991Y-20828936D02*
X5834467Y-20809889D01*
X5834467Y-20809889D02*
X5824943Y-20771793D01*
X5824943Y-20771793D02*
X5824943Y-20724174D01*
X5824943Y-20724174D02*
X5834467Y-20686079D01*
X5834467Y-20686079D02*
X5843991Y-20667031D01*
X5843991Y-20667031D02*
X5853515Y-20657508D01*
X5853515Y-20657508D02*
X5872562Y-20647984D01*
X6063039Y-20647984D02*
X6082086Y-20647984D01*
X6082086Y-20647984D02*
X6101134Y-20657508D01*
X6101134Y-20657508D02*
X6110658Y-20667031D01*
X6110658Y-20667031D02*
X6120182Y-20686079D01*
X6120182Y-20686079D02*
X6129705Y-20724174D01*
X6129705Y-20724174D02*
X6129705Y-20771793D01*
X6129705Y-20771793D02*
X6120182Y-20809889D01*
X6120182Y-20809889D02*
X6110658Y-20828936D01*
X6110658Y-20828936D02*
X6101134Y-20838460D01*
X6101134Y-20838460D02*
X6082086Y-20847984D01*
X6082086Y-20847984D02*
X6063039Y-20847984D01*
X6063039Y-20847984D02*
X6043991Y-20838460D01*
X6043991Y-20838460D02*
X6034467Y-20828936D01*
X6034467Y-20828936D02*
X6024943Y-20809889D01*
X6024943Y-20809889D02*
X6015420Y-20771793D01*
X6015420Y-20771793D02*
X6015420Y-20724174D01*
X6015420Y-20724174D02*
X6024943Y-20686079D01*
X6024943Y-20686079D02*
X6034467Y-20667031D01*
X6034467Y-20667031D02*
X6043991Y-20657508D01*
X6043991Y-20657508D02*
X6063039Y-20647984D01*
X6215420Y-20847984D02*
X6215420Y-20714650D01*
X6215420Y-20733698D02*
X6224943Y-20724174D01*
X6224943Y-20724174D02*
X6243991Y-20714650D01*
X6243991Y-20714650D02*
X6272563Y-20714650D01*
X6272563Y-20714650D02*
X6291610Y-20724174D01*
X6291610Y-20724174D02*
X6301134Y-20743222D01*
X6301134Y-20743222D02*
X6301134Y-20847984D01*
X6301134Y-20743222D02*
X6310658Y-20724174D01*
X6310658Y-20724174D02*
X6329705Y-20714650D01*
X6329705Y-20714650D02*
X6358277Y-20714650D01*
X6358277Y-20714650D02*
X6377324Y-20724174D01*
X6377324Y-20724174D02*
X6386848Y-20743222D01*
X6386848Y-20743222D02*
X6386848Y-20847984D01*
X6482086Y-20847984D02*
X6482086Y-20714650D01*
X6482086Y-20733698D02*
X6491610Y-20724174D01*
X6491610Y-20724174D02*
X6510658Y-20714650D01*
X6510658Y-20714650D02*
X6539229Y-20714650D01*
X6539229Y-20714650D02*
X6558277Y-20724174D01*
X6558277Y-20724174D02*
X6567801Y-20743222D01*
X6567801Y-20743222D02*
X6567801Y-20847984D01*
X6567801Y-20743222D02*
X6577324Y-20724174D01*
X6577324Y-20724174D02*
X6596372Y-20714650D01*
X6596372Y-20714650D02*
X6624943Y-20714650D01*
X6624943Y-20714650D02*
X6643991Y-20724174D01*
X6643991Y-20724174D02*
X6653515Y-20743222D01*
X6653515Y-20743222D02*
X6653515Y-20847984D01*
X7043991Y-20638460D02*
X6872563Y-20895603D01*
X7301134Y-20647984D02*
X7320182Y-20647984D01*
X7320182Y-20647984D02*
X7339229Y-20657508D01*
X7339229Y-20657508D02*
X7348753Y-20667031D01*
X7348753Y-20667031D02*
X7358277Y-20686079D01*
X7358277Y-20686079D02*
X7367801Y-20724174D01*
X7367801Y-20724174D02*
X7367801Y-20771793D01*
X7367801Y-20771793D02*
X7358277Y-20809889D01*
X7358277Y-20809889D02*
X7348753Y-20828936D01*
X7348753Y-20828936D02*
X7339229Y-20838460D01*
X7339229Y-20838460D02*
X7320182Y-20847984D01*
X7320182Y-20847984D02*
X7301134Y-20847984D01*
X7301134Y-20847984D02*
X7282086Y-20838460D01*
X7282086Y-20838460D02*
X7272563Y-20828936D01*
X7272563Y-20828936D02*
X7263039Y-20809889D01*
X7263039Y-20809889D02*
X7253515Y-20771793D01*
X7253515Y-20771793D02*
X7253515Y-20724174D01*
X7253515Y-20724174D02*
X7263039Y-20686079D01*
X7263039Y-20686079D02*
X7272563Y-20667031D01*
X7272563Y-20667031D02*
X7282086Y-20657508D01*
X7282086Y-20657508D02*
X7301134Y-20647984D01*
X7453515Y-20828936D02*
X7463039Y-20838460D01*
X7463039Y-20838460D02*
X7453515Y-20847984D01*
X7453515Y-20847984D02*
X7443991Y-20838460D01*
X7443991Y-20838460D02*
X7453515Y-20828936D01*
X7453515Y-20828936D02*
X7453515Y-20847984D01*
X7586848Y-20647984D02*
X7605896Y-20647984D01*
X7605896Y-20647984D02*
X7624944Y-20657508D01*
X7624944Y-20657508D02*
X7634467Y-20667031D01*
X7634467Y-20667031D02*
X7643991Y-20686079D01*
X7643991Y-20686079D02*
X7653515Y-20724174D01*
X7653515Y-20724174D02*
X7653515Y-20771793D01*
X7653515Y-20771793D02*
X7643991Y-20809889D01*
X7643991Y-20809889D02*
X7634467Y-20828936D01*
X7634467Y-20828936D02*
X7624944Y-20838460D01*
X7624944Y-20838460D02*
X7605896Y-20847984D01*
X7605896Y-20847984D02*
X7586848Y-20847984D01*
X7586848Y-20847984D02*
X7567801Y-20838460D01*
X7567801Y-20838460D02*
X7558277Y-20828936D01*
X7558277Y-20828936D02*
X7548753Y-20809889D01*
X7548753Y-20809889D02*
X7539229Y-20771793D01*
X7539229Y-20771793D02*
X7539229Y-20724174D01*
X7539229Y-20724174D02*
X7548753Y-20686079D01*
X7548753Y-20686079D02*
X7558277Y-20667031D01*
X7558277Y-20667031D02*
X7567801Y-20657508D01*
X7567801Y-20657508D02*
X7586848Y-20647984D01*
X7720182Y-20647984D02*
X7843991Y-20647984D01*
X7843991Y-20647984D02*
X7777325Y-20724174D01*
X7777325Y-20724174D02*
X7805896Y-20724174D01*
X7805896Y-20724174D02*
X7824944Y-20733698D01*
X7824944Y-20733698D02*
X7834467Y-20743222D01*
X7834467Y-20743222D02*
X7843991Y-20762270D01*
X7843991Y-20762270D02*
X7843991Y-20809889D01*
X7843991Y-20809889D02*
X7834467Y-20828936D01*
X7834467Y-20828936D02*
X7824944Y-20838460D01*
X7824944Y-20838460D02*
X7805896Y-20847984D01*
X7805896Y-20847984D02*
X7748753Y-20847984D01*
X7748753Y-20847984D02*
X7729706Y-20838460D01*
X7729706Y-20838460D02*
X7720182Y-20828936D01*
X7939229Y-20847984D02*
X7977325Y-20847984D01*
X7977325Y-20847984D02*
X7996372Y-20838460D01*
X7996372Y-20838460D02*
X8005896Y-20828936D01*
X8005896Y-20828936D02*
X8024944Y-20800365D01*
X8024944Y-20800365D02*
X8034467Y-20762270D01*
X8034467Y-20762270D02*
X8034467Y-20686079D01*
X8034467Y-20686079D02*
X8024944Y-20667031D01*
X8024944Y-20667031D02*
X8015420Y-20657508D01*
X8015420Y-20657508D02*
X7996372Y-20647984D01*
X7996372Y-20647984D02*
X7958277Y-20647984D01*
X7958277Y-20647984D02*
X7939229Y-20657508D01*
X7939229Y-20657508D02*
X7929706Y-20667031D01*
X7929706Y-20667031D02*
X7920182Y-20686079D01*
X7920182Y-20686079D02*
X7920182Y-20733698D01*
X7920182Y-20733698D02*
X7929706Y-20752746D01*
X7929706Y-20752746D02*
X7939229Y-20762270D01*
X7939229Y-20762270D02*
X7958277Y-20771793D01*
X7958277Y-20771793D02*
X7996372Y-20771793D01*
X7996372Y-20771793D02*
X8015420Y-20762270D01*
X8015420Y-20762270D02*
X8024944Y-20752746D01*
X8024944Y-20752746D02*
X8034467Y-20733698D01*
X8205896Y-20714650D02*
X8205896Y-20847984D01*
X8158277Y-20638460D02*
X8110658Y-20781317D01*
X8110658Y-20781317D02*
X8234467Y-20781317D01*
X8301134Y-20647984D02*
X8301134Y-20686079D01*
X8377325Y-20647984D02*
X8377325Y-20686079D01*
X8672563Y-20924174D02*
X8663039Y-20914650D01*
X8663039Y-20914650D02*
X8643991Y-20886079D01*
X8643991Y-20886079D02*
X8634468Y-20867031D01*
X8634468Y-20867031D02*
X8624944Y-20838460D01*
X8624944Y-20838460D02*
X8615420Y-20790841D01*
X8615420Y-20790841D02*
X8615420Y-20752746D01*
X8615420Y-20752746D02*
X8624944Y-20705127D01*
X8624944Y-20705127D02*
X8634468Y-20676555D01*
X8634468Y-20676555D02*
X8643991Y-20657508D01*
X8643991Y-20657508D02*
X8663039Y-20628936D01*
X8663039Y-20628936D02*
X8672563Y-20619412D01*
X8834468Y-20714650D02*
X8834468Y-20847984D01*
X8786849Y-20638460D02*
X8739230Y-20781317D01*
X8739230Y-20781317D02*
X8863039Y-20781317D01*
X8948753Y-20847984D02*
X8986849Y-20847984D01*
X8986849Y-20847984D02*
X9005896Y-20838460D01*
X9005896Y-20838460D02*
X9015420Y-20828936D01*
X9015420Y-20828936D02*
X9034468Y-20800365D01*
X9034468Y-20800365D02*
X9043991Y-20762270D01*
X9043991Y-20762270D02*
X9043991Y-20686079D01*
X9043991Y-20686079D02*
X9034468Y-20667031D01*
X9034468Y-20667031D02*
X9024944Y-20657508D01*
X9024944Y-20657508D02*
X9005896Y-20647984D01*
X9005896Y-20647984D02*
X8967801Y-20647984D01*
X8967801Y-20647984D02*
X8948753Y-20657508D01*
X8948753Y-20657508D02*
X8939230Y-20667031D01*
X8939230Y-20667031D02*
X8929706Y-20686079D01*
X8929706Y-20686079D02*
X8929706Y-20733698D01*
X8929706Y-20733698D02*
X8939230Y-20752746D01*
X8939230Y-20752746D02*
X8948753Y-20762270D01*
X8948753Y-20762270D02*
X8967801Y-20771793D01*
X8967801Y-20771793D02*
X9005896Y-20771793D01*
X9005896Y-20771793D02*
X9024944Y-20762270D01*
X9024944Y-20762270D02*
X9034468Y-20752746D01*
X9034468Y-20752746D02*
X9043991Y-20733698D01*
X9282087Y-20847984D02*
X9282087Y-20647984D01*
X9367801Y-20847984D02*
X9367801Y-20743222D01*
X9367801Y-20743222D02*
X9358277Y-20724174D01*
X9358277Y-20724174D02*
X9339230Y-20714650D01*
X9339230Y-20714650D02*
X9310658Y-20714650D01*
X9310658Y-20714650D02*
X9291611Y-20724174D01*
X9291611Y-20724174D02*
X9282087Y-20733698D01*
X9491611Y-20847984D02*
X9472563Y-20838460D01*
X9472563Y-20838460D02*
X9463039Y-20828936D01*
X9463039Y-20828936D02*
X9453515Y-20809889D01*
X9453515Y-20809889D02*
X9453515Y-20752746D01*
X9453515Y-20752746D02*
X9463039Y-20733698D01*
X9463039Y-20733698D02*
X9472563Y-20724174D01*
X9472563Y-20724174D02*
X9491611Y-20714650D01*
X9491611Y-20714650D02*
X9520182Y-20714650D01*
X9520182Y-20714650D02*
X9539230Y-20724174D01*
X9539230Y-20724174D02*
X9548753Y-20733698D01*
X9548753Y-20733698D02*
X9558277Y-20752746D01*
X9558277Y-20752746D02*
X9558277Y-20809889D01*
X9558277Y-20809889D02*
X9548753Y-20828936D01*
X9548753Y-20828936D02*
X9539230Y-20838460D01*
X9539230Y-20838460D02*
X9520182Y-20847984D01*
X9520182Y-20847984D02*
X9491611Y-20847984D01*
X9672563Y-20847984D02*
X9653515Y-20838460D01*
X9653515Y-20838460D02*
X9643992Y-20819412D01*
X9643992Y-20819412D02*
X9643992Y-20647984D01*
X9824944Y-20838460D02*
X9805896Y-20847984D01*
X9805896Y-20847984D02*
X9767801Y-20847984D01*
X9767801Y-20847984D02*
X9748753Y-20838460D01*
X9748753Y-20838460D02*
X9739230Y-20819412D01*
X9739230Y-20819412D02*
X9739230Y-20743222D01*
X9739230Y-20743222D02*
X9748753Y-20724174D01*
X9748753Y-20724174D02*
X9767801Y-20714650D01*
X9767801Y-20714650D02*
X9805896Y-20714650D01*
X9805896Y-20714650D02*
X9824944Y-20724174D01*
X9824944Y-20724174D02*
X9834468Y-20743222D01*
X9834468Y-20743222D02*
X9834468Y-20762270D01*
X9834468Y-20762270D02*
X9739230Y-20781317D01*
X9910658Y-20838460D02*
X9929706Y-20847984D01*
X9929706Y-20847984D02*
X9967801Y-20847984D01*
X9967801Y-20847984D02*
X9986849Y-20838460D01*
X9986849Y-20838460D02*
X9996373Y-20819412D01*
X9996373Y-20819412D02*
X9996373Y-20809889D01*
X9996373Y-20809889D02*
X9986849Y-20790841D01*
X9986849Y-20790841D02*
X9967801Y-20781317D01*
X9967801Y-20781317D02*
X9939230Y-20781317D01*
X9939230Y-20781317D02*
X9920182Y-20771793D01*
X9920182Y-20771793D02*
X9910658Y-20752746D01*
X9910658Y-20752746D02*
X9910658Y-20743222D01*
X9910658Y-20743222D02*
X9920182Y-20724174D01*
X9920182Y-20724174D02*
X9939230Y-20714650D01*
X9939230Y-20714650D02*
X9967801Y-20714650D01*
X9967801Y-20714650D02*
X9986849Y-20724174D01*
X10063039Y-20924174D02*
X10072563Y-20914650D01*
X10072563Y-20914650D02*
X10091611Y-20886079D01*
X10091611Y-20886079D02*
X10101134Y-20867031D01*
X10101134Y-20867031D02*
X10110658Y-20838460D01*
X10110658Y-20838460D02*
X10120182Y-20790841D01*
X10120182Y-20790841D02*
X10120182Y-20752746D01*
X10120182Y-20752746D02*
X10110658Y-20705127D01*
X10110658Y-20705127D02*
X10101134Y-20676555D01*
X10101134Y-20676555D02*
X10091611Y-20657508D01*
X10091611Y-20657508D02*
X10072563Y-20628936D01*
X10072563Y-20628936D02*
X10063039Y-20619412D01*
D13*
X5042500Y-20965500D02*
X5042500Y-21075500D01*
X4987500Y-21020500D02*
X5097500Y-21020500D01*
D11*
X5463039Y-21111984D02*
X5348753Y-21111984D01*
X5405896Y-21111984D02*
X5405896Y-20911984D01*
X5405896Y-20911984D02*
X5386848Y-20940555D01*
X5386848Y-20940555D02*
X5367801Y-20959603D01*
X5367801Y-20959603D02*
X5348753Y-20969127D01*
X5548753Y-21092936D02*
X5558277Y-21102460D01*
X5558277Y-21102460D02*
X5548753Y-21111984D01*
X5548753Y-21111984D02*
X5539229Y-21102460D01*
X5539229Y-21102460D02*
X5548753Y-21092936D01*
X5548753Y-21092936D02*
X5548753Y-21111984D01*
X5748753Y-21111984D02*
X5634467Y-21111984D01*
X5691610Y-21111984D02*
X5691610Y-20911984D01*
X5691610Y-20911984D02*
X5672562Y-20940555D01*
X5672562Y-20940555D02*
X5653515Y-20959603D01*
X5653515Y-20959603D02*
X5634467Y-20969127D01*
X5872562Y-20911984D02*
X5891610Y-20911984D01*
X5891610Y-20911984D02*
X5910658Y-20921508D01*
X5910658Y-20921508D02*
X5920182Y-20931031D01*
X5920182Y-20931031D02*
X5929705Y-20950079D01*
X5929705Y-20950079D02*
X5939229Y-20988174D01*
X5939229Y-20988174D02*
X5939229Y-21035793D01*
X5939229Y-21035793D02*
X5929705Y-21073889D01*
X5929705Y-21073889D02*
X5920182Y-21092936D01*
X5920182Y-21092936D02*
X5910658Y-21102460D01*
X5910658Y-21102460D02*
X5891610Y-21111984D01*
X5891610Y-21111984D02*
X5872562Y-21111984D01*
X5872562Y-21111984D02*
X5853515Y-21102460D01*
X5853515Y-21102460D02*
X5843991Y-21092936D01*
X5843991Y-21092936D02*
X5834467Y-21073889D01*
X5834467Y-21073889D02*
X5824943Y-21035793D01*
X5824943Y-21035793D02*
X5824943Y-20988174D01*
X5824943Y-20988174D02*
X5834467Y-20950079D01*
X5834467Y-20950079D02*
X5843991Y-20931031D01*
X5843991Y-20931031D02*
X5853515Y-20921508D01*
X5853515Y-20921508D02*
X5872562Y-20911984D01*
X6063039Y-20911984D02*
X6082086Y-20911984D01*
X6082086Y-20911984D02*
X6101134Y-20921508D01*
X6101134Y-20921508D02*
X6110658Y-20931031D01*
X6110658Y-20931031D02*
X6120182Y-20950079D01*
X6120182Y-20950079D02*
X6129705Y-20988174D01*
X6129705Y-20988174D02*
X6129705Y-21035793D01*
X6129705Y-21035793D02*
X6120182Y-21073889D01*
X6120182Y-21073889D02*
X6110658Y-21092936D01*
X6110658Y-21092936D02*
X6101134Y-21102460D01*
X6101134Y-21102460D02*
X6082086Y-21111984D01*
X6082086Y-21111984D02*
X6063039Y-21111984D01*
X6063039Y-21111984D02*
X6043991Y-21102460D01*
X6043991Y-21102460D02*
X6034467Y-21092936D01*
X6034467Y-21092936D02*
X6024943Y-21073889D01*
X6024943Y-21073889D02*
X6015420Y-21035793D01*
X6015420Y-21035793D02*
X6015420Y-20988174D01*
X6015420Y-20988174D02*
X6024943Y-20950079D01*
X6024943Y-20950079D02*
X6034467Y-20931031D01*
X6034467Y-20931031D02*
X6043991Y-20921508D01*
X6043991Y-20921508D02*
X6063039Y-20911984D01*
X6215420Y-21111984D02*
X6215420Y-20978650D01*
X6215420Y-20997698D02*
X6224943Y-20988174D01*
X6224943Y-20988174D02*
X6243991Y-20978650D01*
X6243991Y-20978650D02*
X6272563Y-20978650D01*
X6272563Y-20978650D02*
X6291610Y-20988174D01*
X6291610Y-20988174D02*
X6301134Y-21007222D01*
X6301134Y-21007222D02*
X6301134Y-21111984D01*
X6301134Y-21007222D02*
X6310658Y-20988174D01*
X6310658Y-20988174D02*
X6329705Y-20978650D01*
X6329705Y-20978650D02*
X6358277Y-20978650D01*
X6358277Y-20978650D02*
X6377324Y-20988174D01*
X6377324Y-20988174D02*
X6386848Y-21007222D01*
X6386848Y-21007222D02*
X6386848Y-21111984D01*
X6482086Y-21111984D02*
X6482086Y-20978650D01*
X6482086Y-20997698D02*
X6491610Y-20988174D01*
X6491610Y-20988174D02*
X6510658Y-20978650D01*
X6510658Y-20978650D02*
X6539229Y-20978650D01*
X6539229Y-20978650D02*
X6558277Y-20988174D01*
X6558277Y-20988174D02*
X6567801Y-21007222D01*
X6567801Y-21007222D02*
X6567801Y-21111984D01*
X6567801Y-21007222D02*
X6577324Y-20988174D01*
X6577324Y-20988174D02*
X6596372Y-20978650D01*
X6596372Y-20978650D02*
X6624943Y-20978650D01*
X6624943Y-20978650D02*
X6643991Y-20988174D01*
X6643991Y-20988174D02*
X6653515Y-21007222D01*
X6653515Y-21007222D02*
X6653515Y-21111984D01*
X7043991Y-20902460D02*
X6872563Y-21159603D01*
X7301134Y-20911984D02*
X7320182Y-20911984D01*
X7320182Y-20911984D02*
X7339229Y-20921508D01*
X7339229Y-20921508D02*
X7348753Y-20931031D01*
X7348753Y-20931031D02*
X7358277Y-20950079D01*
X7358277Y-20950079D02*
X7367801Y-20988174D01*
X7367801Y-20988174D02*
X7367801Y-21035793D01*
X7367801Y-21035793D02*
X7358277Y-21073889D01*
X7358277Y-21073889D02*
X7348753Y-21092936D01*
X7348753Y-21092936D02*
X7339229Y-21102460D01*
X7339229Y-21102460D02*
X7320182Y-21111984D01*
X7320182Y-21111984D02*
X7301134Y-21111984D01*
X7301134Y-21111984D02*
X7282086Y-21102460D01*
X7282086Y-21102460D02*
X7272563Y-21092936D01*
X7272563Y-21092936D02*
X7263039Y-21073889D01*
X7263039Y-21073889D02*
X7253515Y-21035793D01*
X7253515Y-21035793D02*
X7253515Y-20988174D01*
X7253515Y-20988174D02*
X7263039Y-20950079D01*
X7263039Y-20950079D02*
X7272563Y-20931031D01*
X7272563Y-20931031D02*
X7282086Y-20921508D01*
X7282086Y-20921508D02*
X7301134Y-20911984D01*
X7453515Y-21092936D02*
X7463039Y-21102460D01*
X7463039Y-21102460D02*
X7453515Y-21111984D01*
X7453515Y-21111984D02*
X7443991Y-21102460D01*
X7443991Y-21102460D02*
X7453515Y-21092936D01*
X7453515Y-21092936D02*
X7453515Y-21111984D01*
X7586848Y-20911984D02*
X7605896Y-20911984D01*
X7605896Y-20911984D02*
X7624944Y-20921508D01*
X7624944Y-20921508D02*
X7634467Y-20931031D01*
X7634467Y-20931031D02*
X7643991Y-20950079D01*
X7643991Y-20950079D02*
X7653515Y-20988174D01*
X7653515Y-20988174D02*
X7653515Y-21035793D01*
X7653515Y-21035793D02*
X7643991Y-21073889D01*
X7643991Y-21073889D02*
X7634467Y-21092936D01*
X7634467Y-21092936D02*
X7624944Y-21102460D01*
X7624944Y-21102460D02*
X7605896Y-21111984D01*
X7605896Y-21111984D02*
X7586848Y-21111984D01*
X7586848Y-21111984D02*
X7567801Y-21102460D01*
X7567801Y-21102460D02*
X7558277Y-21092936D01*
X7558277Y-21092936D02*
X7548753Y-21073889D01*
X7548753Y-21073889D02*
X7539229Y-21035793D01*
X7539229Y-21035793D02*
X7539229Y-20988174D01*
X7539229Y-20988174D02*
X7548753Y-20950079D01*
X7548753Y-20950079D02*
X7558277Y-20931031D01*
X7558277Y-20931031D02*
X7567801Y-20921508D01*
X7567801Y-20921508D02*
X7586848Y-20911984D01*
X7824944Y-20978650D02*
X7824944Y-21111984D01*
X7777325Y-20902460D02*
X7729706Y-21045317D01*
X7729706Y-21045317D02*
X7853515Y-21045317D01*
X7910658Y-20911984D02*
X8034467Y-20911984D01*
X8034467Y-20911984D02*
X7967801Y-20988174D01*
X7967801Y-20988174D02*
X7996372Y-20988174D01*
X7996372Y-20988174D02*
X8015420Y-20997698D01*
X8015420Y-20997698D02*
X8024944Y-21007222D01*
X8024944Y-21007222D02*
X8034467Y-21026270D01*
X8034467Y-21026270D02*
X8034467Y-21073889D01*
X8034467Y-21073889D02*
X8024944Y-21092936D01*
X8024944Y-21092936D02*
X8015420Y-21102460D01*
X8015420Y-21102460D02*
X7996372Y-21111984D01*
X7996372Y-21111984D02*
X7939229Y-21111984D01*
X7939229Y-21111984D02*
X7920182Y-21102460D01*
X7920182Y-21102460D02*
X7910658Y-21092936D01*
X8101134Y-20911984D02*
X8224944Y-20911984D01*
X8224944Y-20911984D02*
X8158277Y-20988174D01*
X8158277Y-20988174D02*
X8186848Y-20988174D01*
X8186848Y-20988174D02*
X8205896Y-20997698D01*
X8205896Y-20997698D02*
X8215420Y-21007222D01*
X8215420Y-21007222D02*
X8224944Y-21026270D01*
X8224944Y-21026270D02*
X8224944Y-21073889D01*
X8224944Y-21073889D02*
X8215420Y-21092936D01*
X8215420Y-21092936D02*
X8205896Y-21102460D01*
X8205896Y-21102460D02*
X8186848Y-21111984D01*
X8186848Y-21111984D02*
X8129706Y-21111984D01*
X8129706Y-21111984D02*
X8110658Y-21102460D01*
X8110658Y-21102460D02*
X8101134Y-21092936D01*
X8301134Y-20911984D02*
X8301134Y-20950079D01*
X8377325Y-20911984D02*
X8377325Y-20950079D01*
X8672563Y-21188174D02*
X8663039Y-21178650D01*
X8663039Y-21178650D02*
X8643991Y-21150079D01*
X8643991Y-21150079D02*
X8634468Y-21131031D01*
X8634468Y-21131031D02*
X8624944Y-21102460D01*
X8624944Y-21102460D02*
X8615420Y-21054841D01*
X8615420Y-21054841D02*
X8615420Y-21016746D01*
X8615420Y-21016746D02*
X8624944Y-20969127D01*
X8624944Y-20969127D02*
X8634468Y-20940555D01*
X8634468Y-20940555D02*
X8643991Y-20921508D01*
X8643991Y-20921508D02*
X8663039Y-20892936D01*
X8663039Y-20892936D02*
X8672563Y-20883412D01*
X8834468Y-20978650D02*
X8834468Y-21111984D01*
X8786849Y-20902460D02*
X8739230Y-21045317D01*
X8739230Y-21045317D02*
X8863039Y-21045317D01*
X9091611Y-21111984D02*
X9091611Y-20911984D01*
X9177325Y-21111984D02*
X9177325Y-21007222D01*
X9177325Y-21007222D02*
X9167801Y-20988174D01*
X9167801Y-20988174D02*
X9148753Y-20978650D01*
X9148753Y-20978650D02*
X9120182Y-20978650D01*
X9120182Y-20978650D02*
X9101134Y-20988174D01*
X9101134Y-20988174D02*
X9091611Y-20997698D01*
X9301134Y-21111984D02*
X9282087Y-21102460D01*
X9282087Y-21102460D02*
X9272563Y-21092936D01*
X9272563Y-21092936D02*
X9263039Y-21073889D01*
X9263039Y-21073889D02*
X9263039Y-21016746D01*
X9263039Y-21016746D02*
X9272563Y-20997698D01*
X9272563Y-20997698D02*
X9282087Y-20988174D01*
X9282087Y-20988174D02*
X9301134Y-20978650D01*
X9301134Y-20978650D02*
X9329706Y-20978650D01*
X9329706Y-20978650D02*
X9348753Y-20988174D01*
X9348753Y-20988174D02*
X9358277Y-20997698D01*
X9358277Y-20997698D02*
X9367801Y-21016746D01*
X9367801Y-21016746D02*
X9367801Y-21073889D01*
X9367801Y-21073889D02*
X9358277Y-21092936D01*
X9358277Y-21092936D02*
X9348753Y-21102460D01*
X9348753Y-21102460D02*
X9329706Y-21111984D01*
X9329706Y-21111984D02*
X9301134Y-21111984D01*
X9482087Y-21111984D02*
X9463039Y-21102460D01*
X9463039Y-21102460D02*
X9453515Y-21083412D01*
X9453515Y-21083412D02*
X9453515Y-20911984D01*
X9634468Y-21102460D02*
X9615420Y-21111984D01*
X9615420Y-21111984D02*
X9577325Y-21111984D01*
X9577325Y-21111984D02*
X9558277Y-21102460D01*
X9558277Y-21102460D02*
X9548753Y-21083412D01*
X9548753Y-21083412D02*
X9548753Y-21007222D01*
X9548753Y-21007222D02*
X9558277Y-20988174D01*
X9558277Y-20988174D02*
X9577325Y-20978650D01*
X9577325Y-20978650D02*
X9615420Y-20978650D01*
X9615420Y-20978650D02*
X9634468Y-20988174D01*
X9634468Y-20988174D02*
X9643992Y-21007222D01*
X9643992Y-21007222D02*
X9643992Y-21026270D01*
X9643992Y-21026270D02*
X9548753Y-21045317D01*
X9720182Y-21102460D02*
X9739230Y-21111984D01*
X9739230Y-21111984D02*
X9777325Y-21111984D01*
X9777325Y-21111984D02*
X9796373Y-21102460D01*
X9796373Y-21102460D02*
X9805896Y-21083412D01*
X9805896Y-21083412D02*
X9805896Y-21073889D01*
X9805896Y-21073889D02*
X9796373Y-21054841D01*
X9796373Y-21054841D02*
X9777325Y-21045317D01*
X9777325Y-21045317D02*
X9748753Y-21045317D01*
X9748753Y-21045317D02*
X9729706Y-21035793D01*
X9729706Y-21035793D02*
X9720182Y-21016746D01*
X9720182Y-21016746D02*
X9720182Y-21007222D01*
X9720182Y-21007222D02*
X9729706Y-20988174D01*
X9729706Y-20988174D02*
X9748753Y-20978650D01*
X9748753Y-20978650D02*
X9777325Y-20978650D01*
X9777325Y-20978650D02*
X9796373Y-20988174D01*
X10043992Y-21035793D02*
X10196373Y-21035793D01*
X10120182Y-21111984D02*
X10120182Y-20959603D01*
X10472563Y-20997698D02*
X10453515Y-20988174D01*
X10453515Y-20988174D02*
X10443992Y-20978650D01*
X10443992Y-20978650D02*
X10434468Y-20959603D01*
X10434468Y-20959603D02*
X10434468Y-20950079D01*
X10434468Y-20950079D02*
X10443992Y-20931031D01*
X10443992Y-20931031D02*
X10453515Y-20921508D01*
X10453515Y-20921508D02*
X10472563Y-20911984D01*
X10472563Y-20911984D02*
X10510658Y-20911984D01*
X10510658Y-20911984D02*
X10529706Y-20921508D01*
X10529706Y-20921508D02*
X10539230Y-20931031D01*
X10539230Y-20931031D02*
X10548754Y-20950079D01*
X10548754Y-20950079D02*
X10548754Y-20959603D01*
X10548754Y-20959603D02*
X10539230Y-20978650D01*
X10539230Y-20978650D02*
X10529706Y-20988174D01*
X10529706Y-20988174D02*
X10510658Y-20997698D01*
X10510658Y-20997698D02*
X10472563Y-20997698D01*
X10472563Y-20997698D02*
X10453515Y-21007222D01*
X10453515Y-21007222D02*
X10443992Y-21016746D01*
X10443992Y-21016746D02*
X10434468Y-21035793D01*
X10434468Y-21035793D02*
X10434468Y-21073889D01*
X10434468Y-21073889D02*
X10443992Y-21092936D01*
X10443992Y-21092936D02*
X10453515Y-21102460D01*
X10453515Y-21102460D02*
X10472563Y-21111984D01*
X10472563Y-21111984D02*
X10510658Y-21111984D01*
X10510658Y-21111984D02*
X10529706Y-21102460D01*
X10529706Y-21102460D02*
X10539230Y-21092936D01*
X10539230Y-21092936D02*
X10548754Y-21073889D01*
X10548754Y-21073889D02*
X10548754Y-21035793D01*
X10548754Y-21035793D02*
X10539230Y-21016746D01*
X10539230Y-21016746D02*
X10529706Y-21007222D01*
X10529706Y-21007222D02*
X10510658Y-20997698D01*
X10777325Y-21102460D02*
X10796373Y-21111984D01*
X10796373Y-21111984D02*
X10834468Y-21111984D01*
X10834468Y-21111984D02*
X10853516Y-21102460D01*
X10853516Y-21102460D02*
X10863039Y-21083412D01*
X10863039Y-21083412D02*
X10863039Y-21073889D01*
X10863039Y-21073889D02*
X10853516Y-21054841D01*
X10853516Y-21054841D02*
X10834468Y-21045317D01*
X10834468Y-21045317D02*
X10805896Y-21045317D01*
X10805896Y-21045317D02*
X10786849Y-21035793D01*
X10786849Y-21035793D02*
X10777325Y-21016746D01*
X10777325Y-21016746D02*
X10777325Y-21007222D01*
X10777325Y-21007222D02*
X10786849Y-20988174D01*
X10786849Y-20988174D02*
X10805896Y-20978650D01*
X10805896Y-20978650D02*
X10834468Y-20978650D01*
X10834468Y-20978650D02*
X10853516Y-20988174D01*
X10977325Y-21111984D02*
X10958277Y-21102460D01*
X10958277Y-21102460D02*
X10948754Y-21083412D01*
X10948754Y-21083412D02*
X10948754Y-20911984D01*
X11082087Y-21111984D02*
X11063039Y-21102460D01*
X11063039Y-21102460D02*
X11053516Y-21092936D01*
X11053516Y-21092936D02*
X11043992Y-21073889D01*
X11043992Y-21073889D02*
X11043992Y-21016746D01*
X11043992Y-21016746D02*
X11053516Y-20997698D01*
X11053516Y-20997698D02*
X11063039Y-20988174D01*
X11063039Y-20988174D02*
X11082087Y-20978650D01*
X11082087Y-20978650D02*
X11110658Y-20978650D01*
X11110658Y-20978650D02*
X11129706Y-20988174D01*
X11129706Y-20988174D02*
X11139230Y-20997698D01*
X11139230Y-20997698D02*
X11148754Y-21016746D01*
X11148754Y-21016746D02*
X11148754Y-21073889D01*
X11148754Y-21073889D02*
X11139230Y-21092936D01*
X11139230Y-21092936D02*
X11129706Y-21102460D01*
X11129706Y-21102460D02*
X11110658Y-21111984D01*
X11110658Y-21111984D02*
X11082087Y-21111984D01*
X11205896Y-20978650D02*
X11282087Y-20978650D01*
X11234468Y-20911984D02*
X11234468Y-21083412D01*
X11234468Y-21083412D02*
X11243992Y-21102460D01*
X11243992Y-21102460D02*
X11263039Y-21111984D01*
X11263039Y-21111984D02*
X11282087Y-21111984D01*
X11339230Y-21102460D02*
X11358277Y-21111984D01*
X11358277Y-21111984D02*
X11396373Y-21111984D01*
X11396373Y-21111984D02*
X11415420Y-21102460D01*
X11415420Y-21102460D02*
X11424944Y-21083412D01*
X11424944Y-21083412D02*
X11424944Y-21073889D01*
X11424944Y-21073889D02*
X11415420Y-21054841D01*
X11415420Y-21054841D02*
X11396373Y-21045317D01*
X11396373Y-21045317D02*
X11367801Y-21045317D01*
X11367801Y-21045317D02*
X11348754Y-21035793D01*
X11348754Y-21035793D02*
X11339230Y-21016746D01*
X11339230Y-21016746D02*
X11339230Y-21007222D01*
X11339230Y-21007222D02*
X11348754Y-20988174D01*
X11348754Y-20988174D02*
X11367801Y-20978650D01*
X11367801Y-20978650D02*
X11396373Y-20978650D01*
X11396373Y-20978650D02*
X11415420Y-20988174D01*
X11491611Y-21188174D02*
X11501135Y-21178650D01*
X11501135Y-21178650D02*
X11520182Y-21150079D01*
X11520182Y-21150079D02*
X11529706Y-21131031D01*
X11529706Y-21131031D02*
X11539230Y-21102460D01*
X11539230Y-21102460D02*
X11548754Y-21054841D01*
X11548754Y-21054841D02*
X11548754Y-21016746D01*
X11548754Y-21016746D02*
X11539230Y-20969127D01*
X11539230Y-20969127D02*
X11529706Y-20940555D01*
X11529706Y-20940555D02*
X11520182Y-20921508D01*
X11520182Y-20921508D02*
X11501135Y-20892936D01*
X11501135Y-20892936D02*
X11491611Y-20883412D01*
D14*
X5075534Y-21337534D02*
X5075534Y-21231467D01*
X4969467Y-21231467D01*
X4969467Y-21337534D01*
X5075534Y-21337534D01*
D11*
X5463039Y-21375984D02*
X5348753Y-21375984D01*
X5405896Y-21375984D02*
X5405896Y-21175984D01*
X5405896Y-21175984D02*
X5386848Y-21204555D01*
X5386848Y-21204555D02*
X5367801Y-21223603D01*
X5367801Y-21223603D02*
X5348753Y-21233127D01*
X5548753Y-21356936D02*
X5558277Y-21366460D01*
X5558277Y-21366460D02*
X5548753Y-21375984D01*
X5548753Y-21375984D02*
X5539229Y-21366460D01*
X5539229Y-21366460D02*
X5548753Y-21356936D01*
X5548753Y-21356936D02*
X5548753Y-21375984D01*
X5739229Y-21175984D02*
X5643991Y-21175984D01*
X5643991Y-21175984D02*
X5634467Y-21271222D01*
X5634467Y-21271222D02*
X5643991Y-21261698D01*
X5643991Y-21261698D02*
X5663039Y-21252174D01*
X5663039Y-21252174D02*
X5710658Y-21252174D01*
X5710658Y-21252174D02*
X5729705Y-21261698D01*
X5729705Y-21261698D02*
X5739229Y-21271222D01*
X5739229Y-21271222D02*
X5748753Y-21290270D01*
X5748753Y-21290270D02*
X5748753Y-21337889D01*
X5748753Y-21337889D02*
X5739229Y-21356936D01*
X5739229Y-21356936D02*
X5729705Y-21366460D01*
X5729705Y-21366460D02*
X5710658Y-21375984D01*
X5710658Y-21375984D02*
X5663039Y-21375984D01*
X5663039Y-21375984D02*
X5643991Y-21366460D01*
X5643991Y-21366460D02*
X5634467Y-21356936D01*
X5872562Y-21175984D02*
X5891610Y-21175984D01*
X5891610Y-21175984D02*
X5910658Y-21185508D01*
X5910658Y-21185508D02*
X5920182Y-21195031D01*
X5920182Y-21195031D02*
X5929705Y-21214079D01*
X5929705Y-21214079D02*
X5939229Y-21252174D01*
X5939229Y-21252174D02*
X5939229Y-21299793D01*
X5939229Y-21299793D02*
X5929705Y-21337889D01*
X5929705Y-21337889D02*
X5920182Y-21356936D01*
X5920182Y-21356936D02*
X5910658Y-21366460D01*
X5910658Y-21366460D02*
X5891610Y-21375984D01*
X5891610Y-21375984D02*
X5872562Y-21375984D01*
X5872562Y-21375984D02*
X5853515Y-21366460D01*
X5853515Y-21366460D02*
X5843991Y-21356936D01*
X5843991Y-21356936D02*
X5834467Y-21337889D01*
X5834467Y-21337889D02*
X5824943Y-21299793D01*
X5824943Y-21299793D02*
X5824943Y-21252174D01*
X5824943Y-21252174D02*
X5834467Y-21214079D01*
X5834467Y-21214079D02*
X5843991Y-21195031D01*
X5843991Y-21195031D02*
X5853515Y-21185508D01*
X5853515Y-21185508D02*
X5872562Y-21175984D01*
X6063039Y-21175984D02*
X6082086Y-21175984D01*
X6082086Y-21175984D02*
X6101134Y-21185508D01*
X6101134Y-21185508D02*
X6110658Y-21195031D01*
X6110658Y-21195031D02*
X6120182Y-21214079D01*
X6120182Y-21214079D02*
X6129705Y-21252174D01*
X6129705Y-21252174D02*
X6129705Y-21299793D01*
X6129705Y-21299793D02*
X6120182Y-21337889D01*
X6120182Y-21337889D02*
X6110658Y-21356936D01*
X6110658Y-21356936D02*
X6101134Y-21366460D01*
X6101134Y-21366460D02*
X6082086Y-21375984D01*
X6082086Y-21375984D02*
X6063039Y-21375984D01*
X6063039Y-21375984D02*
X6043991Y-21366460D01*
X6043991Y-21366460D02*
X6034467Y-21356936D01*
X6034467Y-21356936D02*
X6024943Y-21337889D01*
X6024943Y-21337889D02*
X6015420Y-21299793D01*
X6015420Y-21299793D02*
X6015420Y-21252174D01*
X6015420Y-21252174D02*
X6024943Y-21214079D01*
X6024943Y-21214079D02*
X6034467Y-21195031D01*
X6034467Y-21195031D02*
X6043991Y-21185508D01*
X6043991Y-21185508D02*
X6063039Y-21175984D01*
X6215420Y-21375984D02*
X6215420Y-21242650D01*
X6215420Y-21261698D02*
X6224943Y-21252174D01*
X6224943Y-21252174D02*
X6243991Y-21242650D01*
X6243991Y-21242650D02*
X6272563Y-21242650D01*
X6272563Y-21242650D02*
X6291610Y-21252174D01*
X6291610Y-21252174D02*
X6301134Y-21271222D01*
X6301134Y-21271222D02*
X6301134Y-21375984D01*
X6301134Y-21271222D02*
X6310658Y-21252174D01*
X6310658Y-21252174D02*
X6329705Y-21242650D01*
X6329705Y-21242650D02*
X6358277Y-21242650D01*
X6358277Y-21242650D02*
X6377324Y-21252174D01*
X6377324Y-21252174D02*
X6386848Y-21271222D01*
X6386848Y-21271222D02*
X6386848Y-21375984D01*
X6482086Y-21375984D02*
X6482086Y-21242650D01*
X6482086Y-21261698D02*
X6491610Y-21252174D01*
X6491610Y-21252174D02*
X6510658Y-21242650D01*
X6510658Y-21242650D02*
X6539229Y-21242650D01*
X6539229Y-21242650D02*
X6558277Y-21252174D01*
X6558277Y-21252174D02*
X6567801Y-21271222D01*
X6567801Y-21271222D02*
X6567801Y-21375984D01*
X6567801Y-21271222D02*
X6577324Y-21252174D01*
X6577324Y-21252174D02*
X6596372Y-21242650D01*
X6596372Y-21242650D02*
X6624943Y-21242650D01*
X6624943Y-21242650D02*
X6643991Y-21252174D01*
X6643991Y-21252174D02*
X6653515Y-21271222D01*
X6653515Y-21271222D02*
X6653515Y-21375984D01*
X7043991Y-21166460D02*
X6872563Y-21423603D01*
X7301134Y-21175984D02*
X7320182Y-21175984D01*
X7320182Y-21175984D02*
X7339229Y-21185508D01*
X7339229Y-21185508D02*
X7348753Y-21195031D01*
X7348753Y-21195031D02*
X7358277Y-21214079D01*
X7358277Y-21214079D02*
X7367801Y-21252174D01*
X7367801Y-21252174D02*
X7367801Y-21299793D01*
X7367801Y-21299793D02*
X7358277Y-21337889D01*
X7358277Y-21337889D02*
X7348753Y-21356936D01*
X7348753Y-21356936D02*
X7339229Y-21366460D01*
X7339229Y-21366460D02*
X7320182Y-21375984D01*
X7320182Y-21375984D02*
X7301134Y-21375984D01*
X7301134Y-21375984D02*
X7282086Y-21366460D01*
X7282086Y-21366460D02*
X7272563Y-21356936D01*
X7272563Y-21356936D02*
X7263039Y-21337889D01*
X7263039Y-21337889D02*
X7253515Y-21299793D01*
X7253515Y-21299793D02*
X7253515Y-21252174D01*
X7253515Y-21252174D02*
X7263039Y-21214079D01*
X7263039Y-21214079D02*
X7272563Y-21195031D01*
X7272563Y-21195031D02*
X7282086Y-21185508D01*
X7282086Y-21185508D02*
X7301134Y-21175984D01*
X7453515Y-21356936D02*
X7463039Y-21366460D01*
X7463039Y-21366460D02*
X7453515Y-21375984D01*
X7453515Y-21375984D02*
X7443991Y-21366460D01*
X7443991Y-21366460D02*
X7453515Y-21356936D01*
X7453515Y-21356936D02*
X7453515Y-21375984D01*
X7586848Y-21175984D02*
X7605896Y-21175984D01*
X7605896Y-21175984D02*
X7624944Y-21185508D01*
X7624944Y-21185508D02*
X7634467Y-21195031D01*
X7634467Y-21195031D02*
X7643991Y-21214079D01*
X7643991Y-21214079D02*
X7653515Y-21252174D01*
X7653515Y-21252174D02*
X7653515Y-21299793D01*
X7653515Y-21299793D02*
X7643991Y-21337889D01*
X7643991Y-21337889D02*
X7634467Y-21356936D01*
X7634467Y-21356936D02*
X7624944Y-21366460D01*
X7624944Y-21366460D02*
X7605896Y-21375984D01*
X7605896Y-21375984D02*
X7586848Y-21375984D01*
X7586848Y-21375984D02*
X7567801Y-21366460D01*
X7567801Y-21366460D02*
X7558277Y-21356936D01*
X7558277Y-21356936D02*
X7548753Y-21337889D01*
X7548753Y-21337889D02*
X7539229Y-21299793D01*
X7539229Y-21299793D02*
X7539229Y-21252174D01*
X7539229Y-21252174D02*
X7548753Y-21214079D01*
X7548753Y-21214079D02*
X7558277Y-21195031D01*
X7558277Y-21195031D02*
X7567801Y-21185508D01*
X7567801Y-21185508D02*
X7586848Y-21175984D01*
X7834467Y-21175984D02*
X7739229Y-21175984D01*
X7739229Y-21175984D02*
X7729706Y-21271222D01*
X7729706Y-21271222D02*
X7739229Y-21261698D01*
X7739229Y-21261698D02*
X7758277Y-21252174D01*
X7758277Y-21252174D02*
X7805896Y-21252174D01*
X7805896Y-21252174D02*
X7824944Y-21261698D01*
X7824944Y-21261698D02*
X7834467Y-21271222D01*
X7834467Y-21271222D02*
X7843991Y-21290270D01*
X7843991Y-21290270D02*
X7843991Y-21337889D01*
X7843991Y-21337889D02*
X7834467Y-21356936D01*
X7834467Y-21356936D02*
X7824944Y-21366460D01*
X7824944Y-21366460D02*
X7805896Y-21375984D01*
X7805896Y-21375984D02*
X7758277Y-21375984D01*
X7758277Y-21375984D02*
X7739229Y-21366460D01*
X7739229Y-21366460D02*
X7729706Y-21356936D01*
X7939229Y-21375984D02*
X7977325Y-21375984D01*
X7977325Y-21375984D02*
X7996372Y-21366460D01*
X7996372Y-21366460D02*
X8005896Y-21356936D01*
X8005896Y-21356936D02*
X8024944Y-21328365D01*
X8024944Y-21328365D02*
X8034467Y-21290270D01*
X8034467Y-21290270D02*
X8034467Y-21214079D01*
X8034467Y-21214079D02*
X8024944Y-21195031D01*
X8024944Y-21195031D02*
X8015420Y-21185508D01*
X8015420Y-21185508D02*
X7996372Y-21175984D01*
X7996372Y-21175984D02*
X7958277Y-21175984D01*
X7958277Y-21175984D02*
X7939229Y-21185508D01*
X7939229Y-21185508D02*
X7929706Y-21195031D01*
X7929706Y-21195031D02*
X7920182Y-21214079D01*
X7920182Y-21214079D02*
X7920182Y-21261698D01*
X7920182Y-21261698D02*
X7929706Y-21280746D01*
X7929706Y-21280746D02*
X7939229Y-21290270D01*
X7939229Y-21290270D02*
X7958277Y-21299793D01*
X7958277Y-21299793D02*
X7996372Y-21299793D01*
X7996372Y-21299793D02*
X8015420Y-21290270D01*
X8015420Y-21290270D02*
X8024944Y-21280746D01*
X8024944Y-21280746D02*
X8034467Y-21261698D01*
X8224944Y-21375984D02*
X8110658Y-21375984D01*
X8167801Y-21375984D02*
X8167801Y-21175984D01*
X8167801Y-21175984D02*
X8148753Y-21204555D01*
X8148753Y-21204555D02*
X8129706Y-21223603D01*
X8129706Y-21223603D02*
X8110658Y-21233127D01*
X8301134Y-21175984D02*
X8301134Y-21214079D01*
X8377325Y-21175984D02*
X8377325Y-21214079D01*
X8672563Y-21452174D02*
X8663039Y-21442650D01*
X8663039Y-21442650D02*
X8643991Y-21414079D01*
X8643991Y-21414079D02*
X8634468Y-21395031D01*
X8634468Y-21395031D02*
X8624944Y-21366460D01*
X8624944Y-21366460D02*
X8615420Y-21318841D01*
X8615420Y-21318841D02*
X8615420Y-21280746D01*
X8615420Y-21280746D02*
X8624944Y-21233127D01*
X8624944Y-21233127D02*
X8634468Y-21204555D01*
X8634468Y-21204555D02*
X8643991Y-21185508D01*
X8643991Y-21185508D02*
X8663039Y-21156936D01*
X8663039Y-21156936D02*
X8672563Y-21147412D01*
X8853515Y-21375984D02*
X8739230Y-21375984D01*
X8796372Y-21375984D02*
X8796372Y-21175984D01*
X8796372Y-21175984D02*
X8777325Y-21204555D01*
X8777325Y-21204555D02*
X8758277Y-21223603D01*
X8758277Y-21223603D02*
X8739230Y-21233127D01*
X8929706Y-21195031D02*
X8939230Y-21185508D01*
X8939230Y-21185508D02*
X8958277Y-21175984D01*
X8958277Y-21175984D02*
X9005896Y-21175984D01*
X9005896Y-21175984D02*
X9024944Y-21185508D01*
X9024944Y-21185508D02*
X9034468Y-21195031D01*
X9034468Y-21195031D02*
X9043991Y-21214079D01*
X9043991Y-21214079D02*
X9043991Y-21233127D01*
X9043991Y-21233127D02*
X9034468Y-21261698D01*
X9034468Y-21261698D02*
X8920182Y-21375984D01*
X8920182Y-21375984D02*
X9043991Y-21375984D01*
X9282087Y-21375984D02*
X9282087Y-21175984D01*
X9367801Y-21375984D02*
X9367801Y-21271222D01*
X9367801Y-21271222D02*
X9358277Y-21252174D01*
X9358277Y-21252174D02*
X9339230Y-21242650D01*
X9339230Y-21242650D02*
X9310658Y-21242650D01*
X9310658Y-21242650D02*
X9291611Y-21252174D01*
X9291611Y-21252174D02*
X9282087Y-21261698D01*
X9491611Y-21375984D02*
X9472563Y-21366460D01*
X9472563Y-21366460D02*
X9463039Y-21356936D01*
X9463039Y-21356936D02*
X9453515Y-21337889D01*
X9453515Y-21337889D02*
X9453515Y-21280746D01*
X9453515Y-21280746D02*
X9463039Y-21261698D01*
X9463039Y-21261698D02*
X9472563Y-21252174D01*
X9472563Y-21252174D02*
X9491611Y-21242650D01*
X9491611Y-21242650D02*
X9520182Y-21242650D01*
X9520182Y-21242650D02*
X9539230Y-21252174D01*
X9539230Y-21252174D02*
X9548753Y-21261698D01*
X9548753Y-21261698D02*
X9558277Y-21280746D01*
X9558277Y-21280746D02*
X9558277Y-21337889D01*
X9558277Y-21337889D02*
X9548753Y-21356936D01*
X9548753Y-21356936D02*
X9539230Y-21366460D01*
X9539230Y-21366460D02*
X9520182Y-21375984D01*
X9520182Y-21375984D02*
X9491611Y-21375984D01*
X9672563Y-21375984D02*
X9653515Y-21366460D01*
X9653515Y-21366460D02*
X9643992Y-21347412D01*
X9643992Y-21347412D02*
X9643992Y-21175984D01*
X9824944Y-21366460D02*
X9805896Y-21375984D01*
X9805896Y-21375984D02*
X9767801Y-21375984D01*
X9767801Y-21375984D02*
X9748753Y-21366460D01*
X9748753Y-21366460D02*
X9739230Y-21347412D01*
X9739230Y-21347412D02*
X9739230Y-21271222D01*
X9739230Y-21271222D02*
X9748753Y-21252174D01*
X9748753Y-21252174D02*
X9767801Y-21242650D01*
X9767801Y-21242650D02*
X9805896Y-21242650D01*
X9805896Y-21242650D02*
X9824944Y-21252174D01*
X9824944Y-21252174D02*
X9834468Y-21271222D01*
X9834468Y-21271222D02*
X9834468Y-21290270D01*
X9834468Y-21290270D02*
X9739230Y-21309317D01*
X9910658Y-21366460D02*
X9929706Y-21375984D01*
X9929706Y-21375984D02*
X9967801Y-21375984D01*
X9967801Y-21375984D02*
X9986849Y-21366460D01*
X9986849Y-21366460D02*
X9996373Y-21347412D01*
X9996373Y-21347412D02*
X9996373Y-21337889D01*
X9996373Y-21337889D02*
X9986849Y-21318841D01*
X9986849Y-21318841D02*
X9967801Y-21309317D01*
X9967801Y-21309317D02*
X9939230Y-21309317D01*
X9939230Y-21309317D02*
X9920182Y-21299793D01*
X9920182Y-21299793D02*
X9910658Y-21280746D01*
X9910658Y-21280746D02*
X9910658Y-21271222D01*
X9910658Y-21271222D02*
X9920182Y-21252174D01*
X9920182Y-21252174D02*
X9939230Y-21242650D01*
X9939230Y-21242650D02*
X9967801Y-21242650D01*
X9967801Y-21242650D02*
X9986849Y-21252174D01*
X10063039Y-21452174D02*
X10072563Y-21442650D01*
X10072563Y-21442650D02*
X10091611Y-21414079D01*
X10091611Y-21414079D02*
X10101134Y-21395031D01*
X10101134Y-21395031D02*
X10110658Y-21366460D01*
X10110658Y-21366460D02*
X10120182Y-21318841D01*
X10120182Y-21318841D02*
X10120182Y-21280746D01*
X10120182Y-21280746D02*
X10110658Y-21233127D01*
X10110658Y-21233127D02*
X10101134Y-21204555D01*
X10101134Y-21204555D02*
X10091611Y-21185508D01*
X10091611Y-21185508D02*
X10072563Y-21156936D01*
X10072563Y-21156936D02*
X10063039Y-21147412D01*
D15*
X5017500Y-21634500D02*
X5097500Y-21554500D01*
X5017500Y-21474500D01*
X4937500Y-21554500D01*
X5017500Y-21634500D01*
D11*
X5463039Y-21645984D02*
X5348753Y-21645984D01*
X5405896Y-21645984D02*
X5405896Y-21445984D01*
X5405896Y-21445984D02*
X5386848Y-21474555D01*
X5386848Y-21474555D02*
X5367801Y-21493603D01*
X5367801Y-21493603D02*
X5348753Y-21503127D01*
X5548753Y-21626936D02*
X5558277Y-21636460D01*
X5558277Y-21636460D02*
X5548753Y-21645984D01*
X5548753Y-21645984D02*
X5539229Y-21636460D01*
X5539229Y-21636460D02*
X5548753Y-21626936D01*
X5548753Y-21626936D02*
X5548753Y-21645984D01*
X5729705Y-21445984D02*
X5691610Y-21445984D01*
X5691610Y-21445984D02*
X5672562Y-21455508D01*
X5672562Y-21455508D02*
X5663039Y-21465031D01*
X5663039Y-21465031D02*
X5643991Y-21493603D01*
X5643991Y-21493603D02*
X5634467Y-21531698D01*
X5634467Y-21531698D02*
X5634467Y-21607889D01*
X5634467Y-21607889D02*
X5643991Y-21626936D01*
X5643991Y-21626936D02*
X5653515Y-21636460D01*
X5653515Y-21636460D02*
X5672562Y-21645984D01*
X5672562Y-21645984D02*
X5710658Y-21645984D01*
X5710658Y-21645984D02*
X5729705Y-21636460D01*
X5729705Y-21636460D02*
X5739229Y-21626936D01*
X5739229Y-21626936D02*
X5748753Y-21607889D01*
X5748753Y-21607889D02*
X5748753Y-21560270D01*
X5748753Y-21560270D02*
X5739229Y-21541222D01*
X5739229Y-21541222D02*
X5729705Y-21531698D01*
X5729705Y-21531698D02*
X5710658Y-21522174D01*
X5710658Y-21522174D02*
X5672562Y-21522174D01*
X5672562Y-21522174D02*
X5653515Y-21531698D01*
X5653515Y-21531698D02*
X5643991Y-21541222D01*
X5643991Y-21541222D02*
X5634467Y-21560270D01*
X5872562Y-21445984D02*
X5891610Y-21445984D01*
X5891610Y-21445984D02*
X5910658Y-21455508D01*
X5910658Y-21455508D02*
X5920182Y-21465031D01*
X5920182Y-21465031D02*
X5929705Y-21484079D01*
X5929705Y-21484079D02*
X5939229Y-21522174D01*
X5939229Y-21522174D02*
X5939229Y-21569793D01*
X5939229Y-21569793D02*
X5929705Y-21607889D01*
X5929705Y-21607889D02*
X5920182Y-21626936D01*
X5920182Y-21626936D02*
X5910658Y-21636460D01*
X5910658Y-21636460D02*
X5891610Y-21645984D01*
X5891610Y-21645984D02*
X5872562Y-21645984D01*
X5872562Y-21645984D02*
X5853515Y-21636460D01*
X5853515Y-21636460D02*
X5843991Y-21626936D01*
X5843991Y-21626936D02*
X5834467Y-21607889D01*
X5834467Y-21607889D02*
X5824943Y-21569793D01*
X5824943Y-21569793D02*
X5824943Y-21522174D01*
X5824943Y-21522174D02*
X5834467Y-21484079D01*
X5834467Y-21484079D02*
X5843991Y-21465031D01*
X5843991Y-21465031D02*
X5853515Y-21455508D01*
X5853515Y-21455508D02*
X5872562Y-21445984D01*
X6063039Y-21445984D02*
X6082086Y-21445984D01*
X6082086Y-21445984D02*
X6101134Y-21455508D01*
X6101134Y-21455508D02*
X6110658Y-21465031D01*
X6110658Y-21465031D02*
X6120182Y-21484079D01*
X6120182Y-21484079D02*
X6129705Y-21522174D01*
X6129705Y-21522174D02*
X6129705Y-21569793D01*
X6129705Y-21569793D02*
X6120182Y-21607889D01*
X6120182Y-21607889D02*
X6110658Y-21626936D01*
X6110658Y-21626936D02*
X6101134Y-21636460D01*
X6101134Y-21636460D02*
X6082086Y-21645984D01*
X6082086Y-21645984D02*
X6063039Y-21645984D01*
X6063039Y-21645984D02*
X6043991Y-21636460D01*
X6043991Y-21636460D02*
X6034467Y-21626936D01*
X6034467Y-21626936D02*
X6024943Y-21607889D01*
X6024943Y-21607889D02*
X6015420Y-21569793D01*
X6015420Y-21569793D02*
X6015420Y-21522174D01*
X6015420Y-21522174D02*
X6024943Y-21484079D01*
X6024943Y-21484079D02*
X6034467Y-21465031D01*
X6034467Y-21465031D02*
X6043991Y-21455508D01*
X6043991Y-21455508D02*
X6063039Y-21445984D01*
X6215420Y-21645984D02*
X6215420Y-21512650D01*
X6215420Y-21531698D02*
X6224943Y-21522174D01*
X6224943Y-21522174D02*
X6243991Y-21512650D01*
X6243991Y-21512650D02*
X6272563Y-21512650D01*
X6272563Y-21512650D02*
X6291610Y-21522174D01*
X6291610Y-21522174D02*
X6301134Y-21541222D01*
X6301134Y-21541222D02*
X6301134Y-21645984D01*
X6301134Y-21541222D02*
X6310658Y-21522174D01*
X6310658Y-21522174D02*
X6329705Y-21512650D01*
X6329705Y-21512650D02*
X6358277Y-21512650D01*
X6358277Y-21512650D02*
X6377324Y-21522174D01*
X6377324Y-21522174D02*
X6386848Y-21541222D01*
X6386848Y-21541222D02*
X6386848Y-21645984D01*
X6482086Y-21645984D02*
X6482086Y-21512650D01*
X6482086Y-21531698D02*
X6491610Y-21522174D01*
X6491610Y-21522174D02*
X6510658Y-21512650D01*
X6510658Y-21512650D02*
X6539229Y-21512650D01*
X6539229Y-21512650D02*
X6558277Y-21522174D01*
X6558277Y-21522174D02*
X6567801Y-21541222D01*
X6567801Y-21541222D02*
X6567801Y-21645984D01*
X6567801Y-21541222D02*
X6577324Y-21522174D01*
X6577324Y-21522174D02*
X6596372Y-21512650D01*
X6596372Y-21512650D02*
X6624943Y-21512650D01*
X6624943Y-21512650D02*
X6643991Y-21522174D01*
X6643991Y-21522174D02*
X6653515Y-21541222D01*
X6653515Y-21541222D02*
X6653515Y-21645984D01*
X7043991Y-21436460D02*
X6872563Y-21693603D01*
X7301134Y-21445984D02*
X7320182Y-21445984D01*
X7320182Y-21445984D02*
X7339229Y-21455508D01*
X7339229Y-21455508D02*
X7348753Y-21465031D01*
X7348753Y-21465031D02*
X7358277Y-21484079D01*
X7358277Y-21484079D02*
X7367801Y-21522174D01*
X7367801Y-21522174D02*
X7367801Y-21569793D01*
X7367801Y-21569793D02*
X7358277Y-21607889D01*
X7358277Y-21607889D02*
X7348753Y-21626936D01*
X7348753Y-21626936D02*
X7339229Y-21636460D01*
X7339229Y-21636460D02*
X7320182Y-21645984D01*
X7320182Y-21645984D02*
X7301134Y-21645984D01*
X7301134Y-21645984D02*
X7282086Y-21636460D01*
X7282086Y-21636460D02*
X7272563Y-21626936D01*
X7272563Y-21626936D02*
X7263039Y-21607889D01*
X7263039Y-21607889D02*
X7253515Y-21569793D01*
X7253515Y-21569793D02*
X7253515Y-21522174D01*
X7253515Y-21522174D02*
X7263039Y-21484079D01*
X7263039Y-21484079D02*
X7272563Y-21465031D01*
X7272563Y-21465031D02*
X7282086Y-21455508D01*
X7282086Y-21455508D02*
X7301134Y-21445984D01*
X7453515Y-21626936D02*
X7463039Y-21636460D01*
X7463039Y-21636460D02*
X7453515Y-21645984D01*
X7453515Y-21645984D02*
X7443991Y-21636460D01*
X7443991Y-21636460D02*
X7453515Y-21626936D01*
X7453515Y-21626936D02*
X7453515Y-21645984D01*
X7586848Y-21445984D02*
X7605896Y-21445984D01*
X7605896Y-21445984D02*
X7624944Y-21455508D01*
X7624944Y-21455508D02*
X7634467Y-21465031D01*
X7634467Y-21465031D02*
X7643991Y-21484079D01*
X7643991Y-21484079D02*
X7653515Y-21522174D01*
X7653515Y-21522174D02*
X7653515Y-21569793D01*
X7653515Y-21569793D02*
X7643991Y-21607889D01*
X7643991Y-21607889D02*
X7634467Y-21626936D01*
X7634467Y-21626936D02*
X7624944Y-21636460D01*
X7624944Y-21636460D02*
X7605896Y-21645984D01*
X7605896Y-21645984D02*
X7586848Y-21645984D01*
X7586848Y-21645984D02*
X7567801Y-21636460D01*
X7567801Y-21636460D02*
X7558277Y-21626936D01*
X7558277Y-21626936D02*
X7548753Y-21607889D01*
X7548753Y-21607889D02*
X7539229Y-21569793D01*
X7539229Y-21569793D02*
X7539229Y-21522174D01*
X7539229Y-21522174D02*
X7548753Y-21484079D01*
X7548753Y-21484079D02*
X7558277Y-21465031D01*
X7558277Y-21465031D02*
X7567801Y-21455508D01*
X7567801Y-21455508D02*
X7586848Y-21445984D01*
X7824944Y-21445984D02*
X7786848Y-21445984D01*
X7786848Y-21445984D02*
X7767801Y-21455508D01*
X7767801Y-21455508D02*
X7758277Y-21465031D01*
X7758277Y-21465031D02*
X7739229Y-21493603D01*
X7739229Y-21493603D02*
X7729706Y-21531698D01*
X7729706Y-21531698D02*
X7729706Y-21607889D01*
X7729706Y-21607889D02*
X7739229Y-21626936D01*
X7739229Y-21626936D02*
X7748753Y-21636460D01*
X7748753Y-21636460D02*
X7767801Y-21645984D01*
X7767801Y-21645984D02*
X7805896Y-21645984D01*
X7805896Y-21645984D02*
X7824944Y-21636460D01*
X7824944Y-21636460D02*
X7834467Y-21626936D01*
X7834467Y-21626936D02*
X7843991Y-21607889D01*
X7843991Y-21607889D02*
X7843991Y-21560270D01*
X7843991Y-21560270D02*
X7834467Y-21541222D01*
X7834467Y-21541222D02*
X7824944Y-21531698D01*
X7824944Y-21531698D02*
X7805896Y-21522174D01*
X7805896Y-21522174D02*
X7767801Y-21522174D01*
X7767801Y-21522174D02*
X7748753Y-21531698D01*
X7748753Y-21531698D02*
X7739229Y-21541222D01*
X7739229Y-21541222D02*
X7729706Y-21560270D01*
X7910658Y-21445984D02*
X8034467Y-21445984D01*
X8034467Y-21445984D02*
X7967801Y-21522174D01*
X7967801Y-21522174D02*
X7996372Y-21522174D01*
X7996372Y-21522174D02*
X8015420Y-21531698D01*
X8015420Y-21531698D02*
X8024944Y-21541222D01*
X8024944Y-21541222D02*
X8034467Y-21560270D01*
X8034467Y-21560270D02*
X8034467Y-21607889D01*
X8034467Y-21607889D02*
X8024944Y-21626936D01*
X8024944Y-21626936D02*
X8015420Y-21636460D01*
X8015420Y-21636460D02*
X7996372Y-21645984D01*
X7996372Y-21645984D02*
X7939229Y-21645984D01*
X7939229Y-21645984D02*
X7920182Y-21636460D01*
X7920182Y-21636460D02*
X7910658Y-21626936D01*
X8158277Y-21445984D02*
X8177325Y-21445984D01*
X8177325Y-21445984D02*
X8196372Y-21455508D01*
X8196372Y-21455508D02*
X8205896Y-21465031D01*
X8205896Y-21465031D02*
X8215420Y-21484079D01*
X8215420Y-21484079D02*
X8224944Y-21522174D01*
X8224944Y-21522174D02*
X8224944Y-21569793D01*
X8224944Y-21569793D02*
X8215420Y-21607889D01*
X8215420Y-21607889D02*
X8205896Y-21626936D01*
X8205896Y-21626936D02*
X8196372Y-21636460D01*
X8196372Y-21636460D02*
X8177325Y-21645984D01*
X8177325Y-21645984D02*
X8158277Y-21645984D01*
X8158277Y-21645984D02*
X8139229Y-21636460D01*
X8139229Y-21636460D02*
X8129706Y-21626936D01*
X8129706Y-21626936D02*
X8120182Y-21607889D01*
X8120182Y-21607889D02*
X8110658Y-21569793D01*
X8110658Y-21569793D02*
X8110658Y-21522174D01*
X8110658Y-21522174D02*
X8120182Y-21484079D01*
X8120182Y-21484079D02*
X8129706Y-21465031D01*
X8129706Y-21465031D02*
X8139229Y-21455508D01*
X8139229Y-21455508D02*
X8158277Y-21445984D01*
X8301134Y-21445984D02*
X8301134Y-21484079D01*
X8377325Y-21445984D02*
X8377325Y-21484079D01*
X8672563Y-21722174D02*
X8663039Y-21712650D01*
X8663039Y-21712650D02*
X8643991Y-21684079D01*
X8643991Y-21684079D02*
X8634468Y-21665031D01*
X8634468Y-21665031D02*
X8624944Y-21636460D01*
X8624944Y-21636460D02*
X8615420Y-21588841D01*
X8615420Y-21588841D02*
X8615420Y-21550746D01*
X8615420Y-21550746D02*
X8624944Y-21503127D01*
X8624944Y-21503127D02*
X8634468Y-21474555D01*
X8634468Y-21474555D02*
X8643991Y-21455508D01*
X8643991Y-21455508D02*
X8663039Y-21426936D01*
X8663039Y-21426936D02*
X8672563Y-21417412D01*
X8834468Y-21445984D02*
X8796372Y-21445984D01*
X8796372Y-21445984D02*
X8777325Y-21455508D01*
X8777325Y-21455508D02*
X8767801Y-21465031D01*
X8767801Y-21465031D02*
X8748753Y-21493603D01*
X8748753Y-21493603D02*
X8739230Y-21531698D01*
X8739230Y-21531698D02*
X8739230Y-21607889D01*
X8739230Y-21607889D02*
X8748753Y-21626936D01*
X8748753Y-21626936D02*
X8758277Y-21636460D01*
X8758277Y-21636460D02*
X8777325Y-21645984D01*
X8777325Y-21645984D02*
X8815420Y-21645984D01*
X8815420Y-21645984D02*
X8834468Y-21636460D01*
X8834468Y-21636460D02*
X8843991Y-21626936D01*
X8843991Y-21626936D02*
X8853515Y-21607889D01*
X8853515Y-21607889D02*
X8853515Y-21560270D01*
X8853515Y-21560270D02*
X8843991Y-21541222D01*
X8843991Y-21541222D02*
X8834468Y-21531698D01*
X8834468Y-21531698D02*
X8815420Y-21522174D01*
X8815420Y-21522174D02*
X8777325Y-21522174D01*
X8777325Y-21522174D02*
X8758277Y-21531698D01*
X8758277Y-21531698D02*
X8748753Y-21541222D01*
X8748753Y-21541222D02*
X8739230Y-21560270D01*
X9091611Y-21645984D02*
X9091611Y-21445984D01*
X9177325Y-21645984D02*
X9177325Y-21541222D01*
X9177325Y-21541222D02*
X9167801Y-21522174D01*
X9167801Y-21522174D02*
X9148753Y-21512650D01*
X9148753Y-21512650D02*
X9120182Y-21512650D01*
X9120182Y-21512650D02*
X9101134Y-21522174D01*
X9101134Y-21522174D02*
X9091611Y-21531698D01*
X9301134Y-21645984D02*
X9282087Y-21636460D01*
X9282087Y-21636460D02*
X9272563Y-21626936D01*
X9272563Y-21626936D02*
X9263039Y-21607889D01*
X9263039Y-21607889D02*
X9263039Y-21550746D01*
X9263039Y-21550746D02*
X9272563Y-21531698D01*
X9272563Y-21531698D02*
X9282087Y-21522174D01*
X9282087Y-21522174D02*
X9301134Y-21512650D01*
X9301134Y-21512650D02*
X9329706Y-21512650D01*
X9329706Y-21512650D02*
X9348753Y-21522174D01*
X9348753Y-21522174D02*
X9358277Y-21531698D01*
X9358277Y-21531698D02*
X9367801Y-21550746D01*
X9367801Y-21550746D02*
X9367801Y-21607889D01*
X9367801Y-21607889D02*
X9358277Y-21626936D01*
X9358277Y-21626936D02*
X9348753Y-21636460D01*
X9348753Y-21636460D02*
X9329706Y-21645984D01*
X9329706Y-21645984D02*
X9301134Y-21645984D01*
X9482087Y-21645984D02*
X9463039Y-21636460D01*
X9463039Y-21636460D02*
X9453515Y-21617412D01*
X9453515Y-21617412D02*
X9453515Y-21445984D01*
X9634468Y-21636460D02*
X9615420Y-21645984D01*
X9615420Y-21645984D02*
X9577325Y-21645984D01*
X9577325Y-21645984D02*
X9558277Y-21636460D01*
X9558277Y-21636460D02*
X9548753Y-21617412D01*
X9548753Y-21617412D02*
X9548753Y-21541222D01*
X9548753Y-21541222D02*
X9558277Y-21522174D01*
X9558277Y-21522174D02*
X9577325Y-21512650D01*
X9577325Y-21512650D02*
X9615420Y-21512650D01*
X9615420Y-21512650D02*
X9634468Y-21522174D01*
X9634468Y-21522174D02*
X9643992Y-21541222D01*
X9643992Y-21541222D02*
X9643992Y-21560270D01*
X9643992Y-21560270D02*
X9548753Y-21579317D01*
X9720182Y-21636460D02*
X9739230Y-21645984D01*
X9739230Y-21645984D02*
X9777325Y-21645984D01*
X9777325Y-21645984D02*
X9796373Y-21636460D01*
X9796373Y-21636460D02*
X9805896Y-21617412D01*
X9805896Y-21617412D02*
X9805896Y-21607889D01*
X9805896Y-21607889D02*
X9796373Y-21588841D01*
X9796373Y-21588841D02*
X9777325Y-21579317D01*
X9777325Y-21579317D02*
X9748753Y-21579317D01*
X9748753Y-21579317D02*
X9729706Y-21569793D01*
X9729706Y-21569793D02*
X9720182Y-21550746D01*
X9720182Y-21550746D02*
X9720182Y-21541222D01*
X9720182Y-21541222D02*
X9729706Y-21522174D01*
X9729706Y-21522174D02*
X9748753Y-21512650D01*
X9748753Y-21512650D02*
X9777325Y-21512650D01*
X9777325Y-21512650D02*
X9796373Y-21522174D01*
X9872563Y-21722174D02*
X9882087Y-21712650D01*
X9882087Y-21712650D02*
X9901134Y-21684079D01*
X9901134Y-21684079D02*
X9910658Y-21665031D01*
X9910658Y-21665031D02*
X9920182Y-21636460D01*
X9920182Y-21636460D02*
X9929706Y-21588841D01*
X9929706Y-21588841D02*
X9929706Y-21550746D01*
X9929706Y-21550746D02*
X9920182Y-21503127D01*
X9920182Y-21503127D02*
X9910658Y-21474555D01*
X9910658Y-21474555D02*
X9901134Y-21455508D01*
X9901134Y-21455508D02*
X9882087Y-21426936D01*
X9882087Y-21426936D02*
X9872563Y-21417412D01*
M02*
