%TF.GenerationSoftware,KiCad,Pcbnew,8.0.5*%
%TF.CreationDate,2024-12-03T21:36:43+01:00*%
%TF.ProjectId,DMH_Mixer_PCB,444d485f-4d69-4786-9572-5f5043422e6b,1*%
%TF.SameCoordinates,Original*%
%TF.FileFunction,Drillmap*%
%TF.FilePolarity,Positive*%
%FSLAX45Y45*%
G04 Gerber Fmt 4.5, Leading zero omitted, Abs format (unit mm)*
G04 Created by KiCad (PCBNEW 8.0.5) date 2024-12-03 21:36:43*
%MOMM*%
%LPD*%
G01*
G04 APERTURE LIST*
%ADD10C,0.050000*%
%ADD11C,0.200000*%
G04 APERTURE END LIST*
D10*
X8400000Y-19850000D02*
X8400000Y-18050000D01*
X9900000Y-4250000D02*
X9900000Y-19850000D01*
X5100000Y-18050000D02*
X5100000Y-4250000D01*
X5100000Y-4250000D02*
X9900000Y-4250000D01*
X9900000Y-19850000D02*
X8400000Y-19850000D01*
X8400000Y-18050000D02*
X5100000Y-18050000D01*
D11*
X5358277Y-20163984D02*
X5358277Y-19963984D01*
X5358277Y-19963984D02*
X5405896Y-19963984D01*
X5405896Y-19963984D02*
X5434467Y-19973508D01*
X5434467Y-19973508D02*
X5453515Y-19992555D01*
X5453515Y-19992555D02*
X5463039Y-20011603D01*
X5463039Y-20011603D02*
X5472563Y-20049698D01*
X5472563Y-20049698D02*
X5472563Y-20078270D01*
X5472563Y-20078270D02*
X5463039Y-20116365D01*
X5463039Y-20116365D02*
X5453515Y-20135412D01*
X5453515Y-20135412D02*
X5434467Y-20154460D01*
X5434467Y-20154460D02*
X5405896Y-20163984D01*
X5405896Y-20163984D02*
X5358277Y-20163984D01*
X5558277Y-20163984D02*
X5558277Y-20030650D01*
X5558277Y-20068746D02*
X5567801Y-20049698D01*
X5567801Y-20049698D02*
X5577324Y-20040174D01*
X5577324Y-20040174D02*
X5596372Y-20030650D01*
X5596372Y-20030650D02*
X5615420Y-20030650D01*
X5682086Y-20163984D02*
X5682086Y-20030650D01*
X5682086Y-19963984D02*
X5672562Y-19973508D01*
X5672562Y-19973508D02*
X5682086Y-19983031D01*
X5682086Y-19983031D02*
X5691610Y-19973508D01*
X5691610Y-19973508D02*
X5682086Y-19963984D01*
X5682086Y-19963984D02*
X5682086Y-19983031D01*
X5805896Y-20163984D02*
X5786848Y-20154460D01*
X5786848Y-20154460D02*
X5777324Y-20135412D01*
X5777324Y-20135412D02*
X5777324Y-19963984D01*
X5910658Y-20163984D02*
X5891610Y-20154460D01*
X5891610Y-20154460D02*
X5882086Y-20135412D01*
X5882086Y-20135412D02*
X5882086Y-19963984D01*
X6139229Y-20163984D02*
X6139229Y-19963984D01*
X6139229Y-19963984D02*
X6205896Y-20106841D01*
X6205896Y-20106841D02*
X6272562Y-19963984D01*
X6272562Y-19963984D02*
X6272562Y-20163984D01*
X6453515Y-20163984D02*
X6453515Y-20059222D01*
X6453515Y-20059222D02*
X6443991Y-20040174D01*
X6443991Y-20040174D02*
X6424943Y-20030650D01*
X6424943Y-20030650D02*
X6386848Y-20030650D01*
X6386848Y-20030650D02*
X6367801Y-20040174D01*
X6453515Y-20154460D02*
X6434467Y-20163984D01*
X6434467Y-20163984D02*
X6386848Y-20163984D01*
X6386848Y-20163984D02*
X6367801Y-20154460D01*
X6367801Y-20154460D02*
X6358277Y-20135412D01*
X6358277Y-20135412D02*
X6358277Y-20116365D01*
X6358277Y-20116365D02*
X6367801Y-20097317D01*
X6367801Y-20097317D02*
X6386848Y-20087793D01*
X6386848Y-20087793D02*
X6434467Y-20087793D01*
X6434467Y-20087793D02*
X6453515Y-20078270D01*
X6548753Y-20030650D02*
X6548753Y-20230650D01*
X6548753Y-20040174D02*
X6567801Y-20030650D01*
X6567801Y-20030650D02*
X6605896Y-20030650D01*
X6605896Y-20030650D02*
X6624943Y-20040174D01*
X6624943Y-20040174D02*
X6634467Y-20049698D01*
X6634467Y-20049698D02*
X6643991Y-20068746D01*
X6643991Y-20068746D02*
X6643991Y-20125889D01*
X6643991Y-20125889D02*
X6634467Y-20144936D01*
X6634467Y-20144936D02*
X6624943Y-20154460D01*
X6624943Y-20154460D02*
X6605896Y-20163984D01*
X6605896Y-20163984D02*
X6567801Y-20163984D01*
X6567801Y-20163984D02*
X6548753Y-20154460D01*
X6729705Y-20144936D02*
X6739229Y-20154460D01*
X6739229Y-20154460D02*
X6729705Y-20163984D01*
X6729705Y-20163984D02*
X6720182Y-20154460D01*
X6720182Y-20154460D02*
X6729705Y-20144936D01*
X6729705Y-20144936D02*
X6729705Y-20163984D01*
X6729705Y-20040174D02*
X6739229Y-20049698D01*
X6739229Y-20049698D02*
X6729705Y-20059222D01*
X6729705Y-20059222D02*
X6720182Y-20049698D01*
X6720182Y-20049698D02*
X6729705Y-20040174D01*
X6729705Y-20040174D02*
X6729705Y-20059222D01*
M02*
