%TF.GenerationSoftware,KiCad,Pcbnew,8.0.5*%
%TF.CreationDate,2024-12-03T21:36:34+01:00*%
%TF.ProjectId,DMH_Mixer_PCB,444d485f-4d69-4786-9572-5f5043422e6b,1*%
%TF.SameCoordinates,Original*%
%TF.FileFunction,Legend,Top*%
%TF.FilePolarity,Positive*%
%FSLAX46Y46*%
G04 Gerber Fmt 4.6, Leading zero omitted, Abs format (unit mm)*
G04 Created by KiCad (PCBNEW 8.0.5) date 2024-12-03 21:36:34*
%MOMM*%
%LPD*%
G01*
G04 APERTURE LIST*
G04 Aperture macros list*
%AMRoundRect*
0 Rectangle with rounded corners*
0 $1 Rounding radius*
0 $2 $3 $4 $5 $6 $7 $8 $9 X,Y pos of 4 corners*
0 Add a 4 corners polygon primitive as box body*
4,1,4,$2,$3,$4,$5,$6,$7,$8,$9,$2,$3,0*
0 Add four circle primitives for the rounded corners*
1,1,$1+$1,$2,$3*
1,1,$1+$1,$4,$5*
1,1,$1+$1,$6,$7*
1,1,$1+$1,$8,$9*
0 Add four rect primitives between the rounded corners*
20,1,$1+$1,$2,$3,$4,$5,0*
20,1,$1+$1,$4,$5,$6,$7,0*
20,1,$1+$1,$6,$7,$8,$9,0*
20,1,$1+$1,$8,$9,$2,$3,0*%
G04 Aperture macros list end*
%ADD10C,0.150000*%
%ADD11C,0.120000*%
%ADD12O,2.720000X3.240000*%
%ADD13R,1.800000X1.800000*%
%ADD14C,1.800000*%
%ADD15C,2.500000*%
%ADD16C,2.600000*%
%ADD17R,1.700000X1.700000*%
%ADD18R,1.600000X1.600000*%
%ADD19O,1.600000X1.600000*%
%ADD20RoundRect,0.250000X0.600000X0.600000X-0.600000X0.600000X-0.600000X-0.600000X0.600000X-0.600000X0*%
%ADD21C,1.700000*%
%ADD22R,2.200000X2.200000*%
%ADD23O,2.200000X2.200000*%
%ADD24C,1.600000*%
%ADD25RoundRect,0.250000X-0.600000X-0.600000X0.600000X-0.600000X0.600000X0.600000X-0.600000X0.600000X0*%
%ADD26O,1.700000X1.700000*%
G04 APERTURE END LIST*
D10*
X77954819Y-170845238D02*
X77478628Y-171178571D01*
X77954819Y-171416666D02*
X76954819Y-171416666D01*
X76954819Y-171416666D02*
X76954819Y-171035714D01*
X76954819Y-171035714D02*
X77002438Y-170940476D01*
X77002438Y-170940476D02*
X77050057Y-170892857D01*
X77050057Y-170892857D02*
X77145295Y-170845238D01*
X77145295Y-170845238D02*
X77288152Y-170845238D01*
X77288152Y-170845238D02*
X77383390Y-170892857D01*
X77383390Y-170892857D02*
X77431009Y-170940476D01*
X77431009Y-170940476D02*
X77478628Y-171035714D01*
X77478628Y-171035714D02*
X77478628Y-171416666D01*
X76954819Y-170559523D02*
X77954819Y-170226190D01*
X77954819Y-170226190D02*
X76954819Y-169892857D01*
X77288152Y-169130952D02*
X77954819Y-169130952D01*
X76907200Y-169369047D02*
X77621485Y-169607142D01*
X77621485Y-169607142D02*
X77621485Y-168988095D01*
X89454819Y-170821428D02*
X89454819Y-171392856D01*
X89454819Y-171107142D02*
X88454819Y-171107142D01*
X88454819Y-171107142D02*
X88597676Y-171202380D01*
X88597676Y-171202380D02*
X88692914Y-171297618D01*
X88692914Y-171297618D02*
X88740533Y-171392856D01*
X88454819Y-170202380D02*
X88454819Y-170107142D01*
X88454819Y-170107142D02*
X88502438Y-170011904D01*
X88502438Y-170011904D02*
X88550057Y-169964285D01*
X88550057Y-169964285D02*
X88645295Y-169916666D01*
X88645295Y-169916666D02*
X88835771Y-169869047D01*
X88835771Y-169869047D02*
X89073866Y-169869047D01*
X89073866Y-169869047D02*
X89264342Y-169916666D01*
X89264342Y-169916666D02*
X89359580Y-169964285D01*
X89359580Y-169964285D02*
X89407200Y-170011904D01*
X89407200Y-170011904D02*
X89454819Y-170107142D01*
X89454819Y-170107142D02*
X89454819Y-170202380D01*
X89454819Y-170202380D02*
X89407200Y-170297618D01*
X89407200Y-170297618D02*
X89359580Y-170345237D01*
X89359580Y-170345237D02*
X89264342Y-170392856D01*
X89264342Y-170392856D02*
X89073866Y-170440475D01*
X89073866Y-170440475D02*
X88835771Y-170440475D01*
X88835771Y-170440475D02*
X88645295Y-170392856D01*
X88645295Y-170392856D02*
X88550057Y-170345237D01*
X88550057Y-170345237D02*
X88502438Y-170297618D01*
X88502438Y-170297618D02*
X88454819Y-170202380D01*
X88454819Y-169249999D02*
X88454819Y-169154761D01*
X88454819Y-169154761D02*
X88502438Y-169059523D01*
X88502438Y-169059523D02*
X88550057Y-169011904D01*
X88550057Y-169011904D02*
X88645295Y-168964285D01*
X88645295Y-168964285D02*
X88835771Y-168916666D01*
X88835771Y-168916666D02*
X89073866Y-168916666D01*
X89073866Y-168916666D02*
X89264342Y-168964285D01*
X89264342Y-168964285D02*
X89359580Y-169011904D01*
X89359580Y-169011904D02*
X89407200Y-169059523D01*
X89407200Y-169059523D02*
X89454819Y-169154761D01*
X89454819Y-169154761D02*
X89454819Y-169249999D01*
X89454819Y-169249999D02*
X89407200Y-169345237D01*
X89407200Y-169345237D02*
X89359580Y-169392856D01*
X89359580Y-169392856D02*
X89264342Y-169440475D01*
X89264342Y-169440475D02*
X89073866Y-169488094D01*
X89073866Y-169488094D02*
X88835771Y-169488094D01*
X88835771Y-169488094D02*
X88645295Y-169440475D01*
X88645295Y-169440475D02*
X88550057Y-169392856D01*
X88550057Y-169392856D02*
X88502438Y-169345237D01*
X88502438Y-169345237D02*
X88454819Y-169249999D01*
X89454819Y-168488094D02*
X88454819Y-168488094D01*
X89073866Y-168392856D02*
X89454819Y-168107142D01*
X88788152Y-168107142D02*
X89169104Y-168488094D01*
X57166667Y-102157200D02*
X57309524Y-102204819D01*
X57309524Y-102204819D02*
X57547619Y-102204819D01*
X57547619Y-102204819D02*
X57642857Y-102157200D01*
X57642857Y-102157200D02*
X57690476Y-102109580D01*
X57690476Y-102109580D02*
X57738095Y-102014342D01*
X57738095Y-102014342D02*
X57738095Y-101919104D01*
X57738095Y-101919104D02*
X57690476Y-101823866D01*
X57690476Y-101823866D02*
X57642857Y-101776247D01*
X57642857Y-101776247D02*
X57547619Y-101728628D01*
X57547619Y-101728628D02*
X57357143Y-101681009D01*
X57357143Y-101681009D02*
X57261905Y-101633390D01*
X57261905Y-101633390D02*
X57214286Y-101585771D01*
X57214286Y-101585771D02*
X57166667Y-101490533D01*
X57166667Y-101490533D02*
X57166667Y-101395295D01*
X57166667Y-101395295D02*
X57214286Y-101300057D01*
X57214286Y-101300057D02*
X57261905Y-101252438D01*
X57261905Y-101252438D02*
X57357143Y-101204819D01*
X57357143Y-101204819D02*
X57595238Y-101204819D01*
X57595238Y-101204819D02*
X57738095Y-101252438D01*
X58071429Y-101204819D02*
X58309524Y-102204819D01*
X58309524Y-102204819D02*
X58500000Y-101490533D01*
X58500000Y-101490533D02*
X58690476Y-102204819D01*
X58690476Y-102204819D02*
X58928572Y-101204819D01*
X59261905Y-101300057D02*
X59309524Y-101252438D01*
X59309524Y-101252438D02*
X59404762Y-101204819D01*
X59404762Y-101204819D02*
X59642857Y-101204819D01*
X59642857Y-101204819D02*
X59738095Y-101252438D01*
X59738095Y-101252438D02*
X59785714Y-101300057D01*
X59785714Y-101300057D02*
X59833333Y-101395295D01*
X59833333Y-101395295D02*
X59833333Y-101490533D01*
X59833333Y-101490533D02*
X59785714Y-101633390D01*
X59785714Y-101633390D02*
X59214286Y-102204819D01*
X59214286Y-102204819D02*
X59833333Y-102204819D01*
X57166667Y-137657200D02*
X57309524Y-137704819D01*
X57309524Y-137704819D02*
X57547619Y-137704819D01*
X57547619Y-137704819D02*
X57642857Y-137657200D01*
X57642857Y-137657200D02*
X57690476Y-137609580D01*
X57690476Y-137609580D02*
X57738095Y-137514342D01*
X57738095Y-137514342D02*
X57738095Y-137419104D01*
X57738095Y-137419104D02*
X57690476Y-137323866D01*
X57690476Y-137323866D02*
X57642857Y-137276247D01*
X57642857Y-137276247D02*
X57547619Y-137228628D01*
X57547619Y-137228628D02*
X57357143Y-137181009D01*
X57357143Y-137181009D02*
X57261905Y-137133390D01*
X57261905Y-137133390D02*
X57214286Y-137085771D01*
X57214286Y-137085771D02*
X57166667Y-136990533D01*
X57166667Y-136990533D02*
X57166667Y-136895295D01*
X57166667Y-136895295D02*
X57214286Y-136800057D01*
X57214286Y-136800057D02*
X57261905Y-136752438D01*
X57261905Y-136752438D02*
X57357143Y-136704819D01*
X57357143Y-136704819D02*
X57595238Y-136704819D01*
X57595238Y-136704819D02*
X57738095Y-136752438D01*
X58071429Y-136704819D02*
X58309524Y-137704819D01*
X58309524Y-137704819D02*
X58500000Y-136990533D01*
X58500000Y-136990533D02*
X58690476Y-137704819D01*
X58690476Y-137704819D02*
X58928572Y-136704819D01*
X59214286Y-136704819D02*
X59833333Y-136704819D01*
X59833333Y-136704819D02*
X59500000Y-137085771D01*
X59500000Y-137085771D02*
X59642857Y-137085771D01*
X59642857Y-137085771D02*
X59738095Y-137133390D01*
X59738095Y-137133390D02*
X59785714Y-137181009D01*
X59785714Y-137181009D02*
X59833333Y-137276247D01*
X59833333Y-137276247D02*
X59833333Y-137514342D01*
X59833333Y-137514342D02*
X59785714Y-137609580D01*
X59785714Y-137609580D02*
X59738095Y-137657200D01*
X59738095Y-137657200D02*
X59642857Y-137704819D01*
X59642857Y-137704819D02*
X59357143Y-137704819D01*
X59357143Y-137704819D02*
X59261905Y-137657200D01*
X59261905Y-137657200D02*
X59214286Y-137609580D01*
X57166667Y-66657200D02*
X57309524Y-66704819D01*
X57309524Y-66704819D02*
X57547619Y-66704819D01*
X57547619Y-66704819D02*
X57642857Y-66657200D01*
X57642857Y-66657200D02*
X57690476Y-66609580D01*
X57690476Y-66609580D02*
X57738095Y-66514342D01*
X57738095Y-66514342D02*
X57738095Y-66419104D01*
X57738095Y-66419104D02*
X57690476Y-66323866D01*
X57690476Y-66323866D02*
X57642857Y-66276247D01*
X57642857Y-66276247D02*
X57547619Y-66228628D01*
X57547619Y-66228628D02*
X57357143Y-66181009D01*
X57357143Y-66181009D02*
X57261905Y-66133390D01*
X57261905Y-66133390D02*
X57214286Y-66085771D01*
X57214286Y-66085771D02*
X57166667Y-65990533D01*
X57166667Y-65990533D02*
X57166667Y-65895295D01*
X57166667Y-65895295D02*
X57214286Y-65800057D01*
X57214286Y-65800057D02*
X57261905Y-65752438D01*
X57261905Y-65752438D02*
X57357143Y-65704819D01*
X57357143Y-65704819D02*
X57595238Y-65704819D01*
X57595238Y-65704819D02*
X57738095Y-65752438D01*
X58071429Y-65704819D02*
X58309524Y-66704819D01*
X58309524Y-66704819D02*
X58500000Y-65990533D01*
X58500000Y-65990533D02*
X58690476Y-66704819D01*
X58690476Y-66704819D02*
X58928572Y-65704819D01*
X59833333Y-66704819D02*
X59261905Y-66704819D01*
X59547619Y-66704819D02*
X59547619Y-65704819D01*
X59547619Y-65704819D02*
X59452381Y-65847676D01*
X59452381Y-65847676D02*
X59357143Y-65942914D01*
X59357143Y-65942914D02*
X59261905Y-65990533D01*
X57166667Y-173157200D02*
X57309524Y-173204819D01*
X57309524Y-173204819D02*
X57547619Y-173204819D01*
X57547619Y-173204819D02*
X57642857Y-173157200D01*
X57642857Y-173157200D02*
X57690476Y-173109580D01*
X57690476Y-173109580D02*
X57738095Y-173014342D01*
X57738095Y-173014342D02*
X57738095Y-172919104D01*
X57738095Y-172919104D02*
X57690476Y-172823866D01*
X57690476Y-172823866D02*
X57642857Y-172776247D01*
X57642857Y-172776247D02*
X57547619Y-172728628D01*
X57547619Y-172728628D02*
X57357143Y-172681009D01*
X57357143Y-172681009D02*
X57261905Y-172633390D01*
X57261905Y-172633390D02*
X57214286Y-172585771D01*
X57214286Y-172585771D02*
X57166667Y-172490533D01*
X57166667Y-172490533D02*
X57166667Y-172395295D01*
X57166667Y-172395295D02*
X57214286Y-172300057D01*
X57214286Y-172300057D02*
X57261905Y-172252438D01*
X57261905Y-172252438D02*
X57357143Y-172204819D01*
X57357143Y-172204819D02*
X57595238Y-172204819D01*
X57595238Y-172204819D02*
X57738095Y-172252438D01*
X58071429Y-172204819D02*
X58309524Y-173204819D01*
X58309524Y-173204819D02*
X58500000Y-172490533D01*
X58500000Y-172490533D02*
X58690476Y-173204819D01*
X58690476Y-173204819D02*
X58928572Y-172204819D01*
X59738095Y-172538152D02*
X59738095Y-173204819D01*
X59500000Y-172157200D02*
X59261905Y-172871485D01*
X59261905Y-172871485D02*
X59880952Y-172871485D01*
X90166667Y-182657200D02*
X90309524Y-182704819D01*
X90309524Y-182704819D02*
X90547619Y-182704819D01*
X90547619Y-182704819D02*
X90642857Y-182657200D01*
X90642857Y-182657200D02*
X90690476Y-182609580D01*
X90690476Y-182609580D02*
X90738095Y-182514342D01*
X90738095Y-182514342D02*
X90738095Y-182419104D01*
X90738095Y-182419104D02*
X90690476Y-182323866D01*
X90690476Y-182323866D02*
X90642857Y-182276247D01*
X90642857Y-182276247D02*
X90547619Y-182228628D01*
X90547619Y-182228628D02*
X90357143Y-182181009D01*
X90357143Y-182181009D02*
X90261905Y-182133390D01*
X90261905Y-182133390D02*
X90214286Y-182085771D01*
X90214286Y-182085771D02*
X90166667Y-181990533D01*
X90166667Y-181990533D02*
X90166667Y-181895295D01*
X90166667Y-181895295D02*
X90214286Y-181800057D01*
X90214286Y-181800057D02*
X90261905Y-181752438D01*
X90261905Y-181752438D02*
X90357143Y-181704819D01*
X90357143Y-181704819D02*
X90595238Y-181704819D01*
X90595238Y-181704819D02*
X90738095Y-181752438D01*
X91071429Y-181704819D02*
X91309524Y-182704819D01*
X91309524Y-182704819D02*
X91500000Y-181990533D01*
X91500000Y-181990533D02*
X91690476Y-182704819D01*
X91690476Y-182704819D02*
X91928572Y-181704819D01*
X92785714Y-181704819D02*
X92309524Y-181704819D01*
X92309524Y-181704819D02*
X92261905Y-182181009D01*
X92261905Y-182181009D02*
X92309524Y-182133390D01*
X92309524Y-182133390D02*
X92404762Y-182085771D01*
X92404762Y-182085771D02*
X92642857Y-182085771D01*
X92642857Y-182085771D02*
X92738095Y-182133390D01*
X92738095Y-182133390D02*
X92785714Y-182181009D01*
X92785714Y-182181009D02*
X92833333Y-182276247D01*
X92833333Y-182276247D02*
X92833333Y-182514342D01*
X92833333Y-182514342D02*
X92785714Y-182609580D01*
X92785714Y-182609580D02*
X92738095Y-182657200D01*
X92738095Y-182657200D02*
X92642857Y-182704819D01*
X92642857Y-182704819D02*
X92404762Y-182704819D01*
X92404762Y-182704819D02*
X92309524Y-182657200D01*
X92309524Y-182657200D02*
X92261905Y-182609580D01*
X77954819Y-99345238D02*
X77478628Y-99678571D01*
X77954819Y-99916666D02*
X76954819Y-99916666D01*
X76954819Y-99916666D02*
X76954819Y-99535714D01*
X76954819Y-99535714D02*
X77002438Y-99440476D01*
X77002438Y-99440476D02*
X77050057Y-99392857D01*
X77050057Y-99392857D02*
X77145295Y-99345238D01*
X77145295Y-99345238D02*
X77288152Y-99345238D01*
X77288152Y-99345238D02*
X77383390Y-99392857D01*
X77383390Y-99392857D02*
X77431009Y-99440476D01*
X77431009Y-99440476D02*
X77478628Y-99535714D01*
X77478628Y-99535714D02*
X77478628Y-99916666D01*
X76954819Y-99059523D02*
X77954819Y-98726190D01*
X77954819Y-98726190D02*
X76954819Y-98392857D01*
X77050057Y-98107142D02*
X77002438Y-98059523D01*
X77002438Y-98059523D02*
X76954819Y-97964285D01*
X76954819Y-97964285D02*
X76954819Y-97726190D01*
X76954819Y-97726190D02*
X77002438Y-97630952D01*
X77002438Y-97630952D02*
X77050057Y-97583333D01*
X77050057Y-97583333D02*
X77145295Y-97535714D01*
X77145295Y-97535714D02*
X77240533Y-97535714D01*
X77240533Y-97535714D02*
X77383390Y-97583333D01*
X77383390Y-97583333D02*
X77954819Y-98154761D01*
X77954819Y-98154761D02*
X77954819Y-97535714D01*
X89454819Y-99821428D02*
X89454819Y-100392856D01*
X89454819Y-100107142D02*
X88454819Y-100107142D01*
X88454819Y-100107142D02*
X88597676Y-100202380D01*
X88597676Y-100202380D02*
X88692914Y-100297618D01*
X88692914Y-100297618D02*
X88740533Y-100392856D01*
X88454819Y-99202380D02*
X88454819Y-99107142D01*
X88454819Y-99107142D02*
X88502438Y-99011904D01*
X88502438Y-99011904D02*
X88550057Y-98964285D01*
X88550057Y-98964285D02*
X88645295Y-98916666D01*
X88645295Y-98916666D02*
X88835771Y-98869047D01*
X88835771Y-98869047D02*
X89073866Y-98869047D01*
X89073866Y-98869047D02*
X89264342Y-98916666D01*
X89264342Y-98916666D02*
X89359580Y-98964285D01*
X89359580Y-98964285D02*
X89407200Y-99011904D01*
X89407200Y-99011904D02*
X89454819Y-99107142D01*
X89454819Y-99107142D02*
X89454819Y-99202380D01*
X89454819Y-99202380D02*
X89407200Y-99297618D01*
X89407200Y-99297618D02*
X89359580Y-99345237D01*
X89359580Y-99345237D02*
X89264342Y-99392856D01*
X89264342Y-99392856D02*
X89073866Y-99440475D01*
X89073866Y-99440475D02*
X88835771Y-99440475D01*
X88835771Y-99440475D02*
X88645295Y-99392856D01*
X88645295Y-99392856D02*
X88550057Y-99345237D01*
X88550057Y-99345237D02*
X88502438Y-99297618D01*
X88502438Y-99297618D02*
X88454819Y-99202380D01*
X88454819Y-98249999D02*
X88454819Y-98154761D01*
X88454819Y-98154761D02*
X88502438Y-98059523D01*
X88502438Y-98059523D02*
X88550057Y-98011904D01*
X88550057Y-98011904D02*
X88645295Y-97964285D01*
X88645295Y-97964285D02*
X88835771Y-97916666D01*
X88835771Y-97916666D02*
X89073866Y-97916666D01*
X89073866Y-97916666D02*
X89264342Y-97964285D01*
X89264342Y-97964285D02*
X89359580Y-98011904D01*
X89359580Y-98011904D02*
X89407200Y-98059523D01*
X89407200Y-98059523D02*
X89454819Y-98154761D01*
X89454819Y-98154761D02*
X89454819Y-98249999D01*
X89454819Y-98249999D02*
X89407200Y-98345237D01*
X89407200Y-98345237D02*
X89359580Y-98392856D01*
X89359580Y-98392856D02*
X89264342Y-98440475D01*
X89264342Y-98440475D02*
X89073866Y-98488094D01*
X89073866Y-98488094D02*
X88835771Y-98488094D01*
X88835771Y-98488094D02*
X88645295Y-98440475D01*
X88645295Y-98440475D02*
X88550057Y-98392856D01*
X88550057Y-98392856D02*
X88502438Y-98345237D01*
X88502438Y-98345237D02*
X88454819Y-98249999D01*
X89454819Y-97488094D02*
X88454819Y-97488094D01*
X89073866Y-97392856D02*
X89454819Y-97107142D01*
X88788152Y-97107142D02*
X89169104Y-97488094D01*
X58416666Y-140454819D02*
X58416666Y-141169104D01*
X58416666Y-141169104D02*
X58369047Y-141311961D01*
X58369047Y-141311961D02*
X58273809Y-141407200D01*
X58273809Y-141407200D02*
X58130952Y-141454819D01*
X58130952Y-141454819D02*
X58035714Y-141454819D01*
X59083333Y-140454819D02*
X59178571Y-140454819D01*
X59178571Y-140454819D02*
X59273809Y-140502438D01*
X59273809Y-140502438D02*
X59321428Y-140550057D01*
X59321428Y-140550057D02*
X59369047Y-140645295D01*
X59369047Y-140645295D02*
X59416666Y-140835771D01*
X59416666Y-140835771D02*
X59416666Y-141073866D01*
X59416666Y-141073866D02*
X59369047Y-141264342D01*
X59369047Y-141264342D02*
X59321428Y-141359580D01*
X59321428Y-141359580D02*
X59273809Y-141407200D01*
X59273809Y-141407200D02*
X59178571Y-141454819D01*
X59178571Y-141454819D02*
X59083333Y-141454819D01*
X59083333Y-141454819D02*
X58988095Y-141407200D01*
X58988095Y-141407200D02*
X58940476Y-141359580D01*
X58940476Y-141359580D02*
X58892857Y-141264342D01*
X58892857Y-141264342D02*
X58845238Y-141073866D01*
X58845238Y-141073866D02*
X58845238Y-140835771D01*
X58845238Y-140835771D02*
X58892857Y-140645295D01*
X58892857Y-140645295D02*
X58940476Y-140550057D01*
X58940476Y-140550057D02*
X58988095Y-140502438D01*
X58988095Y-140502438D02*
X59083333Y-140454819D01*
X77954819Y-135345238D02*
X77478628Y-135678571D01*
X77954819Y-135916666D02*
X76954819Y-135916666D01*
X76954819Y-135916666D02*
X76954819Y-135535714D01*
X76954819Y-135535714D02*
X77002438Y-135440476D01*
X77002438Y-135440476D02*
X77050057Y-135392857D01*
X77050057Y-135392857D02*
X77145295Y-135345238D01*
X77145295Y-135345238D02*
X77288152Y-135345238D01*
X77288152Y-135345238D02*
X77383390Y-135392857D01*
X77383390Y-135392857D02*
X77431009Y-135440476D01*
X77431009Y-135440476D02*
X77478628Y-135535714D01*
X77478628Y-135535714D02*
X77478628Y-135916666D01*
X76954819Y-135059523D02*
X77954819Y-134726190D01*
X77954819Y-134726190D02*
X76954819Y-134392857D01*
X76954819Y-134154761D02*
X76954819Y-133535714D01*
X76954819Y-133535714D02*
X77335771Y-133869047D01*
X77335771Y-133869047D02*
X77335771Y-133726190D01*
X77335771Y-133726190D02*
X77383390Y-133630952D01*
X77383390Y-133630952D02*
X77431009Y-133583333D01*
X77431009Y-133583333D02*
X77526247Y-133535714D01*
X77526247Y-133535714D02*
X77764342Y-133535714D01*
X77764342Y-133535714D02*
X77859580Y-133583333D01*
X77859580Y-133583333D02*
X77907200Y-133630952D01*
X77907200Y-133630952D02*
X77954819Y-133726190D01*
X77954819Y-133726190D02*
X77954819Y-134011904D01*
X77954819Y-134011904D02*
X77907200Y-134107142D01*
X77907200Y-134107142D02*
X77859580Y-134154761D01*
X89454819Y-135321428D02*
X89454819Y-135892856D01*
X89454819Y-135607142D02*
X88454819Y-135607142D01*
X88454819Y-135607142D02*
X88597676Y-135702380D01*
X88597676Y-135702380D02*
X88692914Y-135797618D01*
X88692914Y-135797618D02*
X88740533Y-135892856D01*
X88454819Y-134702380D02*
X88454819Y-134607142D01*
X88454819Y-134607142D02*
X88502438Y-134511904D01*
X88502438Y-134511904D02*
X88550057Y-134464285D01*
X88550057Y-134464285D02*
X88645295Y-134416666D01*
X88645295Y-134416666D02*
X88835771Y-134369047D01*
X88835771Y-134369047D02*
X89073866Y-134369047D01*
X89073866Y-134369047D02*
X89264342Y-134416666D01*
X89264342Y-134416666D02*
X89359580Y-134464285D01*
X89359580Y-134464285D02*
X89407200Y-134511904D01*
X89407200Y-134511904D02*
X89454819Y-134607142D01*
X89454819Y-134607142D02*
X89454819Y-134702380D01*
X89454819Y-134702380D02*
X89407200Y-134797618D01*
X89407200Y-134797618D02*
X89359580Y-134845237D01*
X89359580Y-134845237D02*
X89264342Y-134892856D01*
X89264342Y-134892856D02*
X89073866Y-134940475D01*
X89073866Y-134940475D02*
X88835771Y-134940475D01*
X88835771Y-134940475D02*
X88645295Y-134892856D01*
X88645295Y-134892856D02*
X88550057Y-134845237D01*
X88550057Y-134845237D02*
X88502438Y-134797618D01*
X88502438Y-134797618D02*
X88454819Y-134702380D01*
X88454819Y-133749999D02*
X88454819Y-133654761D01*
X88454819Y-133654761D02*
X88502438Y-133559523D01*
X88502438Y-133559523D02*
X88550057Y-133511904D01*
X88550057Y-133511904D02*
X88645295Y-133464285D01*
X88645295Y-133464285D02*
X88835771Y-133416666D01*
X88835771Y-133416666D02*
X89073866Y-133416666D01*
X89073866Y-133416666D02*
X89264342Y-133464285D01*
X89264342Y-133464285D02*
X89359580Y-133511904D01*
X89359580Y-133511904D02*
X89407200Y-133559523D01*
X89407200Y-133559523D02*
X89454819Y-133654761D01*
X89454819Y-133654761D02*
X89454819Y-133749999D01*
X89454819Y-133749999D02*
X89407200Y-133845237D01*
X89407200Y-133845237D02*
X89359580Y-133892856D01*
X89359580Y-133892856D02*
X89264342Y-133940475D01*
X89264342Y-133940475D02*
X89073866Y-133988094D01*
X89073866Y-133988094D02*
X88835771Y-133988094D01*
X88835771Y-133988094D02*
X88645295Y-133940475D01*
X88645295Y-133940475D02*
X88550057Y-133892856D01*
X88550057Y-133892856D02*
X88502438Y-133845237D01*
X88502438Y-133845237D02*
X88454819Y-133749999D01*
X89454819Y-132988094D02*
X88454819Y-132988094D01*
X89073866Y-132892856D02*
X89454819Y-132607142D01*
X88788152Y-132607142D02*
X89169104Y-132988094D01*
X77954819Y-64345238D02*
X77478628Y-64678571D01*
X77954819Y-64916666D02*
X76954819Y-64916666D01*
X76954819Y-64916666D02*
X76954819Y-64535714D01*
X76954819Y-64535714D02*
X77002438Y-64440476D01*
X77002438Y-64440476D02*
X77050057Y-64392857D01*
X77050057Y-64392857D02*
X77145295Y-64345238D01*
X77145295Y-64345238D02*
X77288152Y-64345238D01*
X77288152Y-64345238D02*
X77383390Y-64392857D01*
X77383390Y-64392857D02*
X77431009Y-64440476D01*
X77431009Y-64440476D02*
X77478628Y-64535714D01*
X77478628Y-64535714D02*
X77478628Y-64916666D01*
X76954819Y-64059523D02*
X77954819Y-63726190D01*
X77954819Y-63726190D02*
X76954819Y-63392857D01*
X77954819Y-62535714D02*
X77954819Y-63107142D01*
X77954819Y-62821428D02*
X76954819Y-62821428D01*
X76954819Y-62821428D02*
X77097676Y-62916666D01*
X77097676Y-62916666D02*
X77192914Y-63011904D01*
X77192914Y-63011904D02*
X77240533Y-63107142D01*
X89454819Y-64321428D02*
X89454819Y-64892856D01*
X89454819Y-64607142D02*
X88454819Y-64607142D01*
X88454819Y-64607142D02*
X88597676Y-64702380D01*
X88597676Y-64702380D02*
X88692914Y-64797618D01*
X88692914Y-64797618D02*
X88740533Y-64892856D01*
X88454819Y-63702380D02*
X88454819Y-63607142D01*
X88454819Y-63607142D02*
X88502438Y-63511904D01*
X88502438Y-63511904D02*
X88550057Y-63464285D01*
X88550057Y-63464285D02*
X88645295Y-63416666D01*
X88645295Y-63416666D02*
X88835771Y-63369047D01*
X88835771Y-63369047D02*
X89073866Y-63369047D01*
X89073866Y-63369047D02*
X89264342Y-63416666D01*
X89264342Y-63416666D02*
X89359580Y-63464285D01*
X89359580Y-63464285D02*
X89407200Y-63511904D01*
X89407200Y-63511904D02*
X89454819Y-63607142D01*
X89454819Y-63607142D02*
X89454819Y-63702380D01*
X89454819Y-63702380D02*
X89407200Y-63797618D01*
X89407200Y-63797618D02*
X89359580Y-63845237D01*
X89359580Y-63845237D02*
X89264342Y-63892856D01*
X89264342Y-63892856D02*
X89073866Y-63940475D01*
X89073866Y-63940475D02*
X88835771Y-63940475D01*
X88835771Y-63940475D02*
X88645295Y-63892856D01*
X88645295Y-63892856D02*
X88550057Y-63845237D01*
X88550057Y-63845237D02*
X88502438Y-63797618D01*
X88502438Y-63797618D02*
X88454819Y-63702380D01*
X88454819Y-62749999D02*
X88454819Y-62654761D01*
X88454819Y-62654761D02*
X88502438Y-62559523D01*
X88502438Y-62559523D02*
X88550057Y-62511904D01*
X88550057Y-62511904D02*
X88645295Y-62464285D01*
X88645295Y-62464285D02*
X88835771Y-62416666D01*
X88835771Y-62416666D02*
X89073866Y-62416666D01*
X89073866Y-62416666D02*
X89264342Y-62464285D01*
X89264342Y-62464285D02*
X89359580Y-62511904D01*
X89359580Y-62511904D02*
X89407200Y-62559523D01*
X89407200Y-62559523D02*
X89454819Y-62654761D01*
X89454819Y-62654761D02*
X89454819Y-62749999D01*
X89454819Y-62749999D02*
X89407200Y-62845237D01*
X89407200Y-62845237D02*
X89359580Y-62892856D01*
X89359580Y-62892856D02*
X89264342Y-62940475D01*
X89264342Y-62940475D02*
X89073866Y-62988094D01*
X89073866Y-62988094D02*
X88835771Y-62988094D01*
X88835771Y-62988094D02*
X88645295Y-62940475D01*
X88645295Y-62940475D02*
X88550057Y-62892856D01*
X88550057Y-62892856D02*
X88502438Y-62845237D01*
X88502438Y-62845237D02*
X88454819Y-62749999D01*
X89454819Y-61988094D02*
X88454819Y-61988094D01*
X89073866Y-61892856D02*
X89454819Y-61607142D01*
X88788152Y-61607142D02*
X89169104Y-61988094D01*
D11*
%TO.C,RV4*%
X78370000Y-171620000D02*
X78370000Y-166900000D01*
X78380000Y-163090000D02*
X78380000Y-160030000D01*
X79560000Y-171620000D02*
X78380000Y-171620000D01*
X82460000Y-171620000D02*
X81930000Y-171620000D01*
X84910000Y-171620000D02*
X84080000Y-171620000D01*
X88120000Y-160030000D02*
X78380000Y-160030000D01*
X88120000Y-163090000D02*
X88120000Y-160030000D01*
X88120000Y-171620000D02*
X86630000Y-171620000D01*
X88120000Y-171620000D02*
X88120000Y-166900000D01*
%TO.C,SW2*%
X54900000Y-87400000D02*
X62100000Y-87400000D01*
X62100000Y-100600000D01*
X54900000Y-100600000D01*
X54900000Y-87400000D01*
%TO.C,SW3*%
X54900000Y-122900000D02*
X62100000Y-122900000D01*
X62100000Y-136100000D01*
X54900000Y-136100000D01*
X54900000Y-122900000D01*
%TO.C,SW1*%
X54900000Y-51900000D02*
X62100000Y-51900000D01*
X62100000Y-65100000D01*
X54900000Y-65100000D01*
X54900000Y-51900000D01*
%TO.C,SW4*%
X54900000Y-158400000D02*
X62100000Y-158400000D01*
X62100000Y-171600000D01*
X54900000Y-171600000D01*
X54900000Y-158400000D01*
%TO.C,SW5*%
X85300000Y-183450000D02*
X97700000Y-183450000D01*
X97700000Y-197050000D01*
X85300000Y-197050000D01*
X85300000Y-183450000D01*
%TO.C,RV2*%
X78370000Y-100620000D02*
X78370000Y-95900000D01*
X78380000Y-92090000D02*
X78380000Y-89030000D01*
X79560000Y-100620000D02*
X78380000Y-100620000D01*
X82460000Y-100620000D02*
X81930000Y-100620000D01*
X84910000Y-100620000D02*
X84080000Y-100620000D01*
X88120000Y-89030000D02*
X78380000Y-89030000D01*
X88120000Y-92090000D02*
X88120000Y-89030000D01*
X88120000Y-100620000D02*
X86630000Y-100620000D01*
X88120000Y-100620000D02*
X88120000Y-95900000D01*
%TO.C,J0*%
X54920000Y-139670000D02*
X56250000Y-139670000D01*
X54920000Y-141000000D02*
X54920000Y-139670000D01*
X54920000Y-142270000D02*
X54920000Y-142330000D01*
X54920000Y-142270000D02*
X57580000Y-142270000D01*
X54920000Y-142330000D02*
X57580000Y-142330000D01*
X57580000Y-142270000D02*
X57580000Y-142330000D01*
%TO.C,RV3*%
X78370000Y-136120000D02*
X78370000Y-131400000D01*
X78380000Y-127590000D02*
X78380000Y-124530000D01*
X79560000Y-136120000D02*
X78380000Y-136120000D01*
X82460000Y-136120000D02*
X81930000Y-136120000D01*
X84910000Y-136120000D02*
X84080000Y-136120000D01*
X88120000Y-124530000D02*
X78380000Y-124530000D01*
X88120000Y-127590000D02*
X88120000Y-124530000D01*
X88120000Y-136120000D02*
X86630000Y-136120000D01*
X88120000Y-136120000D02*
X88120000Y-131400000D01*
%TO.C,RV1*%
X78370000Y-65120000D02*
X78370000Y-60400000D01*
X78380000Y-56590000D02*
X78380000Y-53530000D01*
X79560000Y-65120000D02*
X78380000Y-65120000D01*
X82460000Y-65120000D02*
X81930000Y-65120000D01*
X84910000Y-65120000D02*
X84080000Y-65120000D01*
X88120000Y-53530000D02*
X78380000Y-53530000D01*
X88120000Y-56590000D02*
X88120000Y-53530000D01*
X88120000Y-65120000D02*
X86630000Y-65120000D01*
X88120000Y-65120000D02*
X88120000Y-60400000D01*
%TD*%
%LPC*%
D12*
%TO.C,RV4*%
X78450000Y-165000000D03*
X88050000Y-165000000D03*
D13*
X80750000Y-172500000D03*
D14*
X83250000Y-172500000D03*
X85750000Y-172500000D03*
%TD*%
D15*
%TO.C,SW2*%
X58500000Y-98700000D03*
X58500000Y-94000000D03*
X58500000Y-89300000D03*
%TD*%
%TO.C,SW3*%
X58500000Y-134200000D03*
X58500000Y-129500000D03*
X58500000Y-124800000D03*
%TD*%
%TO.C,SW1*%
X58500000Y-63200000D03*
X58500000Y-58500000D03*
X58500000Y-53800000D03*
%TD*%
%TO.C,SW4*%
X58500000Y-169700000D03*
X58500000Y-165000000D03*
X58500000Y-160300000D03*
%TD*%
D16*
%TO.C,SW5*%
X89125000Y-194950000D03*
X89125000Y-190250000D03*
X89125000Y-185550000D03*
X93875000Y-194950000D03*
X93875000Y-190250000D03*
X93875000Y-185550000D03*
%TD*%
D12*
%TO.C,RV2*%
X78450000Y-94000000D03*
X88050000Y-94000000D03*
D13*
X80750000Y-101500000D03*
D14*
X83250000Y-101500000D03*
X85750000Y-101500000D03*
%TD*%
D17*
%TO.C,J0*%
X56250000Y-141000000D03*
%TD*%
D12*
%TO.C,RV3*%
X78450000Y-129500000D03*
X88050000Y-129500000D03*
D13*
X80750000Y-137000000D03*
D14*
X83250000Y-137000000D03*
X85750000Y-137000000D03*
%TD*%
D12*
%TO.C,RV1*%
X78450000Y-58500000D03*
X88050000Y-58500000D03*
D13*
X80750000Y-66000000D03*
D14*
X83250000Y-66000000D03*
X85750000Y-66000000D03*
%TD*%
D18*
%TO.C,D4*%
X74750000Y-138060000D03*
D19*
X74750000Y-130440000D03*
%TD*%
D20*
%TO.C,J200*%
X72752500Y-158340000D03*
D21*
X72752500Y-160880000D03*
X72752500Y-163420000D03*
X72752500Y-165960000D03*
X72752500Y-168500000D03*
X70212500Y-158340000D03*
X70212500Y-160880000D03*
X70212500Y-163420000D03*
X70212500Y-165960000D03*
X70212500Y-168500000D03*
%TD*%
D22*
%TO.C,D1*%
X77340000Y-46000000D03*
D23*
X87500000Y-46000000D03*
%TD*%
D24*
%TO.C,R7*%
X64250000Y-161190000D03*
D19*
X64250000Y-168810000D03*
%TD*%
D24*
%TO.C,C12*%
X71000000Y-120500000D03*
X68500000Y-120500000D03*
%TD*%
D25*
%TO.C,J100*%
X92960000Y-58580000D03*
D21*
X95500000Y-58580000D03*
X92960000Y-56040000D03*
X95500000Y-56040000D03*
X92960000Y-53500000D03*
X95500000Y-53500000D03*
X92960000Y-50960000D03*
X95500000Y-50960000D03*
X92960000Y-48420000D03*
X95500000Y-48420000D03*
%TD*%
D22*
%TO.C,D2*%
X95500000Y-65670000D03*
D23*
X95500000Y-75830000D03*
%TD*%
D17*
%TO.C,J50*%
X77875000Y-177500000D03*
D26*
X80415000Y-177500000D03*
X82955000Y-177500000D03*
X85495000Y-177500000D03*
X88035000Y-177500000D03*
X90575000Y-177500000D03*
X93115000Y-177500000D03*
X95655000Y-177500000D03*
%TD*%
D24*
%TO.C,R8*%
X52750000Y-161190000D03*
D19*
X52750000Y-168810000D03*
%TD*%
D24*
%TO.C,R9*%
X75000000Y-101500000D03*
D19*
X67380000Y-101500000D03*
%TD*%
D24*
%TO.C,R12*%
X75000000Y-124000000D03*
D19*
X67380000Y-124000000D03*
%TD*%
D24*
%TO.C,R13*%
X84500000Y-116560000D03*
D19*
X84500000Y-108940000D03*
%TD*%
D24*
%TO.C,R4*%
X52750000Y-90190000D03*
D19*
X52750000Y-97810000D03*
%TD*%
D24*
%TO.C,R1*%
X64250000Y-54690000D03*
D19*
X64250000Y-62310000D03*
%TD*%
D24*
%TO.C,C10*%
X61000000Y-156750000D03*
X56000000Y-156750000D03*
%TD*%
%TO.C,C8*%
X61000000Y-85750000D03*
X56000000Y-85750000D03*
%TD*%
%TO.C,R5*%
X64250000Y-125690000D03*
D19*
X64250000Y-133310000D03*
%TD*%
D24*
%TO.C,R2*%
X52750000Y-54690000D03*
D19*
X52750000Y-62310000D03*
%TD*%
D18*
%TO.C,D3*%
X69750000Y-138060000D03*
D19*
X69750000Y-130440000D03*
%TD*%
D18*
%TO.C,C1*%
X73000000Y-47250000D03*
D24*
X71000000Y-47250000D03*
%TD*%
%TO.C,R10*%
X58500000Y-108940000D03*
D19*
X58500000Y-116560000D03*
%TD*%
D24*
%TO.C,R3*%
X64250000Y-90190000D03*
D19*
X64250000Y-97810000D03*
%TD*%
D24*
%TO.C,C3*%
X77000000Y-50750000D03*
X82000000Y-50750000D03*
%TD*%
%TO.C,R11*%
X81000000Y-116560000D03*
D19*
X81000000Y-108940000D03*
%TD*%
D24*
%TO.C,C6*%
X76750000Y-115250000D03*
X76750000Y-110250000D03*
%TD*%
%TO.C,C4*%
X90750000Y-71000000D03*
X90750000Y-76000000D03*
%TD*%
%TO.C,C11*%
X68500000Y-105000000D03*
X66000000Y-105000000D03*
%TD*%
%TO.C,R6*%
X52750000Y-125690000D03*
D19*
X52750000Y-133310000D03*
%TD*%
D18*
%TO.C,U1*%
X65950000Y-108950000D03*
D19*
X68490000Y-108950000D03*
X71030000Y-108950000D03*
X73570000Y-108950000D03*
X73570000Y-116570000D03*
X71030000Y-116570000D03*
X68490000Y-116570000D03*
X65950000Y-116570000D03*
%TD*%
D17*
%TO.C,J60*%
X54380000Y-177500000D03*
D26*
X56920000Y-177500000D03*
X59460000Y-177500000D03*
X62000000Y-177500000D03*
X64540000Y-177500000D03*
X67080000Y-177500000D03*
X69620000Y-177500000D03*
X72160000Y-177500000D03*
%TD*%
D24*
%TO.C,C5*%
X62750000Y-115250000D03*
X62750000Y-110250000D03*
%TD*%
%TO.C,C9*%
X61000000Y-121250000D03*
X56000000Y-121250000D03*
%TD*%
%TO.C,C7*%
X61000000Y-50250000D03*
X56000000Y-50250000D03*
%TD*%
D18*
%TO.C,C2*%
X94000000Y-82250000D03*
D24*
X96000000Y-82250000D03*
%TD*%
%LPD*%
M02*
