M48
; DRILL file {KiCad 8.0.5} date 2024-12-03T21:36:42+0100
; FORMAT={-:-/ absolute / metric / decimal}
; #@! TF.CreationDate,2024-12-03T21:36:42+01:00
; #@! TF.GenerationSoftware,Kicad,Pcbnew,8.0.5
; #@! TF.FileFunction,Plated,1,2,PTH
FMAT,2
METRIC
; #@! TA.AperFunction,Plated,PTH,ComponentDrill
T1C0.800
; #@! TA.AperFunction,Plated,PTH,ComponentDrill
T2C1.000
; #@! TA.AperFunction,Plated,PTH,ComponentDrill
T3C1.100
; #@! TA.AperFunction,Plated,PTH,ComponentDrill
T4C1.500
; #@! TA.AperFunction,Plated,PTH,ComponentDrill
T5C1.600
%
G90
G05
T1
X52.75Y-54.69
X52.75Y-62.31
X52.75Y-90.19
X52.75Y-97.81
X52.75Y-125.69
X52.75Y-133.31
X52.75Y-161.19
X52.75Y-168.81
X56.0Y-50.25
X56.0Y-85.75
X56.0Y-121.25
X56.0Y-156.75
X58.5Y-108.94
X58.5Y-116.56
X61.0Y-50.25
X61.0Y-85.75
X61.0Y-121.25
X61.0Y-156.75
X62.75Y-110.25
X62.75Y-115.25
X64.25Y-54.69
X64.25Y-62.31
X64.25Y-90.19
X64.25Y-97.81
X64.25Y-125.69
X64.25Y-133.31
X64.25Y-161.19
X64.25Y-168.81
X65.95Y-108.95
X65.95Y-116.57
X66.0Y-105.0
X67.38Y-101.5
X67.38Y-124.0
X68.49Y-108.95
X68.49Y-116.57
X68.5Y-105.0
X68.5Y-120.5
X69.75Y-130.44
X69.75Y-138.06
X71.0Y-47.25
X71.0Y-120.5
X71.03Y-108.95
X71.03Y-116.57
X73.0Y-47.25
X73.57Y-108.95
X73.57Y-116.57
X74.75Y-130.44
X74.75Y-138.06
X75.0Y-101.5
X75.0Y-124.0
X76.75Y-110.25
X76.75Y-115.25
X77.0Y-50.75
X81.0Y-108.94
X81.0Y-116.56
X82.0Y-50.75
X84.5Y-108.94
X84.5Y-116.56
X90.75Y-71.0
X90.75Y-76.0
X94.0Y-82.25
X96.0Y-82.25
T2
X54.38Y-177.5
X56.25Y-141.0
X56.92Y-177.5
X59.46Y-177.5
X62.0Y-177.5
X64.54Y-177.5
X67.08Y-177.5
X69.62Y-177.5
X70.212Y-158.34
X70.212Y-160.88
X70.212Y-163.42
X70.212Y-165.96
X70.212Y-168.5
X72.16Y-177.5
X72.752Y-158.34
X72.752Y-160.88
X72.752Y-163.42
X72.752Y-165.96
X72.752Y-168.5
X77.875Y-177.5
X80.415Y-177.5
X80.75Y-66.0
X80.75Y-101.5
X80.75Y-137.0
X80.75Y-172.5
X82.955Y-177.5
X83.25Y-66.0
X83.25Y-101.5
X83.25Y-137.0
X83.25Y-172.5
X85.495Y-177.5
X85.75Y-66.0
X85.75Y-101.5
X85.75Y-137.0
X85.75Y-172.5
X88.035Y-177.5
X90.575Y-177.5
X92.96Y-48.42
X92.96Y-50.96
X92.96Y-53.5
X92.96Y-56.04
X92.96Y-58.58
X93.115Y-177.5
X95.5Y-48.42
X95.5Y-50.96
X95.5Y-53.5
X95.5Y-56.04
X95.5Y-58.58
X95.655Y-177.5
T3
X77.34Y-46.0
X87.5Y-46.0
X95.5Y-65.67
X95.5Y-75.83
T4
X58.5Y-53.8
X58.5Y-58.5
X58.5Y-63.2
X58.5Y-89.3
X58.5Y-94.0
X58.5Y-98.7
X58.5Y-124.8
X58.5Y-129.5
X58.5Y-134.2
X58.5Y-160.3
X58.5Y-165.0
X58.5Y-169.7
T5
X89.125Y-185.55
X89.125Y-190.25
X89.125Y-194.95
X93.875Y-185.55
X93.875Y-190.25
X93.875Y-194.95
T3
X78.45Y-58.85G85X78.45Y-58.15
G05
X78.45Y-94.35G85X78.45Y-93.65
G05
X78.45Y-129.85G85X78.45Y-129.15
G05
X78.45Y-165.35G85X78.45Y-164.65
G05
X88.05Y-58.85G85X88.05Y-58.15
G05
X88.05Y-94.35G85X88.05Y-93.65
G05
X88.05Y-129.85G85X88.05Y-129.15
G05
X88.05Y-165.35G85X88.05Y-164.65
G05
M30
